<svg version="1.1" viewBox="0.0 0.0 714.0 430.0" fill="none" stroke="none" stroke-linecap="square" stroke-miterlimit="10" width="714" height="430" xmlns:xlink="http://www.w3.org/1999/xlink" xmlns="http://www.w3.org/2000/svg"><path fill="#ffffff" d="M0 0L714.0 0L714.0 430.0L0 430.0L0 0Z" fill-rule="nonzero"/><path stroke="#333333" stroke-width="1.0" stroke-linecap="butt" d="M141.5 59.5L141.5 387.5" fill-rule="nonzero"/><path stroke="#cccccc" stroke-width="1.0" stroke-linecap="butt" d="M251.5 59.5L251.5 387.5" fill-rule="nonzero"/><path stroke="#cccccc" stroke-width="1.0" stroke-linecap="butt" d="M361.5 59.5L361.5 387.5" fill-rule="nonzero"/><path stroke="#cccccc" stroke-width="1.0" stroke-linecap="butt" d="M472.5 59.5L472.5 387.5" fill-rule="nonzero"/><path stroke="#cccccc" stroke-width="1.0" stroke-linecap="butt" d="M582.5 59.5L582.5 387.5" fill-rule="nonzero"/><path stroke="#cccccc" stroke-width="1.0" stroke-linecap="butt" d="M692.5 59.5L692.5 387.5" fill-rule="nonzero"/><clipPath id="id_0"><path d="M141.5 59.833332L692.5 59.833332L692.5 387.5L141.5 387.5L141.5 59.833332Z" clip-rule="nonzero"/></clipPath><path stroke="#000000" stroke-width="2.0" stroke-linecap="butt" stroke-opacity="0.0" clip-path="url(#id_0)" d="M141.0 99.0L141.0 73.0L162.0 73.0C163.10457 73.0 164.0 73.89543 164.0 75.0L164.0 97.0C164.0 98.10457 163.10457 99.0 162.0 99.0Z" fill-rule="nonzero"/><path fill="#4285f4" clip-path="url(#id_0)" d="M141.0 99.0L141.0 73.0L162.0 73.0C163.10457 73.0 164.0 73.89543 164.0 75.0L164.0 97.0C164.0 98.10457 163.10457 99.0 162.0 99.0Z" fill-rule="nonzero"/><path stroke="#000000" stroke-width="2.0" stroke-linecap="butt" stroke-opacity="0.0" clip-path="url(#id_0)" d="M141.0 139.0L141.0 113.0L239.0 113.0C240.10457 113.0 241.0 113.89543 241.0 115.0L241.0 137.0C241.0 138.10457 240.10457 139.0 239.0 139.0Z" fill-rule="nonzero"/><path fill="#4285f4" clip-path="url(#id_0)" d="M141.0 139.0L141.0 113.0L239.0 113.0C240.10457 113.0 241.0 113.89543 241.0 115.0L241.0 137.0C241.0 138.10457 240.10457 139.0 239.0 139.0Z" fill-rule="nonzero"/><path stroke="#000000" stroke-width="2.0" stroke-linecap="butt" stroke-opacity="0.0" clip-path="url(#id_0)" d="M141.0 178.0L141.0 152.0L162.0 152.0C163.10457 152.0 164.0 152.89543 164.0 154.0L164.0 176.0C164.0 177.10457 163.10457 178.0 162.0 178.0Z" fill-rule="nonzero"/><path fill="#4285f4" clip-path="url(#id_0)" d="M141.0 178.0L141.0 152.0L162.0 152.0C163.10457 152.0 164.0 152.89543 164.0 154.0L164.0 176.0C164.0 177.10457 163.10457 178.0 162.0 178.0Z" fill-rule="nonzero"/><path stroke="#000000" stroke-width="2.0" stroke-linecap="butt" stroke-opacity="0.0" clip-path="url(#id_0)" d="M141.0 217.0L141.0 191.0L426.0 191.0C427.10458 191.0 428.0 191.89543 428.0 193.0L428.0 215.0C428.0 216.10457 427.10458 217.0 426.0 217.0Z" fill-rule="nonzero"/><path fill="#4285f4" clip-path="url(#id_0)" d="M141.0 217.0L141.0 191.0L426.0 191.0C427.10458 191.0 428.0 191.89543 428.0 193.0L428.0 215.0C428.0 216.10457 427.10458 217.0 426.0 217.0Z" fill-rule="nonzero"/><path stroke="#000000" stroke-width="2.0" stroke-linecap="butt" stroke-opacity="0.0" clip-path="url(#id_0)" d="M141.0 256.0L141.0 230.0L624.0 230.0C625.10455 230.0 626.0 230.89543 626.0 232.0L626.0 254.0C626.0 255.10457 625.10455 256.0 624.0 256.0Z" fill-rule="nonzero"/><path fill="#4285f4" clip-path="url(#id_0)" d="M141.0 256.0L141.0 230.0L624.0 230.0C625.10455 230.0 626.0 230.89543 626.0 232.0L626.0 254.0C626.0 255.10457 625.10455 256.0 624.0 256.0Z" fill-rule="nonzero"/><path stroke="#000000" stroke-width="2.0" stroke-linecap="butt" stroke-opacity="0.0" clip-path="url(#id_0)" d="M141.0 296.0L141.0 270.0L173.0 270.0C174.10457 270.0 175.0 270.89542 175.0 272.0L175.0 294.0C175.0 295.10458 174.10457 296.0 173.0 296.0Z" fill-rule="nonzero"/><path fill="#4285f4" clip-path="url(#id_0)" d="M141.0 296.0L141.0 270.0L173.0 270.0C174.10457 270.0 175.0 270.89542 175.0 272.0L175.0 294.0C175.0 295.10458 174.10457 296.0 173.0 296.0Z" fill-rule="nonzero"/><path stroke="#000000" stroke-width="2.0" stroke-linecap="butt" stroke-opacity="0.0" clip-path="url(#id_0)" d="M141.0 335.0L141.0 309.0L316.0 309.0C317.10458 309.0 318.0 309.89542 318.0 311.0L318.0 333.0C318.0 334.10458 317.10458 335.0 316.0 335.0Z" fill-rule="nonzero"/><path fill="#4285f4" clip-path="url(#id_0)" d="M141.0 335.0L141.0 309.0L316.0 309.0C317.10458 309.0 318.0 309.89542 318.0 311.0L318.0 333.0C318.0 334.10458 317.10458 335.0 316.0 335.0Z" fill-rule="nonzero"/><path stroke="#000000" stroke-width="2.0" stroke-linecap="butt" stroke-opacity="0.0" clip-path="url(#id_0)" d="M141.0 374.0L141.0 348.0L206.0 348.0C207.10457 348.0 208.0 348.89542 208.0 350.0L208.0 372.0C208.0 373.10458 207.10457 374.0 206.0 374.0Z" fill-rule="nonzero"/><path fill="#4285f4" clip-path="url(#id_0)" d="M141.0 374.0L141.0 348.0L206.0 348.0C207.10457 348.0 208.0 348.89542 208.0 350.0L208.0 372.0C208.0 373.10458 207.10457 374.0 206.0 374.0Z" fill-rule="nonzero"/><path stroke="#4285f4" stroke-width="3.0" stroke-linejoin="round" stroke-linecap="round" d="M158.03688 90.5L152.44313 90.5L152.44313 89.71875L155.39626 86.4375Q156.0525 85.6875 156.3025 85.234375Q156.5525 84.765625 156.5525 84.265625Q156.5525 83.59375 156.14626 83.171875Q155.75563 82.734375 155.06813 82.734375Q154.27126 82.734375 153.81813 83.203125Q153.365 83.65625 153.365 84.484375L152.28688 84.484375Q152.28688 83.296875 153.03688 82.578125Q153.8025 81.84375 155.06813 81.84375Q156.27126 81.84375 156.95876 82.46875Q157.64626 83.09375 157.64626 84.140625Q157.64626 85.390625 156.03688 87.140625L153.75563 89.609375L158.03688 89.609375L158.03688 90.5Z" fill-rule="nonzero"/><path fill="#ffffff" d="M158.03688 90.5L152.44313 90.5L152.44313 89.71875L155.39626 86.4375Q156.0525 85.6875 156.3025 85.234375Q156.5525 84.765625 156.5525 84.265625Q156.5525 83.59375 156.14626 83.171875Q155.75563 82.734375 155.06813 82.734375Q154.27126 82.734375 153.81813 83.203125Q153.365 83.65625 153.365 84.484375L152.28688 84.484375Q152.28688 83.296875 153.03688 82.578125Q153.8025 81.84375 155.06813 81.84375Q156.27126 81.84375 156.95876 82.46875Q157.64626 83.09375 157.64626 84.140625Q157.64626 85.390625 156.03688 87.140625L153.75563 89.609375L158.03688 89.609375L158.03688 90.5Z" fill-rule="nonzero"/><path stroke="#4285f4" stroke-width="3.0" stroke-linejoin="round" stroke-linecap="round" d="M233.73938 126.75Q233.41125 127.15625 232.92688 127.40625Q232.45813 127.640625 231.89563 127.640625Q231.16125 127.640625 230.61438 127.28125Q230.0675 126.921875 229.77063 126.265625Q229.47375 125.59375 229.47375 124.796875Q229.47375 123.953125 229.78625 123.265625Q230.11438 122.578125 230.70813 122.21875Q231.3175 121.84375 232.11438 121.84375Q233.38 121.84375 234.09875 122.796875Q234.83313 123.75 234.83313 125.375L234.83313 125.6875Q234.83313 128.1875 233.84875 129.32812Q232.86438 130.46875 230.88 130.5L230.66125 130.5L230.66125 129.59375L230.89563 129.59375Q232.23938 129.5625 232.95813 128.89062Q233.67688 128.21875 233.73938 126.75ZM232.0675 126.75Q232.61438 126.75 233.0675 126.421875Q233.53625 126.078125 233.755 125.59375L233.755 125.15625Q233.755 124.09375 233.28625 123.421875Q232.8175 122.75 232.11438 122.75Q231.39563 122.75 230.95813 123.296875Q230.53625 123.84375 230.53625 124.75Q230.53625 125.625 230.9425 126.1875Q231.36438 126.75 232.0675 126.75Z" fill-rule="nonzero"/><path fill="#ffffff" d="M233.73938 126.75Q233.41125 127.15625 232.92688 127.40625Q232.45813 127.640625 231.89563 127.640625Q231.16125 127.640625 230.61438 127.28125Q230.0675 126.921875 229.77063 126.265625Q229.47375 125.59375 229.47375 124.796875Q229.47375 123.953125 229.78625 123.265625Q230.11438 122.578125 230.70813 122.21875Q231.3175 121.84375 232.11438 121.84375Q233.38 121.84375 234.09875 122.796875Q234.83313 123.75 234.83313 125.375L234.83313 125.6875Q234.83313 128.1875 233.84875 129.32812Q232.86438 130.46875 230.88 130.5L230.66125 130.5L230.66125 129.59375L230.89563 129.59375Q232.23938 129.5625 232.95813 128.89062Q233.67688 128.21875 233.73938 126.75ZM232.0675 126.75Q232.61438 126.75 233.0675 126.421875Q233.53625 126.078125 233.755 125.59375L233.755 125.15625Q233.755 124.09375 233.28625 123.421875Q232.8175 122.75 232.11438 122.75Q231.39563 122.75 230.95813 123.296875Q230.53625 123.84375 230.53625 124.75Q230.53625 125.625 230.9425 126.1875Q231.36438 126.75 232.0675 126.75Z" fill-rule="nonzero"/><path stroke="#4285f4" stroke-width="3.0" stroke-linejoin="round" stroke-linecap="round" d="M158.03688 169.5L152.44313 169.5L152.44313 168.71875L155.39626 165.4375Q156.0525 164.6875 156.3025 164.23438Q156.5525 163.76562 156.5525 163.26562Q156.5525 162.59375 156.14626 162.17188Q155.75563 161.73438 155.06813 161.73438Q154.27126 161.73438 153.81813 162.20312Q153.365 162.65625 153.365 163.48438L152.28688 163.48438Q152.28688 162.29688 153.03688 161.57812Q153.8025 160.84375 155.06813 160.84375Q156.27126 160.84375 156.95876 161.46875Q157.64626 162.09375 157.64626 163.14062Q157.64626 164.39062 156.03688 166.14062L153.75563 168.60938L158.03688 168.60938L158.03688 169.5Z" fill-rule="nonzero"/><path fill="#ffffff" d="M158.03688 169.5L152.44313 169.5L152.44313 168.71875L155.39626 165.4375Q156.0525 164.6875 156.3025 164.23438Q156.5525 163.76562 156.5525 163.26562Q156.5525 162.59375 156.14626 162.17188Q155.75563 161.73438 155.06813 161.73438Q154.27126 161.73438 153.81813 162.20312Q153.365 162.65625 153.365 163.48438L152.28688 163.48438Q152.28688 162.29688 153.03688 161.57812Q153.8025 160.84375 155.06813 160.84375Q156.27126 160.84375 156.95876 161.46875Q157.64626 162.09375 157.64626 163.14062Q157.64626 164.39062 156.03688 166.14062L153.75563 168.60938L158.03688 168.60938L158.03688 169.5Z" fill-rule="nonzero"/><path stroke="#4285f4" stroke-width="3.0" stroke-linejoin="round" stroke-linecap="round" d="M415.51688 208.5L409.92313 208.5L409.92313 207.71875L412.87625 204.4375Q413.5325 203.6875 413.7825 203.23438Q414.0325 202.76562 414.0325 202.26562Q414.0325 201.59375 413.62625 201.17188Q413.23563 200.73438 412.54813 200.73438Q411.75125 200.73438 411.29813 201.20312Q410.845 201.65625 410.845 202.48438L409.76688 202.48438Q409.76688 201.29688 410.51688 200.57812Q411.2825 199.84375 412.54813 199.84375Q413.75125 199.84375 414.43875 200.46875Q415.12625 201.09375 415.12625 202.14062Q415.12625 203.39062 413.51688 205.14062L411.23563 207.60938L415.51688 207.60938L415.51688 208.5ZM421.18875 199.96875L421.18875 200.875L420.98563 200.875Q419.72 200.90625 418.97 201.64062Q418.22 202.35938 418.095 203.67188Q418.7825 202.90625 419.93875 202.90625Q421.04813 202.90625 421.72 203.6875Q422.39188 204.46875 422.39188 205.71875Q422.39188 207.03125 421.67313 207.82812Q420.95438 208.625 419.73563 208.625Q418.51688 208.625 417.75125 207.6875Q417.00125 206.73438 417.00125 205.25L417.00125 204.84375Q417.00125 202.48438 418.00125 201.23438Q419.00125 199.98438 420.98563 199.96875L421.18875 199.96875ZM419.76688 203.8125Q419.20438 203.8125 418.73563 204.14062Q418.26688 204.46875 418.07938 204.98438L418.07938 205.375Q418.07938 206.4375 418.54813 207.07812Q419.0325 207.71875 419.73563 207.71875Q420.47 207.71875 420.89188 207.1875Q421.31375 206.64062 421.31375 205.76562Q421.31375 204.89062 420.89188 204.35938Q420.47 203.8125 419.76688 203.8125Z" fill-rule="nonzero"/><path fill="#ffffff" d="M415.51688 208.5L409.92313 208.5L409.92313 207.71875L412.87625 204.4375Q413.5325 203.6875 413.7825 203.23438Q414.0325 202.76562 414.0325 202.26562Q414.0325 201.59375 413.62625 201.17188Q413.23563 200.73438 412.54813 200.73438Q411.75125 200.73438 411.29813 201.20312Q410.845 201.65625 410.845 202.48438L409.76688 202.48438Q409.76688 201.29688 410.51688 200.57812Q411.2825 199.84375 412.54813 199.84375Q413.75125 199.84375 414.43875 200.46875Q415.12625 201.09375 415.12625 202.14062Q415.12625 203.39062 413.51688 205.14062L411.23563 207.60938L415.51688 207.60938L415.51688 208.5ZM421.18875 199.96875L421.18875 200.875L420.98563 200.875Q419.72 200.90625 418.97 201.64062Q418.22 202.35938 418.095 203.67188Q418.7825 202.90625 419.93875 202.90625Q421.04813 202.90625 421.72 203.6875Q422.39188 204.46875 422.39188 205.71875Q422.39188 207.03125 421.67313 207.82812Q420.95438 208.625 419.73563 208.625Q418.51688 208.625 417.75125 207.6875Q417.00125 206.73438 417.00125 205.25L417.00125 204.84375Q417.00125 202.48438 418.00125 201.23438Q419.00125 199.98438 420.98563 199.96875L421.18875 199.96875ZM419.76688 203.8125Q419.20438 203.8125 418.73563 204.14062Q418.26688 204.46875 418.07938 204.98438L418.07938 205.375Q418.07938 206.4375 418.54813 207.07812Q419.0325 207.71875 419.73563 207.71875Q420.47 207.71875 420.89188 207.1875Q421.31375 206.64062 421.31375 205.76562Q421.31375 204.89062 420.89188 204.35938Q420.47 203.8125 419.76688 203.8125Z" fill-rule="nonzero"/><path stroke="#4285f4" stroke-width="3.0" stroke-linejoin="round" stroke-linecap="round" d="M612.86127 244.64062L614.04877 244.64062L614.04877 245.51562L612.86127 245.51562L612.86127 247.5L611.78314 247.5L611.78314 245.51562L607.8925 245.51562L607.8925 244.875L611.705 238.96875L612.86127 238.96875L612.86127 244.64062ZM609.1269 244.64062L611.78314 244.64062L611.78314 240.45312L611.6425 240.6875L609.1269 244.64062ZM619.86127 244.64062L621.04877 244.64062L621.04877 245.51562L619.86127 245.51562L619.86127 247.5L618.78314 247.5L618.78314 245.51562L614.8925 245.51562L614.8925 244.875L618.705 238.96875L619.86127 238.96875L619.86127 244.64062ZM616.1269 244.64062L618.78314 244.64062L618.78314 240.45312L618.6425 240.6875L616.1269 244.64062Z" fill-rule="nonzero"/><path fill="#ffffff" d="M612.86127 244.64062L614.04877 244.64062L614.04877 245.51562L612.86127 245.51562L612.86127 247.5L611.78314 247.5L611.78314 245.51562L607.8925 245.51562L607.8925 244.875L611.705 238.96875L612.86127 238.96875L612.86127 244.64062ZM609.1269 244.64062L611.78314 244.64062L611.78314 240.45312L611.6425 240.6875L609.1269 244.64062ZM619.86127 244.64062L621.04877 244.64062L621.04877 245.51562L619.86127 245.51562L619.86127 247.5L618.78314 247.5L618.78314 245.51562L614.8925 245.51562L614.8925 244.875L618.705 238.96875L619.86127 238.96875L619.86127 244.64062ZM616.1269 244.64062L618.78314 244.64062L618.78314 240.45312L618.6425 240.6875L616.1269 244.64062Z" fill-rule="nonzero"/><path stroke="#4285f4" stroke-width="3.0" stroke-linejoin="round" stroke-linecap="round" d="M165.04124 282.70312L165.85374 282.70312Q166.635 282.6875 167.0725 282.29688Q167.51 281.90625 167.51 281.23438Q167.51 279.73438 166.01 279.73438Q165.30687 279.73438 164.885 280.14062Q164.47874 280.54688 164.47874 281.20312L163.385 281.20312Q163.385 280.1875 164.11937 279.51562Q164.86937 278.84375 166.01 278.84375Q167.21312 278.84375 167.90062 279.48438Q168.58812 280.125 168.58812 281.26562Q168.58812 281.82812 168.22874 282.34375Q167.86937 282.85938 167.24437 283.125Q167.9475 283.34375 168.3225 283.85938Q168.71312 284.375 168.71312 285.125Q168.71312 286.26562 167.96312 286.95312Q167.21312 287.625 166.01 287.625Q164.8225 287.625 164.05687 286.96875Q163.30687 286.3125 163.30687 285.25L164.40062 285.25Q164.40062 285.92188 164.83812 286.32812Q165.27562 286.73438 166.02562 286.73438Q166.80687 286.73438 167.21312 286.32812Q167.635 285.90625 167.635 285.14062Q167.635 284.40625 167.18187 284.01562Q166.72874 283.60938 165.85374 283.59375L165.04124 283.59375L165.04124 282.70312Z" fill-rule="nonzero"/><path fill="#ffffff" d="M165.04124 282.70312L165.85374 282.70312Q166.635 282.6875 167.0725 282.29688Q167.51 281.90625 167.51 281.23438Q167.51 279.73438 166.01 279.73438Q165.30687 279.73438 164.885 280.14062Q164.47874 280.54688 164.47874 281.20312L163.385 281.20312Q163.385 280.1875 164.11937 279.51562Q164.86937 278.84375 166.01 278.84375Q167.21312 278.84375 167.90062 279.48438Q168.58812 280.125 168.58812 281.26562Q168.58812 281.82812 168.22874 282.34375Q167.86937 282.85938 167.24437 283.125Q167.9475 283.34375 168.3225 283.85938Q168.71312 284.375 168.71312 285.125Q168.71312 286.26562 167.96312 286.95312Q167.21312 287.625 166.01 287.625Q164.8225 287.625 164.05687 286.96875Q163.30687 286.3125 163.30687 285.25L164.40062 285.25Q164.40062 285.92188 164.83812 286.32812Q165.27562 286.73438 166.02562 286.73438Q166.80687 286.73438 167.21312 286.32812Q167.635 285.90625 167.635 285.14062Q167.635 284.40625 167.18187 284.01562Q166.72874 283.60938 165.85374 283.59375L165.04124 283.59375L165.04124 282.70312Z" fill-rule="nonzero"/><path stroke="#4285f4" stroke-width="3.0" stroke-linejoin="round" stroke-linecap="round" d="M303.2856 326.5L302.2075 326.5L302.2075 319.28125L300.02 320.07812L300.02 319.09375L303.12936 317.92188L303.2856 317.92188L303.2856 326.5ZM310.98874 317.96875L310.98874 318.875L310.7856 318.875Q309.52 318.90625 308.77 319.64062Q308.02 320.35938 307.895 321.67188Q308.5825 320.90625 309.73874 320.90625Q310.8481 320.90625 311.52 321.6875Q312.19186 322.46875 312.19186 323.71875Q312.19186 325.03125 311.4731 325.82812Q310.75436 326.625 309.5356 326.625Q308.31686 326.625 307.55124 325.6875Q306.80124 324.73438 306.80124 323.25L306.80124 322.84375Q306.80124 320.48438 307.80124 319.23438Q308.80124 317.98438 310.7856 317.96875L310.98874 317.96875ZM309.56686 321.8125Q309.00436 321.8125 308.5356 322.14062Q308.06686 322.46875 307.87936 322.98438L307.87936 323.375Q307.87936 324.4375 308.3481 325.07812Q308.8325 325.71875 309.5356 325.71875Q310.27 325.71875 310.69186 325.1875Q311.11374 324.64062 311.11374 323.76562Q311.11374 322.89062 310.69186 322.35938Q310.27 321.8125 309.56686 321.8125Z" fill-rule="nonzero"/><path fill="#ffffff" d="M303.2856 326.5L302.2075 326.5L302.2075 319.28125L300.02 320.07812L300.02 319.09375L303.12936 317.92188L303.2856 317.92188L303.2856 326.5ZM310.98874 317.96875L310.98874 318.875L310.7856 318.875Q309.52 318.90625 308.77 319.64062Q308.02 320.35938 307.895 321.67188Q308.5825 320.90625 309.73874 320.90625Q310.8481 320.90625 311.52 321.6875Q312.19186 322.46875 312.19186 323.71875Q312.19186 325.03125 311.4731 325.82812Q310.75436 326.625 309.5356 326.625Q308.31686 326.625 307.55124 325.6875Q306.80124 324.73438 306.80124 323.25L306.80124 322.84375Q306.80124 320.48438 307.80124 319.23438Q308.80124 317.98438 310.7856 317.96875L310.98874 317.96875ZM309.56686 321.8125Q309.00436 321.8125 308.5356 322.14062Q308.06686 322.46875 307.87936 322.98438L307.87936 323.375Q307.87936 324.4375 308.3481 325.07812Q308.8325 325.71875 309.5356 325.71875Q310.27 325.71875 310.69186 325.1875Q311.11374 324.64062 311.11374 323.76562Q311.11374 322.89062 310.69186 322.35938Q310.27 321.8125 309.56686 321.8125Z" fill-rule="nonzero"/><path stroke="#4285f4" stroke-width="3.0" stroke-linejoin="round" stroke-linecap="round" d="M200.78876 356.96875L200.78876 357.875L200.58563 357.875Q199.32 357.90625 198.57 358.64062Q197.82 359.35938 197.695 360.67188Q198.3825 359.90625 199.53876 359.90625Q200.64813 359.90625 201.32 360.6875Q201.99188 361.46875 201.99188 362.71875Q201.99188 364.03125 201.27313 364.82812Q200.55438 365.625 199.33563 365.625Q198.11688 365.625 197.35126 364.6875Q196.60126 363.73438 196.60126 362.25L196.60126 361.84375Q196.60126 359.48438 197.60126 358.23438Q198.60126 356.98438 200.58563 356.96875L200.78876 356.96875ZM199.36688 360.8125Q198.80438 360.8125 198.33563 361.14062Q197.86688 361.46875 197.67938 361.98438L197.67938 362.375Q197.67938 363.4375 198.14813 364.07812Q198.6325 364.71875 199.33563 364.71875Q200.07 364.71875 200.49188 364.1875Q200.91376 363.64062 200.91376 362.76562Q200.91376 361.89062 200.49188 361.35938Q200.07 360.8125 199.36688 360.8125Z" fill-rule="nonzero"/><path fill="#ffffff" d="M200.78876 356.96875L200.78876 357.875L200.58563 357.875Q199.32 357.90625 198.57 358.64062Q197.82 359.35938 197.695 360.67188Q198.3825 359.90625 199.53876 359.90625Q200.64813 359.90625 201.32 360.6875Q201.99188 361.46875 201.99188 362.71875Q201.99188 364.03125 201.27313 364.82812Q200.55438 365.625 199.33563 365.625Q198.11688 365.625 197.35126 364.6875Q196.60126 363.73438 196.60126 362.25L196.60126 361.84375Q196.60126 359.48438 197.60126 358.23438Q198.60126 356.98438 200.58563 356.96875L200.78876 356.96875ZM199.36688 360.8125Q198.80438 360.8125 198.33563 361.14062Q197.86688 361.46875 197.67938 361.98438L197.67938 362.375Q197.67938 363.4375 198.14813 364.07812Q198.6325 364.71875 199.33563 364.71875Q200.07 364.71875 200.49188 364.1875Q200.91376 363.64062 200.91376 362.76562Q200.91376 361.89062 200.49188 361.35938Q200.07 360.8125 199.36688 360.8125Z" fill-rule="nonzero"/><path fill="#000000" d="M97.203125 88.58698L93.625 88.58698L92.828125 90.82136L91.671875 90.82136L94.921875 82.29011L95.90625 82.29011L99.171875 90.82136L98.015625 90.82136L97.203125 88.58698ZM93.96875 87.66511L96.875 87.66511L95.421875 83.68073L93.96875 87.66511ZM103.390625 85.44636Q103.140625 85.41511 102.859375 85.41511Q101.78125 85.41511 101.40625 86.32136L101.40625 90.82136L100.328125 90.82136L100.328125 84.47761L101.375 84.47761L101.390625 85.21198Q101.921875 84.36823 102.90625 84.36823Q103.21875 84.36823 103.390625 84.44636L103.390625 85.44636ZM104.0625 87.60261Q104.0625 86.13386 104.75 85.25886Q105.4375 84.36823 106.5625 84.36823Q107.671875 84.36823 108.328125 85.11823L108.328125 81.82136L109.40625 81.82136L109.40625 90.82136L108.40625 90.82136L108.359375 90.13386Q107.703125 90.94636 106.546875 90.94636Q105.453125 90.94636 104.75 90.04011Q104.0625 89.13386 104.0625 87.68073L104.0625 87.60261ZM105.140625 87.72761Q105.140625 88.80573 105.578125 89.41511Q106.03125 90.02448 106.8125 90.02448Q107.84375 90.02448 108.328125 89.08698L108.328125 86.18073Q107.84375 85.29011 106.828125 85.29011Q106.03125 85.29011 105.578125 85.89948Q105.140625 86.50886 105.140625 87.72761ZM113.953125 90.94636Q112.65625 90.94636 111.84375 90.10261Q111.046875 89.24323 111.046875 87.82136L111.046875 87.63386Q111.046875 86.68073 111.40625 85.94636Q111.765625 85.19636 112.40625 84.79011Q113.0625 84.36823 113.8125 84.36823Q115.046875 84.36823 115.734375 85.18073Q116.421875 85.99323 116.421875 87.50886L116.421875 87.96198L112.125 87.96198Q112.15625 88.89948 112.671875 89.47761Q113.203125 90.05573 114.015625 90.05573Q114.578125 90.05573 114.96875 89.82136Q115.375 89.58698 115.6875 89.19636L116.34375 89.71198Q115.546875 90.94636 113.953125 90.94636ZM113.8125 85.25886Q113.15625 85.25886 112.703125 85.74323Q112.265625 86.21198 112.171875 87.07136L115.34375 87.07136L115.34375 86.99323Q115.296875 86.16511 114.890625 85.71198Q114.5 85.25886 113.8125 85.25886ZM114.28125 83.54011L113.34375 83.54011L111.828125 81.82136L113.140625 81.82136L114.28125 83.54011ZM119.859375 90.05573Q120.4375 90.05573 120.875 89.71198Q121.3125 89.35261 121.359375 88.82136L122.390625 88.82136Q122.359375 89.36823 122.0 89.86823Q121.65625 90.35261 121.078125 90.64948Q120.515625 90.94636 119.859375 90.94636Q118.5625 90.94636 117.796875 90.08698Q117.046875 89.21198 117.046875 87.71198L117.046875 87.52448Q117.046875 86.60261 117.375 85.88386Q117.71875 85.16511 118.34375 84.77448Q118.984375 84.36823 119.859375 84.36823Q120.921875 84.36823 121.625 85.00886Q122.34375 85.63386 122.390625 86.66511L121.359375 86.66511Q121.3125 86.04011 120.890625 85.64948Q120.46875 85.25886 119.859375 85.25886Q119.03125 85.25886 118.578125 85.85261Q118.125 86.44636 118.125 87.57136L118.125 87.77448Q118.125 88.86823 118.578125 89.46198Q119.03125 90.05573 119.859375 90.05573ZM124.40625 85.24323Q125.125 84.36823 126.28125 84.36823Q128.29688 84.36823 128.3125 86.63386L128.3125 90.82136L127.21875 90.82136L127.21875 86.61823Q127.21875 85.94636 126.90625 85.61823Q126.609375 85.29011 125.953125 85.29011Q125.421875 85.29011 125.015625 85.57136Q124.625 85.85261 124.40625 86.30573L124.40625 90.82136L123.328125 90.82136L123.328125 81.82136L124.40625 81.82136L124.40625 85.24323ZM132.95312 90.94636Q131.65625 90.94636 130.84375 90.10261Q130.04688 89.24323 130.04688 87.82136L130.04688 87.63386Q130.04688 86.68073 130.40625 85.94636Q130.76562 85.19636 131.40625 84.79011Q132.0625 84.36823 132.8125 84.36823Q134.04688 84.36823 134.73438 85.18073Q135.42188 85.99323 135.42188 87.50886L135.42188 87.96198L131.125 87.96198Q131.15625 88.89948 131.67188 89.47761Q132.20312 90.05573 133.01562 90.05573Q133.57812 90.05573 133.96875 89.82136Q134.375 89.58698 134.6875 89.19636L135.34375 89.71198Q134.54688 90.94636 132.95312 90.94636ZM132.8125 85.25886Q132.15625 85.25886 131.70312 85.74323Q131.26562 86.21198 131.17188 87.07136L134.34375 87.07136L134.34375 86.99323Q134.29688 86.16511 133.89062 85.71198Q133.5 85.25886 132.8125 85.25886Z" fill-rule="nonzero"/><path fill="#000000" d="M107.203125 127.82851L103.625 127.82851L102.828125 130.06288L101.671875 130.06288L104.921875 121.53163L105.90625 121.53163L109.171875 130.06288L108.015625 130.06288L107.203125 127.82851ZM103.96875 126.90663L106.875 126.90663L105.421875 122.92226L103.96875 126.90663ZM113.390625 124.68788Q113.140625 124.65663 112.859375 124.65663Q111.78125 124.65663 111.40625 125.56288L111.40625 130.06288L110.328125 130.06288L110.328125 123.71913L111.375 123.71913L111.390625 124.45351Q111.921875 123.60976 112.90625 123.60976Q113.21875 123.60976 113.390625 123.68788L113.390625 124.68788ZM115.5 130.06288L114.421875 130.06288L114.421875 123.71913L115.5 123.71913L115.5 130.06288ZM114.328125 122.04726Q114.328125 121.78163 114.484375 121.59413Q114.65625 121.40663 114.96875 121.40663Q115.28125 121.40663 115.4375 121.59413Q115.609375 121.78163 115.609375 122.04726Q115.609375 122.29726 115.4375 122.48476Q115.28125 122.65663 114.96875 122.65663Q114.65625 122.65663 114.484375 122.48476Q114.328125 122.29726 114.328125 122.04726ZM119.953125 130.18788Q118.65625 130.18788 117.84375 129.34413Q117.046875 128.48476 117.046875 127.06288L117.046875 126.87538Q117.046875 125.92226 117.40625 125.18788Q117.765625 124.43788 118.40625 124.03163Q119.0625 123.60976 119.8125 123.60976Q121.046875 123.60976 121.734375 124.42226Q122.421875 125.23476 122.421875 126.75038L122.421875 127.20351L118.125 127.20351Q118.15625 128.141 118.671875 128.71913Q119.203125 129.29726 120.015625 129.29726Q120.578125 129.29726 120.96875 129.06288Q121.375 128.8285 121.6875 128.43788L122.34375 128.9535Q121.546875 130.18788 119.953125 130.18788ZM119.8125 124.50038Q119.15625 124.50038 118.703125 124.98476Q118.265625 125.45351 118.171875 126.31288L121.34375 126.31288L121.34375 126.23476Q121.296875 125.40663 120.890625 124.95351Q120.5 124.50038 119.8125 124.50038ZM120.28125 122.78163L119.34375 122.78163L117.828125 121.06288L119.140625 121.06288L120.28125 122.78163ZM123.0625 126.84413Q123.0625 125.35976 123.75 124.48476Q124.4375 123.60976 125.5625 123.60976Q126.71875 123.60976 127.375 124.42226L127.421875 123.71913L128.42188 123.71913L128.42188 129.90663Q128.42188 131.141 127.6875 131.84413Q126.953125 132.56288 125.734375 132.56288Q125.046875 132.56288 124.390625 132.266Q123.734375 131.96913 123.390625 131.46913L123.953125 130.81288Q124.640625 131.67226 125.65625 131.67226Q126.4375 131.67226 126.875 131.21913Q127.328125 130.78163 127.328125 129.96913L127.328125 129.42226Q126.671875 130.18788 125.546875 130.18788Q124.4375 130.18788 123.75 129.29726Q123.0625 128.391 123.0625 126.84413ZM124.15625 126.96913Q124.15625 128.03163 124.59375 128.65663Q125.03125 129.266 125.828125 129.266Q126.84375 129.266 127.328125 128.3285L127.328125 125.43788Q126.828125 124.53163 125.828125 124.53163Q125.046875 124.53163 124.59375 125.14101Q124.15625 125.75038 124.15625 126.96913ZM132.95312 130.18788Q131.65625 130.18788 130.84375 129.34413Q130.04688 128.48476 130.04688 127.06288L130.04688 126.87538Q130.04688 125.92226 130.40625 125.18788Q130.76562 124.43788 131.40625 124.03163Q132.0625 123.60976 132.8125 123.60976Q134.04688 123.60976 134.73438 124.42226Q135.42188 125.23476 135.42188 126.75038L135.42188 127.20351L131.125 127.20351Q131.15625 128.141 131.67188 128.71913Q132.20312 129.29726 133.01562 129.29726Q133.57812 129.29726 133.96875 129.06288Q134.375 128.8285 134.6875 128.43788L135.34375 128.9535Q134.54688 130.18788 132.95312 130.18788ZM132.8125 124.50038Q132.15625 124.50038 131.70312 124.98476Q131.26562 125.45351 131.17188 126.31288L134.34375 126.31288L134.34375 126.23476Q134.29688 125.40663 133.89062 124.95351Q133.5 124.50038 132.8125 124.50038Z" fill-rule="nonzero"/><path fill="#000000" d="M97.203125 167.07002L93.625 167.07002L92.828125 169.3044L91.671875 169.3044L94.921875 160.77315L95.90625 160.77315L99.171875 169.3044L98.015625 169.3044L97.203125 167.07002ZM93.96875 166.14815L96.875 166.14815L95.421875 162.16377L93.96875 166.14815ZM102.40625 167.83565L103.984375 162.96065L105.09375 162.96065L102.8125 169.3044L101.984375 169.3044L99.6875 162.96065L100.796875 162.96065L102.40625 167.83565ZM108.953125 169.4294Q107.65625 169.4294 106.84375 168.58565Q106.046875 167.72627 106.046875 166.3044L106.046875 166.1169Q106.046875 165.16377 106.40625 164.4294Q106.765625 163.6794 107.40625 163.27315Q108.0625 162.85127 108.8125 162.85127Q110.046875 162.85127 110.734375 163.66377Q111.421875 164.47627 111.421875 165.9919L111.421875 166.44502L107.125 166.44502Q107.15625 167.38252 107.671875 167.96065Q108.203125 168.53877 109.015625 168.53877Q109.578125 168.53877 109.96875 168.3044Q110.375 168.07002 110.6875 167.6794L111.34375 168.19502Q110.546875 169.4294 108.953125 169.4294ZM108.8125 163.7419Q108.15625 163.7419 107.703125 164.22627Q107.265625 164.69502 107.171875 165.5544L110.34375 165.5544L110.34375 165.47627Q110.296875 164.64815 109.890625 164.19502Q109.5 163.7419 108.8125 163.7419ZM114.390625 167.71065L115.875 162.96065L117.03125 162.96065L114.484375 170.28877Q113.890625 171.8669 112.609375 171.8669L112.390625 171.85127L112.0 171.77315L112.0 170.89815L112.28125 170.91377Q112.84375 170.91377 113.140625 170.69502Q113.453125 170.47627 113.65625 169.88252L113.890625 169.22627L111.625 162.96065L112.8125 162.96065L114.390625 167.71065ZM121.390625 163.9294Q121.140625 163.89815 120.859375 163.89815Q119.78125 163.89815 119.40625 164.8044L119.40625 169.3044L118.328125 169.3044L118.328125 162.96065L119.375 162.96065L119.390625 163.69502Q119.921875 162.85127 120.90625 162.85127Q121.21875 162.85127 121.390625 162.9294L121.390625 163.9294ZM122.03125 166.07002Q122.03125 165.14815 122.390625 164.39815Q122.765625 163.64815 123.421875 163.25752Q124.078125 162.85127 124.90625 162.85127Q126.203125 162.85127 127.0 163.7419Q127.8125 164.63252 127.8125 166.13252L127.8125 166.21065Q127.8125 167.13252 127.453125 167.8669Q127.09375 168.60127 126.4375 169.02315Q125.78125 169.4294 124.921875 169.4294Q123.640625 169.4294 122.828125 168.53877Q122.03125 167.63252 122.03125 166.14815L122.03125 166.07002ZM123.125 166.21065Q123.125 167.25752 123.609375 167.89815Q124.109375 168.53877 124.921875 168.53877Q125.75 168.53877 126.234375 167.89815Q126.71875 167.2419 126.71875 166.07002Q126.71875 165.03877 126.21875 164.39815Q125.734375 163.7419 124.90625 163.7419Q124.109375 163.7419 123.609375 164.38252Q123.125 165.00752 123.125 166.21065ZM130.34375 162.96065L130.375 163.75752Q131.10938 162.85127 132.28125 162.85127Q134.29688 162.85127 134.3125 165.1169L134.3125 169.3044L133.21875 169.3044L133.21875 165.10127Q133.21875 164.4294 132.90625 164.10127Q132.60938 163.77315 131.95312 163.77315Q131.42188 163.77315 131.01562 164.0544Q130.625 164.33565 130.40625 164.78877L130.40625 169.3044L129.32812 169.3044L129.32812 162.96065L130.34375 162.96065Z" fill-rule="nonzero"/><path fill="#000000" d="M71.046875 208.54591L69.921875 208.54591L69.921875 204.60841L65.609375 204.60841L65.609375 208.54591L64.484375 208.54591L64.484375 200.01466L65.609375 200.01466L65.609375 203.68654L69.921875 203.68654L69.921875 200.01466L71.046875 200.01466L71.046875 208.54591ZM77.234375 208.54591Q77.140625 208.35841 77.078125 207.87404Q76.328125 208.67091 75.28125 208.67091Q74.34375 208.67091 73.734375 208.13966Q73.140625 207.60841 73.140625 206.78029Q73.140625 205.79591 73.890625 205.24904Q74.640625 204.70216 76.015625 204.70216L77.0625 204.70216L77.0625 204.20216Q77.0625 203.63966 76.71875 203.31154Q76.390625 202.96779 75.71875 202.96779Q75.140625 202.96779 74.75 203.26466Q74.359375 203.54591 74.359375 203.96779L73.265625 203.96779Q73.265625 203.48341 73.59375 203.04591Q73.9375 202.60841 74.515625 202.35841Q75.09375 202.09279 75.78125 202.09279Q76.890625 202.09279 77.5 202.63966Q78.125 203.18654 78.15625 204.13966L78.15625 207.06154Q78.15625 207.93654 78.375 208.45216L78.375 208.54591L77.234375 208.54591ZM75.4375 207.71779Q75.953125 207.71779 76.40625 207.45216Q76.859375 207.18654 77.0625 206.76466L77.0625 205.46779L76.21875 205.46779Q74.21875 205.46779 74.21875 206.63966Q74.21875 207.13966 74.5625 207.43654Q74.90625 207.71779 75.4375 207.71779ZM84.234375 207.92091Q83.609375 208.67091 82.375 208.67091Q81.359375 208.67091 80.828125 208.07716Q80.296875 207.48341 80.296875 206.32716L80.296875 202.20216L81.375 202.20216L81.375 206.29591Q81.375 207.74904 82.546875 207.74904Q83.796875 207.74904 84.203125 206.81154L84.203125 202.20216L85.296875 202.20216L85.296875 208.54591L84.265625 208.54591L84.234375 207.92091ZM88.796875 200.67091L88.796875 202.20216L89.96875 202.20216L89.96875 203.04591L88.796875 203.04591L88.796875 206.96779Q88.796875 207.35841 88.953125 207.54591Q89.109375 207.73341 89.484375 207.73341Q89.671875 207.73341 90.0 207.67091L90.0 208.54591Q89.578125 208.67091 89.171875 208.67091Q88.453125 208.67091 88.078125 208.23341Q87.703125 207.78029 87.703125 206.96779L87.703125 203.04591L86.546875 203.04591L86.546875 202.20216L87.703125 202.20216L87.703125 200.67091L88.796875 200.67091ZM93.953125 208.67091Q92.65625 208.67091 91.84375 207.82716Q91.046875 206.96779 91.046875 205.54591L91.046875 205.35841Q91.046875 204.40529 91.40625 203.67091Q91.765625 202.92091 92.40625 202.51466Q93.0625 202.09279 93.8125 202.09279Q95.046875 202.09279 95.734375 202.90529Q96.421875 203.71779 96.421875 205.23341L96.421875 205.68654L92.125 205.68654Q92.15625 206.62404 92.671875 207.20216Q93.203125 207.78029 94.015625 207.78029Q94.578125 207.78029 94.96875 207.54591Q95.375 207.31154 95.6875 206.92091L96.34375 207.43654Q95.546875 208.67091 93.953125 208.67091ZM93.8125 202.98341Q93.15625 202.98341 92.703125 203.46779Q92.265625 203.93654 92.171875 204.79591L95.34375 204.79591L95.34375 204.71779Q95.296875 203.88966 94.890625 203.43654Q94.5 202.98341 93.8125 202.98341ZM101.015625 206.85841Q101.015625 206.42091 100.671875 206.18654Q100.34375 205.93654 99.515625 205.76466Q98.703125 205.59279 98.21875 205.34279Q97.734375 205.09279 97.5 204.76466Q97.28125 204.42091 97.28125 203.95216Q97.28125 203.17091 97.9375 202.63966Q98.59375 202.09279 99.625 202.09279Q100.703125 202.09279 101.359375 202.65529Q102.03125 203.20216 102.03125 204.06154L100.953125 204.06154Q100.953125 203.62404 100.5625 203.31154Q100.1875 202.98341 99.625 202.98341Q99.03125 202.98341 98.6875 203.24904Q98.359375 203.49904 98.359375 203.90529Q98.359375 204.29591 98.671875 204.49904Q98.984375 204.70216 99.796875 204.88966Q100.609375 205.06154 101.109375 205.31154Q101.609375 205.56154 101.84375 205.92091Q102.09375 206.28029 102.09375 206.78029Q102.09375 207.63966 101.40625 208.15529Q100.734375 208.67091 99.65625 208.67091Q98.890625 208.67091 98.296875 208.40529Q97.71875 208.12404 97.390625 207.63966Q97.0625 207.15529 97.0625 206.59279L98.140625 206.59279Q98.171875 207.13966 98.578125 207.46779Q98.984375 207.78029 99.65625 207.78029Q100.265625 207.78029 100.640625 207.53029Q101.015625 207.28029 101.015625 206.85841ZM111.203125 206.31154L107.625 206.31154L106.828125 208.54591L105.671875 208.54591L108.921875 200.01466L109.90625 200.01466L113.171875 208.54591L112.015625 208.54591L111.203125 206.31154ZM107.96875 205.38966L110.875 205.38966L109.421875 201.40529L107.96875 205.38966ZM115.5 208.54591L114.421875 208.54591L114.421875 199.54591L115.5 199.54591L115.5 208.54591ZM122.671875 205.45216Q122.671875 206.88966 122.015625 207.78029Q121.359375 208.67091 120.21875 208.67091Q119.0625 208.67091 118.40625 207.93654L118.40625 210.98341L117.328125 210.98341L117.328125 202.20216L118.3125 202.20216L118.359375 202.90529Q119.03125 202.09279 120.203125 202.09279Q121.34375 202.09279 122.0 202.95216Q122.671875 203.81154 122.671875 205.34279L122.671875 205.45216ZM121.59375 205.32716Q121.59375 204.24904 121.125 203.63966Q120.671875 203.01466 119.875 203.01466Q118.890625 203.01466 118.40625 203.87404L118.40625 206.90529Q118.890625 207.78029 119.890625 207.78029Q120.671875 207.78029 121.125 207.17091Q121.59375 206.54591 121.59375 205.32716ZM126.953125 208.67091Q125.65625 208.67091 124.84375 207.82716Q124.046875 206.96779 124.046875 205.54591L124.046875 205.35841Q124.046875 204.40529 124.40625 203.67091Q124.765625 202.92091 125.40625 202.51466Q126.0625 202.09279 126.8125 202.09279Q128.04688 202.09279 128.73438 202.90529Q129.42188 203.71779 129.42188 205.23341L129.42188 205.68654L125.125 205.68654Q125.15625 206.62404 125.671875 207.20216Q126.203125 207.78029 127.015625 207.78029Q127.578125 207.78029 127.96875 207.54591Q128.375 207.31154 128.6875 206.92091L129.34375 207.43654Q128.54688 208.67091 126.953125 208.67091ZM126.8125 202.98341Q126.15625 202.98341 125.703125 203.46779Q125.265625 203.93654 125.171875 204.79591L128.34375 204.79591L128.34375 204.71779Q128.29688 203.88966 127.890625 203.43654Q127.5 202.98341 126.8125 202.98341ZM134.01562 206.85841Q134.01562 206.42091 133.67188 206.18654Q133.34375 205.93654 132.51562 205.76466Q131.70312 205.59279 131.21875 205.34279Q130.73438 205.09279 130.5 204.76466Q130.28125 204.42091 130.28125 203.95216Q130.28125 203.17091 130.9375 202.63966Q131.59375 202.09279 132.625 202.09279Q133.70312 202.09279 134.35938 202.65529Q135.03125 203.20216 135.03125 204.06154L133.95312 204.06154Q133.95312 203.62404 133.5625 203.31154Q133.1875 202.98341 132.625 202.98341Q132.03125 202.98341 131.6875 203.24904Q131.35938 203.49904 131.35938 203.90529Q131.35938 204.29591 131.67188 204.49904Q131.98438 204.70216 132.79688 204.88966Q133.60938 205.06154 134.10938 205.31154Q134.60938 205.56154 134.84375 205.92091Q135.09375 206.28029 135.09375 206.78029Q135.09375 207.63966 134.40625 208.15529Q133.73438 208.67091 132.65625 208.67091Q131.89062 208.67091 131.29688 208.40529Q130.71875 208.12404 130.39062 207.63966Q130.0625 207.15529 130.0625 206.59279L131.14062 206.59279Q131.17188 207.13966 131.57812 207.46779Q131.98438 207.78029 132.65625 207.78029Q133.26562 207.78029 133.64062 207.53029Q134.01562 207.28029 134.01562 206.85841Z" fill-rule="nonzero"/><path fill="#000000" d="M120.625 246.86555L124.671875 246.86555L124.671875 247.78743L119.484375 247.78743L119.484375 239.25618L120.625 239.25618L120.625 246.86555ZM125.03125 244.55305Q125.03125 243.63118 125.390625 242.88118Q125.765625 242.13118 126.421875 241.74055Q127.078125 241.3343 127.90625 241.3343Q129.20312 241.3343 130.0 242.22493Q130.8125 243.11555 130.8125 244.61555L130.8125 244.69368Q130.8125 245.61555 130.45312 246.34993Q130.09375 247.0843 129.4375 247.50618Q128.78125 247.91243 127.921875 247.91243Q126.640625 247.91243 125.828125 247.0218Q125.03125 246.11555 125.03125 244.63118L125.03125 244.55305ZM126.125 244.69368Q126.125 245.74055 126.609375 246.38118Q127.109375 247.0218 127.921875 247.0218Q128.75 247.0218 129.23438 246.38118Q129.71875 245.72493 129.71875 244.55305Q129.71875 243.5218 129.21875 242.88118Q128.73438 242.22493 127.90625 242.22493Q127.109375 242.22493 126.609375 242.86555Q126.125 243.49055 126.125 244.69368ZM133.79688 239.91243L133.79688 241.44368L134.96875 241.44368L134.96875 242.28743L133.79688 242.28743L133.79688 246.2093Q133.79688 246.59993 133.95312 246.78743Q134.10938 246.97493 134.48438 246.97493Q134.67188 246.97493 135.0 246.91243L135.0 247.78743Q134.57812 247.91243 134.17188 247.91243Q133.45312 247.91243 133.07812 247.47493Q132.70312 247.0218 132.70312 246.2093L132.70312 242.28743L131.54688 242.28743L131.54688 241.44368L132.70312 241.44368L132.70312 239.91243L133.79688 239.91243Z" fill-rule="nonzero"/><path fill="#000000" d="M23.609375 283.68518L23.609375 287.02893L22.484375 287.02893L22.484375 278.49768L25.640625 278.49768Q27.03125 278.49768 27.828125 279.21643Q28.625 279.91956 28.625 281.10706Q28.625 282.34143 27.84375 283.0133Q27.078125 283.68518 25.625 283.68518L23.609375 283.68518ZM23.609375 282.7633L25.640625 282.7633Q26.546875 282.7633 27.015625 282.34143Q27.5 281.91956 27.5 281.12268Q27.5 280.35706 27.015625 279.90393Q26.546875 279.43518 25.703125 279.41956L23.609375 279.41956L23.609375 282.7633ZM32.390625 285.43518L33.875 280.68518L35.03125 280.68518L32.484375 288.0133Q31.890625 289.59143 30.609375 289.59143L30.390625 289.5758L30.0 289.49768L30.0 288.62268L30.28125 288.6383Q30.84375 288.6383 31.140625 288.41956Q31.453125 288.2008 31.65625 287.60706L31.890625 286.9508L29.625 280.68518L30.8125 280.68518L32.390625 285.43518ZM39.390625 281.65393Q39.140625 281.62268 38.859375 281.62268Q37.78125 281.62268 37.40625 282.52893L37.40625 287.02893L36.328125 287.02893L36.328125 280.68518L37.375 280.68518L37.390625 281.41956Q37.921875 280.5758 38.90625 280.5758Q39.21875 280.5758 39.390625 280.65393L39.390625 281.65393ZM42.953125 287.15393Q41.65625 287.15393 40.84375 286.31018Q40.046875 285.4508 40.046875 284.02893L40.046875 283.84143Q40.046875 282.8883 40.40625 282.15393Q40.765625 281.40393 41.40625 280.99768Q42.0625 280.5758 42.8125 280.5758Q44.046875 280.5758 44.734375 281.3883Q45.421875 282.2008 45.421875 283.71643L45.421875 284.16956L41.125 284.16956Q41.15625 285.10706 41.671875 285.68518Q42.203125 286.2633 43.015625 286.2633Q43.578125 286.2633 43.96875 286.02893Q44.375 285.79456 44.6875 285.40393L45.34375 285.91956Q44.546875 287.15393 42.953125 287.15393ZM42.8125 281.46643Q42.15625 281.46643 41.703125 281.9508Q41.265625 282.41956 41.171875 283.27893L44.34375 283.27893L44.34375 283.2008Q44.296875 282.37268 43.890625 281.91956Q43.5 281.46643 42.8125 281.46643ZM43.359375 278.02893L44.671875 278.02893L43.09375 279.74768L42.21875 279.74768L43.359375 278.02893ZM47.34375 280.68518L47.375 281.48206Q48.109375 280.5758 49.28125 280.5758Q51.296875 280.5758 51.3125 282.84143L51.3125 287.02893L50.21875 287.02893L50.21875 282.8258Q50.21875 282.15393 49.90625 281.8258Q49.609375 281.49768 48.953125 281.49768Q48.421875 281.49768 48.015625 281.77893Q47.625 282.06018 47.40625 282.5133L47.40625 287.02893L46.328125 287.02893L46.328125 280.68518L47.34375 280.68518ZM55.953125 287.15393Q54.65625 287.15393 53.84375 286.31018Q53.046875 285.4508 53.046875 284.02893L53.046875 283.84143Q53.046875 282.8883 53.40625 282.15393Q53.765625 281.40393 54.40625 280.99768Q55.0625 280.5758 55.8125 280.5758Q57.046875 280.5758 57.734375 281.3883Q58.421875 282.2008 58.421875 283.71643L58.421875 284.16956L54.125 284.16956Q54.15625 285.10706 54.671875 285.68518Q55.203125 286.2633 56.015625 286.2633Q56.578125 286.2633 56.96875 286.02893Q57.375 285.79456 57.6875 285.40393L58.34375 285.91956Q57.546875 287.15393 55.953125 287.15393ZM55.8125 281.46643Q55.15625 281.46643 54.703125 281.9508Q54.265625 282.41956 54.171875 283.27893L57.34375 283.27893L57.34375 283.2008Q57.296875 282.37268 56.890625 281.91956Q56.5 281.46643 55.8125 281.46643ZM56.359375 278.02893L57.671875 278.02893L56.09375 279.74768L55.21875 279.74768L56.359375 278.02893ZM61.953125 287.15393Q60.65625 287.15393 59.84375 286.31018Q59.046875 285.4508 59.046875 284.02893L59.046875 283.84143Q59.046875 282.8883 59.40625 282.15393Q59.765625 281.40393 60.40625 280.99768Q61.0625 280.5758 61.8125 280.5758Q63.046875 280.5758 63.734375 281.3883Q64.421875 282.2008 64.421875 283.71643L64.421875 284.16956L60.125 284.16956Q60.15625 285.10706 60.671875 285.68518Q61.203125 286.2633 62.015625 286.2633Q62.578125 286.2633 62.96875 286.02893Q63.375 285.79456 63.6875 285.40393L64.34375 285.91956Q63.546875 287.15393 61.953125 287.15393ZM61.8125 281.46643Q61.15625 281.46643 60.703125 281.9508Q60.265625 282.41956 60.171875 283.27893L63.34375 283.27893L63.34375 283.2008Q63.296875 282.37268 62.890625 281.91956Q62.5 281.46643 61.8125 281.46643ZM69.015625 285.34143Q69.015625 284.90393 68.671875 284.66956Q68.34375 284.41956 67.515625 284.24768Q66.703125 284.0758 66.21875 283.8258Q65.734375 283.5758 65.5 283.24768Q65.28125 282.90393 65.28125 282.43518Q65.28125 281.65393 65.9375 281.12268Q66.59375 280.5758 67.625 280.5758Q68.703125 280.5758 69.359375 281.1383Q70.03125 281.68518 70.03125 282.54456L68.953125 282.54456Q68.953125 282.10706 68.5625 281.79456Q68.1875 281.46643 67.625 281.46643Q67.03125 281.46643 66.6875 281.73206Q66.359375 281.98206 66.359375 282.3883Q66.359375 282.77893 66.671875 282.98206Q66.984375 283.18518 67.796875 283.37268Q68.609375 283.54456 69.109375 283.79456Q69.609375 284.04456 69.84375 284.40393Q70.09375 284.7633 70.09375 285.2633Q70.09375 286.12268 69.40625 286.6383Q68.734375 287.15393 67.65625 287.15393Q66.890625 287.15393 66.296875 286.8883Q65.71875 286.60706 65.390625 286.12268Q65.0625 285.6383 65.0625 285.0758L66.140625 285.0758Q66.171875 285.62268 66.578125 285.9508Q66.984375 286.2633 67.65625 286.2633Q68.265625 286.2633 68.640625 286.0133Q69.015625 285.7633 69.015625 285.34143ZM79.203125 284.79456L75.625 284.79456L74.828125 287.02893L73.671875 287.02893L76.921875 278.49768L77.90625 278.49768L81.171875 287.02893L80.015625 287.02893L79.203125 284.79456ZM75.96875 283.87268L78.875 283.87268L77.421875 279.8883L75.96875 283.87268ZM83.796875 279.15393L83.796875 280.68518L84.96875 280.68518L84.96875 281.52893L83.796875 281.52893L83.796875 285.4508Q83.796875 285.84143 83.953125 286.02893Q84.109375 286.21643 84.484375 286.21643Q84.671875 286.21643 85.0 286.15393L85.0 287.02893Q84.578125 287.15393 84.171875 287.15393Q83.453125 287.15393 83.078125 286.71643Q82.703125 286.2633 82.703125 285.4508L82.703125 281.52893L81.546875 281.52893L81.546875 280.68518L82.703125 280.68518L82.703125 279.15393L83.796875 279.15393ZM87.5 287.02893L86.421875 287.02893L86.421875 278.02893L87.5 278.02893L87.5 287.02893ZM93.234375 287.02893Q93.140625 286.84143 93.078125 286.35706Q92.328125 287.15393 91.28125 287.15393Q90.34375 287.15393 89.734375 286.62268Q89.140625 286.09143 89.140625 285.2633Q89.140625 284.27893 89.890625 283.73206Q90.640625 283.18518 92.015625 283.18518L93.0625 283.18518L93.0625 282.68518Q93.0625 282.12268 92.71875 281.79456Q92.390625 281.4508 91.71875 281.4508Q91.140625 281.4508 90.75 281.74768Q90.359375 282.02893 90.359375 282.4508L89.265625 282.4508Q89.265625 281.96643 89.59375 281.52893Q89.9375 281.09143 90.515625 280.84143Q91.09375 280.5758 91.78125 280.5758Q92.890625 280.5758 93.5 281.12268Q94.125 281.66956 94.15625 282.62268L94.15625 285.54456Q94.15625 286.41956 94.375 286.93518L94.375 287.02893L93.234375 287.02893ZM91.4375 286.2008Q91.953125 286.2008 92.40625 285.93518Q92.859375 285.66956 93.0625 285.24768L93.0625 283.9508L92.21875 283.9508Q90.21875 283.9508 90.21875 285.12268Q90.21875 285.62268 90.5625 285.91956Q90.90625 286.2008 91.4375 286.2008ZM97.34375 280.68518L97.375 281.48206Q98.109375 280.5758 99.28125 280.5758Q101.296875 280.5758 101.3125 282.84143L101.3125 287.02893L100.21875 287.02893L100.21875 282.8258Q100.21875 282.15393 99.90625 281.8258Q99.609375 281.49768 98.953125 281.49768Q98.421875 281.49768 98.015625 281.77893Q97.625 282.06018 97.40625 282.5133L97.40625 287.02893L96.328125 287.02893L96.328125 280.68518L97.34375 280.68518ZM104.796875 279.15393L104.796875 280.68518L105.96875 280.68518L105.96875 281.52893L104.796875 281.52893L104.796875 285.4508Q104.796875 285.84143 104.953125 286.02893Q105.109375 286.21643 105.484375 286.21643Q105.671875 286.21643 106.0 286.15393L106.0 287.02893Q105.578125 287.15393 105.171875 287.15393Q104.453125 287.15393 104.078125 286.71643Q103.703125 286.2633 103.703125 285.4508L103.703125 281.52893L102.546875 281.52893L102.546875 280.68518L103.703125 280.68518L103.703125 279.15393L104.796875 279.15393ZM108.5 287.02893L107.421875 287.02893L107.421875 280.68518L108.5 280.68518L108.5 287.02893ZM107.328125 279.0133Q107.328125 278.74768 107.484375 278.56018Q107.65625 278.37268 107.96875 278.37268Q108.28125 278.37268 108.4375 278.56018Q108.609375 278.74768 108.609375 279.0133Q108.609375 279.2633 108.4375 279.4508Q108.28125 279.62268 107.96875 279.62268Q107.65625 279.62268 107.484375 279.4508Q107.328125 279.2633 107.328125 279.0133ZM110.0625 283.81018Q110.0625 282.31018 110.734375 281.4508Q111.421875 280.5758 112.578125 280.5758Q113.703125 280.5758 114.359375 281.3258L114.40625 280.68518L115.40625 280.68518L115.40625 289.46643L114.3125 289.46643L114.3125 286.43518Q113.65625 287.15393 112.578125 287.15393Q111.421875 287.15393 110.734375 286.2633Q110.0625 285.35706 110.0625 283.8883L110.0625 283.81018ZM111.140625 283.93518Q111.140625 285.0133 111.59375 285.6383Q112.0625 286.2633 112.84375 286.2633Q113.8125 286.2633 114.3125 285.40393L114.3125 282.29456Q113.796875 281.46643 112.859375 281.46643Q112.0625 281.46643 111.59375 282.09143Q111.140625 282.71643 111.140625 283.93518ZM121.234375 286.40393Q120.609375 287.15393 119.375 287.15393Q118.359375 287.15393 117.828125 286.56018Q117.296875 285.96643 117.296875 284.81018L117.296875 280.68518L118.375 280.68518L118.375 284.77893Q118.375 286.23206 119.546875 286.23206Q120.796875 286.23206 121.203125 285.29456L121.203125 280.68518L122.296875 280.68518L122.296875 287.02893L121.265625 287.02893L121.234375 286.40393ZM126.953125 287.15393Q125.65625 287.15393 124.84375 286.31018Q124.046875 285.4508 124.046875 284.02893L124.046875 283.84143Q124.046875 282.8883 124.40625 282.15393Q124.765625 281.40393 125.40625 280.99768Q126.0625 280.5758 126.8125 280.5758Q128.04688 280.5758 128.73438 281.3883Q129.42188 282.2008 129.42188 283.71643L129.42188 284.16956L125.125 284.16956Q125.15625 285.10706 125.671875 285.68518Q126.203125 286.2633 127.015625 286.2633Q127.578125 286.2633 127.96875 286.02893Q128.375 285.79456 128.6875 285.40393L129.34375 285.91956Q128.54688 287.15393 126.953125 287.15393ZM126.8125 281.46643Q126.15625 281.46643 125.703125 281.9508Q125.265625 282.41956 125.171875 283.27893L128.34375 283.27893L128.34375 283.2008Q128.29688 282.37268 127.890625 281.91956Q127.5 281.46643 126.8125 281.46643ZM134.01562 285.34143Q134.01562 284.90393 133.67188 284.66956Q133.34375 284.41956 132.51562 284.24768Q131.70312 284.0758 131.21875 283.8258Q130.73438 283.5758 130.5 283.24768Q130.28125 282.90393 130.28125 282.43518Q130.28125 281.65393 130.9375 281.12268Q131.59375 280.5758 132.625 280.5758Q133.70312 280.5758 134.35938 281.1383Q135.03125 281.68518 135.03125 282.54456L133.95312 282.54456Q133.95312 282.10706 133.5625 281.79456Q133.1875 281.46643 132.625 281.46643Q132.03125 281.46643 131.6875 281.73206Q131.35938 281.98206 131.35938 282.3883Q131.35938 282.77893 131.67188 282.98206Q131.98438 283.18518 132.79688 283.37268Q133.60938 283.54456 134.10938 283.79456Q134.60938 284.04456 134.84375 284.40393Q135.09375 284.7633 135.09375 285.2633Q135.09375 286.12268 134.40625 286.6383Q133.73438 287.15393 132.65625 287.15393Q131.89062 287.15393 131.29688 286.8883Q130.71875 286.60706 130.39062 286.12268Q130.0625 285.6383 130.0625 285.0758L131.14062 285.0758Q131.17188 285.62268 131.57812 285.9508Q131.98438 286.2633 132.65625 286.2633Q133.26562 286.2633 133.64062 286.0133Q134.01562 285.7633 134.01562 285.34143Z" fill-rule="nonzero"/><path fill="#000000" d="M31.609375 322.9267L31.609375 326.27045L30.484375 326.27045L30.484375 317.7392L33.640625 317.7392Q35.03125 317.7392 35.828125 318.45795Q36.625 319.16107 36.625 320.34857Q36.625 321.58295 35.84375 322.25482Q35.078125 322.9267 33.625 322.9267L31.609375 322.9267ZM31.609375 322.00482L33.640625 322.00482Q34.546875 322.00482 35.015625 321.58295Q35.5 321.16107 35.5 320.3642Q35.5 319.59857 35.015625 319.14545Q34.546875 318.6767 33.703125 318.66107L31.609375 318.66107L31.609375 322.00482ZM40.390625 324.6767L41.875 319.9267L43.03125 319.9267L40.484375 327.25482Q39.890625 328.83295 38.609375 328.83295L38.390625 328.81732L38.0 328.7392L38.0 327.8642L38.28125 327.87982Q38.84375 327.87982 39.140625 327.66107Q39.453125 327.44232 39.65625 326.84857L39.890625 326.19232L37.625 319.9267L38.8125 319.9267L40.390625 324.6767ZM47.390625 320.89545Q47.140625 320.8642 46.859375 320.8642Q45.78125 320.8642 45.40625 321.77045L45.40625 326.27045L44.328125 326.27045L44.328125 319.9267L45.375 319.9267L45.390625 320.66107Q45.921875 319.81732 46.90625 319.81732Q47.21875 319.81732 47.390625 319.89545L47.390625 320.89545ZM50.953125 326.39545Q49.65625 326.39545 48.84375 325.5517Q48.046875 324.69232 48.046875 323.27045L48.046875 323.08295Q48.046875 322.12982 48.40625 321.39545Q48.765625 320.64545 49.40625 320.2392Q50.0625 319.81732 50.8125 319.81732Q52.046875 319.81732 52.734375 320.62982Q53.421875 321.44232 53.421875 322.95795L53.421875 323.41107L49.125 323.41107Q49.15625 324.34857 49.671875 324.9267Q50.203125 325.50482 51.015625 325.50482Q51.578125 325.50482 51.96875 325.27045Q52.375 325.03607 52.6875 324.64545L53.34375 325.16107Q52.546875 326.39545 50.953125 326.39545ZM50.8125 320.70795Q50.15625 320.70795 49.703125 321.19232Q49.265625 321.66107 49.171875 322.52045L52.34375 322.52045L52.34375 322.44232Q52.296875 321.6142 51.890625 321.16107Q51.5 320.70795 50.8125 320.70795ZM51.359375 317.27045L52.671875 317.27045L51.09375 318.9892L50.21875 318.9892L51.359375 317.27045ZM55.34375 319.9267L55.375 320.72357Q56.109375 319.81732 57.28125 319.81732Q59.296875 319.81732 59.3125 322.08295L59.3125 326.27045L58.21875 326.27045L58.21875 322.06732Q58.21875 321.39545 57.90625 321.06732Q57.609375 320.7392 56.953125 320.7392Q56.421875 320.7392 56.015625 321.02045Q55.625 321.3017 55.40625 321.75482L55.40625 326.27045L54.328125 326.27045L54.328125 319.9267L55.34375 319.9267ZM63.953125 326.39545Q62.65625 326.39545 61.84375 325.5517Q61.046875 324.69232 61.046875 323.27045L61.046875 323.08295Q61.046875 322.12982 61.40625 321.39545Q61.765625 320.64545 62.40625 320.2392Q63.0625 319.81732 63.8125 319.81732Q65.046875 319.81732 65.734375 320.62982Q66.421875 321.44232 66.421875 322.95795L66.421875 323.41107L62.125 323.41107Q62.15625 324.34857 62.671875 324.9267Q63.203125 325.50482 64.015625 325.50482Q64.578125 325.50482 64.96875 325.27045Q65.375 325.03607 65.6875 324.64545L66.34375 325.16107Q65.546875 326.39545 63.953125 326.39545ZM63.8125 320.70795Q63.15625 320.70795 62.703125 321.19232Q62.265625 321.66107 62.171875 322.52045L65.34375 322.52045L65.34375 322.44232Q65.296875 321.6142 64.890625 321.16107Q64.5 320.70795 63.8125 320.70795ZM64.359375 317.27045L65.671875 317.27045L64.09375 318.9892L63.21875 318.9892L64.359375 317.27045ZM69.953125 326.39545Q68.65625 326.39545 67.84375 325.5517Q67.046875 324.69232 67.046875 323.27045L67.046875 323.08295Q67.046875 322.12982 67.40625 321.39545Q67.765625 320.64545 68.40625 320.2392Q69.0625 319.81732 69.8125 319.81732Q71.046875 319.81732 71.734375 320.62982Q72.421875 321.44232 72.421875 322.95795L72.421875 323.41107L68.125 323.41107Q68.15625 324.34857 68.671875 324.9267Q69.203125 325.50482 70.015625 325.50482Q70.578125 325.50482 70.96875 325.27045Q71.375 325.03607 71.6875 324.64545L72.34375 325.16107Q71.546875 326.39545 69.953125 326.39545ZM69.8125 320.70795Q69.15625 320.70795 68.703125 321.19232Q68.265625 321.66107 68.171875 322.52045L71.34375 322.52045L71.34375 322.44232Q71.296875 321.6142 70.890625 321.16107Q70.5 320.70795 69.8125 320.70795ZM77.015625 324.58295Q77.015625 324.14545 76.671875 323.91107Q76.34375 323.66107 75.515625 323.4892Q74.703125 323.31732 74.21875 323.06732Q73.734375 322.81732 73.5 322.4892Q73.28125 322.14545 73.28125 321.6767Q73.28125 320.89545 73.9375 320.3642Q74.59375 319.81732 75.625 319.81732Q76.703125 319.81732 77.359375 320.37982Q78.03125 320.9267 78.03125 321.78607L76.953125 321.78607Q76.953125 321.34857 76.5625 321.03607Q76.1875 320.70795 75.625 320.70795Q75.03125 320.70795 74.6875 320.97357Q74.359375 321.22357 74.359375 321.62982Q74.359375 322.02045 74.671875 322.22357Q74.984375 322.4267 75.796875 322.6142Q76.609375 322.78607 77.109375 323.03607Q77.609375 323.28607 77.84375 323.64545Q78.09375 324.00482 78.09375 324.50482Q78.09375 325.3642 77.40625 325.87982Q76.734375 326.39545 75.65625 326.39545Q74.890625 326.39545 74.296875 326.12982Q73.71875 325.84857 73.390625 325.3642Q73.0625 324.87982 73.0625 324.31732L74.140625 324.31732Q74.171875 324.8642 74.578125 325.19232Q74.984375 325.50482 75.65625 325.50482Q76.265625 325.50482 76.640625 325.25482Q77.015625 325.00482 77.015625 324.58295ZM89.046875 322.28607Q89.046875 323.53607 88.625 324.47357Q88.203125 325.39545 87.421875 325.89545Q86.65625 326.39545 85.625 326.39545Q84.625 326.39545 83.84375 325.89545Q83.0625 325.39545 82.625 324.4892Q82.203125 323.56732 82.1875 322.34857L82.1875 321.7392Q82.1875 320.50482 82.609375 319.56732Q83.046875 318.62982 83.828125 318.12982Q84.609375 317.6142 85.625 317.6142Q86.640625 317.6142 87.421875 318.1142Q88.203125 318.6142 88.625 319.5517Q89.046875 320.4892 89.046875 321.7392L89.046875 322.28607ZM87.9375 321.72357Q87.9375 320.20795 87.328125 319.39545Q86.71875 318.58295 85.625 318.58295Q84.546875 318.58295 83.9375 319.39545Q83.328125 320.20795 83.3125 321.64545L83.3125 322.28607Q83.3125 323.75482 83.921875 324.59857Q84.546875 325.4267 85.625 325.4267Q86.71875 325.4267 87.3125 324.64545Q87.921875 323.84857 87.9375 322.3642L87.9375 321.72357ZM93.390625 320.89545Q93.140625 320.8642 92.859375 320.8642Q91.78125 320.8642 91.40625 321.77045L91.40625 326.27045L90.328125 326.27045L90.328125 319.9267L91.375 319.9267L91.390625 320.66107Q91.921875 319.81732 92.90625 319.81732Q93.21875 319.81732 93.390625 319.89545L93.390625 320.89545ZM95.5 326.27045L94.421875 326.27045L94.421875 319.9267L95.5 319.9267L95.5 326.27045ZM94.328125 318.25482Q94.328125 317.9892 94.484375 317.8017Q94.65625 317.6142 94.96875 317.6142Q95.28125 317.6142 95.4375 317.8017Q95.609375 317.9892 95.609375 318.25482Q95.609375 318.50482 95.4375 318.69232Q95.28125 318.8642 94.96875 318.8642Q94.65625 318.8642 94.484375 318.69232Q94.328125 318.50482 94.328125 318.25482ZM99.953125 326.39545Q98.65625 326.39545 97.84375 325.5517Q97.046875 324.69232 97.046875 323.27045L97.046875 323.08295Q97.046875 322.12982 97.40625 321.39545Q97.765625 320.64545 98.40625 320.2392Q99.0625 319.81732 99.8125 319.81732Q101.046875 319.81732 101.734375 320.62982Q102.421875 321.44232 102.421875 322.95795L102.421875 323.41107L98.125 323.41107Q98.15625 324.34857 98.671875 324.9267Q99.203125 325.50482 100.015625 325.50482Q100.578125 325.50482 100.96875 325.27045Q101.375 325.03607 101.6875 324.64545L102.34375 325.16107Q101.546875 326.39545 99.953125 326.39545ZM99.8125 320.70795Q99.15625 320.70795 98.703125 321.19232Q98.265625 321.66107 98.171875 322.52045L101.34375 322.52045L101.34375 322.44232Q101.296875 321.6142 100.890625 321.16107Q100.5 320.70795 99.8125 320.70795ZM104.34375 319.9267L104.375 320.72357Q105.109375 319.81732 106.28125 319.81732Q108.296875 319.81732 108.3125 322.08295L108.3125 326.27045L107.21875 326.27045L107.21875 322.06732Q107.21875 321.39545 106.90625 321.06732Q106.609375 320.7392 105.953125 320.7392Q105.421875 320.7392 105.015625 321.02045Q104.625 321.3017 104.40625 321.75482L104.40625 326.27045L103.328125 326.27045L103.328125 319.9267L104.34375 319.9267ZM111.796875 318.39545L111.796875 319.9267L112.96875 319.9267L112.96875 320.77045L111.796875 320.77045L111.796875 324.69232Q111.796875 325.08295 111.953125 325.27045Q112.109375 325.45795 112.484375 325.45795Q112.671875 325.45795 113.0 325.39545L113.0 326.27045Q112.578125 326.39545 112.171875 326.39545Q111.453125 326.39545 111.078125 325.95795Q110.703125 325.50482 110.703125 324.69232L110.703125 320.77045L109.546875 320.77045L109.546875 319.9267L110.703125 319.9267L110.703125 318.39545L111.796875 318.39545ZM118.234375 326.27045Q118.140625 326.08295 118.078125 325.59857Q117.328125 326.39545 116.28125 326.39545Q115.34375 326.39545 114.734375 325.8642Q114.140625 325.33295 114.140625 324.50482Q114.140625 323.52045 114.890625 322.97357Q115.640625 322.4267 117.015625 322.4267L118.0625 322.4267L118.0625 321.9267Q118.0625 321.3642 117.71875 321.03607Q117.390625 320.69232 116.71875 320.69232Q116.140625 320.69232 115.75 320.9892Q115.359375 321.27045 115.359375 321.69232L114.265625 321.69232Q114.265625 321.20795 114.59375 320.77045Q114.9375 320.33295 115.515625 320.08295Q116.09375 319.81732 116.78125 319.81732Q117.890625 319.81732 118.5 320.3642Q119.125 320.91107 119.15625 321.8642L119.15625 324.78607Q119.15625 325.66107 119.375 326.1767L119.375 326.27045L118.234375 326.27045ZM116.4375 325.44232Q116.953125 325.44232 117.40625 325.1767Q117.859375 324.91107 118.0625 324.4892L118.0625 323.19232L117.21875 323.19232Q115.21875 323.19232 115.21875 324.3642Q115.21875 324.8642 115.5625 325.16107Q115.90625 325.44232 116.4375 325.44232ZM122.5 326.27045L121.421875 326.27045L121.421875 317.27045L122.5 317.27045L122.5 326.27045ZM126.953125 326.39545Q125.65625 326.39545 124.84375 325.5517Q124.046875 324.69232 124.046875 323.27045L124.046875 323.08295Q124.046875 322.12982 124.40625 321.39545Q124.765625 320.64545 125.40625 320.2392Q126.0625 319.81732 126.8125 319.81732Q128.04688 319.81732 128.73438 320.62982Q129.42188 321.44232 129.42188 322.95795L129.42188 323.41107L125.125 323.41107Q125.15625 324.34857 125.671875 324.9267Q126.203125 325.50482 127.015625 325.50482Q127.578125 325.50482 127.96875 325.27045Q128.375 325.03607 128.6875 324.64545L129.34375 325.16107Q128.54688 326.39545 126.953125 326.39545ZM126.8125 320.70795Q126.15625 320.70795 125.703125 321.19232Q125.265625 321.66107 125.171875 322.52045L128.34375 322.52045L128.34375 322.44232Q128.29688 321.6142 127.890625 321.16107Q127.5 320.70795 126.8125 320.70795ZM134.01562 324.58295Q134.01562 324.14545 133.67188 323.91107Q133.34375 323.66107 132.51562 323.4892Q131.70312 323.31732 131.21875 323.06732Q130.73438 322.81732 130.5 322.4892Q130.28125 322.14545 130.28125 321.6767Q130.28125 320.89545 130.9375 320.3642Q131.59375 319.81732 132.625 319.81732Q133.70312 319.81732 134.35938 320.37982Q135.03125 320.9267 135.03125 321.78607L133.95312 321.78607Q133.95312 321.34857 133.5625 321.03607Q133.1875 320.70795 132.625 320.70795Q132.03125 320.70795 131.6875 320.97357Q131.35938 321.22357 131.35938 321.62982Q131.35938 322.02045 131.67188 322.22357Q131.98438 322.4267 132.79688 322.6142Q133.60938 322.78607 134.10938 323.03607Q134.60938 323.28607 134.84375 323.64545Q135.09375 324.00482 135.09375 324.50482Q135.09375 325.3642 134.40625 325.87982Q133.73438 326.39545 132.65625 326.39545Q131.89062 326.39545 131.29688 326.12982Q130.71875 325.84857 130.39062 325.3642Q130.0625 324.87982 130.0625 324.31732L131.14062 324.31732Q131.17188 324.8642 131.57812 325.19232Q131.98438 325.50482 132.65625 325.50482Q133.26562 325.50482 133.64062 325.25482Q134.01562 325.00482 134.01562 324.58295Z" fill-rule="nonzero"/><path fill="#000000" d="M117.390625 357.9026L114.640625 357.9026L114.640625 365.51196L113.53125 365.51196L113.53125 357.9026L110.78125 357.9026L110.78125 356.9807L117.390625 356.9807L117.390625 357.9026ZM122.234375 365.51196Q122.140625 365.32446 122.078125 364.8401Q121.328125 365.63696 120.28125 365.63696Q119.34375 365.63696 118.734375 365.1057Q118.140625 364.57446 118.140625 363.74634Q118.140625 362.76196 118.890625 362.2151Q119.640625 361.6682 121.015625 361.6682L122.0625 361.6682L122.0625 361.1682Q122.0625 360.6057 121.71875 360.2776Q121.390625 359.93384 120.71875 359.93384Q120.140625 359.93384 119.75 360.2307Q119.359375 360.51196 119.359375 360.93384L118.265625 360.93384Q118.265625 360.44946 118.59375 360.01196Q118.9375 359.57446 119.515625 359.32446Q120.09375 359.05884 120.78125 359.05884Q121.890625 359.05884 122.5 359.6057Q123.125 360.1526 123.15625 361.1057L123.15625 364.0276Q123.15625 364.9026 123.375 365.4182L123.375 365.51196L122.234375 365.51196ZM120.4375 364.68384Q120.953125 364.68384 121.40625 364.4182Q121.859375 364.1526 122.0625 363.7307L122.0625 362.43384L121.21875 362.43384Q119.21875 362.43384 119.21875 363.6057Q119.21875 364.1057 119.5625 364.4026Q119.90625 364.68384 120.4375 364.68384ZM128.39062 360.13696Q128.14062 360.1057 127.859375 360.1057Q126.78125 360.1057 126.40625 361.01196L126.40625 365.51196L125.328125 365.51196L125.328125 359.1682L126.375 359.1682L126.390625 359.9026Q126.921875 359.05884 127.90625 359.05884Q128.21875 359.05884 128.39062 359.13696L128.39062 360.13696ZM130.34375 359.1682L130.375 359.9651Q131.10938 359.05884 132.28125 359.05884Q134.29688 359.05884 134.3125 361.32446L134.3125 365.51196L133.21875 365.51196L133.21875 361.30884Q133.21875 360.63696 132.90625 360.30884Q132.60938 359.9807 131.95312 359.9807Q131.42188 359.9807 131.01562 360.26196Q130.625 360.5432 130.40625 360.99634L130.40625 365.51196L129.32812 365.51196L129.32812 359.1682L130.34375 359.1682Z" fill-rule="nonzero"/><path fill="#000000" d="M144.0625 401.85938Q144.0625 403.76562 143.40625 404.70312Q142.76562 405.625 141.375 405.625Q140.01562 405.625 139.35938 404.71875Q138.70312 403.8125 138.67188 402.0L138.67188 400.5625Q138.67188 398.67188 139.3125 397.76562Q139.96875 396.84375 141.35938 396.84375Q142.73438 396.84375 143.39062 397.73438Q144.04688 398.60938 144.0625 400.45312L144.0625 401.85938ZM142.96875 400.375Q142.96875 399.0 142.57812 398.375Q142.20312 397.73438 141.35938 397.73438Q140.53125 397.73438 140.14062 398.375Q139.76562 399.0 139.76562 400.29688L139.76562 402.03125Q139.76562 403.40625 140.15625 404.07812Q140.5625 404.73438 141.375 404.73438Q142.17188 404.73438 142.5625 404.10938Q142.95312 403.48438 142.96875 402.15625L142.96875 400.375Z" fill-rule="nonzero"/><path fill="#000000" d="M248.96562 405.5L247.8875 405.5L247.8875 398.28125L245.7 399.07812L245.7 398.09375L248.80937 396.92188L248.96562 396.92188L248.96562 405.5ZM257.7625 401.85938Q257.7625 403.76562 257.10626 404.70312Q256.46564 405.625 255.075 405.625Q253.71562 405.625 253.05937 404.71875Q252.40312 403.8125 252.37187 402.0L252.37187 400.5625Q252.37187 398.67188 253.0125 397.76562Q253.66875 396.84375 255.05937 396.84375Q256.4344 396.84375 257.09064 397.73438Q257.7469 398.60938 257.7625 400.45312L257.7625 401.85938ZM256.66876 400.375Q256.66876 399.0 256.27814 398.375Q255.90312 397.73438 255.05937 397.73438Q254.23125 397.73438 253.84062 398.375Q253.46562 399.0 253.46562 400.29688L253.46562 402.03125Q253.46562 403.40625 253.85625 404.07812Q254.2625 404.73438 255.075 404.73438Q255.87187 404.73438 256.2625 404.10938Q256.65314 403.48438 256.66876 402.15625L256.66876 400.375Z" fill-rule="nonzero"/><path fill="#000000" d="M361.19687 405.5L355.60312 405.5L355.60312 404.71875L358.55624 401.4375Q359.2125 400.6875 359.4625 400.23438Q359.7125 399.76562 359.7125 399.26562Q359.7125 398.59375 359.30624 398.17188Q358.91562 397.73438 358.22812 397.73438Q357.43124 397.73438 356.97812 398.20312Q356.525 398.65625 356.525 399.48438L355.44687 399.48438Q355.44687 398.29688 356.19687 397.57812Q356.9625 396.84375 358.22812 396.84375Q359.43124 396.84375 360.11874 397.46875Q360.80624 398.09375 360.80624 399.14062Q360.80624 400.39062 359.19687 402.14062L356.91562 404.60938L361.19687 404.60938L361.19687 405.5ZM367.9625 401.85938Q367.9625 403.76562 367.30624 404.70312Q366.66562 405.625 365.275 405.625Q363.91562 405.625 363.25937 404.71875Q362.60312 403.8125 362.57187 402.0L362.57187 400.5625Q362.57187 398.67188 363.2125 397.76562Q363.86874 396.84375 365.25937 396.84375Q366.63437 396.84375 367.29062 397.73438Q367.94687 398.60938 367.9625 400.45312L367.9625 401.85938ZM366.86874 400.375Q366.86874 399.0 366.47812 398.375Q366.10312 397.73438 365.25937 397.73438Q364.43124 397.73438 364.04062 398.375Q363.66562 399.0 363.66562 400.29688L363.66562 402.03125Q363.66562 403.40625 364.05624 404.07812Q364.4625 404.73438 365.275 404.73438Q366.07187 404.73438 366.4625 404.10938Q366.85312 403.48438 366.86874 402.15625L366.86874 400.375Z" fill-rule="nonzero"/><path fill="#000000" d="M467.38126 400.70312L468.19376 400.70312Q468.975 400.6875 469.4125 400.29688Q469.85 399.90625 469.85 399.23438Q469.85 397.73438 468.35 397.73438Q467.64688 397.73438 467.225 398.14062Q466.81876 398.54688 466.81876 399.20312L465.725 399.20312Q465.725 398.1875 466.45938 397.51562Q467.20938 396.84375 468.35 396.84375Q469.55313 396.84375 470.24063 397.48438Q470.92813 398.125 470.92813 399.26562Q470.92813 399.82812 470.56876 400.34375Q470.20938 400.85938 469.58438 401.125Q470.2875 401.34375 470.6625 401.85938Q471.05313 402.375 471.05313 403.125Q471.05313 404.26562 470.30313 404.95312Q469.55313 405.625 468.35 405.625Q467.1625 405.625 466.39688 404.96875Q465.64688 404.3125 465.64688 403.25L466.74063 403.25Q466.74063 403.92188 467.17813 404.32812Q467.61563 404.73438 468.36563 404.73438Q469.14688 404.73438 469.55313 404.32812Q469.975 403.90625 469.975 403.14062Q469.975 402.40625 469.52188 402.01562Q469.06876 401.60938 468.19376 401.59375L467.38126 401.59375L467.38126 400.70312ZM478.1625 401.85938Q478.1625 403.76562 477.50626 404.70312Q476.86563 405.625 475.475 405.625Q474.11563 405.625 473.45938 404.71875Q472.80313 403.8125 472.77188 402.0L472.77188 400.5625Q472.77188 398.67188 473.4125 397.76562Q474.06876 396.84375 475.45938 396.84375Q476.83438 396.84375 477.49063 397.73438Q478.14688 398.60938 478.1625 400.45312L478.1625 401.85938ZM477.06876 400.375Q477.06876 399.0 476.67813 398.375Q476.30313 397.73438 475.45938 397.73438Q474.63126 397.73438 474.24063 398.375Q473.86563 399.0 473.86563 400.29688L473.86563 402.03125Q473.86563 403.40625 474.25626 404.07812Q474.6625 404.73438 475.475 404.73438Q476.27188 404.73438 476.6625 404.10938Q477.05313 403.48438 477.06876 402.15625L477.06876 400.375Z" fill-rule="nonzero"/><path fill="#000000" d="M580.58124 402.64062L581.76874 402.64062L581.76874 403.51562L580.58124 403.51562L580.58124 405.5L579.5031 405.5L579.5031 403.51562L575.6125 403.51562L575.6125 402.875L579.425 396.96875L580.58124 396.96875L580.58124 402.64062ZM576.84686 402.64062L579.5031 402.64062L579.5031 398.45312L579.3625 398.6875L576.84686 402.64062ZM588.3625 401.85938Q588.3625 403.76562 587.70624 404.70312Q587.0656 405.625 585.675 405.625Q584.3156 405.625 583.65936 404.71875Q583.0031 403.8125 582.97186 402.0L582.97186 400.5625Q582.97186 398.67188 583.6125 397.76562Q584.26874 396.84375 585.65936 396.84375Q587.03436 396.84375 587.6906 397.73438Q588.34686 398.60938 588.3625 400.45312L588.3625 401.85938ZM587.26874 400.375Q587.26874 399.0 586.8781 398.375Q586.5031 397.73438 585.65936 397.73438Q584.83124 397.73438 584.4406 398.375Q584.0656 399.0 584.0656 400.29688L584.0656 402.03125Q584.0656 403.40625 584.45624 404.07812Q584.8625 404.73438 585.675 404.73438Q586.47186 404.73438 586.8625 404.10938Q587.2531 403.48438 587.26874 402.15625L587.26874 400.375Z" fill-rule="nonzero"/><path fill="#000000" d="M686.7031 401.21875L687.1406 396.96875L691.5156 396.96875L691.5156 397.96875L688.0625 397.96875L687.7969 400.29688Q688.4375 399.92188 689.2344 399.92188Q690.3906 399.92188 691.0781 400.70312Q691.7656 401.46875 691.7656 402.78125Q691.7656 404.09375 691.0469 404.85938Q690.34375 405.625 689.0625 405.625Q687.9375 405.625 687.21875 405.0Q686.5 404.35938 686.40625 403.25L687.4219 403.25Q687.53125 403.98438 687.9531 404.35938Q688.375 404.73438 689.0625 404.73438Q689.8125 404.73438 690.25 404.21875Q690.6875 403.70312 690.6875 402.79688Q690.6875 401.9375 690.21875 401.42188Q689.75 400.90625 688.96875 400.90625Q688.2656 400.90625 687.8594 401.20312L687.5781 401.4375L686.7031 401.21875ZM698.5625 401.85938Q698.5625 403.76562 697.90625 404.70312Q697.2656 405.625 695.875 405.625Q694.5156 405.625 693.8594 404.71875Q693.2031 403.8125 693.1719 402.0L693.1719 400.5625Q693.1719 398.67188 693.8125 397.76562Q694.46875 396.84375 695.8594 396.84375Q697.2344 396.84375 697.8906 397.73438Q698.5469 398.60938 698.5625 400.45312L698.5625 401.85938ZM697.46875 400.375Q697.46875 399.0 697.0781 398.375Q696.7031 397.73438 695.8594 397.73438Q695.03125 397.73438 694.6406 398.375Q694.2656 399.0 694.2656 400.29688L694.2656 402.03125Q694.2656 403.40625 694.65625 404.07812Q695.0625 404.73438 695.875 404.73438Q696.6719 404.73438 697.0625 404.10938Q697.4531 403.48438 697.46875 402.15625L697.46875 400.375Z" fill-rule="nonzero"/><path fill="#757575" d="M33.609375 35.984375Q33.34375 38.25 31.9375 39.484375Q30.546875 40.703125 28.21875 40.703125Q25.703125 40.703125 24.171875 38.890625Q22.65625 37.078125 22.65625 34.046875L22.65625 32.6875Q22.65625 30.703125 23.359375 29.203125Q24.078125 27.703125 25.375 26.890625Q26.671875 26.078125 28.390625 26.078125Q30.65625 26.078125 32.015625 27.34375Q33.390625 28.609375 33.609375 30.84375L31.71875 30.84375Q31.484375 29.15625 30.65625 28.390625Q29.84375 27.625 28.390625 27.625Q26.59375 27.625 25.5625 28.953125Q24.546875 30.28125 24.546875 32.734375L24.546875 34.109375Q24.546875 36.421875 25.515625 37.796875Q26.484375 39.15625 28.21875 39.15625Q29.78125 39.15625 30.609375 38.453125Q31.453125 37.75 31.71875 35.984375L33.609375 35.984375ZM40.96875 31.546875Q40.5625 31.484375 40.09375 31.484375Q38.3125 31.484375 37.671875 33.0L37.671875 40.5L35.875 40.5L35.875 29.9375L37.625 29.9375L37.65625 31.15625Q38.546875 29.734375 40.171875 29.734375Q40.703125 29.734375 40.96875 29.875L40.96875 31.546875ZM42.390625 35.125Q42.390625 33.5625 43.0 32.328125Q43.609375 31.078125 44.6875 30.40625Q45.78125 29.734375 47.1875 29.734375Q49.34375 29.734375 50.671875 31.234375Q52.015625 32.71875 52.015625 35.203125L52.015625 35.328125Q52.015625 36.875 51.421875 38.109375Q50.828125 39.328125 49.71875 40.015625Q48.625 40.703125 47.203125 40.703125Q45.0625 40.703125 43.71875 39.203125Q42.390625 37.703125 42.390625 35.25L42.390625 35.125ZM44.203125 35.328125Q44.203125 37.09375 45.015625 38.15625Q45.84375 39.21875 47.203125 39.21875Q48.578125 39.21875 49.390625 38.140625Q50.203125 37.0625 50.203125 35.125Q50.203125 33.375 49.375 32.296875Q48.546875 31.21875 47.1875 31.21875Q45.84375 31.21875 45.015625 32.28125Q44.203125 33.34375 44.203125 35.328125ZM55.828125 40.5L54.03125 40.5L54.03125 29.9375L55.828125 29.9375L55.828125 40.5ZM53.875 27.125Q53.875 26.6875 54.140625 26.390625Q54.421875 26.078125 54.9375 26.078125Q55.46875 26.078125 55.734375 26.390625Q56.015625 26.6875 56.015625 27.125Q56.015625 27.5625 55.734375 27.859375Q55.46875 28.15625 54.9375 28.15625Q54.421875 28.15625 54.140625 27.859375Q53.875 27.5625 53.875 27.125ZM62.40625 33.796875L64.75 29.9375L66.859375 29.9375L63.40625 35.15625L66.96875 40.5L64.890625 40.5L62.4375 36.546875L60.0 40.5L57.90625 40.5L61.46875 35.15625L58.015625 29.9375L60.09375 29.9375L62.40625 33.796875ZM82.796875 35.328125Q82.796875 37.75 81.6875 39.234375Q80.59375 40.703125 78.703125 40.703125Q76.78125 40.703125 75.671875 39.46875L75.671875 44.5625L73.875 44.5625L73.875 29.9375L75.515625 29.9375L75.609375 31.109375Q76.703125 29.734375 78.671875 29.734375Q80.578125 29.734375 81.6875 31.171875Q82.796875 32.609375 82.796875 35.171875L82.796875 35.328125ZM80.984375 35.125Q80.984375 33.34375 80.21875 32.3125Q79.46875 31.265625 78.140625 31.265625Q76.5 31.265625 75.671875 32.71875L75.671875 37.78125Q76.484375 39.21875 78.15625 39.21875Q79.453125 39.21875 80.21875 38.1875Q80.984375 37.15625 80.984375 35.125ZM91.390625 40.5Q91.234375 40.1875 91.140625 39.390625Q89.875 40.703125 88.125 40.703125Q86.5625 40.703125 85.5625 39.8125Q84.5625 38.921875 84.5625 37.5625Q84.5625 35.921875 85.8125 35.015625Q87.078125 34.09375 89.34375 34.09375L91.109375 34.09375L91.109375 33.265625Q91.109375 32.3125 90.53125 31.75Q89.96875 31.1875 88.875 31.1875Q87.90625 31.1875 87.25 31.6875Q86.59375 32.171875 86.59375 32.859375L84.78125 32.859375Q84.78125 32.078125 85.34375 31.34375Q85.90625 30.59375 86.859375 30.171875Q87.828125 29.734375 88.984375 29.734375Q90.8125 29.734375 91.84375 30.65625Q92.875 31.5625 92.921875 33.171875L92.921875 38.03125Q92.921875 39.484375 93.28125 40.34375L93.28125 40.5L91.390625 40.5ZM88.390625 39.125Q89.25 39.125 90.0 38.6875Q90.765625 38.25 91.109375 37.546875L91.109375 35.375L89.6875 35.375Q86.375 35.375 86.375 37.3125Q86.375 38.171875 86.9375 38.65625Q87.5 39.125 88.390625 39.125ZM100.96875 31.546875Q100.5625 31.484375 100.09375 31.484375Q98.3125 31.484375 97.671875 33.0L97.671875 40.5L95.875 40.5L95.875 29.9375L97.625 29.9375L97.65625 31.15625Q98.546875 29.734375 100.171875 29.734375Q100.703125 29.734375 100.96875 29.875L100.96875 31.546875ZM107.421875 35.125Q107.421875 32.703125 108.578125 31.21875Q109.734375 29.734375 111.59375 29.734375Q113.453125 29.734375 114.53125 31.0L114.53125 25.5L116.34375 25.5L116.34375 40.5L114.6875 40.5L114.59375 39.359375Q113.515625 40.703125 111.578125 40.703125Q109.75 40.703125 108.578125 39.203125Q107.421875 37.6875 107.421875 35.265625L107.421875 35.125ZM109.234375 35.328125Q109.234375 37.125 109.96875 38.140625Q110.71875 39.15625 112.03125 39.15625Q113.75 39.15625 114.53125 37.625L114.53125 32.765625Q113.734375 31.265625 112.046875 31.265625Q110.71875 31.265625 109.96875 32.296875Q109.234375 33.328125 109.234375 35.328125ZM123.25 40.703125Q121.109375 40.703125 119.75 39.296875Q118.40625 37.875 118.40625 35.515625L118.40625 35.171875Q118.40625 33.609375 119.0 32.375Q119.609375 31.140625 120.6875 30.4375Q121.765625 29.734375 123.03125 29.734375Q125.09375 29.734375 126.234375 31.09375Q127.375 32.453125 127.375 34.984375L127.375 35.734375L120.21875 35.734375Q120.25 37.296875 121.125 38.265625Q122.0 39.21875 123.34375 39.21875Q124.3125 39.21875 124.96875 38.828125Q125.640625 38.4375 126.140625 37.796875L127.234375 38.65625Q125.90625 40.703125 123.25 40.703125ZM123.03125 31.21875Q121.9375 31.21875 121.1875 32.015625Q120.453125 32.8125 120.28125 34.25L125.5625 34.25L125.5625 34.109375Q125.484375 32.734375 124.8125 31.984375Q124.15625 31.21875 123.03125 31.21875ZM123.59375 25.5L125.78125 25.5L123.15625 28.375L121.703125 28.375L123.59375 25.5ZM138.79688 35.328125Q138.79688 37.75 137.6875 39.234375Q136.59375 40.703125 134.70312 40.703125Q132.78125 40.703125 131.67188 39.46875L131.67188 44.5625L129.875 44.5625L129.875 29.9375L131.51562 29.9375L131.60938 31.109375Q132.70312 29.734375 134.67188 29.734375Q136.57812 29.734375 137.6875 31.171875Q138.79688 32.609375 138.79688 35.171875L138.79688 35.328125ZM136.98438 35.125Q136.98438 33.34375 136.21875 32.3125Q135.46875 31.265625 134.14062 31.265625Q132.5 31.265625 131.67188 32.71875L131.67188 37.78125Q132.48438 39.21875 134.15625 39.21875Q135.45312 39.21875 136.21875 38.1875Q136.98438 37.15625 136.98438 35.125ZM147.39062 40.5Q147.23438 40.1875 147.14062 39.390625Q145.875 40.703125 144.125 40.703125Q142.5625 40.703125 141.5625 39.8125Q140.5625 38.921875 140.5625 37.5625Q140.5625 35.921875 141.8125 35.015625Q143.07812 34.09375 145.34375 34.09375L147.10938 34.09375L147.10938 33.265625Q147.10938 32.3125 146.53125 31.75Q145.96875 31.1875 144.875 31.1875Q143.90625 31.1875 143.25 31.6875Q142.59375 32.171875 142.59375 32.859375L140.78125 32.859375Q140.78125 32.078125 141.34375 31.34375Q141.90625 30.59375 142.85938 30.171875Q143.82812 29.734375 144.98438 29.734375Q146.8125 29.734375 147.84375 30.65625Q148.875 31.5625 148.92188 33.171875L148.92188 38.03125Q148.92188 39.484375 149.28125 40.34375L149.28125 40.5L147.39062 40.5ZM144.39062 39.125Q145.25 39.125 146.0 38.6875Q146.76562 38.25 147.10938 37.546875L147.10938 35.375L145.6875 35.375Q142.375 35.375 142.375 37.3125Q142.375 38.171875 142.9375 38.65625Q143.5 39.125 144.39062 39.125ZM156.96875 31.546875Q156.5625 31.484375 156.09375 31.484375Q154.3125 31.484375 153.67188 33.0L153.67188 40.5L151.875 40.5L151.875 29.9375L153.625 29.9375L153.65625 31.15625Q154.54688 29.734375 156.17188 29.734375Q156.70312 29.734375 156.96875 29.875L156.96875 31.546875ZM161.3125 27.375L161.3125 29.9375L163.29688 29.9375L163.29688 31.328125L161.3125 31.328125L161.3125 37.875Q161.3125 38.515625 161.57812 38.84375Q161.84375 39.15625 162.48438 39.15625Q162.79688 39.15625 163.34375 39.03125L163.34375 40.5Q162.625 40.703125 161.95312 40.703125Q160.75 40.703125 160.125 39.96875Q159.51562 39.234375 159.51562 37.875L159.51562 31.328125L157.59375 31.328125L157.59375 29.9375L159.51562 29.9375L159.51562 27.375L161.3125 27.375ZM170.25 40.703125Q168.10938 40.703125 166.75 39.296875Q165.40625 37.875 165.40625 35.515625L165.40625 35.171875Q165.40625 33.609375 166.0 32.375Q166.60938 31.140625 167.6875 30.4375Q168.76562 29.734375 170.03125 29.734375Q172.09375 29.734375 173.23438 31.09375Q174.375 32.453125 174.375 34.984375L174.375 35.734375L167.21875 35.734375Q167.25 37.296875 168.125 38.265625Q169.0 39.21875 170.34375 39.21875Q171.3125 39.21875 171.96875 38.828125Q172.64062 38.4375 173.14062 37.796875L174.23438 38.65625Q172.90625 40.703125 170.25 40.703125ZM170.03125 31.21875Q168.9375 31.21875 168.1875 32.015625Q167.45312 32.8125 167.28125 34.25L172.5625 34.25L172.5625 34.109375Q172.48438 32.734375 171.8125 31.984375Q171.15625 31.21875 170.03125 31.21875ZM178.5625 29.9375L178.60938 31.109375Q179.78125 29.734375 181.75 29.734375Q183.96875 29.734375 184.76562 31.4375Q185.29688 30.671875 186.14062 30.203125Q186.98438 29.734375 188.14062 29.734375Q191.60938 29.734375 191.67188 33.421875L191.67188 40.5L189.85938 40.5L189.85938 33.53125Q189.85938 32.390625 189.34375 31.828125Q188.82812 31.265625 187.60938 31.265625Q186.60938 31.265625 185.9375 31.875Q185.28125 32.46875 185.17188 33.484375L185.17188 40.5L183.35938 40.5L183.35938 33.578125Q183.35938 31.265625 181.09375 31.265625Q179.3125 31.265625 178.67188 32.78125L178.67188 40.5L176.85938 40.5L176.85938 29.9375L178.5625 29.9375ZM199.25 40.703125Q197.10938 40.703125 195.75 39.296875Q194.40625 37.875 194.40625 35.515625L194.40625 35.171875Q194.40625 33.609375 195.0 32.375Q195.60938 31.140625 196.6875 30.4375Q197.76562 29.734375 199.03125 29.734375Q201.09375 29.734375 202.23438 31.09375Q203.375 32.453125 203.375 34.984375L203.375 35.734375L196.21875 35.734375Q196.25 37.296875 197.125 38.265625Q198.0 39.21875 199.34375 39.21875Q200.3125 39.21875 200.96875 38.828125Q201.64062 38.4375 202.14062 37.796875L203.23438 38.65625Q201.90625 40.703125 199.25 40.703125ZM199.03125 31.21875Q197.9375 31.21875 197.1875 32.015625Q196.45312 32.8125 196.28125 34.25L201.5625 34.25L201.5625 34.109375Q201.48438 32.734375 200.8125 31.984375Q200.15625 31.21875 199.03125 31.21875ZM207.57812 29.9375L207.64062 31.265625Q208.84375 29.734375 210.79688 29.734375Q214.15625 29.734375 214.17188 33.515625L214.17188 40.5L212.375 40.5L212.375 33.5Q212.35938 32.359375 211.84375 31.8125Q211.34375 31.265625 210.25 31.265625Q209.375 31.265625 208.70312 31.734375Q208.04688 32.203125 207.67188 32.96875L207.67188 40.5L205.875 40.5L205.875 29.9375L207.57812 29.9375ZM219.3125 27.375L219.3125 29.9375L221.29688 29.9375L221.29688 31.328125L219.3125 31.328125L219.3125 37.875Q219.3125 38.515625 219.57812 38.84375Q219.84375 39.15625 220.48438 39.15625Q220.79688 39.15625 221.34375 39.03125L221.34375 40.5Q220.625 40.703125 219.95312 40.703125Q218.75 40.703125 218.125 39.96875Q217.51562 39.234375 217.51562 37.875L217.51562 31.328125L215.59375 31.328125L215.59375 29.9375L217.51562 29.9375L217.51562 27.375L219.3125 27.375Z" fill-rule="nonzero"/></svg>