<svg version="1.1" viewBox="0.0 0.0 600.0 371.0" fill="none" stroke="none" stroke-linecap="square" stroke-miterlimit="10" width="600" height="371" xmlns:xlink="http://www.w3.org/1999/xlink" xmlns="http://www.w3.org/2000/svg"><path fill="#ffffff" d="M0 0L600.0 0L600.0 371.0L0 371.0L0 0Z" fill-rule="nonzero"/><path stroke="#333333" stroke-width="1.0" stroke-linecap="butt" d="M45.5 298.5L581.5 298.5" fill-rule="nonzero"/><path stroke="#cccccc" stroke-width="1.0" stroke-linecap="butt" d="M45.5 246.5L581.5 246.5" fill-rule="nonzero"/><path stroke="#cccccc" stroke-width="1.0" stroke-linecap="butt" d="M45.5 194.5L581.5 194.5" fill-rule="nonzero"/><path stroke="#cccccc" stroke-width="1.0" stroke-linecap="butt" d="M45.5 141.5L581.5 141.5" fill-rule="nonzero"/><path stroke="#cccccc" stroke-width="1.0" stroke-linecap="butt" d="M45.5 89.5L581.5 89.5" fill-rule="nonzero"/><clipPath id="id_0"><path d="M45.55 89.78333L581.45 89.78333L581.45 298.45L45.55 298.45L45.55 89.78333Z" clip-rule="nonzero"/></clipPath><path stroke="#000000" stroke-width="2.0" stroke-linecap="butt" stroke-opacity="0.0" clip-path="url(#id_0)" d="M93.0 298.0L62.0 298.0L62.0 293.0L93.0 293.0Z" fill-rule="nonzero"/><path fill="#4285f4" clip-path="url(#id_0)" d="M93.0 298.0L62.0 298.0L62.0 293.0L93.0 293.0Z" fill-rule="nonzero"/><path stroke="#000000" stroke-width="2.0" stroke-linecap="butt" stroke-opacity="0.0" clip-path="url(#id_0)" d="M141.0 298.0L110.0 298.0L110.0 288.0L141.0 288.0Z" fill-rule="nonzero"/><path fill="#4285f4" clip-path="url(#id_0)" d="M141.0 298.0L110.0 298.0L110.0 288.0L141.0 288.0Z" fill-rule="nonzero"/><path stroke="#000000" stroke-width="2.0" stroke-linecap="butt" stroke-opacity="0.0" clip-path="url(#id_0)" d="M188.0 298.0L157.0 298.0L157.0 241.0L188.0 241.0Z" fill-rule="nonzero"/><path fill="#4285f4" clip-path="url(#id_0)" d="M188.0 298.0L157.0 298.0L157.0 241.0L188.0 241.0Z" fill-rule="nonzero"/><path stroke="#000000" stroke-width="2.0" stroke-linecap="butt" stroke-opacity="0.0" clip-path="url(#id_0)" d="M235.0 298.0L204.0 298.0L204.0 215.0L235.0 215.0Z" fill-rule="nonzero"/><path fill="#4285f4" clip-path="url(#id_0)" d="M235.0 298.0L204.0 298.0L204.0 215.0L235.0 215.0Z" fill-rule="nonzero"/><path stroke="#000000" stroke-width="2.0" stroke-linecap="butt" stroke-opacity="0.0" clip-path="url(#id_0)" d="M282.0 298.0L251.0 298.0L251.0 158.0L282.0 158.0Z" fill-rule="nonzero"/><path fill="#4285f4" clip-path="url(#id_0)" d="M282.0 298.0L251.0 298.0L251.0 158.0L282.0 158.0Z" fill-rule="nonzero"/><path stroke="#000000" stroke-width="2.0" stroke-linecap="butt" stroke-opacity="0.0" clip-path="url(#id_0)" d="M330.0 298.0L299.0 298.0L299.0 205.0L330.0 205.0Z" fill-rule="nonzero"/><path fill="#4285f4" clip-path="url(#id_0)" d="M330.0 298.0L299.0 298.0L299.0 205.0L330.0 205.0Z" fill-rule="nonzero"/><path stroke="#000000" stroke-width="2.0" stroke-linecap="butt" stroke-opacity="0.0" clip-path="url(#id_0)" d="M377.0 298.0L346.0 298.0L346.0 267.0L377.0 267.0Z" fill-rule="nonzero"/><path fill="#4285f4" clip-path="url(#id_0)" d="M377.0 298.0L346.0 298.0L346.0 267.0L377.0 267.0Z" fill-rule="nonzero"/><path stroke="#000000" stroke-width="2.0" stroke-linecap="butt" stroke-opacity="0.0" clip-path="url(#id_0)" d="M424.0 298.0L393.0 298.0L393.0 293.0L424.0 293.0Z" fill-rule="nonzero"/><path fill="#4285f4" clip-path="url(#id_0)" d="M424.0 298.0L393.0 298.0L393.0 293.0L424.0 293.0Z" fill-rule="nonzero"/><path stroke="#000000" stroke-width="2.0" stroke-linecap="butt" stroke-opacity="0.0" clip-path="url(#id_0)" d="M471.0 298.0L440.0 298.0L440.0 298.0L471.0 298.0Z" fill-rule="nonzero"/><path fill="#4285f4" clip-path="url(#id_0)" d="M471.0 298.0L440.0 298.0L440.0 298.0L471.0 298.0Z" fill-rule="nonzero"/><path stroke="#000000" stroke-width="2.0" stroke-linecap="butt" stroke-opacity="0.0" clip-path="url(#id_0)" d="M518.0 298.0L487.0 298.0L487.0 298.0L518.0 298.0Z" fill-rule="nonzero"/><path fill="#4285f4" clip-path="url(#id_0)" d="M518.0 298.0L487.0 298.0L487.0 298.0L518.0 298.0Z" fill-rule="nonzero"/><path stroke="#000000" stroke-width="2.0" stroke-linecap="butt" stroke-opacity="0.0" clip-path="url(#id_0)" d="M566.0 298.0L535.0 298.0L535.0 298.0L566.0 298.0Z" fill-rule="nonzero"/><path fill="#4285f4" clip-path="url(#id_0)" d="M566.0 298.0L535.0 298.0L535.0 298.0L566.0 298.0Z" fill-rule="nonzero"/><path stroke="#000000" stroke-width="2.0" stroke-linecap="butt" stroke-opacity="0.0" clip-path="url(#id_0)" d="M93.0 293.0L62.0 293.0L62.0 293.0L93.0 293.0Z" fill-rule="nonzero"/><path fill="#ea4335" clip-path="url(#id_0)" d="M93.0 293.0L62.0 293.0L62.0 293.0L93.0 293.0Z" fill-rule="nonzero"/><path stroke="#000000" stroke-width="2.0" stroke-linecap="butt" stroke-opacity="0.0" clip-path="url(#id_0)" d="M141.0 288.0L110.0 288.0L110.0 288.0L141.0 288.0Z" fill-rule="nonzero"/><path fill="#ea4335" clip-path="url(#id_0)" d="M141.0 288.0L110.0 288.0L110.0 288.0L141.0 288.0Z" fill-rule="nonzero"/><path stroke="#000000" stroke-width="2.0" stroke-linecap="butt" stroke-opacity="0.0" clip-path="url(#id_0)" d="M188.0 241.0L157.0 241.0L157.0 241.0L188.0 241.0Z" fill-rule="nonzero"/><path fill="#ea4335" clip-path="url(#id_0)" d="M188.0 241.0L157.0 241.0L157.0 241.0L188.0 241.0Z" fill-rule="nonzero"/><path stroke="#000000" stroke-width="2.0" stroke-linecap="butt" stroke-opacity="0.0" clip-path="url(#id_0)" d="M235.0 215.0L204.0 215.0L204.0 215.0L235.0 215.0Z" fill-rule="nonzero"/><path fill="#ea4335" clip-path="url(#id_0)" d="M235.0 215.0L204.0 215.0L204.0 215.0L235.0 215.0Z" fill-rule="nonzero"/><path stroke="#000000" stroke-width="2.0" stroke-linecap="butt" stroke-opacity="0.0" clip-path="url(#id_0)" d="M282.0 158.0L251.0 158.0L251.0 111.0L282.0 111.0Z" fill-rule="nonzero"/><path fill="#ea4335" clip-path="url(#id_0)" d="M282.0 158.0L251.0 158.0L251.0 111.0L282.0 111.0Z" fill-rule="nonzero"/><path stroke="#000000" stroke-width="2.0" stroke-linecap="butt" stroke-opacity="0.0" clip-path="url(#id_0)" d="M330.0 205.0L299.0 205.0L299.0 168.0L330.0 168.0Z" fill-rule="nonzero"/><path fill="#ea4335" clip-path="url(#id_0)" d="M330.0 205.0L299.0 205.0L299.0 168.0L330.0 168.0Z" fill-rule="nonzero"/><path stroke="#000000" stroke-width="2.0" stroke-linecap="butt" stroke-opacity="0.0" clip-path="url(#id_0)" d="M377.0 267.0L346.0 267.0L346.0 225.0L377.0 225.0Z" fill-rule="nonzero"/><path fill="#ea4335" clip-path="url(#id_0)" d="M377.0 267.0L346.0 267.0L346.0 225.0L377.0 225.0Z" fill-rule="nonzero"/><path stroke="#000000" stroke-width="2.0" stroke-linecap="butt" stroke-opacity="0.0" clip-path="url(#id_0)" d="M424.0 293.0L393.0 293.0L393.0 283.0L424.0 283.0Z" fill-rule="nonzero"/><path fill="#ea4335" clip-path="url(#id_0)" d="M424.0 293.0L393.0 293.0L393.0 283.0L424.0 283.0Z" fill-rule="nonzero"/><path stroke="#000000" stroke-width="2.0" stroke-linecap="butt" stroke-opacity="0.0" clip-path="url(#id_0)" d="M471.0 298.0L440.0 298.0L440.0 251.0L471.0 251.0Z" fill-rule="nonzero"/><path fill="#ea4335" clip-path="url(#id_0)" d="M471.0 298.0L440.0 298.0L440.0 251.0L471.0 251.0Z" fill-rule="nonzero"/><path stroke="#000000" stroke-width="2.0" stroke-linecap="butt" stroke-opacity="0.0" clip-path="url(#id_0)" d="M518.0 298.0L487.0 298.0L487.0 293.0L518.0 293.0Z" fill-rule="nonzero"/><path fill="#ea4335" clip-path="url(#id_0)" d="M518.0 298.0L487.0 298.0L487.0 293.0L518.0 293.0Z" fill-rule="nonzero"/><path stroke="#000000" stroke-width="2.0" stroke-linecap="butt" stroke-opacity="0.0" clip-path="url(#id_0)" d="M566.0 298.0L535.0 298.0L535.0 288.0L566.0 288.0Z" fill-rule="nonzero"/><path fill="#ea4335" clip-path="url(#id_0)" d="M566.0 298.0L535.0 298.0L535.0 288.0L566.0 288.0Z" fill-rule="nonzero"/><path stroke="#000000" stroke-width="2.0" stroke-linecap="butt" stroke-opacity="0.0" clip-path="url(#id_0)" d="M93.0 293.0L62.0 293.0L62.0 293.0L93.0 293.0Z" fill-rule="nonzero"/><path fill="#fbbc04" clip-path="url(#id_0)" d="M93.0 293.0L62.0 293.0L62.0 293.0L93.0 293.0Z" fill-rule="nonzero"/><path stroke="#000000" stroke-width="2.0" stroke-linecap="butt" stroke-opacity="0.0" clip-path="url(#id_0)" d="M141.0 288.0L110.0 288.0L110.0 288.0L141.0 288.0Z" fill-rule="nonzero"/><path fill="#fbbc04" clip-path="url(#id_0)" d="M141.0 288.0L110.0 288.0L110.0 288.0L141.0 288.0Z" fill-rule="nonzero"/><path stroke="#000000" stroke-width="2.0" stroke-linecap="butt" stroke-opacity="0.0" clip-path="url(#id_0)" d="M188.0 241.0L157.0 241.0L157.0 241.0L188.0 241.0Z" fill-rule="nonzero"/><path fill="#fbbc04" clip-path="url(#id_0)" d="M188.0 241.0L157.0 241.0L157.0 241.0L188.0 241.0Z" fill-rule="nonzero"/><path stroke="#000000" stroke-width="2.0" stroke-linecap="butt" stroke-opacity="0.0" clip-path="url(#id_0)" d="M235.0 215.0L204.0 215.0L204.0 215.0L235.0 215.0Z" fill-rule="nonzero"/><path fill="#fbbc04" clip-path="url(#id_0)" d="M235.0 215.0L204.0 215.0L204.0 215.0L235.0 215.0Z" fill-rule="nonzero"/><path stroke="#000000" stroke-width="2.0" stroke-linecap="butt" stroke-opacity="0.0" clip-path="url(#id_0)" d="M282.0 111.0L251.0 111.0L251.0 111.0L282.0 111.0Z" fill-rule="nonzero"/><path fill="#fbbc04" clip-path="url(#id_0)" d="M282.0 111.0L251.0 111.0L251.0 111.0L282.0 111.0Z" fill-rule="nonzero"/><path stroke="#000000" stroke-width="2.0" stroke-linecap="butt" stroke-opacity="0.0" clip-path="url(#id_0)" d="M330.0 168.0L299.0 168.0L299.0 160.0C299.0 158.89543 299.89542 158.0 301.0 158.0L328.0 158.0C329.10458 158.0 330.0 158.89543 330.0 160.0Z" fill-rule="nonzero"/><path fill="#fbbc04" clip-path="url(#id_0)" d="M330.0 168.0L299.0 168.0L299.0 160.0C299.0 158.89543 299.89542 158.0 301.0 158.0L328.0 158.0C329.10458 158.0 330.0 158.89543 330.0 160.0Z" fill-rule="nonzero"/><path stroke="#000000" stroke-width="2.0" stroke-linecap="butt" stroke-opacity="0.0" clip-path="url(#id_0)" d="M377.0 225.0L346.0 225.0L346.0 217.0C346.0 215.89543 346.89542 215.0 348.0 215.0L375.0 215.0C376.10458 215.0 377.0 215.89543 377.0 217.0Z" fill-rule="nonzero"/><path fill="#fbbc04" clip-path="url(#id_0)" d="M377.0 225.0L346.0 225.0L346.0 217.0C346.0 215.89543 346.89542 215.0 348.0 215.0L375.0 215.0C376.10458 215.0 377.0 215.89543 377.0 217.0Z" fill-rule="nonzero"/><path stroke="#000000" stroke-width="2.0" stroke-linecap="butt" stroke-opacity="0.0" clip-path="url(#id_0)" d="M424.0 283.0L393.0 283.0L393.0 283.0L424.0 283.0Z" fill-rule="nonzero"/><path fill="#fbbc04" clip-path="url(#id_0)" d="M424.0 283.0L393.0 283.0L393.0 283.0L424.0 283.0Z" fill-rule="nonzero"/><path stroke="#000000" stroke-width="2.0" stroke-linecap="butt" stroke-opacity="0.0" clip-path="url(#id_0)" d="M471.0 251.0L440.0 251.0L440.0 238.0C440.0 236.89543 440.89542 236.0 442.0 236.0L469.0 236.0C470.10458 236.0 471.0 236.89543 471.0 238.0Z" fill-rule="nonzero"/><path fill="#fbbc04" clip-path="url(#id_0)" d="M471.0 251.0L440.0 251.0L440.0 238.0C440.0 236.89543 440.89542 236.0 442.0 236.0L469.0 236.0C470.10458 236.0 471.0 236.89543 471.0 238.0Z" fill-rule="nonzero"/><path stroke="#000000" stroke-width="2.0" stroke-linecap="butt" stroke-opacity="0.0" clip-path="url(#id_0)" d="M518.0 293.0L487.0 293.0L487.0 290.0C487.0 288.89542 487.89542 288.0 489.0 288.0L516.0 288.0C517.10455 288.0 518.0 288.89542 518.0 290.0Z" fill-rule="nonzero"/><path fill="#fbbc04" clip-path="url(#id_0)" d="M518.0 293.0L487.0 293.0L487.0 290.0C487.0 288.89542 487.89542 288.0 489.0 288.0L516.0 288.0C517.10455 288.0 518.0 288.89542 518.0 290.0Z" fill-rule="nonzero"/><path stroke="#000000" stroke-width="2.0" stroke-linecap="butt" stroke-opacity="0.0" clip-path="url(#id_0)" d="M566.0 288.0L535.0 288.0L535.0 288.0L566.0 288.0Z" fill-rule="nonzero"/><path fill="#fbbc04" clip-path="url(#id_0)" d="M566.0 288.0L535.0 288.0L535.0 288.0L566.0 288.0Z" fill-rule="nonzero"/><path fill="#000000" d="M297.26562 346.7469Q297.10938 348.09064 296.26562 348.84064Q295.42188 349.575 294.03125 349.575Q292.51562 349.575 291.60938 348.4969Q290.70312 347.40314 290.70312 345.575L290.70312 344.7625Q290.70312 343.575 291.125 342.66876Q291.54688 341.7625 292.32812 341.27814Q293.10938 340.79376 294.125 340.79376Q295.48438 340.79376 296.29688 341.5594Q297.125 342.325 297.26562 343.65314L296.14062 343.65314Q295.98438 342.6375 295.5 342.1844Q295.01562 341.73126 294.125 341.73126Q293.04688 341.73126 292.4375 342.52814Q291.82812 343.325 291.82812 344.79376L291.82812 345.6219Q291.82812 347.0125 292.40625 347.84064Q292.98438 348.65314 294.03125 348.65314Q294.96875 348.65314 295.46875 348.23126Q295.96875 347.79376 296.14062 346.7469L297.26562 346.7469ZM298.53125 346.21564Q298.53125 345.29376 298.89062 344.54376Q299.26562 343.79376 299.92188 343.40314Q300.57812 342.9969 301.40625 342.9969Q302.70312 342.9969 303.5 343.8875Q304.3125 344.77814 304.3125 346.27814L304.3125 346.35626Q304.3125 347.27814 303.95312 348.0125Q303.59375 348.7469 302.9375 349.16876Q302.28125 349.575 301.42188 349.575Q300.14062 349.575 299.32812 348.6844Q298.53125 347.77814 298.53125 346.29376L298.53125 346.21564ZM299.625 346.35626Q299.625 347.40314 300.10938 348.04376Q300.60938 348.6844 301.42188 348.6844Q302.25 348.6844 302.73438 348.04376Q303.21875 347.3875 303.21875 346.21564Q303.21875 345.1844 302.71875 344.54376Q302.23438 343.8875 301.40625 343.8875Q300.60938 343.8875 300.10938 344.52814Q299.625 345.15314 299.625 346.35626ZM307.29688 341.575L307.29688 343.10626L308.46875 343.10626L308.46875 343.95L307.29688 343.95L307.29688 347.8719Q307.29688 348.2625 307.45312 348.45Q307.60938 348.6375 307.98438 348.6375Q308.17188 348.6375 308.5 348.575L308.5 349.45Q308.07812 349.575 307.67188 349.575Q306.95312 349.575 306.57812 349.1375Q306.20312 348.6844 306.20312 347.8719L306.20312 343.95L305.04688 343.95L305.04688 343.10626L306.20312 343.10626L306.20312 341.575L307.29688 341.575ZM313.73438 349.45Q313.64062 349.2625 313.57812 348.77814Q312.82812 349.575 311.78125 349.575Q310.84375 349.575 310.23438 349.04376Q309.64062 348.5125 309.64062 347.6844Q309.64062 346.7 310.39062 346.15314Q311.14062 345.60626 312.51562 345.60626L313.5625 345.60626L313.5625 345.10626Q313.5625 344.54376 313.21875 344.21564Q312.89062 343.8719 312.21875 343.8719Q311.64062 343.8719 311.25 344.16876Q310.85938 344.45 310.85938 344.8719L309.76562 344.8719Q309.76562 344.3875 310.09375 343.95Q310.4375 343.5125 311.01562 343.2625Q311.59375 342.9969 312.28125 342.9969Q313.39062 342.9969 314.0 343.54376Q314.625 344.09064 314.65625 345.04376L314.65625 347.96564Q314.65625 348.84064 314.875 349.35626L314.875 349.45L313.73438 349.45ZM311.9375 348.6219Q312.45312 348.6219 312.90625 348.35626Q313.35938 348.09064 313.5625 347.66876L313.5625 346.3719L312.71875 346.3719Q310.71875 346.3719 310.71875 347.54376Q310.71875 348.04376 311.0625 348.34064Q311.40625 348.6219 311.9375 348.6219ZM318.29688 341.575L318.29688 343.10626L319.46875 343.10626L319.46875 343.95L318.29688 343.95L318.29688 347.8719Q318.29688 348.2625 318.45312 348.45Q318.60938 348.6375 318.98438 348.6375Q319.17188 348.6375 319.5 348.575L319.5 349.45Q319.07812 349.575 318.67188 349.575Q317.95312 349.575 317.57812 349.1375Q317.20312 348.6844 317.20312 347.8719L317.20312 343.95L316.04688 343.95L316.04688 343.10626L317.20312 343.10626L317.20312 341.575L318.29688 341.575ZM322.0 349.45L320.92188 349.45L320.92188 343.10626L322.0 343.10626L322.0 349.45ZM320.82812 341.4344Q320.82812 341.16876 320.98438 340.98126Q321.15625 340.79376 321.46875 340.79376Q321.78125 340.79376 321.9375 340.98126Q322.10938 341.16876 322.10938 341.4344Q322.10938 341.6844 321.9375 341.8719Q321.78125 342.04376 321.46875 342.04376Q321.15625 342.04376 320.98438 341.8719Q320.82812 341.6844 320.82812 341.4344ZM323.53125 346.21564Q323.53125 345.29376 323.89062 344.54376Q324.26562 343.79376 324.92188 343.40314Q325.57812 342.9969 326.40625 342.9969Q327.70312 342.9969 328.5 343.8875Q329.3125 344.77814 329.3125 346.27814L329.3125 346.35626Q329.3125 347.27814 328.95312 348.0125Q328.59375 348.7469 327.9375 349.16876Q327.28125 349.575 326.42188 349.575Q325.14062 349.575 324.32812 348.6844Q323.53125 347.77814 323.53125 346.29376L323.53125 346.21564ZM324.625 346.35626Q324.625 347.40314 325.10938 348.04376Q325.60938 348.6844 326.42188 348.6844Q327.25 348.6844 327.73438 348.04376Q328.21875 347.3875 328.21875 346.21564Q328.21875 345.1844 327.71875 344.54376Q327.23438 343.8875 326.40625 343.8875Q325.60938 343.8875 325.10938 344.52814Q324.625 345.15314 324.625 346.35626ZM331.84375 343.10626L331.875 343.90314Q332.60938 342.9969 333.78125 342.9969Q335.79688 342.9969 335.8125 345.2625L335.8125 349.45L334.71875 349.45L334.71875 345.2469Q334.71875 344.575 334.40625 344.2469Q334.10938 343.91876 333.45312 343.91876Q332.92188 343.91876 332.51562 344.2Q332.125 344.48126 331.90625 344.9344L331.90625 349.45L330.82812 349.45L330.82812 343.10626L331.84375 343.10626Z" fill-rule="nonzero"/><path fill="#000000" d="M38.6125 299.3094Q38.6125 301.21564 37.95625 302.15314Q37.315624 303.075 35.925 303.075Q34.565624 303.075 33.909374 302.16876Q33.253124 301.2625 33.221874 299.45L33.221874 298.0125Q33.221874 296.1219 33.8625 295.21564Q34.51875 294.29376 35.909374 294.29376Q37.284374 294.29376 37.940624 295.1844Q38.596874 296.0594 38.6125 297.90314L38.6125 299.3094ZM37.51875 297.825Q37.51875 296.45 37.128124 295.825Q36.753124 295.1844 35.909374 295.1844Q35.08125 295.1844 34.690624 295.825Q34.315624 296.45 34.315624 297.7469L34.315624 299.48126Q34.315624 300.85626 34.70625 301.52814Q35.1125 302.1844 35.925 302.1844Q36.721874 302.1844 37.1125 301.5594Q37.503124 300.9344 37.51875 299.60626L37.51875 297.825Z" fill-rule="nonzero"/><path fill="#000000" d="M29.815624 250.78334L28.7375 250.78334L28.7375 243.56459L26.55 244.36147L26.55 243.37709L29.659374 242.20522L29.815624 242.20522L29.815624 250.78334ZM38.6125 247.14272Q38.6125 249.04897 37.95625 249.98647Q37.315624 250.90834 35.925 250.90834Q34.565624 250.90834 33.909374 250.00209Q33.253124 249.09584 33.221874 247.28334L33.221874 245.84584Q33.221874 243.95522 33.8625 243.04897Q34.51875 242.12709 35.909374 242.12709Q37.284374 242.12709 37.940624 243.01772Q38.596874 243.89272 38.6125 245.73647L38.6125 247.14272ZM37.51875 245.65834Q37.51875 244.28334 37.128124 243.65834Q36.753124 243.01772 35.909374 243.01772Q35.08125 243.01772 34.690624 243.65834Q34.315624 244.28334 34.315624 245.58022L34.315624 247.31459Q34.315624 248.68959 34.70625 249.36147Q35.1125 250.01772 35.925 250.01772Q36.721874 250.01772 37.1125 249.39272Q37.503124 248.76772 37.51875 247.43959L37.51875 245.65834Z" fill-rule="nonzero"/><path fill="#000000" d="M31.846874 198.61667L26.253124 198.61667L26.253124 197.83542L29.20625 194.55417Q29.8625 193.80417 30.1125 193.35104Q30.3625 192.8823 30.3625 192.3823Q30.3625 191.71042 29.95625 191.28854Q29.565624 190.85104 28.878124 190.85104Q28.08125 190.85104 27.628124 191.3198Q27.175 191.77292 27.175 192.60104L26.096874 192.60104Q26.096874 191.41354 26.846874 190.6948Q27.6125 189.96042 28.878124 189.96042Q30.08125 189.96042 30.76875 190.58542Q31.45625 191.21042 31.45625 192.2573Q31.45625 193.5073 29.846874 195.2573L27.565624 197.72604L31.846874 197.72604L31.846874 198.61667ZM38.6125 194.97604Q38.6125 196.8823 37.95625 197.8198Q37.315624 198.74167 35.925 198.74167Q34.565624 198.74167 33.909374 197.83542Q33.253124 196.92917 33.221874 195.11667L33.221874 193.67917Q33.221874 191.78854 33.8625 190.8823Q34.51875 189.96042 35.909374 189.96042Q37.284374 189.96042 37.940624 190.85104Q38.596874 191.72604 38.6125 193.5698L38.6125 194.97604ZM37.51875 193.49167Q37.51875 192.11667 37.128124 191.49167Q36.753124 190.85104 35.909374 190.85104Q35.08125 190.85104 34.690624 191.49167Q34.315624 192.11667 34.315624 193.41354L34.315624 195.14792Q34.315624 196.52292 34.70625 197.1948Q35.1125 197.85104 35.925 197.85104Q36.721874 197.85104 37.1125 197.22604Q37.503124 196.60104 37.51875 195.27292L37.51875 193.49167Z" fill-rule="nonzero"/><path fill="#000000" d="M27.83125 141.65312L28.64375 141.65312Q29.425 141.6375 29.8625 141.24687Q30.3 140.85625 30.3 140.18437Q30.3 138.68437 28.8 138.68437Q28.096874 138.68437 27.675 139.09062Q27.26875 139.49687 27.26875 140.15312L26.175 140.15312Q26.175 139.1375 26.909374 138.46562Q27.659374 137.79375 28.8 137.79375Q30.003124 137.79375 30.690624 138.43437Q31.378124 139.075 31.378124 140.21562Q31.378124 140.77812 31.01875 141.29375Q30.659374 141.80937 30.034374 142.075Q30.7375 142.29375 31.1125 142.80937Q31.503124 143.325 31.503124 144.075Q31.503124 145.21562 30.753124 145.90312Q30.003124 146.575 28.8 146.575Q27.6125 146.575 26.846874 145.91875Q26.096874 145.2625 26.096874 144.2L27.190624 144.2Q27.190624 144.87187 27.628124 145.27812Q28.065624 145.68437 28.815624 145.68437Q29.596874 145.68437 30.003124 145.27812Q30.425 144.85625 30.425 144.09062Q30.425 143.35625 29.971874 142.96562Q29.51875 142.55937 28.64375 142.54375L27.83125 142.54375L27.83125 141.65312ZM38.6125 142.80937Q38.6125 144.71562 37.95625 145.65312Q37.315624 146.575 35.925 146.575Q34.565624 146.575 33.909374 145.66875Q33.253124 144.7625 33.221874 142.95L33.221874 141.5125Q33.221874 139.62187 33.8625 138.71562Q34.51875 137.79375 35.909374 137.79375Q37.284374 137.79375 37.940624 138.68437Q38.596874 139.55937 38.6125 141.40312L38.6125 142.80937ZM37.51875 141.325Q37.51875 139.95 37.128124 139.325Q36.753124 138.68437 35.909374 138.68437Q35.08125 138.68437 34.690624 139.325Q34.315624 139.95 34.315624 141.24687L34.315624 142.98125Q34.315624 144.35625 34.70625 145.02812Q35.1125 145.68437 35.925 145.68437Q36.721874 145.68437 37.1125 145.05937Q37.503124 144.43437 37.51875 143.10625L37.51875 141.325Z" fill-rule="nonzero"/><path fill="#000000" d="M30.83125 91.42396L32.01875 91.42396L32.01875 92.29896L30.83125 92.29896L30.83125 94.28333L29.753124 94.28333L29.753124 92.29896L25.8625 92.29896L25.8625 91.65833L29.675 85.75208L30.83125 85.75208L30.83125 91.42396ZM27.096874 91.42396L29.753124 91.42396L29.753124 87.23646L29.6125 87.47083L27.096874 91.42396ZM38.6125 90.64271Q38.6125 92.54896 37.95625 93.48646Q37.315624 94.40833 35.925 94.40833Q34.565624 94.40833 33.909374 93.50208Q33.253124 92.59583 33.221874 90.78333L33.221874 89.34583Q33.221874 87.45521 33.8625 86.54896Q34.51875 85.62708 35.909374 85.62708Q37.284374 85.62708 37.940624 86.51771Q38.596874 87.39271 38.6125 89.23646L38.6125 90.64271ZM37.51875 89.15833Q37.51875 87.78333 37.128124 87.15833Q36.753124 86.51771 35.909374 86.51771Q35.08125 86.51771 34.690624 87.15833Q34.315624 87.78333 34.315624 89.08021L34.315624 90.81458Q34.315624 92.18958 34.70625 92.86146Q35.1125 93.51771 35.925 93.51771Q36.721874 93.51771 37.1125 92.89271Q37.503124 92.26771 37.51875 90.93958L37.51875 89.15833Z" fill-rule="nonzero"/><path fill="#000000" d="M72.12383 312.16876L72.56133 307.91876L76.93633 307.91876L76.93633 308.91876L73.48321 308.91876L73.21758 311.2469Q73.85821 310.8719 74.65508 310.8719Q75.81133 310.8719 76.49883 311.65314Q77.18633 312.41876 77.18633 313.73126Q77.18633 315.04376 76.46758 315.8094Q75.76446 316.575 74.48321 316.575Q73.35821 316.575 72.63946 315.95Q71.92071 315.3094 71.82696 314.2L72.84258 314.2Q72.95196 314.9344 73.37383 315.3094Q73.79571 315.6844 74.48321 315.6844Q75.23321 315.6844 75.67071 315.16876Q76.10821 314.65314 76.10821 313.7469Q76.10821 312.8875 75.63946 312.3719Q75.17071 311.85626 74.38946 311.85626Q73.68633 311.85626 73.28008 312.15314L72.99883 312.3875L72.12383 312.16876ZM81.28008 315.6844Q81.85821 315.6844 82.29571 315.34064Q82.73321 314.98126 82.78008 314.45L83.81133 314.45Q83.78008 314.9969 83.42071 315.4969Q83.07696 315.98126 82.49883 316.27814Q81.93633 316.575 81.28008 316.575Q79.98321 316.575 79.21758 315.71564Q78.46758 314.84064 78.46758 313.34064L78.46758 313.15314Q78.46758 312.23126 78.79571 311.5125Q79.13946 310.79376 79.76446 310.40314Q80.40508 309.9969 81.28008 309.9969Q82.34258 309.9969 83.04571 310.6375Q83.76446 311.2625 83.81133 312.29376L82.78008 312.29376Q82.73321 311.66876 82.31133 311.27814Q81.88946 310.8875 81.28008 310.8875Q80.45196 310.8875 79.99883 311.48126Q79.54571 312.075 79.54571 313.2L79.54571 313.40314Q79.54571 314.4969 79.99883 315.09064Q80.45196 315.6844 81.28008 315.6844Z" fill-rule="nonzero"/><path fill="#000000" d="M115.83969 312.16876L116.27719 307.91876L120.65219 307.91876L120.65219 308.91876L117.199066 308.91876L116.93344 311.2469Q117.574066 310.8719 118.37094 310.8719Q119.52719 310.8719 120.21469 311.65314Q120.90219 312.41876 120.90219 313.73126Q120.90219 315.04376 120.18344 315.8094Q119.480316 316.575 118.199066 316.575Q117.074066 316.575 116.355316 315.95Q115.636566 315.3094 115.542816 314.2L116.55844 314.2Q116.667816 314.9344 117.08969 315.3094Q117.511566 315.6844 118.199066 315.6844Q118.949066 315.6844 119.386566 315.16876Q119.824066 314.65314 119.824066 313.7469Q119.824066 312.8875 119.355316 312.3719Q118.886566 311.85626 118.105316 311.85626Q117.40219 311.85626 116.99594 312.15314L116.71469 312.3875L115.83969 312.16876ZM124.99594 315.6844Q125.574066 315.6844 126.011566 315.34064Q126.449066 314.98126 126.49594 314.45L127.52719 314.45Q127.49594 314.9969 127.136566 315.4969Q126.792816 315.98126 126.21469 316.27814Q125.65219 316.575 124.99594 316.575Q123.699066 316.575 122.93344 315.71564Q122.18344 314.84064 122.18344 313.34064L122.18344 313.15314Q122.18344 312.23126 122.511566 311.5125Q122.855316 310.79376 123.480316 310.40314Q124.12094 309.9969 124.99594 309.9969Q126.05844 309.9969 126.761566 310.6375Q127.480316 311.2625 127.52719 312.29376L126.49594 312.29376Q126.449066 311.66876 126.02719 311.27814Q125.605316 310.8875 124.99594 310.8875Q124.167816 310.8875 123.71469 311.48126Q123.261566 312.075 123.261566 313.2L123.261566 313.40314Q123.261566 314.4969 123.71469 315.09064Q124.167816 315.6844 124.99594 315.6844ZM131.55844 311.8719L133.94907 311.8719L133.94907 312.90314L131.55844 312.90314L131.55844 315.59064L130.48032 315.59064L130.48032 312.90314L128.08969 312.90314L128.08969 311.8719L130.48032 311.8719L130.48032 309.3875L131.55844 309.3875L131.55844 311.8719Z" fill-rule="nonzero"/><path fill="#000000" d="M169.82117 307.91876L169.82117 308.825L169.61804 308.825Q168.35242 308.85626 167.60242 309.59064Q166.85242 310.3094 166.72742 311.6219Q167.41492 310.85626 168.57117 310.85626Q169.68054 310.85626 170.35242 311.6375Q171.02429 312.41876 171.02429 313.66876Q171.02429 314.98126 170.30554 315.77814Q169.58679 316.575 168.36804 316.575Q167.14929 316.575 166.38367 315.6375Q165.63367 314.6844 165.63367 313.2L165.63367 312.79376Q165.63367 310.4344 166.63367 309.1844Q167.63367 307.9344 169.61804 307.91876L169.82117 307.91876ZM168.39929 311.7625Q167.83679 311.7625 167.36804 312.09064Q166.89929 312.41876 166.71179 312.9344L166.71179 313.325Q166.71179 314.3875 167.18054 315.02814Q167.66492 315.66876 168.36804 315.66876Q169.10242 315.66876 169.52429 315.1375Q169.94617 314.59064 169.94617 313.71564Q169.94617 312.84064 169.52429 312.3094Q169.10242 311.7625 168.39929 311.7625ZM176.58679 316.45Q176.49304 316.2625 176.43054 315.77814Q175.68054 316.575 174.63367 316.575Q173.69617 316.575 173.08679 316.04376Q172.49304 315.5125 172.49304 314.6844Q172.49304 313.7 173.24304 313.15314Q173.99304 312.60626 175.36804 312.60626L176.41492 312.60626L176.41492 312.10626Q176.41492 311.54376 176.07117 311.21564Q175.74304 310.8719 175.07117 310.8719Q174.49304 310.8719 174.10242 311.16876Q173.71179 311.45 173.71179 311.8719L172.61804 311.8719Q172.61804 311.3875 172.94617 310.95Q173.28992 310.5125 173.86804 310.2625Q174.44617 309.9969 175.13367 309.9969Q176.24304 309.9969 176.85242 310.54376Q177.47742 311.09064 177.50867 312.04376L177.50867 314.96564Q177.50867 315.84064 177.72742 316.35626L177.72742 316.45L176.58679 316.45ZM174.78992 315.6219Q175.30554 315.6219 175.75867 315.35626Q176.21179 315.09064 176.41492 314.66876L176.41492 313.3719L175.57117 313.3719Q173.57117 313.3719 173.57117 314.54376Q173.57117 315.04376 173.91492 315.34064Q174.25867 315.6219 174.78992 315.6219Z" fill-rule="nonzero"/><path fill="#000000" d="M213.53703 307.91876L213.53703 308.825L213.33391 308.825Q212.06828 308.85626 211.31828 309.59064Q210.56828 310.3094 210.44328 311.6219Q211.13078 310.85626 212.28703 310.85626Q213.39641 310.85626 214.06828 311.6375Q214.74016 312.41876 214.74016 313.66876Q214.74016 314.98126 214.02141 315.77814Q213.30266 316.575 212.08391 316.575Q210.86516 316.575 210.09953 315.6375Q209.34953 314.6844 209.34953 313.2L209.34953 312.79376Q209.34953 310.4344 210.34953 309.1844Q211.34953 307.9344 213.33391 307.91876L213.53703 307.91876ZM212.11516 311.7625Q211.55266 311.7625 211.08391 312.09064Q210.61516 312.41876 210.42766 312.9344L210.42766 313.325Q210.42766 314.3875 210.89641 315.02814Q211.38078 315.66876 212.08391 315.66876Q212.81828 315.66876 213.24016 315.1375Q213.66203 314.59064 213.66203 313.71564Q213.66203 312.84064 213.24016 312.3094Q212.81828 311.7625 212.11516 311.7625ZM220.30266 316.45Q220.20891 316.2625 220.14641 315.77814Q219.39641 316.575 218.34953 316.575Q217.41203 316.575 216.80266 316.04376Q216.20891 315.5125 216.20891 314.6844Q216.20891 313.7 216.95891 313.15314Q217.70891 312.60626 219.08391 312.60626L220.13078 312.60626L220.13078 312.10626Q220.13078 311.54376 219.78703 311.21564Q219.45891 310.8719 218.78703 310.8719Q218.20891 310.8719 217.81828 311.16876Q217.42766 311.45 217.42766 311.8719L216.33391 311.8719Q216.33391 311.3875 216.66203 310.95Q217.00578 310.5125 217.58391 310.2625Q218.16203 309.9969 218.84953 309.9969Q219.95891 309.9969 220.56828 310.54376Q221.19328 311.09064 221.22453 312.04376L221.22453 314.96564Q221.22453 315.84064 221.44328 316.35626L221.44328 316.45L220.30266 316.45ZM218.50578 315.6219Q219.02141 315.6219 219.47453 315.35626Q219.92766 315.09064 220.13078 314.66876L220.13078 313.3719L219.28703 313.3719Q217.28703 313.3719 217.28703 314.54376Q217.28703 315.04376 217.63078 315.34064Q217.97453 315.6219 218.50578 315.6219ZM226.49016 311.8719L228.88078 311.8719L228.88078 312.90314L226.49016 312.90314L226.49016 315.59064L225.41203 315.59064L225.41203 312.90314L223.02141 312.90314L223.02141 311.8719L225.41203 311.8719L225.41203 309.3875L226.49016 309.3875L226.49016 311.8719Z" fill-rule="nonzero"/><path fill="#000000" d="M264.2529 307.91876L264.2529 308.825L264.04977 308.825Q262.78415 308.85626 262.03415 309.59064Q261.28415 310.3094 261.15915 311.6219Q261.84665 310.85626 263.0029 310.85626Q264.11227 310.85626 264.78415 311.6375Q265.45602 312.41876 265.45602 313.66876Q265.45602 314.98126 264.73727 315.77814Q264.01852 316.575 262.79977 316.575Q261.58102 316.575 260.8154 315.6375Q260.0654 314.6844 260.0654 313.2L260.0654 312.79376Q260.0654 310.4344 261.0654 309.1844Q262.0654 307.9344 264.04977 307.91876L264.2529 307.91876ZM262.83102 311.7625Q262.26852 311.7625 261.79977 312.09064Q261.33102 312.41876 261.14352 312.9344L261.14352 313.325Q261.14352 314.3875 261.61227 315.02814Q262.09665 315.66876 262.79977 315.66876Q263.53415 315.66876 263.95602 315.1375Q264.3779 314.59064 264.3779 313.71564Q264.3779 312.84064 263.95602 312.3094Q263.53415 311.7625 262.83102 311.7625ZM272.47165 313.35626Q272.47165 314.8094 271.79977 315.7Q271.14352 316.575 270.01852 316.575Q268.8154 316.575 268.15915 315.71564L268.09665 316.45L267.11227 316.45L267.11227 307.45L268.1904 307.45L268.1904 310.8094Q268.84665 309.9969 270.0029 309.9969Q271.15915 309.9969 271.8154 310.8719Q272.47165 311.73126 272.47165 313.2625L272.47165 313.35626ZM271.39352 313.23126Q271.39352 312.1219 270.95602 311.52814Q270.53415 310.91876 269.73727 310.91876Q268.65915 310.91876 268.1904 311.90314L268.1904 314.65314Q268.6904 315.65314 269.73727 315.65314Q270.51852 315.65314 270.95602 315.04376Q271.39352 314.4344 271.39352 313.23126Z" fill-rule="nonzero"/><path fill="#000000" d="M307.96875 307.91876L307.96875 308.825L307.76562 308.825Q306.5 308.85626 305.75 309.59064Q305.0 310.3094 304.875 311.6219Q305.5625 310.85626 306.71875 310.85626Q307.82812 310.85626 308.5 311.6375Q309.17188 312.41876 309.17188 313.66876Q309.17188 314.98126 308.45312 315.77814Q307.73438 316.575 306.51562 316.575Q305.29688 316.575 304.53125 315.6375Q303.78125 314.6844 303.78125 313.2L303.78125 312.79376Q303.78125 310.4344 304.78125 309.1844Q305.78125 307.9344 307.76562 307.91876L307.96875 307.91876ZM306.54688 311.7625Q305.98438 311.7625 305.51562 312.09064Q305.04688 312.41876 304.85938 312.9344L304.85938 313.325Q304.85938 314.3875 305.32812 315.02814Q305.8125 315.66876 306.51562 315.66876Q307.25 315.66876 307.67188 315.1375Q308.09375 314.59064 308.09375 313.71564Q308.09375 312.84064 307.67188 312.3094Q307.25 311.7625 306.54688 311.7625ZM316.1875 313.35626Q316.1875 314.8094 315.51562 315.7Q314.85938 316.575 313.73438 316.575Q312.53125 316.575 311.875 315.71564L311.8125 316.45L310.82812 316.45L310.82812 307.45L311.90625 307.45L311.90625 310.8094Q312.5625 309.9969 313.71875 309.9969Q314.875 309.9969 315.53125 310.8719Q316.1875 311.73126 316.1875 313.2625L316.1875 313.35626ZM315.10938 313.23126Q315.10938 312.1219 314.67188 311.52814Q314.25 310.91876 313.45312 310.91876Q312.375 310.91876 311.90625 311.90314L311.90625 314.65314Q312.40625 315.65314 313.45312 315.65314Q314.23438 315.65314 314.67188 315.04376Q315.10938 314.4344 315.10938 313.23126ZM320.92188 311.8719L323.3125 311.8719L323.3125 312.90314L320.92188 312.90314L320.92188 315.59064L319.84375 315.59064L319.84375 312.90314L317.45312 312.90314L317.45312 311.8719L319.84375 311.8719L319.84375 309.3875L320.92188 309.3875L320.92188 311.8719Z" fill-rule="nonzero"/><path fill="#000000" d="M359.1846 307.91876L359.1846 308.825L358.98148 308.825Q357.71585 308.85626 356.96585 309.59064Q356.21585 310.3094 356.09085 311.6219Q356.77835 310.85626 357.9346 310.85626Q359.04398 310.85626 359.71585 311.6375Q360.38773 312.41876 360.38773 313.66876Q360.38773 314.98126 359.66898 315.77814Q358.95023 316.575 357.73148 316.575Q356.51273 316.575 355.7471 315.6375Q354.9971 314.6844 354.9971 313.2L354.9971 312.79376Q354.9971 310.4344 355.9971 309.1844Q356.9971 307.9344 358.98148 307.91876L359.1846 307.91876ZM357.76273 311.7625Q357.20023 311.7625 356.73148 312.09064Q356.26273 312.41876 356.07523 312.9344L356.07523 313.325Q356.07523 314.3875 356.54398 315.02814Q357.02835 315.66876 357.73148 315.66876Q358.46585 315.66876 358.88773 315.1375Q359.3096 314.59064 359.3096 313.71564Q359.3096 312.84064 358.88773 312.3094Q358.46585 311.7625 357.76273 311.7625ZM364.57523 315.6844Q365.15335 315.6844 365.59085 315.34064Q366.02835 314.98126 366.07523 314.45L367.10648 314.45Q367.07523 314.9969 366.71585 315.4969Q366.3721 315.98126 365.79398 316.27814Q365.23148 316.575 364.57523 316.575Q363.27835 316.575 362.51273 315.71564Q361.76273 314.84064 361.76273 313.34064L361.76273 313.15314Q361.76273 312.23126 362.09085 311.5125Q362.4346 310.79376 363.0596 310.40314Q363.70023 309.9969 364.57523 309.9969Q365.63773 309.9969 366.34085 310.6375Q367.0596 311.2625 367.10648 312.29376L366.07523 312.29376Q366.02835 311.66876 365.60648 311.27814Q365.1846 310.8875 364.57523 310.8875Q363.7471 310.8875 363.29398 311.48126Q362.84085 312.075 362.84085 313.2L362.84085 313.40314Q362.84085 314.4969 363.29398 315.09064Q363.7471 315.6844 364.57523 315.6844Z" fill-rule="nonzero"/><path fill="#000000" d="M402.90048 307.91876L402.90048 308.825L402.69736 308.825Q401.43173 308.85626 400.68173 309.59064Q399.93173 310.3094 399.80673 311.6219Q400.49423 310.85626 401.65048 310.85626Q402.75986 310.85626 403.43173 311.6375Q404.1036 312.41876 404.1036 313.66876Q404.1036 314.98126 403.38486 315.77814Q402.6661 316.575 401.44736 316.575Q400.2286 316.575 399.46298 315.6375Q398.71298 314.6844 398.71298 313.2L398.71298 312.79376Q398.71298 310.4344 399.71298 309.1844Q400.71298 307.9344 402.69736 307.91876L402.90048 307.91876ZM401.4786 311.7625Q400.9161 311.7625 400.44736 312.09064Q399.9786 312.41876 399.7911 312.9344L399.7911 313.325Q399.7911 314.3875 400.25986 315.02814Q400.74423 315.66876 401.44736 315.66876Q402.18173 315.66876 402.6036 315.1375Q403.02548 314.59064 403.02548 313.71564Q403.02548 312.84064 402.6036 312.3094Q402.18173 311.7625 401.4786 311.7625ZM408.2911 315.6844Q408.86923 315.6844 409.30673 315.34064Q409.74423 314.98126 409.7911 314.45L410.82236 314.45Q410.7911 314.9969 410.43173 315.4969Q410.08798 315.98126 409.50986 316.27814Q408.94736 316.575 408.2911 316.575Q406.99423 316.575 406.2286 315.71564Q405.4786 314.84064 405.4786 313.34064L405.4786 313.15314Q405.4786 312.23126 405.80673 311.5125Q406.15048 310.79376 406.77548 310.40314Q407.4161 309.9969 408.2911 309.9969Q409.3536 309.9969 410.05673 310.6375Q410.77548 311.2625 410.82236 312.29376L409.7911 312.29376Q409.74423 311.66876 409.32236 311.27814Q408.90048 310.8875 408.2911 310.8875Q407.46298 310.8875 407.00986 311.48126Q406.55673 312.075 406.55673 313.2L406.55673 313.40314Q406.55673 314.4969 407.00986 315.09064Q407.46298 315.6844 408.2911 315.6844ZM414.8536 311.8719L417.24423 311.8719L417.24423 312.90314L414.8536 312.90314L414.8536 315.59064L413.77548 315.59064L413.77548 312.90314L411.38486 312.90314L411.38486 311.8719L413.77548 311.8719L413.77548 309.3875L414.8536 309.3875L414.8536 311.8719Z" fill-rule="nonzero"/><path fill="#000000" d="M454.36633 308.52814L450.83508 316.45L449.69446 316.45L453.21008 308.8094L448.6007 308.8094L448.6007 307.91876L454.36633 307.91876L454.36633 308.52814ZM459.88196 316.45Q459.7882 316.2625 459.7257 315.77814Q458.9757 316.575 457.92883 316.575Q456.99133 316.575 456.38196 316.04376Q455.7882 315.5125 455.7882 314.6844Q455.7882 313.7 456.5382 313.15314Q457.2882 312.60626 458.6632 312.60626L459.71008 312.60626L459.71008 312.10626Q459.71008 311.54376 459.36633 311.21564Q459.0382 310.8719 458.36633 310.8719Q457.7882 310.8719 457.39758 311.16876Q457.00696 311.45 457.00696 311.8719L455.9132 311.8719Q455.9132 311.3875 456.24133 310.95Q456.58508 310.5125 457.1632 310.2625Q457.74133 309.9969 458.42883 309.9969Q459.5382 309.9969 460.14758 310.54376Q460.77258 311.09064 460.80383 312.04376L460.80383 314.96564Q460.80383 315.84064 461.02258 316.35626L461.02258 316.45L459.88196 316.45ZM458.08508 315.6219Q458.6007 315.6219 459.05383 315.35626Q459.50696 315.09064 459.71008 314.66876L459.71008 313.3719L458.86633 313.3719Q456.86633 313.3719 456.86633 314.54376Q456.86633 315.04376 457.21008 315.34064Q457.55383 315.6219 458.08508 315.6219Z" fill-rule="nonzero"/><path fill="#000000" d="M498.08218 308.52814L494.55093 316.45L493.4103 316.45L496.92593 308.8094L492.31656 308.8094L492.31656 307.91876L498.08218 307.91876L498.08218 308.52814ZM503.5978 316.45Q503.50406 316.2625 503.44156 315.77814Q502.69156 316.575 501.64468 316.575Q500.70718 316.575 500.0978 316.04376Q499.50406 315.5125 499.50406 314.6844Q499.50406 313.7 500.25406 313.15314Q501.00406 312.60626 502.37906 312.60626L503.42593 312.60626L503.42593 312.10626Q503.42593 311.54376 503.08218 311.21564Q502.75406 310.8719 502.08218 310.8719Q501.50406 310.8719 501.11343 311.16876Q500.7228 311.45 500.7228 311.8719L499.62906 311.8719Q499.62906 311.3875 499.95718 310.95Q500.30093 310.5125 500.87906 310.2625Q501.45718 309.9969 502.14468 309.9969Q503.25406 309.9969 503.86343 310.54376Q504.48843 311.09064 504.51968 312.04376L504.51968 314.96564Q504.51968 315.84064 504.73843 316.35626L504.73843 316.45L503.5978 316.45ZM501.80093 315.6219Q502.31656 315.6219 502.76968 315.35626Q503.2228 315.09064 503.42593 314.66876L503.42593 313.3719L502.58218 313.3719Q500.58218 313.3719 500.58218 314.54376Q500.58218 315.04376 500.92593 315.34064Q501.26968 315.6219 501.80093 315.6219ZM509.7853 311.8719L512.1759 311.8719L512.1759 312.90314L509.7853 312.90314L509.7853 315.59064L508.70718 315.59064L508.70718 312.90314L506.31656 312.90314L506.31656 311.8719L508.70718 311.8719L508.70718 309.3875L509.7853 309.3875L509.7853 311.8719Z" fill-rule="nonzero"/><path fill="#000000" d="M548.79803 308.52814L545.2668 316.45L544.12616 316.45L547.6418 308.8094L543.0324 308.8094L543.0324 307.91876L548.79803 307.91876L548.79803 308.52814ZM555.7668 313.35626Q555.7668 314.8094 555.0949 315.7Q554.43866 316.575 553.31366 316.575Q552.11053 316.575 551.4543 315.71564L551.3918 316.45L550.4074 316.45L550.4074 307.45L551.48553 307.45L551.48553 310.8094Q552.1418 309.9969 553.29803 309.9969Q554.4543 309.9969 555.11053 310.8719Q555.7668 311.73126 555.7668 313.2625L555.7668 313.35626ZM554.68866 313.23126Q554.68866 312.1219 554.25116 311.52814Q553.8293 310.91876 553.0324 310.91876Q551.9543 310.91876 551.48553 311.90314L551.48553 314.65314Q551.98553 315.65314 553.0324 315.65314Q553.81366 315.65314 554.25116 315.04376Q554.68866 314.4344 554.68866 313.23126Z" fill-rule="nonzero"/><path fill="#fbbc04" d="M192.5 57.416668C192.5 56.864384 192.94771 56.416668 193.5 56.416668L203.5 56.416668C204.05229 56.416668 204.5 56.864384 204.5 57.416668L204.5 67.416664C204.5 67.96895 204.05229 68.416664 203.5 68.416664L193.5 68.416664C192.94771 68.416664 192.5 67.96895 192.5 67.416664Z" fill-rule="nonzero"/><path fill="#1a1a1a" d="M213.85938 66.916664L213.85938 61.416664L212.85938 61.416664L212.85938 60.572914L213.85938 60.572914L213.85938 59.93229Q213.85938 58.90104 214.39062 58.354164Q214.9375 57.791664 215.9375 57.791664Q216.3125 57.791664 216.6875 57.885414L216.625 58.77604Q216.34375 58.71354 216.04688 58.71354Q215.51562 58.71354 215.21875 59.02604Q214.9375 59.33854 214.9375 59.90104L214.9375 60.572914L216.29688 60.572914L216.29688 61.416664L214.9375 61.416664L214.9375 66.916664L213.85938 66.916664ZM218.5 66.916664L217.42188 66.916664L217.42188 57.916664L218.5 57.916664L218.5 66.916664ZM224.23438 66.916664Q224.14062 66.729164 224.07812 66.24479Q223.32812 67.041664 222.28125 67.041664Q221.34375 67.041664 220.73438 66.510414Q220.14062 65.979164 220.14062 65.15104Q220.14062 64.166664 220.89062 63.61979Q221.64062 63.072914 223.01562 63.072914L224.0625 63.072914L224.0625 62.572914Q224.0625 62.010414 223.71875 61.68229Q223.39062 61.33854 222.71875 61.33854Q222.14062 61.33854 221.75 61.635414Q221.35938 61.916664 221.35938 62.33854L220.26562 62.33854Q220.26562 61.854164 220.59375 61.416664Q220.9375 60.979164 221.51562 60.729164Q222.09375 60.46354 222.78125 60.46354Q223.89062 60.46354 224.5 61.010414Q225.125 61.55729 225.15625 62.510414L225.15625 65.43229Q225.15625 66.30729 225.375 66.822914L225.375 66.916664L224.23438 66.916664ZM222.4375 66.08854Q222.95312 66.08854 223.40625 65.822914Q223.85938 65.55729 224.0625 65.135414L224.0625 63.83854L223.21875 63.83854Q221.21875 63.83854 221.21875 65.010414Q221.21875 65.510414 221.5625 65.80729Q221.90625 66.08854 222.4375 66.08854ZM231.01562 65.229164Q231.01562 64.791664 230.67188 64.55729Q230.34375 64.30729 229.51562 64.135414Q228.70312 63.96354 228.21875 63.71354Q227.73438 63.46354 227.5 63.135414Q227.28125 62.791664 227.28125 62.322914Q227.28125 61.541664 227.9375 61.010414Q228.59375 60.46354 229.625 60.46354Q230.70312 60.46354 231.35938 61.02604Q232.03125 61.572914 232.03125 62.43229L230.95312 62.43229Q230.95312 61.99479 230.5625 61.68229Q230.1875 61.354164 229.625 61.354164Q229.03125 61.354164 228.6875 61.61979Q228.35938 61.86979 228.35938 62.27604Q228.35938 62.666664 228.67188 62.86979Q228.98438 63.072914 229.79688 63.260414Q230.60938 63.43229 231.10938 63.68229Q231.60938 63.93229 231.84375 64.291664Q232.09375 64.65104 232.09375 65.15104Q232.09375 66.010414 231.40625 66.52604Q230.73438 67.041664 229.65625 67.041664Q228.89062 67.041664 228.29688 66.77604Q227.71875 66.49479 227.39062 66.010414Q227.0625 65.52604 227.0625 64.96354L228.14062 64.96354Q228.17188 65.510414 228.57812 65.83854Q228.98438 66.15104 229.65625 66.15104Q230.26562 66.15104 230.64062 65.90104Q231.01562 65.65104 231.01562 65.229164ZM234.40625 61.33854Q235.125 60.46354 236.28125 60.46354Q238.29688 60.46354 238.3125 62.729164L238.3125 66.916664L237.21875 66.916664L237.21875 62.71354Q237.21875 62.041664 236.90625 61.71354Q236.60938 61.385414 235.95312 61.385414Q235.42188 61.385414 235.01562 61.666664Q234.625 61.947914 234.40625 62.40104L234.40625 66.916664L233.32812 66.916664L233.32812 57.916664L234.40625 57.916664L234.40625 61.33854Z" fill-rule="nonzero"/><path fill="#ea4335" d="M255.5 57.416668C255.5 56.864384 255.94771 56.416668 256.5 56.416668L266.5 56.416668C267.05228 56.416668 267.5 56.864384 267.5 57.416668L267.5 67.416664C267.5 67.96895 267.05228 68.416664 266.5 68.416664L256.5 68.416664C255.94771 68.416664 255.5 67.96895 255.5 67.416664Z" fill-rule="nonzero"/><path fill="#1a1a1a" d="M280.23438 66.916664Q280.14062 66.729164 280.07812 66.24479Q279.32812 67.041664 278.28125 67.041664Q277.34375 67.041664 276.73438 66.510414Q276.14062 65.979164 276.14062 65.15104Q276.14062 64.166664 276.89062 63.61979Q277.64062 63.072914 279.01562 63.072914L280.0625 63.072914L280.0625 62.572914Q280.0625 62.010414 279.71875 61.68229Q279.39062 61.33854 278.71875 61.33854Q278.14062 61.33854 277.75 61.635414Q277.35938 61.916664 277.35938 62.33854L276.26562 62.33854Q276.26562 61.854164 276.59375 61.416664Q276.9375 60.979164 277.51562 60.729164Q278.09375 60.46354 278.78125 60.46354Q279.89062 60.46354 280.5 61.010414Q281.125 61.55729 281.15625 62.510414L281.15625 65.43229Q281.15625 66.30729 281.375 66.822914L281.375 66.916664L280.23438 66.916664ZM278.4375 66.08854Q278.95312 66.08854 279.40625 65.822914Q279.85938 65.55729 280.0625 65.135414L280.0625 63.83854L279.21875 63.83854Q277.21875 63.83854 277.21875 65.010414Q277.21875 65.510414 277.5625 65.80729Q277.90625 66.08854 278.4375 66.08854ZM288.67188 63.822914Q288.67188 65.260414 288.01562 66.15104Q287.35938 67.041664 286.21875 67.041664Q285.0625 67.041664 284.40625 66.30729L284.40625 69.354164L283.32812 69.354164L283.32812 60.572914L284.3125 60.572914L284.35938 61.27604Q285.03125 60.46354 286.20312 60.46354Q287.34375 60.46354 288.0 61.322914Q288.67188 62.18229 288.67188 63.71354L288.67188 63.822914ZM287.59375 63.697914Q287.59375 62.61979 287.125 62.010414Q286.67188 61.385414 285.875 61.385414Q284.89062 61.385414 284.40625 62.24479L284.40625 65.27604Q284.89062 66.15104 285.89062 66.15104Q286.67188 66.15104 287.125 65.541664Q287.59375 64.916664 287.59375 63.697914ZM293.39062 61.541664Q293.14062 61.510414 292.85938 61.510414Q291.78125 61.510414 291.40625 62.416664L291.40625 66.916664L290.32812 66.916664L290.32812 60.572914L291.375 60.572914L291.39062 61.30729Q291.92188 60.46354 292.90625 60.46354Q293.21875 60.46354 293.39062 60.541664L293.39062 61.541664ZM296.95312 67.041664Q295.65625 67.041664 294.84375 66.197914Q294.04688 65.33854 294.04688 63.916664L294.04688 63.729164Q294.04688 62.77604 294.40625 62.041664Q294.76562 61.291664 295.40625 60.885414Q296.0625 60.46354 296.8125 60.46354Q298.04688 60.46354 298.73438 61.27604Q299.42188 62.08854 299.42188 63.604164L299.42188 64.05729L295.125 64.05729Q295.15625 64.99479 295.67188 65.572914Q296.20312 66.15104 297.01562 66.15104Q297.57812 66.15104 297.96875 65.916664Q298.375 65.68229 298.6875 65.291664L299.34375 65.80729Q298.54688 67.041664 296.95312 67.041664ZM296.8125 61.354164Q296.15625 61.354164 295.70312 61.83854Q295.26562 62.30729 295.17188 63.166664L298.34375 63.166664L298.34375 63.08854Q298.29688 62.260414 297.89062 61.80729Q297.5 61.354164 296.8125 61.354164ZM297.28125 59.635414L296.34375 59.635414L294.82812 57.916664L296.14062 57.916664L297.28125 59.635414ZM304.01562 65.229164Q304.01562 64.791664 303.67188 64.55729Q303.34375 64.30729 302.51562 64.135414Q301.70312 63.96354 301.21875 63.71354Q300.73438 63.46354 300.5 63.135414Q300.28125 62.791664 300.28125 62.322914Q300.28125 61.541664 300.9375 61.010414Q301.59375 60.46354 302.625 60.46354Q303.70312 60.46354 304.35938 61.02604Q305.03125 61.572914 305.03125 62.43229L303.95312 62.43229Q303.95312 61.99479 303.5625 61.68229Q303.1875 61.354164 302.625 61.354164Q302.03125 61.354164 301.6875 61.61979Q301.35938 61.86979 301.35938 62.27604Q301.35938 62.666664 301.67188 62.86979Q301.98438 63.072914 302.79688 63.260414Q303.60938 63.43229 304.10938 63.68229Q304.60938 63.93229 304.84375 64.291664Q305.09375 64.65104 305.09375 65.15104Q305.09375 66.010414 304.40625 66.52604Q303.73438 67.041664 302.65625 67.041664Q301.89062 67.041664 301.29688 66.77604Q300.71875 66.49479 300.39062 66.010414Q300.0625 65.52604 300.0625 64.96354L301.14062 64.96354Q301.17188 65.510414 301.57812 65.83854Q301.98438 66.15104 302.65625 66.15104Q303.26562 66.15104 303.64062 65.90104Q304.01562 65.65104 304.01562 65.229164ZM310.79688 59.041664L310.79688 60.572914L311.96875 60.572914L311.96875 61.416664L310.79688 61.416664L310.79688 65.33854Q310.79688 65.729164 310.95312 65.916664Q311.10938 66.104164 311.48438 66.104164Q311.67188 66.104164 312.0 66.041664L312.0 66.916664Q311.57812 67.041664 311.17188 67.041664Q310.45312 67.041664 310.07812 66.604164Q309.70312 66.15104 309.70312 65.33854L309.70312 61.416664L308.54688 61.416664L308.54688 60.572914L309.70312 60.572914L309.70312 59.041664L310.79688 59.041664ZM316.39062 61.541664Q316.14062 61.510414 315.85938 61.510414Q314.78125 61.510414 314.40625 62.416664L314.40625 66.916664L313.32812 66.916664L313.32812 60.572914L314.375 60.572914L314.39062 61.30729Q314.92188 60.46354 315.90625 60.46354Q316.21875 60.46354 316.39062 60.541664L316.39062 61.541664ZM321.23438 66.916664Q321.14062 66.729164 321.07812 66.24479Q320.32812 67.041664 319.28125 67.041664Q318.34375 67.041664 317.73438 66.510414Q317.14062 65.979164 317.14062 65.15104Q317.14062 64.166664 317.89062 63.61979Q318.64062 63.072914 320.01562 63.072914L321.0625 63.072914L321.0625 62.572914Q321.0625 62.010414 320.71875 61.68229Q320.39062 61.33854 319.71875 61.33854Q319.14062 61.33854 318.75 61.635414Q318.35938 61.916664 318.35938 62.33854L317.26562 62.33854Q317.26562 61.854164 317.59375 61.416664Q317.9375 60.979164 318.51562 60.729164Q319.09375 60.46354 319.78125 60.46354Q320.89062 60.46354 321.5 61.010414Q322.125 61.55729 322.15625 62.510414L322.15625 65.43229Q322.15625 66.30729 322.375 66.822914L322.375 66.916664L321.23438 66.916664ZM319.4375 66.08854Q319.95312 66.08854 320.40625 65.822914Q320.85938 65.55729 321.0625 65.135414L321.0625 63.83854L320.21875 63.83854Q318.21875 63.83854 318.21875 65.010414Q318.21875 65.510414 318.5625 65.80729Q318.90625 66.08854 319.4375 66.08854ZM326.40625 65.447914L327.98438 60.572914L329.09375 60.572914L326.8125 66.916664L325.98438 66.916664L323.6875 60.572914L324.79688 60.572914L326.40625 65.447914ZM334.23438 66.916664Q334.14062 66.729164 334.07812 66.24479Q333.32812 67.041664 332.28125 67.041664Q331.34375 67.041664 330.73438 66.510414Q330.14062 65.979164 330.14062 65.15104Q330.14062 64.166664 330.89062 63.61979Q331.64062 63.072914 333.01562 63.072914L334.0625 63.072914L334.0625 62.572914Q334.0625 62.010414 333.71875 61.68229Q333.39062 61.33854 332.71875 61.33854Q332.14062 61.33854 331.75 61.635414Q331.35938 61.916664 331.35938 62.33854L330.26562 62.33854Q330.26562 61.854164 330.59375 61.416664Q330.9375 60.979164 331.51562 60.729164Q332.09375 60.46354 332.78125 60.46354Q333.89062 60.46354 334.5 61.010414Q335.125 61.55729 335.15625 62.510414L335.15625 65.43229Q335.15625 66.30729 335.375 66.822914L335.375 66.916664L334.23438 66.916664ZM332.4375 66.08854Q332.95312 66.08854 333.40625 65.822914Q333.85938 65.55729 334.0625 65.135414L334.0625 63.83854L333.21875 63.83854Q331.21875 63.83854 331.21875 65.010414Q331.21875 65.510414 331.5625 65.80729Q331.90625 66.08854 332.4375 66.08854ZM338.5 66.916664L337.42188 66.916664L337.42188 60.572914L338.5 60.572914L338.5 66.916664ZM337.32812 58.90104Q337.32812 58.635414 337.48438 58.447914Q337.65625 58.260414 337.96875 58.260414Q338.28125 58.260414 338.4375 58.447914Q338.60938 58.635414 338.60938 58.90104Q338.60938 59.15104 338.4375 59.33854Q338.28125 59.510414 337.96875 59.510414Q337.65625 59.510414 337.48438 59.33854Q337.32812 59.15104 337.32812 58.90104ZM341.5 66.916664L340.42188 66.916664L340.42188 57.916664L341.5 57.916664L341.5 66.916664Z" fill-rule="nonzero"/><path fill="#4285f4" d="M358.5 57.416668C358.5 56.864384 358.94772 56.416668 359.5 56.416668L369.5 56.416668C370.05228 56.416668 370.5 56.864384 370.5 57.416668L370.5 67.416664C370.5 67.96895 370.05228 68.416664 369.5 68.416664L359.5 68.416664C358.94772 68.416664 358.5 67.96895 358.5 67.416664Z" fill-rule="nonzero"/><path fill="#1a1a1a" d="M383.23438 66.916664Q383.14062 66.729164 383.07812 66.24479Q382.32812 67.041664 381.28125 67.041664Q380.34375 67.041664 379.73438 66.510414Q379.14062 65.979164 379.14062 65.15104Q379.14062 64.166664 379.89062 63.61979Q380.64062 63.072914 382.01562 63.072914L383.0625 63.072914L383.0625 62.572914Q383.0625 62.010414 382.71875 61.68229Q382.39062 61.33854 381.71875 61.33854Q381.14062 61.33854 380.75 61.635414Q380.35938 61.916664 380.35938 62.33854L379.26562 62.33854Q379.26562 61.854164 379.59375 61.416664Q379.9375 60.979164 380.51562 60.729164Q381.09375 60.46354 381.78125 60.46354Q382.89062 60.46354 383.5 61.010414Q384.125 61.55729 384.15625 62.510414L384.15625 65.43229Q384.15625 66.30729 384.375 66.822914L384.375 66.916664L383.23438 66.916664ZM381.4375 66.08854Q381.95312 66.08854 382.40625 65.822914Q382.85938 65.55729 383.0625 65.135414L383.0625 63.83854L382.21875 63.83854Q380.21875 63.83854 380.21875 65.010414Q380.21875 65.510414 380.5625 65.80729Q380.90625 66.08854 381.4375 66.08854ZM382.28125 59.635414L381.34375 59.635414L379.82812 57.916664L381.14062 57.916664L382.28125 59.635414ZM391.40625 65.447914L392.98438 60.572914L394.09375 60.572914L391.8125 66.916664L390.98438 66.916664L388.6875 60.572914L389.79688 60.572914L391.40625 65.447914ZM399.23438 66.291664Q398.60938 67.041664 397.375 67.041664Q396.35938 67.041664 395.82812 66.447914Q395.29688 65.854164 395.29688 64.697914L395.29688 60.572914L396.375 60.572914L396.375 64.666664Q396.375 66.11979 397.54688 66.11979Q398.79688 66.11979 399.20312 65.18229L399.20312 60.572914L400.29688 60.572914L400.29688 66.916664L399.26562 66.916664L399.23438 66.291664ZM404.95312 67.041664Q403.65625 67.041664 402.84375 66.197914Q402.04688 65.33854 402.04688 63.916664L402.04688 63.729164Q402.04688 62.77604 402.40625 62.041664Q402.76562 61.291664 403.40625 60.885414Q404.0625 60.46354 404.8125 60.46354Q406.04688 60.46354 406.73438 61.27604Q407.42188 62.08854 407.42188 63.604164L407.42188 64.05729L403.125 64.05729Q403.15625 64.99479 403.67188 65.572914Q404.20312 66.15104 405.01562 66.15104Q405.57812 66.15104 405.96875 65.916664Q406.375 65.68229 406.6875 65.291664L407.34375 65.80729Q406.54688 67.041664 404.95312 67.041664ZM404.8125 61.354164Q404.15625 61.354164 403.70312 61.83854Q403.26562 62.30729 403.17188 63.166664L406.34375 63.166664L406.34375 63.08854Q406.29688 62.260414 405.89062 61.80729Q405.5 61.354164 404.8125 61.354164Z" fill-rule="nonzero"/><path fill="#757575" d="M25.409374 31.8L22.08125 31.8L22.08125 37.55L20.190624 37.55L20.190624 23.33125L24.89375 23.33125Q27.3 23.33125 28.596874 24.425Q29.89375 25.51875 29.89375 27.6125Q29.89375 28.940624 29.175 29.925Q28.45625 30.909374 27.175 31.39375L30.51875 37.425L30.51875 37.55L28.503124 37.55L25.409374 31.8ZM22.08125 30.26875L24.95625 30.26875Q26.346874 30.26875 27.175 29.55Q28.003124 28.815624 28.003124 27.6125Q28.003124 26.284374 27.20625 25.58125Q26.425 24.878124 24.940624 24.878124L22.08125 24.878124L22.08125 30.26875ZM36.3 37.753124Q34.159374 37.753124 32.8 36.346874Q31.45625 34.925 31.45625 32.565624L31.45625 32.221874Q31.45625 30.659374 32.05 29.425Q32.659374 28.190624 33.7375 27.4875Q34.815624 26.784374 36.08125 26.784374Q38.14375 26.784374 39.284374 28.14375Q40.425 29.503124 40.425 32.034374L40.425 32.784374L33.26875 32.784374Q33.3 34.346874 34.175 35.315624Q35.05 36.26875 36.39375 36.26875Q37.3625 36.26875 38.01875 35.878124Q38.690624 35.4875 39.190624 34.846874L40.284374 35.70625Q38.95625 37.753124 36.3 37.753124ZM36.08125 28.26875Q34.9875 28.26875 34.2375 29.065624Q33.503124 29.8625 33.33125 31.3L38.6125 31.3L38.6125 31.159374Q38.534374 29.784374 37.8625 29.034374Q37.20625 28.26875 36.08125 28.26875ZM36.64375 22.55L38.83125 22.55L36.20625 25.425L34.753124 25.425L36.64375 22.55ZM49.440624 37.55Q49.284374 37.2375 49.190624 36.440624Q47.925 37.753124 46.175 37.753124Q44.6125 37.753124 43.6125 36.8625Q42.6125 35.971874 42.6125 34.6125Q42.6125 32.971874 43.8625 32.065624Q45.128124 31.14375 47.39375 31.14375L49.159374 31.14375L49.159374 30.315624Q49.159374 29.3625 48.58125 28.8Q48.01875 28.2375 46.925 28.2375Q45.95625 28.2375 45.3 28.7375Q44.64375 29.221874 44.64375 29.909374L42.83125 29.909374Q42.83125 29.128124 43.39375 28.39375Q43.95625 27.64375 44.909374 27.221874Q45.878124 26.784374 47.034374 26.784374Q48.8625 26.784374 49.89375 27.70625Q50.925 28.6125 50.971874 30.221874L50.971874 35.08125Q50.971874 36.534374 51.33125 37.39375L51.33125 37.55L49.440624 37.55ZM46.440624 36.175Q47.3 36.175 48.05 35.7375Q48.815624 35.3 49.159374 34.596874L49.159374 32.425L47.7375 32.425Q44.425 32.425 44.425 34.3625Q44.425 35.221874 44.9875 35.70625Q45.55 36.175 46.440624 36.175ZM55.878124 37.55L54.08125 37.55L54.08125 22.55L55.878124 22.55L55.878124 37.55ZM60.878124 37.55L59.08125 37.55L59.08125 26.9875L60.878124 26.9875L60.878124 37.55ZM58.925 24.175Q58.925 23.7375 59.190624 23.440624Q59.471874 23.128124 59.9875 23.128124Q60.51875 23.128124 60.784374 23.440624Q61.065624 23.7375 61.065624 24.175Q61.065624 24.6125 60.784374 24.909374Q60.51875 25.20625 59.9875 25.20625Q59.471874 25.20625 59.190624 24.909374Q58.925 24.6125 58.925 24.175ZM70.06563 34.753124Q70.06563 34.01875 69.51875 33.6125Q68.97188 33.20625 67.59688 32.909374Q66.22188 32.6125 65.40938 32.20625Q64.6125 31.8 64.22188 31.2375Q63.846874 30.659374 63.846874 29.878124Q63.846874 28.58125 64.94063 27.690624Q66.03438 26.784374 67.75313 26.784374Q69.55 26.784374 70.65938 27.721874Q71.78438 28.64375 71.78438 30.08125L69.95625 30.08125Q69.95625 29.346874 69.33125 28.815624Q68.70625 28.26875 67.75313 28.26875Q66.75313 28.26875 66.19063 28.70625Q65.64375 29.128124 65.64375 29.83125Q65.64375 30.471874 66.15938 30.815624Q66.675 31.14375 68.03438 31.45625Q69.39375 31.753124 70.22188 32.175Q71.06563 32.58125 71.47188 33.175Q71.87813 33.76875 71.87813 34.6125Q71.87813 36.034374 70.7375 36.89375Q69.6125 37.753124 67.8 37.753124Q66.53438 37.753124 65.55 37.3Q64.58125 36.846874 64.01875 36.05Q63.471874 35.2375 63.471874 34.3L65.28438 34.3Q65.33125 35.20625 66.00313 35.7375Q66.69063 36.26875 67.8 36.26875Q68.83125 36.26875 69.44063 35.8625Q70.06563 35.440624 70.06563 34.753124ZM80.44063 37.55Q80.28438 37.2375 80.19063 36.440624Q78.925 37.753124 77.175 37.753124Q75.6125 37.753124 74.6125 36.8625Q73.6125 35.971874 73.6125 34.6125Q73.6125 32.971874 74.8625 32.065624Q76.12813 31.14375 78.39375 31.14375L80.15938 31.14375L80.15938 30.315624Q80.15938 29.3625 79.58125 28.8Q79.01875 28.2375 77.925 28.2375Q76.95625 28.2375 76.3 28.7375Q75.64375 29.221874 75.64375 29.909374L73.83125 29.909374Q73.83125 29.128124 74.39375 28.39375Q74.95625 27.64375 75.90938 27.221874Q76.87813 26.784374 78.03438 26.784374Q79.8625 26.784374 80.89375 27.70625Q81.925 28.6125 81.97188 30.221874L81.97188 35.08125Q81.97188 36.534374 82.33125 37.39375L82.33125 37.55L80.44063 37.55ZM77.44063 36.175Q78.3 36.175 79.05 35.7375Q79.81563 35.3 80.15938 34.596874L80.15938 32.425L78.7375 32.425Q75.425 32.425 75.425 34.3625Q75.425 35.221874 75.9875 35.70625Q76.55 36.175 77.44063 36.175ZM87.3625 24.425L87.3625 26.9875L89.34688 26.9875L89.34688 28.378124L87.3625 28.378124L87.3625 34.925Q87.3625 35.565624 87.62813 35.89375Q87.89375 36.20625 88.53438 36.20625Q88.84688 36.20625 89.39375 36.08125L89.39375 37.55Q88.675 37.753124 88.00313 37.753124Q86.8 37.753124 86.175 37.01875Q85.56563 36.284374 85.56563 34.925L85.56563 28.378124L83.64375 28.378124L83.64375 26.9875L85.56563 26.9875L85.56563 24.425L87.3625 24.425ZM93.87813 37.55L92.08125 37.55L92.08125 26.9875L93.87813 26.9875L93.87813 37.55ZM91.925 24.175Q91.925 23.7375 92.19063 23.440624Q92.47188 23.128124 92.9875 23.128124Q93.51875 23.128124 93.78438 23.440624Q94.06563 23.7375 94.06563 24.175Q94.06563 24.6125 93.78438 24.909374Q93.51875 25.20625 92.9875 25.20625Q92.47188 25.20625 92.19063 24.909374Q91.925 24.6125 91.925 24.175ZM96.44063 32.175Q96.44063 30.6125 97.05 29.378124Q97.65938 28.128124 98.7375 27.45625Q99.83125 26.784374 101.2375 26.784374Q103.39375 26.784374 104.72188 28.284374Q106.06563 29.76875 106.06563 32.253124L106.06563 32.378124Q106.06563 33.925 105.47188 35.159374Q104.87813 36.378124 103.76875 37.065624Q102.675 37.753124 101.25313 37.753124Q99.1125 37.753124 97.76875 36.253124Q96.44063 34.753124 96.44063 32.3L96.44063 32.175ZM98.25313 32.378124Q98.25313 34.14375 99.06563 35.20625Q99.89375 36.26875 101.25313 36.26875Q102.62813 36.26875 103.44063 35.190624Q104.25313 34.1125 104.25313 32.175Q104.25313 30.425 103.425 29.346874Q102.59688 28.26875 101.2375 28.26875Q99.89375 28.26875 99.06563 29.33125Q98.25313 30.39375 98.25313 32.378124ZM109.62813 26.9875L109.69063 28.315624Q110.89375 26.784374 112.84688 26.784374Q116.20625 26.784374 116.22188 30.565624L116.22188 37.55L114.425 37.55L114.425 30.55Q114.40938 29.409374 113.89375 28.8625Q113.39375 28.315624 112.3 28.315624Q111.425 28.315624 110.75313 28.784374Q110.09688 29.253124 109.72188 30.01875L109.72188 37.55L107.925 37.55L107.925 26.9875L109.62813 26.9875ZM125.06563 34.753124Q125.06563 34.01875 124.51875 33.6125Q123.97188 33.20625 122.59688 32.909374Q121.22188 32.6125 120.40938 32.20625Q119.6125 31.8 119.22188 31.2375Q118.84688 30.659374 118.84688 29.878124Q118.84688 28.58125 119.94063 27.690624Q121.03438 26.784374 122.75313 26.784374Q124.55 26.784374 125.65938 27.721874Q126.78438 28.64375 126.78438 30.08125L124.95625 30.08125Q124.95625 29.346874 124.33125 28.815624Q123.70625 28.26875 122.75313 28.26875Q121.75313 28.26875 121.19063 28.70625Q120.64375 29.128124 120.64375 29.83125Q120.64375 30.471874 121.15938 30.815624Q121.675 31.14375 123.03438 31.45625Q124.39375 31.753124 125.22188 32.175Q126.06563 32.58125 126.47188 33.175Q126.87813 33.76875 126.87813 34.6125Q126.87813 36.034374 125.7375 36.89375Q124.6125 37.753124 122.8 37.753124Q121.53438 37.753124 120.55 37.3Q119.58125 36.846874 119.01875 36.05Q118.47188 35.2375 118.47188 34.3L120.28438 34.3Q120.33125 35.20625 121.00313 35.7375Q121.69063 36.26875 122.8 36.26875Q123.83125 36.26875 124.44063 35.8625Q125.06563 35.440624 125.06563 34.753124ZM142.84688 32.378124Q142.84688 34.8 141.7375 36.284374Q140.64375 37.753124 138.75313 37.753124Q136.83125 37.753124 135.72188 36.51875L135.72188 41.6125L133.925 41.6125L133.925 26.9875L135.56563 26.9875L135.65938 28.159374Q136.75313 26.784374 138.72188 26.784374Q140.62813 26.784374 141.7375 28.221874Q142.84688 29.659374 142.84688 32.221874L142.84688 32.378124ZM141.03438 32.175Q141.03438 30.39375 140.26875 29.3625Q139.51875 28.315624 138.19063 28.315624Q136.55 28.315624 135.72188 29.76875L135.72188 34.83125Q136.53438 36.26875 138.20625 36.26875Q139.50313 36.26875 140.26875 35.2375Q141.03438 34.20625 141.03438 32.175ZM151.44063 37.55Q151.28438 37.2375 151.19063 36.440624Q149.925 37.753124 148.175 37.753124Q146.6125 37.753124 145.6125 36.8625Q144.6125 35.971874 144.6125 34.6125Q144.6125 32.971874 145.8625 32.065624Q147.12813 31.14375 149.39375 31.14375L151.15938 31.14375L151.15938 30.315624Q151.15938 29.3625 150.58125 28.8Q150.01875 28.2375 148.925 28.2375Q147.95625 28.2375 147.3 28.7375Q146.64375 29.221874 146.64375 29.909374L144.83125 29.909374Q144.83125 29.128124 145.39375 28.39375Q145.95625 27.64375 146.90938 27.221874Q147.87813 26.784374 149.03438 26.784374Q150.8625 26.784374 151.89375 27.70625Q152.925 28.6125 152.97188 30.221874L152.97188 35.08125Q152.97188 36.534374 153.33125 37.39375L153.33125 37.55L151.44063 37.55ZM148.44063 36.175Q149.3 36.175 150.05 35.7375Q150.81563 35.3 151.15938 34.596874L151.15938 32.425L149.7375 32.425Q146.425 32.425 146.425 34.3625Q146.425 35.221874 146.9875 35.70625Q147.55 36.175 148.44063 36.175ZM161.01875 28.596874Q160.6125 28.534374 160.14375 28.534374Q158.3625 28.534374 157.72188 30.05L157.72188 37.55L155.925 37.55L155.925 26.9875L157.675 26.9875L157.70625 28.20625Q158.59688 26.784374 160.22188 26.784374Q160.75313 26.784374 161.01875 26.925L161.01875 28.596874ZM172.15938 36.26875Q173.12813 36.26875 173.84688 35.690624Q174.56563 35.096874 174.64375 34.221874L176.3625 34.221874Q176.3 35.128124 175.72188 35.95625Q175.15938 36.76875 174.19063 37.26875Q173.2375 37.753124 172.15938 37.753124Q170.00313 37.753124 168.72188 36.315624Q167.45625 34.8625 167.45625 32.3625L167.45625 32.065624Q167.45625 30.51875 168.01875 29.315624Q168.58125 28.1125 169.64375 27.45625Q170.70625 26.784374 172.14375 26.784374Q173.925 26.784374 175.09688 27.846874Q176.28438 28.909374 176.3625 30.6125L174.64375 30.6125Q174.56563 29.596874 173.8625 28.940624Q173.175 28.26875 172.14375 28.26875Q170.76875 28.26875 170.00313 29.26875Q169.25313 30.253124 169.25313 32.128124L169.25313 32.471874Q169.25313 34.3 170.00313 35.284374Q170.75313 36.26875 172.15938 36.26875ZM177.44063 32.175Q177.44063 30.6125 178.05 29.378124Q178.65938 28.128124 179.7375 27.45625Q180.83125 26.784374 182.2375 26.784374Q184.39375 26.784374 185.72188 28.284374Q187.06563 29.76875 187.06563 32.253124L187.06563 32.378124Q187.06563 33.925 186.47188 35.159374Q185.87813 36.378124 184.76875 37.065624Q183.675 37.753124 182.25313 37.753124Q180.1125 37.753124 178.76875 36.253124Q177.44063 34.753124 177.44063 32.3L177.44063 32.175ZM179.25313 32.378124Q179.25313 34.14375 180.06563 35.20625Q180.89375 36.26875 182.25313 36.26875Q183.62813 36.26875 184.44063 35.190624Q185.25313 34.1125 185.25313 32.175Q185.25313 30.425 184.425 29.346874Q183.59688 28.26875 182.2375 28.26875Q180.89375 28.26875 180.06563 29.33125Q179.25313 30.39375 179.25313 32.378124ZM191.3625 24.425L191.3625 26.9875L193.34688 26.9875L193.34688 28.378124L191.3625 28.378124L191.3625 34.925Q191.3625 35.565624 191.62813 35.89375Q191.89375 36.20625 192.53438 36.20625Q192.84688 36.20625 193.39375 36.08125L193.39375 37.55Q192.675 37.753124 192.00313 37.753124Q190.8 37.753124 190.175 37.01875Q189.56563 36.284374 189.56563 34.925L189.56563 28.378124L187.64375 28.378124L187.64375 26.9875L189.56563 26.9875L189.56563 24.425L191.3625 24.425ZM202.44063 37.55Q202.28438 37.2375 202.19063 36.440624Q200.925 37.753124 199.175 37.753124Q197.6125 37.753124 196.6125 36.8625Q195.6125 35.971874 195.6125 34.6125Q195.6125 32.971874 196.8625 32.065624Q198.12813 31.14375 200.39375 31.14375L202.15938 31.14375L202.15938 30.315624Q202.15938 29.3625 201.58125 28.8Q201.01875 28.2375 199.925 28.2375Q198.95625 28.2375 198.3 28.7375Q197.64375 29.221874 197.64375 29.909374L195.83125 29.909374Q195.83125 29.128124 196.39375 28.39375Q196.95625 27.64375 197.90938 27.221874Q198.87813 26.784374 200.03438 26.784374Q201.8625 26.784374 202.89375 27.70625Q203.925 28.6125 203.97188 30.221874L203.97188 35.08125Q203.97188 36.534374 204.33125 37.39375L204.33125 37.55L202.44063 37.55ZM199.44063 36.175Q200.3 36.175 201.05 35.7375Q201.81563 35.3 202.15938 34.596874L202.15938 32.425L200.7375 32.425Q197.425 32.425 197.425 34.3625Q197.425 35.221874 197.9875 35.70625Q198.55 36.175 199.44063 36.175ZM209.3625 24.425L209.3625 26.9875L211.34688 26.9875L211.34688 28.378124L209.3625 28.378124L209.3625 34.925Q209.3625 35.565624 209.62813 35.89375Q209.89375 36.20625 210.53438 36.20625Q210.84688 36.20625 211.39375 36.08125L211.39375 37.55Q210.675 37.753124 210.00313 37.753124Q208.8 37.753124 208.175 37.01875Q207.56563 36.284374 207.56563 34.925L207.56563 28.378124L205.64375 28.378124L205.64375 26.9875L207.56563 26.9875L207.56563 24.425L209.3625 24.425ZM215.87813 37.55L214.08125 37.55L214.08125 26.9875L215.87813 26.9875L215.87813 37.55ZM213.925 24.175Q213.925 23.7375 214.19063 23.440624Q214.47188 23.128124 214.9875 23.128124Q215.51875 23.128124 215.78438 23.440624Q216.06563 23.7375 216.06563 24.175Q216.06563 24.6125 215.78438 24.909374Q215.51875 25.20625 214.9875 25.20625Q214.47188 25.20625 214.19063 24.909374Q213.925 24.6125 213.925 24.175ZM218.44063 32.175Q218.44063 30.6125 219.05 29.378124Q219.65938 28.128124 220.7375 27.45625Q221.83125 26.784374 223.2375 26.784374Q225.39375 26.784374 226.72188 28.284374Q228.06563 29.76875 228.06563 32.253124L228.06563 32.378124Q228.06563 33.925 227.47188 35.159374Q226.87813 36.378124 225.76875 37.065624Q224.675 37.753124 223.25313 37.753124Q221.1125 37.753124 219.76875 36.253124Q218.44063 34.753124 218.44063 32.3L218.44063 32.175ZM220.25313 32.378124Q220.25313 34.14375 221.06563 35.20625Q221.89375 36.26875 223.25313 36.26875Q224.62813 36.26875 225.44063 35.190624Q226.25313 34.1125 226.25313 32.175Q226.25313 30.425 225.425 29.346874Q224.59688 28.26875 223.2375 28.26875Q221.89375 28.26875 221.06563 29.33125Q220.25313 30.39375 220.25313 32.378124ZM231.62813 26.9875L231.69063 28.315624Q232.89375 26.784374 234.84688 26.784374Q238.20625 26.784374 238.22188 30.565624L238.22188 37.55L236.425 37.55L236.425 30.55Q236.40938 29.409374 235.89375 28.8625Q235.39375 28.315624 234.3 28.315624Q233.425 28.315624 232.75313 28.784374Q232.09688 29.253124 231.72188 30.01875L231.72188 37.55L229.925 37.55L229.925 26.9875L231.62813 26.9875Z" fill-rule="nonzero"/></svg>