<svg version="1.1" viewBox="0.0 0.0 600.0 371.0" fill="none" stroke="none" stroke-linecap="square" stroke-miterlimit="10" width="600" height="371" xmlns:xlink="http://www.w3.org/1999/xlink" xmlns="http://www.w3.org/2000/svg"><path fill="#ffffff" d="M0 0L600.0 0L600.0 371.0L0 371.0L0 0Z" fill-rule="nonzero"/><path fill="#4285f4" d="M300.0 54.916668C382.16156 54.916668 448.76666 121.521774 448.76666 203.68333C448.76666 285.8449 382.16156 352.45 300.0 352.45L300.0 278.06668C341.08078 278.06668 374.38333 244.76411 374.38333 203.68333C374.38333 162.60255 341.08078 129.3 300.0 129.3Z" fill-rule="nonzero"/><path fill="#fbbc04" d="M254.02856 62.197826C268.87543 57.373787 284.38907 54.916668 300.0 54.916668L300.0 129.3C292.19455 129.3 284.4377 130.52856 277.01428 132.94058Z" fill-rule="nonzero"/><path fill="#ea4335" d="M300.0 352.45C226.82277 352.45 164.51234 299.23187 153.0649 226.95557C141.61746 154.67928 184.43289 84.81083 254.02856 62.197826L277.01428 132.94058C242.21645 144.24709 220.80873 179.1813 226.53246 215.31944C232.25616 251.4576 263.41138 278.06668 300.0 278.06668Z" fill-rule="nonzero"/><path fill="#000000" d="M421.51062 208.18333L419.54187 208.18333L419.54187 200.57396L417.1825 201.29271L417.1825 199.69896L421.3075 198.21458L421.51062 198.21458L421.51062 208.18333ZM431.41687 204.07396Q431.41687 206.13646 430.5575 207.23021Q429.71375 208.32396 428.0575 208.32396Q426.4325 208.32396 425.57312 207.24583Q424.71375 206.16771 424.69812 204.16771L424.69812 202.33958Q424.69812 200.24583 425.5575 199.16771Q426.41687 198.08958 428.04187 198.08958Q429.6825 198.08958 430.54187 199.16771Q431.40125 200.23021 431.41687 202.23021L431.41687 204.07396ZM429.44812 202.05833Q429.44812 200.82396 429.10437 200.26146Q428.76062 199.69896 428.04187 199.69896Q427.35437 199.69896 427.01062 200.23021Q426.6825 200.76146 426.66687 201.90208L426.66687 204.32396Q426.66687 205.54271 426.995 206.13646Q427.32312 206.73021 428.0575 206.73021Q428.79187 206.73021 429.10437 206.16771Q429.4325 205.58958 429.44812 204.41771L429.44812 202.05833Z" fill-rule="nonzero"/><path fill="#000000" d="M177.74055 223.76836Q176.97493 224.53398 175.94368 224.53398Q174.61555 224.53398 173.81868 223.62773Q173.03743 222.72148 173.03743 221.19023Q173.03743 220.20586 173.4593 219.39336Q173.88118 218.56523 174.6468 218.1121Q175.41243 217.65898 176.38118 217.65898Q177.36555 217.65898 178.13118 218.15898Q178.8968 218.64336 179.31868 219.56523Q179.74055 220.4871 179.74055 221.6746L179.74055 222.40898Q179.74055 224.90898 178.50618 226.33086Q177.2718 227.75273 175.00618 227.84648L174.5218 227.84648L174.5218 226.20586L174.9593 226.19023Q177.53743 226.08086 177.74055 223.76836ZM176.42805 223.01836Q176.8968 223.01836 177.24055 222.78398Q177.5843 222.53398 177.7718 222.1746L177.7718 221.3621Q177.7718 220.3621 177.38118 219.81523Q177.00618 219.25273 176.36555 219.25273Q175.7718 219.25273 175.38118 219.7996Q175.00618 220.34648 175.00618 221.15898Q175.00618 221.97148 175.36555 222.50273Q175.74055 223.01836 176.42805 223.01836Z" fill-rule="nonzero"/><path fill="#000000" d="M282.38876 87.71699L280.42 87.71699L280.42 80.10761L278.06064 80.82636L278.06064 79.23261L282.18564 77.74824L282.38876 77.74824L282.38876 87.71699Z" fill-rule="nonzero"/><path fill="#1a1a1a" d="M19.909374 66.916664L19.909374 61.416664L18.909374 61.416664L18.909374 60.572914L19.909374 60.572914L19.909374 59.93229Q19.909374 58.90104 20.440624 58.354164Q20.9875 57.791664 21.9875 57.791664Q22.3625 57.791664 22.7375 57.885414L22.675 58.77604Q22.39375 58.71354 22.096874 58.71354Q21.565624 58.71354 21.26875 59.02604Q20.9875 59.33854 20.9875 59.90104L20.9875 60.572914L22.346874 60.572914L22.346874 61.416664L20.9875 61.416664L20.9875 66.916664L19.909374 66.916664ZM24.55 66.916664L23.471874 66.916664L23.471874 57.916664L24.55 57.916664L24.55 66.916664ZM30.284374 66.916664Q30.190624 66.729164 30.128124 66.24479Q29.378124 67.041664 28.33125 67.041664Q27.39375 67.041664 26.784374 66.510414Q26.190624 65.979164 26.190624 65.15104Q26.190624 64.166664 26.940624 63.61979Q27.690624 63.072914 29.065624 63.072914L30.1125 63.072914L30.1125 62.572914Q30.1125 62.010414 29.76875 61.68229Q29.440624 61.33854 28.76875 61.33854Q28.190624 61.33854 27.8 61.635414Q27.409374 61.916664 27.409374 62.33854L26.315624 62.33854Q26.315624 61.854164 26.64375 61.416664Q26.9875 60.979164 27.565624 60.729164Q28.14375 60.46354 28.83125 60.46354Q29.940624 60.46354 30.55 61.010414Q31.175 61.55729 31.20625 62.510414L31.20625 65.43229Q31.20625 66.30729 31.425 66.822914L31.425 66.916664L30.284374 66.916664ZM28.4875 66.08854Q29.003124 66.08854 29.45625 65.822914Q29.909374 65.55729 30.1125 65.135414L30.1125 63.83854L29.26875 63.83854Q27.26875 63.83854 27.26875 65.010414Q27.26875 65.510414 27.6125 65.80729Q27.95625 66.08854 28.4875 66.08854ZM37.065624 65.229164Q37.065624 64.791664 36.721874 64.55729Q36.39375 64.30729 35.565624 64.135414Q34.753124 63.96354 34.26875 63.71354Q33.784374 63.46354 33.55 63.135414Q33.33125 62.791664 33.33125 62.322914Q33.33125 61.541664 33.9875 61.010414Q34.64375 60.46354 35.675 60.46354Q36.753124 60.46354 37.409374 61.02604Q38.08125 61.572914 38.08125 62.43229L37.003124 62.43229Q37.003124 61.99479 36.6125 61.68229Q36.2375 61.354164 35.675 61.354164Q35.08125 61.354164 34.7375 61.61979Q34.409374 61.86979 34.409374 62.27604Q34.409374 62.666664 34.721874 62.86979Q35.034374 63.072914 35.846874 63.260414Q36.659374 63.43229 37.159374 63.68229Q37.659374 63.93229 37.89375 64.291664Q38.14375 64.65104 38.14375 65.15104Q38.14375 66.010414 37.45625 66.52604Q36.784374 67.041664 35.70625 67.041664Q34.940624 67.041664 34.346874 66.77604Q33.76875 66.49479 33.440624 66.010414Q33.1125 65.52604 33.1125 64.96354L34.190624 64.96354Q34.221874 65.510414 34.628124 65.83854Q35.034374 66.15104 35.70625 66.15104Q36.315624 66.15104 36.690624 65.90104Q37.065624 65.65104 37.065624 65.229164ZM40.45625 61.33854Q41.175 60.46354 42.33125 60.46354Q44.346874 60.46354 44.3625 62.729164L44.3625 66.916664L43.26875 66.916664L43.26875 62.71354Q43.26875 62.041664 42.95625 61.71354Q42.659374 61.385414 42.003124 61.385414Q41.471874 61.385414 41.065624 61.666664Q40.675 61.947914 40.45625 62.40104L40.45625 66.916664L39.378124 66.916664L39.378124 57.916664L40.45625 57.916664L40.45625 61.33854Z" fill-rule="nonzero"/><path fill="#9e9e9e" d="M19.753124 80.635414L20.190624 76.385414L24.565624 76.385414L24.565624 77.385414L21.1125 77.385414L20.846874 79.71354Q21.4875 79.33854 22.284374 79.33854Q23.440624 79.33854 24.128124 80.11979Q24.815624 80.885414 24.815624 82.197914Q24.815624 83.510414 24.096874 84.27604Q23.39375 85.041664 22.1125 85.041664Q20.9875 85.041664 20.26875 84.416664Q19.55 83.77604 19.45625 82.666664L20.471874 82.666664Q20.58125 83.40104 21.003124 83.77604Q21.425 84.15104 22.1125 84.15104Q22.8625 84.15104 23.3 83.635414Q23.7375 83.11979 23.7375 82.21354Q23.7375 81.354164 23.26875 80.83854Q22.8 80.322914 22.01875 80.322914Q21.315624 80.322914 20.909374 80.61979L20.628124 80.854164L19.753124 80.635414ZM26.33125 86.61979L25.721874 86.197914Q26.26875 85.43229 26.3 84.604164L26.3 83.635414L27.3625 83.635414L27.3625 84.479164Q27.3625 85.072914 27.065624 85.666664Q26.76875 86.260414 26.33125 86.61979ZM33.6125 81.27604Q33.6125 83.18229 32.95625 84.11979Q32.315624 85.041664 30.925 85.041664Q29.565624 85.041664 28.909374 84.135414Q28.253124 83.229164 28.221874 81.416664L28.221874 79.979164Q28.221874 78.08854 28.8625 77.18229Q29.51875 76.260414 30.909374 76.260414Q32.284374 76.260414 32.940624 77.15104Q33.596874 78.02604 33.6125 79.86979L33.6125 81.27604ZM32.51875 79.791664Q32.51875 78.416664 32.128124 77.791664Q31.753124 77.15104 30.909374 77.15104Q30.08125 77.15104 29.690624 77.791664Q29.315624 78.416664 29.315624 79.71354L29.315624 81.447914Q29.315624 82.822914 29.70625 83.49479Q30.1125 84.15104 30.925 84.15104Q31.721874 84.15104 32.1125 83.52604Q32.503124 82.90104 32.51875 81.572914L32.51875 79.791664ZM35.159374 78.02604Q35.159374 77.260414 35.64375 76.760414Q36.14375 76.260414 36.909374 76.260414Q37.690624 76.260414 38.175 76.760414Q38.659374 77.260414 38.659374 78.05729L38.659374 78.479164Q38.659374 79.24479 38.159374 79.74479Q37.675 80.229164 36.925 80.229164Q36.159374 80.229164 35.659374 79.74479Q35.159374 79.24479 35.159374 78.43229L35.159374 78.02604ZM35.971874 78.479164Q35.971874 78.93229 36.221874 79.229164Q36.4875 79.52604 36.925 79.52604Q37.346874 79.52604 37.596874 79.24479Q37.846874 78.947914 37.846874 78.447914L37.846874 78.02604Q37.846874 77.572914 37.596874 77.27604Q37.346874 76.96354 36.909374 76.96354Q36.471874 76.96354 36.221874 77.27604Q35.971874 77.572914 35.971874 78.041664L35.971874 78.479164ZM39.315624 82.822914Q39.315624 82.05729 39.8 81.572914Q40.3 81.072914 41.065624 81.072914Q41.83125 81.072914 42.315624 81.572914Q42.815624 82.05729 42.815624 82.86979L42.815624 83.27604Q42.815624 84.041664 42.33125 84.541664Q41.846874 85.041664 41.08125 85.041664Q40.315624 85.041664 39.815624 84.55729Q39.315624 84.05729 39.315624 83.24479L39.315624 82.822914ZM40.128124 83.27604Q40.128124 83.74479 40.378124 84.041664Q40.64375 84.33854 41.08125 84.33854Q41.503124 84.33854 41.753124 84.05729Q42.003124 83.760414 42.003124 83.260414L42.003124 82.822914Q42.003124 82.354164 41.7375 82.072914Q41.4875 81.77604 41.065624 81.77604Q40.64375 81.77604 40.378124 82.072914Q40.128124 82.354164 40.128124 82.854164L40.128124 83.27604ZM37.175 84.27604L36.55 83.885414L40.721874 77.21354L41.33125 77.604164L37.175 84.27604Z" fill-rule="nonzero"/><path stroke="#757575" stroke-width="1.0" stroke-linecap="butt" d="M18.55 71.416664L145.23334 71.416664L277.8914 64.094986" fill-rule="nonzero"/><path fill="#9e9e9e" d="M279.8914 64.094986C279.8914 62.990417 278.99594 62.094986 277.8914 62.094986C276.7868 62.094986 275.8914 62.990417 275.8914 64.094986C275.8914 65.199554 276.7868 66.094986 277.8914 66.094986C278.99594 66.094986 279.8914 65.199554 279.8914 64.094986" fill-rule="nonzero"/><path fill="#1a1a1a" d="M23.284374 221.29196Q23.190624 221.10446 23.128124 220.62009Q22.378124 221.41696 21.33125 221.41696Q20.39375 221.41696 19.784374 220.88571Q19.190624 220.35446 19.190624 219.52634Q19.190624 218.54196 19.940624 217.99509Q20.690624 217.44821 22.065624 217.44821L23.1125 217.44821L23.1125 216.94821Q23.1125 216.38571 22.76875 216.05759Q22.440624 215.71384 21.76875 215.71384Q21.190624 215.71384 20.8 216.01071Q20.409374 216.29196 20.409374 216.71384L19.315624 216.71384Q19.315624 216.22946 19.64375 215.79196Q19.9875 215.35446 20.565624 215.10446Q21.14375 214.83884 21.83125 214.83884Q22.940624 214.83884 23.55 215.38571Q24.175 215.93259 24.20625 216.88571L24.20625 219.80759Q24.20625 220.68259 24.425 221.19821L24.425 221.29196L23.284374 221.29196ZM21.4875 220.46384Q22.003124 220.46384 22.45625 220.19821Q22.909374 219.93259 23.1125 219.51071L23.1125 218.21384L22.26875 218.21384Q20.26875 218.21384 20.26875 219.38571Q20.26875 219.88571 20.6125 220.18259Q20.95625 220.46384 21.4875 220.46384ZM22.33125 214.01071L21.39375 214.01071L19.878124 212.29196L21.190624 212.29196L22.33125 214.01071ZM31.45625 219.82321L33.034374 214.94821L34.14375 214.94821L31.8625 221.29196L31.034374 221.29196L28.7375 214.94821L29.846874 214.94821L31.45625 219.82321ZM39.284374 220.66696Q38.659374 221.41696 37.425 221.41696Q36.409374 221.41696 35.878124 220.82321Q35.346874 220.22946 35.346874 219.07321L35.346874 214.94821L36.425 214.94821L36.425 219.04196Q36.425 220.49509 37.596874 220.49509Q38.846874 220.49509 39.253124 219.55759L39.253124 214.94821L40.346874 214.94821L40.346874 221.29196L39.315624 221.29196L39.284374 220.66696ZM45.003124 221.41696Q43.70625 221.41696 42.89375 220.57321Q42.096874 219.71384 42.096874 218.29196L42.096874 218.10446Q42.096874 217.15134 42.45625 216.41696Q42.815624 215.66696 43.45625 215.26071Q44.1125 214.83884 44.8625 214.83884Q46.096874 214.83884 46.784374 215.65134Q47.471874 216.46384 47.471874 217.97946L47.471874 218.43259L43.175 218.43259Q43.20625 219.37009 43.721874 219.94821Q44.253124 220.52634 45.065624 220.52634Q45.628124 220.52634 46.01875 220.29196Q46.425 220.05759 46.7375 219.66696L47.39375 220.18259Q46.596874 221.41696 45.003124 221.41696ZM44.8625 215.72946Q44.20625 215.72946 43.753124 216.21384Q43.315624 216.68259 43.221874 217.54196L46.39375 217.54196L46.39375 217.46384Q46.346874 216.63571 45.940624 216.18259Q45.55 215.72946 44.8625 215.72946Z" fill-rule="nonzero"/><path fill="#9e9e9e" d="M23.83125 236.43259L25.01875 236.43259L25.01875 237.30759L23.83125 237.30759L23.83125 239.29196L22.753124 239.29196L22.753124 237.30759L18.8625 237.30759L18.8625 236.66696L22.675 230.76071L23.83125 230.76071L23.83125 236.43259ZM20.096874 236.43259L22.753124 236.43259L22.753124 232.24509L22.6125 232.47946L20.096874 236.43259ZM26.753124 235.01071L27.190624 230.76071L31.565624 230.76071L31.565624 231.76071L28.1125 231.76071L27.846874 234.08884Q28.4875 233.71384 29.284374 233.71384Q30.440624 233.71384 31.128124 234.49509Q31.815624 235.26071 31.815624 236.57321Q31.815624 237.88571 31.096874 238.65134Q30.39375 239.41696 29.1125 239.41696Q27.9875 239.41696 27.26875 238.79196Q26.55 238.15134 26.45625 237.04196L27.471874 237.04196Q27.58125 237.77634 28.003124 238.15134Q28.425 238.52634 29.1125 238.52634Q29.8625 238.52634 30.3 238.01071Q30.7375 237.49509 30.7375 236.58884Q30.7375 235.72946 30.26875 235.21384Q29.8 234.69821 29.01875 234.69821Q28.315624 234.69821 27.909374 234.99509L27.628124 235.22946L26.753124 235.01071ZM33.33125 240.99509L32.721874 240.57321Q33.26875 239.80759 33.3 238.97946L33.3 238.01071L34.3625 238.01071L34.3625 238.85446Q34.3625 239.44821 34.065624 240.04196Q33.76875 240.63571 33.33125 240.99509ZM40.6125 235.65134Q40.6125 237.55759 39.95625 238.49509Q39.315624 239.41696 37.925 239.41696Q36.565624 239.41696 35.909374 238.51071Q35.253124 237.60446 35.221874 235.79196L35.221874 234.35446Q35.221874 232.46384 35.8625 231.55759Q36.51875 230.63571 37.909374 230.63571Q39.284374 230.63571 39.940624 231.52634Q40.596874 232.40134 40.6125 234.24509L40.6125 235.65134ZM39.51875 234.16696Q39.51875 232.79196 39.128124 232.16696Q38.753124 231.52634 37.909374 231.52634Q37.08125 231.52634 36.690624 232.16696Q36.315624 232.79196 36.315624 234.08884L36.315624 235.82321Q36.315624 237.19821 36.70625 237.87009Q37.1125 238.52634 37.925 238.52634Q38.721874 238.52634 39.1125 237.90134Q39.503124 237.27634 39.51875 235.94821L39.51875 234.16696ZM42.159374 232.40134Q42.159374 231.63571 42.64375 231.13571Q43.14375 230.63571 43.909374 230.63571Q44.690624 230.63571 45.175 231.13571Q45.659374 231.63571 45.659374 232.43259L45.659374 232.85446Q45.659374 233.62009 45.159374 234.12009Q44.675 234.60446 43.925 234.60446Q43.159374 234.60446 42.659374 234.12009Q42.159374 233.62009 42.159374 232.80759L42.159374 232.40134ZM42.971874 232.85446Q42.971874 233.30759 43.221874 233.60446Q43.4875 233.90134 43.925 233.90134Q44.346874 233.90134 44.596874 233.62009Q44.846874 233.32321 44.846874 232.82321L44.846874 232.40134Q44.846874 231.94821 44.596874 231.65134Q44.346874 231.33884 43.909374 231.33884Q43.471874 231.33884 43.221874 231.65134Q42.971874 231.94821 42.971874 232.41696L42.971874 232.85446ZM46.315624 237.19821Q46.315624 236.43259 46.8 235.94821Q47.3 235.44821 48.065624 235.44821Q48.83125 235.44821 49.315624 235.94821Q49.815624 236.43259 49.815624 237.24509L49.815624 237.65134Q49.815624 238.41696 49.33125 238.91696Q48.846874 239.41696 48.08125 239.41696Q47.315624 239.41696 46.815624 238.93259Q46.315624 238.43259 46.315624 237.62009L46.315624 237.19821ZM47.128124 237.65134Q47.128124 238.12009 47.378124 238.41696Q47.64375 238.71384 48.08125 238.71384Q48.503124 238.71384 48.753124 238.43259Q49.003124 238.13571 49.003124 237.63571L49.003124 237.19821Q49.003124 236.72946 48.7375 236.44821Q48.4875 236.15134 48.065624 236.15134Q47.64375 236.15134 47.378124 236.44821Q47.128124 236.72946 47.128124 237.22946L47.128124 237.65134ZM44.175 238.65134L43.55 238.26071L47.721874 231.58884L48.33125 231.97946L44.175 238.65134Z" fill-rule="nonzero"/><path stroke="#757575" stroke-width="1.0" stroke-linecap="butt" d="M18.55 225.79196L145.23334 225.79196L160.41165 225.79196" fill-rule="nonzero"/><path fill="#9e9e9e" d="M162.41165 225.79196C162.41165 224.6874 161.51622 223.79196 160.41165 223.79196C159.30708 223.79196 158.41165 224.6874 158.41165 225.79196C158.41165 226.89653 159.30708 227.79196 160.41165 227.79196C161.51622 227.79196 162.41165 226.89653 162.41165 225.79196" fill-rule="nonzero"/><path fill="#1a1a1a" d="M519.1844 199.18333Q519.09064 198.99583 519.02814 198.51146Q518.27814 199.30833 517.23126 199.30833Q516.29376 199.30833 515.6844 198.77708Q515.09064 198.24583 515.09064 197.41771Q515.09064 196.43333 515.84064 195.88646Q516.59064 195.33958 517.96564 195.33958L519.0125 195.33958L519.0125 194.83958Q519.0125 194.27708 518.66876 193.94896Q518.34064 193.60521 517.66876 193.60521Q517.09064 193.60521 516.7 193.90208Q516.3094 194.18333 516.3094 194.60521L515.21564 194.60521Q515.21564 194.12083 515.54376 193.68333Q515.8875 193.24583 516.46564 192.99583Q517.04376 192.73021 517.73126 192.73021Q518.84064 192.73021 519.45 193.27708Q520.075 193.82396 520.10626 194.77708L520.10626 197.69896Q520.10626 198.57396 520.325 199.08958L520.325 199.18333L519.1844 199.18333ZM517.3875 198.35521Q517.90314 198.35521 518.35626 198.08958Q518.8094 197.82396 519.0125 197.40208L519.0125 196.10521L518.16876 196.10521Q516.16876 196.10521 516.16876 197.27708Q516.16876 197.77708 516.5125 198.07396Q516.85626 198.35521 517.3875 198.35521ZM527.6219 196.08958Q527.6219 197.52708 526.96564 198.41771Q526.3094 199.30833 525.16876 199.30833Q524.0125 199.30833 523.35626 198.57396L523.35626 201.62083L522.27814 201.62083L522.27814 192.83958L523.2625 192.83958L523.3094 193.54271Q523.98126 192.73021 525.15314 192.73021Q526.29376 192.73021 526.95 193.58958Q527.6219 194.44896 527.6219 195.98021L527.6219 196.08958ZM526.54376 195.96458Q526.54376 194.88646 526.075 194.27708Q525.6219 193.65208 524.825 193.65208Q523.84064 193.65208 523.35626 194.51146L523.35626 197.54271Q523.84064 198.41771 524.84064 198.41771Q525.6219 198.41771 526.075 197.80833Q526.54376 197.18333 526.54376 195.96458ZM532.34064 193.80833Q532.09064 193.77708 531.8094 193.77708Q530.73126 193.77708 530.35626 194.68333L530.35626 199.18333L529.27814 199.18333L529.27814 192.83958L530.325 192.83958L530.34064 193.57396Q530.8719 192.73021 531.85626 192.73021Q532.16876 192.73021 532.34064 192.80833L532.34064 193.80833ZM535.90314 199.30833Q534.60626 199.30833 533.79376 198.46458Q532.9969 197.60521 532.9969 196.18333L532.9969 195.99583Q532.9969 195.04271 533.35626 194.30833Q533.71564 193.55833 534.35626 193.15208Q535.0125 192.73021 535.7625 192.73021Q536.9969 192.73021 537.6844 193.54271Q538.3719 194.35521 538.3719 195.87083L538.3719 196.32396L534.075 196.32396Q534.10626 197.26146 534.6219 197.83958Q535.15314 198.41771 535.96564 198.41771Q536.52814 198.41771 536.91876 198.18333Q537.325 197.94896 537.6375 197.55833L538.29376 198.07396Q537.4969 199.30833 535.90314 199.30833ZM535.7625 193.62083Q535.10626 193.62083 534.65314 194.10521Q534.21564 194.57396 534.1219 195.43333L537.29376 195.43333L537.29376 195.35521Q537.2469 194.52708 536.84064 194.07396Q536.45 193.62083 535.7625 193.62083ZM536.23126 191.90208L535.29376 191.90208L533.77814 190.18333L535.09064 190.18333L536.23126 191.90208ZM542.96564 197.49583Q542.96564 197.05833 542.6219 196.82396Q542.29376 196.57396 541.46564 196.40208Q540.65314 196.23021 540.16876 195.98021Q539.6844 195.73021 539.45 195.40208Q539.23126 195.05833 539.23126 194.58958Q539.23126 193.80833 539.8875 193.27708Q540.54376 192.73021 541.575 192.73021Q542.65314 192.73021 543.3094 193.29271Q543.98126 193.83958 543.98126 194.69896L542.90314 194.69896Q542.90314 194.26146 542.5125 193.94896Q542.1375 193.62083 541.575 193.62083Q540.98126 193.62083 540.6375 193.88646Q540.3094 194.13646 540.3094 194.54271Q540.3094 194.93333 540.6219 195.13646Q540.9344 195.33958 541.7469 195.52708Q542.5594 195.69896 543.0594 195.94896Q543.5594 196.19896 543.79376 196.55833Q544.04376 196.91771 544.04376 197.41771Q544.04376 198.27708 543.35626 198.79271Q542.6844 199.30833 541.60626 199.30833Q540.84064 199.30833 540.2469 199.04271Q539.66876 198.76146 539.34064 198.27708Q539.0125 197.79271 539.0125 197.23021L540.09064 197.23021Q540.1219 197.77708 540.52814 198.10521Q540.9344 198.41771 541.60626 198.41771Q542.21564 198.41771 542.59064 198.16771Q542.96564 197.91771 542.96564 197.49583ZM549.7469 191.30833L549.7469 192.83958L550.91876 192.83958L550.91876 193.68333L549.7469 193.68333L549.7469 197.60521Q549.7469 197.99583 549.90314 198.18333Q550.0594 198.37083 550.4344 198.37083Q550.6219 198.37083 550.95 198.30833L550.95 199.18333Q550.52814 199.30833 550.1219 199.30833Q549.40314 199.30833 549.02814 198.87083Q548.65314 198.41771 548.65314 197.60521L548.65314 193.68333L547.4969 193.68333L547.4969 192.83958L548.65314 192.83958L548.65314 191.30833L549.7469 191.30833ZM555.34064 193.80833Q555.09064 193.77708 554.8094 193.77708Q553.73126 193.77708 553.35626 194.68333L553.35626 199.18333L552.27814 199.18333L552.27814 192.83958L553.325 192.83958L553.34064 193.57396Q553.8719 192.73021 554.85626 192.73021Q555.16876 192.73021 555.34064 192.80833L555.34064 193.80833ZM560.1844 199.18333Q560.09064 198.99583 560.02814 198.51146Q559.27814 199.30833 558.23126 199.30833Q557.29376 199.30833 556.6844 198.77708Q556.09064 198.24583 556.09064 197.41771Q556.09064 196.43333 556.84064 195.88646Q557.59064 195.33958 558.96564 195.33958L560.0125 195.33958L560.0125 194.83958Q560.0125 194.27708 559.66876 193.94896Q559.34064 193.60521 558.66876 193.60521Q558.09064 193.60521 557.7 193.90208Q557.3094 194.18333 557.3094 194.60521L556.21564 194.60521Q556.21564 194.12083 556.54376 193.68333Q556.8875 193.24583 557.46564 192.99583Q558.04376 192.73021 558.73126 192.73021Q559.84064 192.73021 560.45 193.27708Q561.075 193.82396 561.10626 194.77708L561.10626 197.69896Q561.10626 198.57396 561.325 199.08958L561.325 199.18333L560.1844 199.18333ZM558.3875 198.35521Q558.90314 198.35521 559.35626 198.08958Q559.8094 197.82396 560.0125 197.40208L560.0125 196.10521L559.16876 196.10521Q557.16876 196.10521 557.16876 197.27708Q557.16876 197.77708 557.5125 198.07396Q557.85626 198.35521 558.3875 198.35521ZM565.35626 197.71458L566.9344 192.83958L568.04376 192.83958L565.7625 199.18333L564.9344 199.18333L562.6375 192.83958L563.7469 192.83958L565.35626 197.71458ZM573.1844 199.18333Q573.09064 198.99583 573.02814 198.51146Q572.27814 199.30833 571.23126 199.30833Q570.29376 199.30833 569.6844 198.77708Q569.09064 198.24583 569.09064 197.41771Q569.09064 196.43333 569.84064 195.88646Q570.59064 195.33958 571.96564 195.33958L573.0125 195.33958L573.0125 194.83958Q573.0125 194.27708 572.66876 193.94896Q572.34064 193.60521 571.66876 193.60521Q571.09064 193.60521 570.7 193.90208Q570.3094 194.18333 570.3094 194.60521L569.21564 194.60521Q569.21564 194.12083 569.54376 193.68333Q569.8875 193.24583 570.46564 192.99583Q571.04376 192.73021 571.73126 192.73021Q572.84064 192.73021 573.45 193.27708Q574.075 193.82396 574.10626 194.77708L574.10626 197.69896Q574.10626 198.57396 574.325 199.08958L574.325 199.18333L573.1844 199.18333ZM571.3875 198.35521Q571.90314 198.35521 572.35626 198.08958Q572.8094 197.82396 573.0125 197.40208L573.0125 196.10521L572.16876 196.10521Q570.16876 196.10521 570.16876 197.27708Q570.16876 197.77708 570.5125 198.07396Q570.85626 198.35521 571.3875 198.35521ZM577.45 199.18333L576.3719 199.18333L576.3719 192.83958L577.45 192.83958L577.45 199.18333ZM576.27814 191.16771Q576.27814 190.90208 576.4344 190.71458Q576.60626 190.52708 576.91876 190.52708Q577.23126 190.52708 577.3875 190.71458Q577.5594 190.90208 577.5594 191.16771Q577.5594 191.41771 577.3875 191.60521Q577.23126 191.77708 576.91876 191.77708Q576.60626 191.77708 576.4344 191.60521Q576.27814 191.41771 576.27814 191.16771ZM580.45 199.18333L579.3719 199.18333L579.3719 190.18333L580.45 190.18333L580.45 199.18333Z" fill-rule="nonzero"/><path fill="#9e9e9e" d="M550.65314 212.90208L551.09064 208.65208L555.46564 208.65208L555.46564 209.65208L552.0125 209.65208L551.7469 211.98021Q552.3875 211.60521 553.1844 211.60521Q554.34064 211.60521 555.02814 212.38646Q555.71564 213.15208 555.71564 214.46458Q555.71564 215.77708 554.9969 216.54271Q554.29376 217.30833 553.0125 217.30833Q551.8875 217.30833 551.16876 216.68333Q550.45 216.04271 550.35626 214.93333L551.3719 214.93333Q551.48126 215.66771 551.90314 216.04271Q552.325 216.41771 553.0125 216.41771Q553.7625 216.41771 554.2 215.90208Q554.6375 215.38646 554.6375 214.48021Q554.6375 213.62083 554.16876 213.10521Q553.7 212.58958 552.91876 212.58958Q552.21564 212.58958 551.8094 212.88646L551.52814 213.12083L550.65314 212.90208ZM562.5125 213.54271Q562.5125 215.44896 561.85626 216.38646Q561.21564 217.30833 559.825 217.30833Q558.46564 217.30833 557.8094 216.40208Q557.15314 215.49583 557.1219 213.68333L557.1219 212.24583Q557.1219 210.35521 557.7625 209.44896Q558.41876 208.52708 559.8094 208.52708Q561.1844 208.52708 561.84064 209.41771Q562.4969 210.29271 562.5125 212.13646L562.5125 213.54271ZM561.41876 212.05833Q561.41876 210.68333 561.02814 210.05833Q560.65314 209.41771 559.8094 209.41771Q558.98126 209.41771 558.59064 210.05833Q558.21564 210.68333 558.21564 211.98021L558.21564 213.71458Q558.21564 215.08958 558.60626 215.76146Q559.0125 216.41771 559.825 216.41771Q560.6219 216.41771 561.0125 215.79271Q561.40314 215.16771 561.41876 213.83958L561.41876 212.05833ZM564.23126 218.88646L563.6219 218.46458Q564.16876 217.69896 564.2 216.87083L564.2 215.90208L565.2625 215.90208L565.2625 216.74583Q565.2625 217.33958 564.96564 217.93333Q564.66876 218.52708 564.23126 218.88646ZM571.5125 213.54271Q571.5125 215.44896 570.85626 216.38646Q570.21564 217.30833 568.825 217.30833Q567.46564 217.30833 566.8094 216.40208Q566.15314 215.49583 566.1219 213.68333L566.1219 212.24583Q566.1219 210.35521 566.7625 209.44896Q567.41876 208.52708 568.8094 208.52708Q570.1844 208.52708 570.84064 209.41771Q571.4969 210.29271 571.5125 212.13646L571.5125 213.54271ZM570.41876 212.05833Q570.41876 210.68333 570.02814 210.05833Q569.65314 209.41771 568.8094 209.41771Q567.98126 209.41771 567.59064 210.05833Q567.21564 210.68333 567.21564 211.98021L567.21564 213.71458Q567.21564 215.08958 567.60626 215.76146Q568.0125 216.41771 568.825 216.41771Q569.6219 216.41771 570.0125 215.79271Q570.40314 215.16771 570.41876 213.83958L570.41876 212.05833ZM573.0594 210.29271Q573.0594 209.52708 573.54376 209.02708Q574.04376 208.52708 574.8094 208.52708Q575.59064 208.52708 576.075 209.02708Q576.5594 209.52708 576.5594 210.32396L576.5594 210.74583Q576.5594 211.51146 576.0594 212.01146Q575.575 212.49583 574.825 212.49583Q574.0594 212.49583 573.5594 212.01146Q573.0594 211.51146 573.0594 210.69896L573.0594 210.29271ZM573.8719 210.74583Q573.8719 211.19896 574.1219 211.49583Q574.3875 211.79271 574.825 211.79271Q575.2469 211.79271 575.4969 211.51146Q575.7469 211.21458 575.7469 210.71458L575.7469 210.29271Q575.7469 209.83958 575.4969 209.54271Q575.2469 209.23021 574.8094 209.23021Q574.3719 209.23021 574.1219 209.54271Q573.8719 209.83958 573.8719 210.30833L573.8719 210.74583ZM577.21564 215.08958Q577.21564 214.32396 577.7 213.83958Q578.2 213.33958 578.96564 213.33958Q579.73126 213.33958 580.21564 213.83958Q580.71564 214.32396 580.71564 215.13646L580.71564 215.54271Q580.71564 216.30833 580.23126 216.80833Q579.7469 217.30833 578.98126 217.30833Q578.21564 217.30833 577.71564 216.82396Q577.21564 216.32396 577.21564 215.51146L577.21564 215.08958ZM578.02814 215.54271Q578.02814 216.01146 578.27814 216.30833Q578.54376 216.60521 578.98126 216.60521Q579.40314 216.60521 579.65314 216.32396Q579.90314 216.02708 579.90314 215.52708L579.90314 215.08958Q579.90314 214.62083 579.6375 214.33958Q579.3875 214.04271 578.96564 214.04271Q578.54376 214.04271 578.27814 214.33958Q578.02814 214.62083 578.02814 215.12083L578.02814 215.54271ZM575.075 216.54271L574.45 216.15208L578.6219 209.48021L579.23126 209.87083L575.075 216.54271Z" fill-rule="nonzero"/><path stroke="#757575" stroke-width="1.0" stroke-linecap="butt" d="M581.45 203.68333L454.76666 203.68333L441.32834 203.68333" fill-rule="nonzero"/><path fill="#9e9e9e" d="M443.32834 203.68333C443.32834 202.57877 442.4329 201.68333 441.32834 201.68333C440.22375 201.68333 439.32834 202.57877 439.32834 203.68333C439.32834 204.7879 440.22375 205.68333 441.32834 205.68333C442.4329 205.68333 443.32834 204.7879 443.32834 203.68333" fill-rule="nonzero"/><path fill="#757575" d="M25.409374 31.8L22.08125 31.8L22.08125 37.55L20.190624 37.55L20.190624 23.33125L24.89375 23.33125Q27.3 23.33125 28.596874 24.425Q29.89375 25.51875 29.89375 27.6125Q29.89375 28.940624 29.175 29.925Q28.45625 30.909374 27.175 31.39375L30.51875 37.425L30.51875 37.55L28.503124 37.55L25.409374 31.8ZM22.08125 30.26875L24.95625 30.26875Q26.346874 30.26875 27.175 29.55Q28.003124 28.815624 28.003124 27.6125Q28.003124 26.284374 27.20625 25.58125Q26.425 24.878124 24.940624 24.878124L22.08125 24.878124L22.08125 30.26875ZM36.3 37.753124Q34.159374 37.753124 32.8 36.346874Q31.45625 34.925 31.45625 32.565624L31.45625 32.221874Q31.45625 30.659374 32.05 29.425Q32.659374 28.190624 33.7375 27.4875Q34.815624 26.784374 36.08125 26.784374Q38.14375 26.784374 39.284374 28.14375Q40.425 29.503124 40.425 32.034374L40.425 32.784374L33.26875 32.784374Q33.3 34.346874 34.175 35.315624Q35.05 36.26875 36.39375 36.26875Q37.3625 36.26875 38.01875 35.878124Q38.690624 35.4875 39.190624 34.846874L40.284374 35.70625Q38.95625 37.753124 36.3 37.753124ZM36.08125 28.26875Q34.9875 28.26875 34.2375 29.065624Q33.503124 29.8625 33.33125 31.3L38.6125 31.3L38.6125 31.159374Q38.534374 29.784374 37.8625 29.034374Q37.20625 28.26875 36.08125 28.26875ZM36.64375 22.55L38.83125 22.55L36.20625 25.425L34.753124 25.425L36.64375 22.55ZM51.846874 32.378124Q51.846874 34.8 50.7375 36.284374Q49.64375 37.753124 47.753124 37.753124Q45.83125 37.753124 44.721874 36.51875L44.721874 41.6125L42.925 41.6125L42.925 26.9875L44.565624 26.9875L44.659374 28.159374Q45.753124 26.784374 47.721874 26.784374Q49.628124 26.784374 50.7375 28.221874Q51.846874 29.659374 51.846874 32.221874L51.846874 32.378124ZM50.034374 32.175Q50.034374 30.39375 49.26875 29.3625Q48.51875 28.315624 47.190624 28.315624Q45.55 28.315624 44.721874 29.76875L44.721874 34.83125Q45.534374 36.26875 47.20625 36.26875Q48.503124 36.26875 49.26875 35.2375Q50.034374 34.20625 50.034374 32.175ZM60.440624 37.55Q60.284374 37.2375 60.190624 36.440624Q58.925 37.753124 57.175 37.753124Q55.6125 37.753124 54.6125 36.8625Q53.6125 35.971874 53.6125 34.6125Q53.6125 32.971874 54.8625 32.065624Q56.128124 31.14375 58.39375 31.14375L60.159374 31.14375L60.159374 30.315624Q60.159374 29.3625 59.58125 28.8Q59.01875 28.2375 57.925 28.2375Q56.95625 28.2375 56.3 28.7375Q55.64375 29.221874 55.64375 29.909374L53.83125 29.909374Q53.83125 29.128124 54.39375 28.39375Q54.95625 27.64375 55.909374 27.221874Q56.878124 26.784374 58.034374 26.784374Q59.8625 26.784374 60.89375 27.70625Q61.925 28.6125 61.971874 30.221874L61.971874 35.08125Q61.971874 36.534374 62.33125 37.39375L62.33125 37.55L60.440624 37.55ZM57.440624 36.175Q58.3 36.175 59.05 35.7375Q59.815624 35.3 60.159374 34.596874L60.159374 32.425L58.7375 32.425Q55.425 32.425 55.425 34.3625Q55.425 35.221874 55.9875 35.70625Q56.55 36.175 57.440624 36.175ZM70.01875 28.596874Q69.6125 28.534374 69.14375 28.534374Q67.3625 28.534374 66.72188 30.05L66.72188 37.55L64.925 37.55L64.925 26.9875L66.675 26.9875L66.70625 28.20625Q67.59688 26.784374 69.22188 26.784374Q69.75313 26.784374 70.01875 26.925L70.01875 28.596874ZM74.3625 24.425L74.3625 26.9875L76.34688 26.9875L76.34688 28.378124L74.3625 28.378124L74.3625 34.925Q74.3625 35.565624 74.62813 35.89375Q74.89375 36.20625 75.53438 36.20625Q75.84688 36.20625 76.39375 36.08125L76.39375 37.55Q75.675 37.753124 75.00313 37.753124Q73.8 37.753124 73.175 37.01875Q72.56563 36.284374 72.56563 34.925L72.56563 28.378124L70.64375 28.378124L70.64375 26.9875L72.56563 26.9875L72.56563 24.425L74.3625 24.425ZM80.87813 37.55L79.08125 37.55L79.08125 26.9875L80.87813 26.9875L80.87813 37.55ZM78.925 24.175Q78.925 23.7375 79.19063 23.440624Q79.47188 23.128124 79.9875 23.128124Q80.51875 23.128124 80.78438 23.440624Q81.06563 23.7375 81.06563 24.175Q81.06563 24.6125 80.78438 24.909374Q80.51875 25.20625 79.9875 25.20625Q79.47188 25.20625 79.19063 24.909374Q78.925 24.6125 78.925 24.175ZM86.3625 24.425L86.3625 26.9875L88.34688 26.9875L88.34688 28.378124L86.3625 28.378124L86.3625 34.925Q86.3625 35.565624 86.62813 35.89375Q86.89375 36.20625 87.53438 36.20625Q87.84688 36.20625 88.39375 36.08125L88.39375 37.55Q87.675 37.753124 87.00313 37.753124Q85.8 37.753124 85.175 37.01875Q84.56563 36.284374 84.56563 34.925L84.56563 28.378124L82.64375 28.378124L82.64375 26.9875L84.56563 26.9875L84.56563 24.425L86.3625 24.425ZM92.87813 37.55L91.08125 37.55L91.08125 26.9875L92.87813 26.9875L92.87813 37.55ZM90.925 24.175Q90.925 23.7375 91.19063 23.440624Q91.47188 23.128124 91.9875 23.128124Q92.51875 23.128124 92.78438 23.440624Q93.06563 23.7375 93.06563 24.175Q93.06563 24.6125 92.78438 24.909374Q92.51875 25.20625 91.9875 25.20625Q91.47188 25.20625 91.19063 24.909374Q90.925 24.6125 90.925 24.175ZM95.44063 32.175Q95.44063 30.6125 96.05 29.378124Q96.65938 28.128124 97.7375 27.45625Q98.83125 26.784374 100.2375 26.784374Q102.39375 26.784374 103.72188 28.284374Q105.06563 29.76875 105.06563 32.253124L105.06563 32.378124Q105.06563 33.925 104.47188 35.159374Q103.87813 36.378124 102.76875 37.065624Q101.675 37.753124 100.25313 37.753124Q98.1125 37.753124 96.76875 36.253124Q95.44063 34.753124 95.44063 32.3L95.44063 32.175ZM97.25313 32.378124Q97.25313 34.14375 98.06563 35.20625Q98.89375 36.26875 100.25313 36.26875Q101.62813 36.26875 102.44063 35.190624Q103.25313 34.1125 103.25313 32.175Q103.25313 30.425 102.425 29.346874Q101.59688 28.26875 100.2375 28.26875Q98.89375 28.26875 98.06563 29.33125Q97.25313 30.39375 97.25313 32.378124ZM108.62813 26.9875L108.69063 28.315624Q109.89375 26.784374 111.84688 26.784374Q115.20625 26.784374 115.22188 30.565624L115.22188 37.55L113.425 37.55L113.425 30.55Q113.40938 29.409374 112.89375 28.8625Q112.39375 28.315624 111.3 28.315624Q110.425 28.315624 109.75313 28.784374Q109.09688 29.253124 108.72188 30.01875L108.72188 37.55L106.925 37.55L106.925 26.9875L108.62813 26.9875ZM131.84688 32.378124Q131.84688 34.8 130.7375 36.284374Q129.64375 37.753124 127.75313 37.753124Q125.83125 37.753124 124.72188 36.51875L124.72188 41.6125L122.925 41.6125L122.925 26.9875L124.56563 26.9875L124.65938 28.159374Q125.75313 26.784374 127.72188 26.784374Q129.62813 26.784374 130.7375 28.221874Q131.84688 29.659374 131.84688 32.221874L131.84688 32.378124ZM130.03438 32.175Q130.03438 30.39375 129.26875 29.3625Q128.51875 28.315624 127.19063 28.315624Q125.55 28.315624 124.72188 29.76875L124.72188 34.83125Q125.53438 36.26875 127.20625 36.26875Q128.50313 36.26875 129.26875 35.2375Q130.03438 34.20625 130.03438 32.175ZM140.44063 37.55Q140.28438 37.2375 140.19063 36.440624Q138.925 37.753124 137.175 37.753124Q135.6125 37.753124 134.6125 36.8625Q133.6125 35.971874 133.6125 34.6125Q133.6125 32.971874 134.8625 32.065624Q136.12813 31.14375 138.39375 31.14375L140.15938 31.14375L140.15938 30.315624Q140.15938 29.3625 139.58125 28.8Q139.01875 28.2375 137.925 28.2375Q136.95625 28.2375 136.3 28.7375Q135.64375 29.221874 135.64375 29.909374L133.83125 29.909374Q133.83125 29.128124 134.39375 28.39375Q134.95625 27.64375 135.90938 27.221874Q136.87813 26.784374 138.03438 26.784374Q139.8625 26.784374 140.89375 27.70625Q141.925 28.6125 141.97188 30.221874L141.97188 35.08125Q141.97188 36.534374 142.33125 37.39375L142.33125 37.55L140.44063 37.55ZM137.44063 36.175Q138.3 36.175 139.05 35.7375Q139.81563 35.3 140.15938 34.596874L140.15938 32.425L138.7375 32.425Q135.425 32.425 135.425 34.3625Q135.425 35.221874 135.9875 35.70625Q136.55 36.175 137.44063 36.175ZM150.01875 28.596874Q149.6125 28.534374 149.14375 28.534374Q147.3625 28.534374 146.72188 30.05L146.72188 37.55L144.925 37.55L144.925 26.9875L146.675 26.9875L146.70625 28.20625Q147.59688 26.784374 149.22188 26.784374Q149.75313 26.784374 150.01875 26.925L150.01875 28.596874ZM159.3625 24.425L159.3625 26.9875L161.34688 26.9875L161.34688 28.378124L159.3625 28.378124L159.3625 34.925Q159.3625 35.565624 159.62813 35.89375Q159.89375 36.20625 160.53438 36.20625Q160.84688 36.20625 161.39375 36.08125L161.39375 37.55Q160.675 37.753124 160.00313 37.753124Q158.8 37.753124 158.175 37.01875Q157.56563 36.284374 157.56563 34.925L157.56563 28.378124L155.64375 28.378124L155.64375 26.9875L157.56563 26.9875L157.56563 24.425L159.3625 24.425ZM167.37813 34.909374L169.83125 26.9875L171.76875 26.9875L167.51875 39.175Q166.53438 41.815624 164.39375 41.815624L164.05 41.784374L163.37813 41.659374L163.37813 40.190624L163.8625 40.2375Q164.78438 40.2375 165.28438 39.8625Q165.8 39.4875 166.12813 38.503124L166.53438 37.425L162.76875 26.9875L164.7375 26.9875L167.37813 34.909374ZM181.84688 32.378124Q181.84688 34.8 180.7375 36.284374Q179.64375 37.753124 177.75313 37.753124Q175.83125 37.753124 174.72188 36.51875L174.72188 41.6125L172.925 41.6125L172.925 26.9875L174.56563 26.9875L174.65938 28.159374Q175.75313 26.784374 177.72188 26.784374Q179.62813 26.784374 180.7375 28.221874Q181.84688 29.659374 181.84688 32.221874L181.84688 32.378124ZM180.03438 32.175Q180.03438 30.39375 179.26875 29.3625Q178.51875 28.315624 177.19063 28.315624Q175.55 28.315624 174.72188 29.76875L174.72188 34.83125Q175.53438 36.26875 177.20625 36.26875Q178.50313 36.26875 179.26875 35.2375Q180.03438 34.20625 180.03438 32.175ZM188.3 37.753124Q186.15938 37.753124 184.8 36.346874Q183.45625 34.925 183.45625 32.565624L183.45625 32.221874Q183.45625 30.659374 184.05 29.425Q184.65938 28.190624 185.7375 27.4875Q186.81563 26.784374 188.08125 26.784374Q190.14375 26.784374 191.28438 28.14375Q192.425 29.503124 192.425 32.034374L192.425 32.784374L185.26875 32.784374Q185.3 34.346874 186.175 35.315624Q187.05 36.26875 188.39375 36.26875Q189.3625 36.26875 190.01875 35.878124Q190.69063 35.4875 191.19063 34.846874L192.28438 35.70625Q190.95625 37.753124 188.3 37.753124ZM188.08125 28.26875Q186.9875 28.26875 186.2375 29.065624Q185.50313 29.8625 185.33125 31.3L190.6125 31.3L190.6125 31.159374Q190.53438 29.784374 189.8625 29.034374Q189.20625 28.26875 188.08125 28.26875ZM199.47188 32.175Q199.47188 29.753124 200.62813 28.26875Q201.78438 26.784374 203.64375 26.784374Q205.50313 26.784374 206.58125 28.05L206.58125 22.55L208.39375 22.55L208.39375 37.55L206.7375 37.55L206.64375 36.409374Q205.56563 37.753124 203.62813 37.753124Q201.8 37.753124 200.62813 36.253124Q199.47188 34.7375 199.47188 32.315624L199.47188 32.175ZM201.28438 32.378124Q201.28438 34.175 202.01875 35.190624Q202.76875 36.20625 204.08125 36.20625Q205.8 36.20625 206.58125 34.675L206.58125 29.815624Q205.78438 28.315624 204.09688 28.315624Q202.76875 28.315624 202.01875 29.346874Q201.28438 30.378124 201.28438 32.378124ZM212.01875 23.628124L211.81563 27.221874L210.55 27.221874L210.56563 22.55L212.01875 22.55L212.01875 23.628124ZM218.3 37.753124Q216.15938 37.753124 214.8 36.346874Q213.45625 34.925 213.45625 32.565624L213.45625 32.221874Q213.45625 30.659374 214.05 29.425Q214.65938 28.190624 215.7375 27.4875Q216.81563 26.784374 218.08125 26.784374Q220.14375 26.784374 221.28438 28.14375Q222.425 29.503124 222.425 32.034374L222.425 32.784374L215.26875 32.784374Q215.3 34.346874 216.175 35.315624Q217.05 36.26875 218.39375 36.26875Q219.3625 36.26875 220.01875 35.878124Q220.69063 35.4875 221.19063 34.846874L222.28438 35.70625Q220.95625 37.753124 218.3 37.753124ZM218.08125 28.26875Q216.9875 28.26875 216.2375 29.065624Q215.50313 29.8625 215.33125 31.3L220.6125 31.3L220.6125 31.159374Q220.53438 29.784374 219.8625 29.034374Q219.20625 28.26875 218.08125 28.26875ZM226.62813 26.9875L226.69063 28.315624Q227.89375 26.784374 229.84688 26.784374Q233.20625 26.784374 233.22188 30.565624L233.22188 37.55L231.425 37.55L231.425 30.55Q231.40938 29.409374 230.89375 28.8625Q230.39375 28.315624 229.3 28.315624Q228.425 28.315624 227.75313 28.784374Q227.09688 29.253124 226.72188 30.01875L226.72188 37.55L224.925 37.55L224.925 26.9875L226.62813 26.9875ZM240.15938 36.26875Q241.12813 36.26875 241.84688 35.690624Q242.56563 35.096874 242.64375 34.221874L244.3625 34.221874Q244.3 35.128124 243.72188 35.95625Q243.15938 36.76875 242.19063 37.26875Q241.2375 37.753124 240.15938 37.753124Q238.00313 37.753124 236.72188 36.315624Q235.45625 34.8625 235.45625 32.3625L235.45625 32.065624Q235.45625 30.51875 236.01875 29.315624Q236.58125 28.1125 237.64375 27.45625Q238.70625 26.784374 240.14375 26.784374Q241.925 26.784374 243.09688 27.846874Q244.28438 28.909374 244.3625 30.6125L242.64375 30.6125Q242.56563 29.596874 241.8625 28.940624Q241.175 28.26875 240.14375 28.26875Q238.76875 28.26875 238.00313 29.26875Q237.25313 30.253124 237.25313 32.128124L237.25313 32.471874Q237.25313 34.3 238.00313 35.284374Q238.75313 36.26875 240.15938 36.26875ZM247.72188 28.26875Q248.925 26.784374 250.84688 26.784374Q254.20625 26.784374 254.22188 30.565624L254.22188 37.55L252.425 37.55L252.425 30.55Q252.40938 29.409374 251.89375 28.8625Q251.39375 28.315624 250.3 28.315624Q249.425 28.315624 248.75313 28.784374Q248.09688 29.253124 247.72188 30.01875L247.72188 37.55L245.925 37.55L245.925 22.55L247.72188 22.55L247.72188 28.26875ZM263.4406 37.55Q263.28436 37.2375 263.1906 36.440624Q261.925 37.753124 260.175 37.753124Q258.6125 37.753124 257.6125 36.8625Q256.6125 35.971874 256.6125 34.6125Q256.6125 32.971874 257.8625 32.065624Q259.1281 31.14375 261.39374 31.14375L263.15936 31.14375L263.15936 30.315624Q263.15936 29.3625 262.58124 28.8Q262.01874 28.2375 260.925 28.2375Q259.95624 28.2375 259.3 28.7375Q258.64374 29.221874 258.64374 29.909374L256.83124 29.909374Q256.83124 29.128124 257.39374 28.39375Q257.95624 27.64375 258.90936 27.221874Q259.8781 26.784374 261.03436 26.784374Q262.8625 26.784374 263.89374 27.70625Q264.925 28.6125 264.97186 30.221874L264.97186 35.08125Q264.97186 36.534374 265.33124 37.39375L265.33124 37.55L263.4406 37.55ZM260.4406 36.175Q261.3 36.175 262.05 35.7375Q262.8156 35.3 263.15936 34.596874L263.15936 32.425L261.7375 32.425Q258.425 32.425 258.425 34.3625Q258.425 35.221874 258.9875 35.70625Q259.55 36.175 260.4406 36.175ZM269.8781 37.55L268.08124 37.55L268.08124 26.9875L269.8781 26.9875L269.8781 37.55ZM267.925 24.175Q267.925 23.7375 268.1906 23.440624Q268.47186 23.128124 268.9875 23.128124Q269.51874 23.128124 269.78436 23.440624Q270.0656 23.7375 270.0656 24.175Q270.0656 24.6125 269.78436 24.909374Q269.51874 25.20625 268.9875 25.20625Q268.47186 25.20625 268.1906 24.909374Q267.925 24.6125 267.925 24.175ZM274.6281 26.9875L274.6906 28.315624Q275.89374 26.784374 277.84686 26.784374Q281.20624 26.784374 281.22186 30.565624L281.22186 37.55L279.425 37.55L279.425 30.55Q279.40936 29.409374 278.89374 28.8625Q278.39374 28.315624 277.3 28.315624Q276.425 28.315624 275.7531 28.784374Q275.09686 29.253124 274.72186 30.01875L274.72186 37.55L272.925 37.55L272.925 26.9875L274.6281 26.9875ZM288.3 37.753124Q286.15936 37.753124 284.8 36.346874Q283.45624 34.925 283.45624 32.565624L283.45624 32.221874Q283.45624 30.659374 284.05 29.425Q284.65936 28.190624 285.7375 27.4875Q286.8156 26.784374 288.08124 26.784374Q290.14374 26.784374 291.28436 28.14375Q292.425 29.503124 292.425 32.034374L292.425 32.784374L285.26874 32.784374Q285.3 34.346874 286.175 35.315624Q287.05 36.26875 288.39374 36.26875Q289.3625 36.26875 290.01874 35.878124Q290.6906 35.4875 291.1906 34.846874L292.28436 35.70625Q290.95624 37.753124 288.3 37.753124ZM288.08124 28.26875Q286.9875 28.26875 286.2375 29.065624Q285.5031 29.8625 285.33124 31.3L290.6125 31.3L290.6125 31.159374Q290.53436 29.784374 289.8625 29.034374Q289.20624 28.26875 288.08124 28.26875ZM296.6125 26.9875L296.65936 28.159374Q297.83124 26.784374 299.8 26.784374Q302.01874 26.784374 302.8156 28.4875Q303.34686 27.721874 304.1906 27.253124Q305.03436 26.784374 306.1906 26.784374Q309.65936 26.784374 309.72186 30.471874L309.72186 37.55L307.90936 37.55L307.90936 30.58125Q307.90936 29.440624 307.39374 28.878124Q306.8781 28.315624 305.65936 28.315624Q304.65936 28.315624 303.9875 28.925Q303.33124 29.51875 303.22186 30.534374L303.22186 37.55L301.40936 37.55L301.40936 30.628124Q301.40936 28.315624 299.14374 28.315624Q297.3625 28.315624 296.72186 29.83125L296.72186 37.55L294.90936 37.55L294.90936 26.9875L296.6125 26.9875ZM317.3 37.753124Q315.15936 37.753124 313.8 36.346874Q312.45624 34.925 312.45624 32.565624L312.45624 32.221874Q312.45624 30.659374 313.05 29.425Q313.65936 28.190624 314.7375 27.4875Q315.8156 26.784374 317.08124 26.784374Q319.14374 26.784374 320.28436 28.14375Q321.425 29.503124 321.425 32.034374L321.425 32.784374L314.26874 32.784374Q314.3 34.346874 315.175 35.315624Q316.05 36.26875 317.39374 36.26875Q318.3625 36.26875 319.01874 35.878124Q319.6906 35.4875 320.1906 34.846874L321.28436 35.70625Q319.95624 37.753124 317.3 37.753124ZM317.08124 28.26875Q315.9875 28.26875 315.2375 29.065624Q314.5031 29.8625 314.33124 31.3L319.6125 31.3L319.6125 31.159374Q319.53436 29.784374 318.8625 29.034374Q318.20624 28.26875 317.08124 28.26875ZM325.6281 26.9875L325.6906 28.315624Q326.89374 26.784374 328.84686 26.784374Q332.20624 26.784374 332.22186 30.565624L332.22186 37.55L330.425 37.55L330.425 30.55Q330.40936 29.409374 329.89374 28.8625Q329.39374 28.315624 328.3 28.315624Q327.425 28.315624 326.7531 28.784374Q326.09686 29.253124 325.72186 30.01875L325.72186 37.55L323.925 37.55L323.925 26.9875L325.6281 26.9875ZM337.3625 24.425L337.3625 26.9875L339.34686 26.9875L339.34686 28.378124L337.3625 28.378124L337.3625 34.925Q337.3625 35.565624 337.6281 35.89375Q337.89374 36.20625 338.53436 36.20625Q338.84686 36.20625 339.39374 36.08125L339.39374 37.55Q338.675 37.753124 338.0031 37.753124Q336.8 37.753124 336.175 37.01875Q335.5656 36.284374 335.5656 34.925L335.5656 28.378124L333.64374 28.378124L333.64374 26.9875L335.5656 26.9875L335.5656 24.425L337.3625 24.425ZM351.3 37.753124Q349.15936 37.753124 347.8 36.346874Q346.45624 34.925 346.45624 32.565624L346.45624 32.221874Q346.45624 30.659374 347.05 29.425Q347.65936 28.190624 348.7375 27.4875Q349.8156 26.784374 351.08124 26.784374Q353.14374 26.784374 354.28436 28.14375Q355.425 29.503124 355.425 32.034374L355.425 32.784374L348.26874 32.784374Q348.3 34.346874 349.175 35.315624Q350.05 36.26875 351.39374 36.26875Q352.3625 36.26875 353.01874 35.878124Q353.6906 35.4875 354.1906 34.846874L355.28436 35.70625Q353.95624 37.753124 351.3 37.753124ZM351.08124 28.26875Q349.9875 28.26875 349.2375 29.065624Q348.5031 29.8625 348.33124 31.3L353.6125 31.3L353.6125 31.159374Q353.53436 29.784374 352.8625 29.034374Q352.20624 28.26875 351.08124 28.26875ZM359.6281 26.9875L359.6906 28.315624Q360.89374 26.784374 362.84686 26.784374Q366.20624 26.784374 366.22186 30.565624L366.22186 37.55L364.425 37.55L364.425 30.55Q364.40936 29.409374 363.89374 28.8625Q363.39374 28.315624 362.3 28.315624Q361.425 28.315624 360.7531 28.784374Q360.09686 29.253124 359.72186 30.01875L359.72186 37.55L357.925 37.55L357.925 26.9875L359.6281 26.9875ZM378.39374 31.20625Q375.97186 30.51875 374.8781 29.51875Q373.78436 28.503124 373.78436 27.01875Q373.78436 25.33125 375.1281 24.2375Q376.47186 23.128124 378.6125 23.128124Q380.08124 23.128124 381.22186 23.70625Q382.3781 24.26875 383.0031 25.26875Q383.6281 26.253124 383.6281 27.440624L381.7531 27.440624Q381.7531 26.159374 380.925 25.425Q380.1125 24.675 378.6125 24.675Q377.22186 24.675 376.4406 25.284374Q375.675 25.89375 375.675 26.9875Q375.675 27.846874 376.40936 28.45625Q377.14374 29.05 378.90936 29.55Q380.6906 30.05 381.6906 30.659374Q382.6906 31.253124 383.175 32.05Q383.65936 32.846874 383.65936 33.940624Q383.65936 35.659374 382.3156 36.70625Q380.97186 37.753124 378.70624 37.753124Q377.2531 37.753124 375.97186 37.190624Q374.70624 36.628124 374.01874 35.659374Q373.33124 34.675 373.33124 33.425L375.22186 33.425Q375.22186 34.721874 376.175 35.471874Q377.1281 36.20625 378.70624 36.20625Q380.1906 36.20625 380.9875 35.6125Q381.78436 35.003124 381.78436 33.95625Q381.78436 32.909374 381.05 32.346874Q380.3156 31.76875 378.39374 31.20625ZM394.05 33.83125L388.09686 33.83125L386.7531 37.55L384.83124 37.55L390.2531 23.33125L391.89374 23.33125L397.33124 37.55L395.40936 37.55L394.05 33.83125ZM388.65936 32.3L393.5031 32.3L391.08124 25.64375L388.65936 32.3ZM407.2375 30.971874L401.08124 30.971874L401.08124 36.01875L408.2375 36.01875L408.2375 37.55L399.20624 37.55L399.20624 23.33125L408.14374 23.33125L408.14374 24.878124L401.08124 24.878124L401.08124 29.440624L407.2375 29.440624L407.2375 30.971874Z" fill-rule="nonzero"/></svg>