<svg version="1.1" viewBox="0.0 0.0 600.0 371.0" fill="none" stroke="none" stroke-linecap="square" stroke-miterlimit="10" width="600" height="371" xmlns:xlink="http://www.w3.org/1999/xlink" xmlns="http://www.w3.org/2000/svg"><path fill="#ffffff" d="M0 0L600.0 0L600.0 371.0L0 371.0L0 0Z" fill-rule="nonzero"/><path stroke="#333333" stroke-width="1.0" stroke-linecap="butt" d="M45.5 331.5L581.5 331.5" fill-rule="nonzero"/><path stroke="#cccccc" stroke-width="1.0" stroke-linecap="butt" d="M45.5 264.5L581.5 264.5" fill-rule="nonzero"/><path stroke="#cccccc" stroke-width="1.0" stroke-linecap="butt" d="M45.5 196.5L581.5 196.5" fill-rule="nonzero"/><path stroke="#cccccc" stroke-width="1.0" stroke-linecap="butt" d="M45.5 129.5L581.5 129.5" fill-rule="nonzero"/><path stroke="#cccccc" stroke-width="1.0" stroke-linecap="butt" d="M45.5 62.5L581.5 62.5" fill-rule="nonzero"/><path stroke="#e6e6e6" stroke-width="1.0" stroke-linecap="butt" d="M45.5 309.5L581.5 309.5" fill-rule="nonzero"/><path stroke="#e6e6e6" stroke-width="1.0" stroke-linecap="butt" d="M45.5 286.5L581.5 286.5" fill-rule="nonzero"/><path stroke="#e6e6e6" stroke-width="1.0" stroke-linecap="butt" d="M45.5 241.5L581.5 241.5" fill-rule="nonzero"/><path stroke="#e6e6e6" stroke-width="1.0" stroke-linecap="butt" d="M45.5 219.5L581.5 219.5" fill-rule="nonzero"/><path stroke="#e6e6e6" stroke-width="1.0" stroke-linecap="butt" d="M45.5 174.5L581.5 174.5" fill-rule="nonzero"/><path stroke="#e6e6e6" stroke-width="1.0" stroke-linecap="butt" d="M45.5 152.5L581.5 152.5" fill-rule="nonzero"/><path stroke="#e6e6e6" stroke-width="1.0" stroke-linecap="butt" d="M45.5 107.5L581.5 107.5" fill-rule="nonzero"/><path stroke="#e6e6e6" stroke-width="1.0" stroke-linecap="butt" d="M45.5 84.5L581.5 84.5" fill-rule="nonzero"/><clipPath id="id_0"><path d="M45.55 62.416668L581.45 62.416668L581.45 331.45L45.55 331.45L45.55 62.416668Z" clip-rule="nonzero"/></clipPath><path stroke="#000000" stroke-width="2.0" stroke-linecap="butt" stroke-opacity="0.0" clip-path="url(#id_0)" d="M93.0 331.0L62.0 331.0L62.0 327.0C62.0 325.89542 62.89543 325.0 64.0 325.0L91.0 325.0C92.10457 325.0 93.0 325.89542 93.0 327.0Z" fill-rule="nonzero"/><path fill="#4285f4" clip-path="url(#id_0)" d="M93.0 331.0L62.0 331.0L62.0 327.0C62.0 325.89542 62.89543 325.0 64.0 325.0L91.0 325.0C92.10457 325.0 93.0 325.89542 93.0 327.0Z" fill-rule="nonzero"/><path stroke="#000000" stroke-width="2.0" stroke-linecap="butt" stroke-opacity="0.0" clip-path="url(#id_0)" d="M141.0 331.0L110.0 331.0L110.0 320.0C110.0 318.89542 110.89543 318.0 112.0 318.0L139.0 318.0C140.10457 318.0 141.0 318.89542 141.0 320.0Z" fill-rule="nonzero"/><path fill="#4285f4" clip-path="url(#id_0)" d="M141.0 331.0L110.0 331.0L110.0 320.0C110.0 318.89542 110.89543 318.0 112.0 318.0L139.0 318.0C140.10457 318.0 141.0 318.89542 141.0 320.0Z" fill-rule="nonzero"/><path stroke="#000000" stroke-width="2.0" stroke-linecap="butt" stroke-opacity="0.0" clip-path="url(#id_0)" d="M188.0 331.0L157.0 331.0L157.0 259.0C157.0 257.89542 157.89543 257.0 159.0 257.0L186.0 257.0C187.10457 257.0 188.0 257.89542 188.0 259.0Z" fill-rule="nonzero"/><path fill="#4285f4" clip-path="url(#id_0)" d="M188.0 331.0L157.0 331.0L157.0 259.0C157.0 257.89542 157.89543 257.0 159.0 257.0L186.0 257.0C187.10457 257.0 188.0 257.89542 188.0 259.0Z" fill-rule="nonzero"/><path stroke="#000000" stroke-width="2.0" stroke-linecap="butt" stroke-opacity="0.0" clip-path="url(#id_0)" d="M235.0 331.0L204.0 331.0L204.0 226.0C204.0 224.89543 204.89543 224.0 206.0 224.0L233.0 224.0C234.10457 224.0 235.0 224.89543 235.0 226.0Z" fill-rule="nonzero"/><path fill="#4285f4" clip-path="url(#id_0)" d="M235.0 331.0L204.0 331.0L204.0 226.0C204.0 224.89543 204.89543 224.0 206.0 224.0L233.0 224.0C234.10457 224.0 235.0 224.89543 235.0 226.0Z" fill-rule="nonzero"/><path stroke="#000000" stroke-width="2.0" stroke-linecap="butt" stroke-opacity="0.0" clip-path="url(#id_0)" d="M282.0 331.0L251.0 331.0L251.0 125.0C251.0 123.89543 251.89543 123.0 253.0 123.0L280.0 123.0C281.10458 123.0 282.0 123.89543 282.0 125.0Z" fill-rule="nonzero"/><path fill="#4285f4" clip-path="url(#id_0)" d="M282.0 331.0L251.0 331.0L251.0 125.0C251.0 123.89543 251.89543 123.0 253.0 123.0L280.0 123.0C281.10458 123.0 282.0 123.89543 282.0 125.0Z" fill-rule="nonzero"/><path stroke="#000000" stroke-width="2.0" stroke-linecap="butt" stroke-opacity="0.0" clip-path="url(#id_0)" d="M330.0 331.0L299.0 331.0L299.0 185.0C299.0 183.89543 299.89542 183.0 301.0 183.0L328.0 183.0C329.10458 183.0 330.0 183.89543 330.0 185.0Z" fill-rule="nonzero"/><path fill="#4285f4" clip-path="url(#id_0)" d="M330.0 331.0L299.0 331.0L299.0 185.0C299.0 183.89543 299.89542 183.0 301.0 183.0L328.0 183.0C329.10458 183.0 330.0 183.89543 330.0 185.0Z" fill-rule="nonzero"/><path stroke="#000000" stroke-width="2.0" stroke-linecap="butt" stroke-opacity="0.0" clip-path="url(#id_0)" d="M377.0 331.0L346.0 331.0L346.0 253.0C346.0 251.89543 346.89542 251.0 348.0 251.0L375.0 251.0C376.10458 251.0 377.0 251.89543 377.0 253.0Z" fill-rule="nonzero"/><path fill="#4285f4" clip-path="url(#id_0)" d="M377.0 331.0L346.0 331.0L346.0 253.0C346.0 251.89543 346.89542 251.0 348.0 251.0L375.0 251.0C376.10458 251.0 377.0 251.89543 377.0 253.0Z" fill-rule="nonzero"/><path stroke="#000000" stroke-width="2.0" stroke-linecap="butt" stroke-opacity="0.0" clip-path="url(#id_0)" d="M424.0 331.0L393.0 331.0L393.0 327.0C393.0 325.89542 393.89542 325.0 395.0 325.0L422.0 325.0C423.10458 325.0 424.0 325.89542 424.0 327.0Z" fill-rule="nonzero"/><path fill="#4285f4" clip-path="url(#id_0)" d="M424.0 331.0L393.0 331.0L393.0 327.0C393.0 325.89542 393.89542 325.0 395.0 325.0L422.0 325.0C423.10458 325.0 424.0 325.89542 424.0 327.0Z" fill-rule="nonzero"/><path stroke="#000000" stroke-width="2.0" stroke-linecap="butt" stroke-opacity="0.0" clip-path="url(#id_0)" d="M471.0 331.0L440.0 331.0L440.0 273.0C440.0 271.89542 440.89542 271.0 442.0 271.0L469.0 271.0C470.10458 271.0 471.0 271.89542 471.0 273.0Z" fill-rule="nonzero"/><path fill="#4285f4" clip-path="url(#id_0)" d="M471.0 331.0L440.0 331.0L440.0 273.0C440.0 271.89542 440.89542 271.0 442.0 271.0L469.0 271.0C470.10458 271.0 471.0 271.89542 471.0 273.0Z" fill-rule="nonzero"/><path stroke="#000000" stroke-width="2.0" stroke-linecap="butt" stroke-opacity="0.0" clip-path="url(#id_0)" d="M518.0 331.0L487.0 331.0L487.0 320.0C487.0 318.89542 487.89542 318.0 489.0 318.0L516.0 318.0C517.10455 318.0 518.0 318.89542 518.0 320.0Z" fill-rule="nonzero"/><path fill="#4285f4" clip-path="url(#id_0)" d="M518.0 331.0L487.0 331.0L487.0 320.0C487.0 318.89542 487.89542 318.0 489.0 318.0L516.0 318.0C517.10455 318.0 518.0 318.89542 518.0 320.0Z" fill-rule="nonzero"/><path stroke="#000000" stroke-width="2.0" stroke-linecap="butt" stroke-opacity="0.0" clip-path="url(#id_0)" d="M566.0 331.0L535.0 331.0L535.0 327.0C535.0 325.89542 535.89545 325.0 537.0 325.0L564.0 325.0C565.10455 325.0 566.0 325.89542 566.0 327.0Z" fill-rule="nonzero"/><path fill="#4285f4" clip-path="url(#id_0)" d="M566.0 331.0L535.0 331.0L535.0 327.0C535.0 325.89542 535.89545 325.0 537.0 325.0L564.0 325.0C565.10455 325.0 566.0 325.89542 566.0 327.0Z" fill-rule="nonzero"/><path stroke="#ffffff" stroke-width="3.0" stroke-linejoin="round" stroke-linecap="round" d="M78.1875 309.72415L76.5 309.72415L76.5 303.1929L74.484375 303.8179L74.484375 302.4429L78.015625 301.17728L78.1875 301.17728L78.1875 309.72415Z" fill-rule="nonzero"/><path fill="#4285f4" d="M78.1875 309.72415L76.5 309.72415L76.5 303.1929L74.484375 303.8179L74.484375 302.4429L78.015625 301.17728L78.1875 301.17728L78.1875 309.72415Z" fill-rule="nonzero"/><path stroke="#ffffff" stroke-width="3.0" stroke-linejoin="round" stroke-linecap="round" d="M127.921875 302.99832L122.078125 302.99832L122.078125 301.84207L124.84375 298.88895Q125.40625 298.27957 125.671875 297.81082Q125.953125 297.34207 125.953125 296.93582Q125.953125 296.3577 125.65625 296.0452Q125.375 295.71707 124.84375 295.71707Q124.265625 295.71707 123.9375 296.1077Q123.609375 296.49832 123.609375 297.15457L121.90625 297.15457Q121.90625 296.37332 122.28125 295.7327Q122.65625 295.07645 123.328125 294.71707Q124.015625 294.34207 124.875 294.34207Q126.1875 294.34207 126.921875 294.9827Q127.65625 295.6077 127.65625 296.76395Q127.65625 297.40457 127.328125 298.06082Q127.0 298.71707 126.203125 299.59207L124.265625 301.63895L127.921875 301.63895L127.921875 302.99832Z" fill-rule="nonzero"/><path fill="#4285f4" d="M127.921875 302.99832L122.078125 302.99832L122.078125 301.84207L124.84375 298.88895Q125.40625 298.27957 125.671875 297.81082Q125.953125 297.34207 125.953125 296.93582Q125.953125 296.3577 125.65625 296.0452Q125.375 295.71707 124.84375 295.71707Q124.265625 295.71707 123.9375 296.1077Q123.609375 296.49832 123.609375 297.15457L121.90625 297.15457Q121.90625 296.37332 122.28125 295.7327Q122.65625 295.07645 123.328125 294.71707Q124.015625 294.34207 124.875 294.34207Q126.1875 294.34207 126.921875 294.9827Q127.65625 295.6077 127.65625 296.76395Q127.65625 297.40457 127.328125 298.06082Q127.0 298.71707 126.203125 299.59207L124.265625 301.63895L127.921875 301.63895L127.921875 302.99832Z" fill-rule="nonzero"/><path stroke="#ffffff" stroke-width="3.0" stroke-linejoin="round" stroke-linecap="round" d="M169.6875 242.46584L168.0 242.46584L168.0 235.93459L165.98438 236.55959L165.98438 235.18459L169.51562 233.91896L169.6875 233.91896L169.6875 242.46584ZM176.6875 242.46584L175.0 242.46584L175.0 235.93459L172.98438 236.55959L172.98438 235.18459L176.51562 233.91896L176.6875 233.91896L176.6875 242.46584Z" fill-rule="nonzero"/><path fill="#4285f4" d="M169.6875 242.46584L168.0 242.46584L168.0 235.93459L165.98438 236.55959L165.98438 235.18459L169.51562 233.91896L169.6875 233.91896L169.6875 242.46584ZM176.6875 242.46584L175.0 242.46584L175.0 235.93459L172.98438 236.55959L172.98438 235.18459L176.51562 233.91896L176.6875 233.91896L176.6875 242.46584Z" fill-rule="nonzero"/><path stroke="#ffffff" stroke-width="3.0" stroke-linejoin="round" stroke-linecap="round" d="M216.6875 208.83667L215.0 208.83667L215.0 202.30542L212.98438 202.93042L212.98438 201.55542L216.51562 200.2898L216.6875 200.2898L216.6875 208.83667ZM224.17188 200.21167L224.17188 201.61792L224.01562 201.61792Q222.85938 201.63354 222.15625 202.21167Q221.46875 202.7898 221.32812 203.82104Q222.0 203.13354 223.03125 203.13354Q224.15625 203.13354 224.8125 203.93042Q225.46875 204.7273 225.46875 206.02417Q225.46875 206.8523 225.10938 207.52417Q224.75 208.19604 224.07812 208.58667Q223.42188 208.96167 222.59375 208.96167Q221.25 208.96167 220.42188 208.02417Q219.59375 207.07104 219.59375 205.50854L219.59375 204.89917Q219.59375 203.50854 220.10938 202.44604Q220.64062 201.38354 221.60938 200.80542Q222.59375 200.2273 223.89062 200.21167L224.17188 200.21167ZM222.51562 204.49292Q222.10938 204.49292 221.76562 204.71167Q221.4375 204.9148 221.28125 205.27417L221.28125 205.7898Q221.28125 206.63354 221.60938 207.11792Q221.95312 207.58667 222.5625 207.58667Q223.10938 207.58667 223.4375 207.1648Q223.78125 206.7273 223.78125 206.0398Q223.78125 205.33667 223.4375 204.9148Q223.09375 204.49292 222.51562 204.49292Z" fill-rule="nonzero"/><path fill="#4285f4" d="M216.6875 208.83667L215.0 208.83667L215.0 202.30542L212.98438 202.93042L212.98438 201.55542L216.51562 200.2898L216.6875 200.2898L216.6875 208.83667ZM224.17188 200.21167L224.17188 201.61792L224.01562 201.61792Q222.85938 201.63354 222.15625 202.21167Q221.46875 202.7898 221.32812 203.82104Q222.0 203.13354 223.03125 203.13354Q224.15625 203.13354 224.8125 203.93042Q225.46875 204.7273 225.46875 206.02417Q225.46875 206.8523 225.10938 207.52417Q224.75 208.19604 224.07812 208.58667Q223.42188 208.96167 222.59375 208.96167Q221.25 208.96167 220.42188 208.02417Q219.59375 207.07104 219.59375 205.50854L219.59375 204.89917Q219.59375 203.50854 220.10938 202.44604Q220.64062 201.38354 221.60938 200.80542Q222.59375 200.2273 223.89062 200.21167L224.17188 200.21167ZM222.51562 204.49292Q222.10938 204.49292 221.76562 204.71167Q221.4375 204.9148 221.28125 205.27417L221.28125 205.7898Q221.28125 206.63354 221.60938 207.11792Q221.95312 207.58667 222.5625 207.58667Q223.10938 207.58667 223.4375 207.1648Q223.78125 206.7273 223.78125 206.0398Q223.78125 205.33667 223.4375 204.9148Q223.09375 204.49292 222.51562 204.49292Z" fill-rule="nonzero"/><path stroke="#ffffff" stroke-width="3.0" stroke-linejoin="round" stroke-linecap="round" d="M261.29688 102.93354L262.20312 102.93354Q262.84375 102.93354 263.15625 102.62104Q263.46875 102.292915 263.46875 101.761665Q263.46875 101.24604 263.15625 100.96479Q262.85938 100.667915 262.3125 100.667915Q261.82812 100.667915 261.5 100.93354Q261.17188 101.199165 261.17188 101.62104L259.48438 101.62104Q259.48438 100.96479 259.84375 100.43354Q260.20312 99.90229 260.84375 99.605415Q261.5 99.292915 262.28125 99.292915Q263.625 99.292915 264.39062 99.949165Q265.17188 100.58979 265.17188 101.730415Q265.17188 102.324165 264.8125 102.824165Q264.45312 103.30854 263.875 103.55854Q264.59375 103.824165 264.9375 104.33979Q265.29688 104.855415 265.29688 105.55854Q265.29688 106.699165 264.46875 107.386665Q263.64062 108.074165 262.28125 108.074165Q261.0 108.074165 260.1875 107.40229Q259.375 106.71479 259.375 105.605415L261.0625 105.605415Q261.0625 106.08979 261.42188 106.40229Q261.79688 106.699165 262.3125 106.699165Q262.92188 106.699165 263.26562 106.386665Q263.60938 106.05854 263.60938 105.52729Q263.60938 104.261665 262.20312 104.261665L261.29688 104.261665L261.29688 102.93354ZM270.6875 107.949165L269.0 107.949165L269.0 101.417915L266.98438 102.042915L266.98438 100.667915L270.51562 99.40229L270.6875 99.40229L270.6875 107.949165Z" fill-rule="nonzero"/><path fill="#4285f4" d="M261.29688 102.93354L262.20312 102.93354Q262.84375 102.93354 263.15625 102.62104Q263.46875 102.292915 263.46875 101.761665Q263.46875 101.24604 263.15625 100.96479Q262.85938 100.667915 262.3125 100.667915Q261.82812 100.667915 261.5 100.93354Q261.17188 101.199165 261.17188 101.62104L259.48438 101.62104Q259.48438 100.96479 259.84375 100.43354Q260.20312 99.90229 260.84375 99.605415Q261.5 99.292915 262.28125 99.292915Q263.625 99.292915 264.39062 99.949165Q265.17188 100.58979 265.17188 101.730415Q265.17188 102.324165 264.8125 102.824165Q264.45312 103.30854 263.875 103.55854Q264.59375 103.824165 264.9375 104.33979Q265.29688 104.855415 265.29688 105.55854Q265.29688 106.699165 264.46875 107.386665Q263.64062 108.074165 262.28125 108.074165Q261.0 108.074165 260.1875 107.40229Q259.375 106.71479 259.375 105.605415L261.0625 105.605415Q261.0625 106.08979 261.42188 106.40229Q261.79688 106.699165 262.3125 106.699165Q262.92188 106.699165 263.26562 106.386665Q263.60938 106.05854 263.60938 105.52729Q263.60938 104.261665 262.20312 104.261665L261.29688 104.261665L261.29688 102.93354ZM270.6875 107.949165L269.0 107.949165L269.0 101.417915L266.98438 102.042915L266.98438 100.667915L270.51562 99.40229L270.6875 99.40229L270.6875 107.949165Z" fill-rule="nonzero"/><path stroke="#ffffff" stroke-width="3.0" stroke-linejoin="round" stroke-linecap="round" d="M313.42188 168.48167L307.57812 168.48167L307.57812 167.32542L310.34375 164.3723Q310.90625 163.76292 311.17188 163.29417Q311.45312 162.82542 311.45312 162.41917Q311.45312 161.84105 311.15625 161.52855Q310.875 161.20042 310.34375 161.20042Q309.76562 161.20042 309.4375 161.59105Q309.10938 161.98167 309.10938 162.63792L307.40625 162.63792Q307.40625 161.85667 307.78125 161.21605Q308.15625 160.5598 308.82812 160.20042Q309.51562 159.82542 310.375 159.82542Q311.6875 159.82542 312.42188 160.46605Q313.15625 161.09105 313.15625 162.2473Q313.15625 162.88792 312.82812 163.54417Q312.5 164.20042 311.70312 165.07542L309.76562 167.1223L313.42188 167.1223L313.42188 168.48167ZM320.42188 168.48167L314.57812 168.48167L314.57812 167.32542L317.34375 164.3723Q317.90625 163.76292 318.17188 163.29417Q318.45312 162.82542 318.45312 162.41917Q318.45312 161.84105 318.15625 161.52855Q317.875 161.20042 317.34375 161.20042Q316.76562 161.20042 316.4375 161.59105Q316.10938 161.98167 316.10938 162.63792L314.40625 162.63792Q314.40625 161.85667 314.78125 161.21605Q315.15625 160.5598 315.82812 160.20042Q316.51562 159.82542 317.375 159.82542Q318.6875 159.82542 319.42188 160.46605Q320.15625 161.09105 320.15625 162.2473Q320.15625 162.88792 319.82812 163.54417Q319.5 164.20042 318.70312 165.07542L316.76562 167.1223L320.42188 167.1223L320.42188 168.48167Z" fill-rule="nonzero"/><path fill="#4285f4" d="M313.42188 168.48167L307.57812 168.48167L307.57812 167.32542L310.34375 164.3723Q310.90625 163.76292 311.17188 163.29417Q311.45312 162.82542 311.45312 162.41917Q311.45312 161.84105 311.15625 161.52855Q310.875 161.20042 310.34375 161.20042Q309.76562 161.20042 309.4375 161.59105Q309.10938 161.98167 309.10938 162.63792L307.40625 162.63792Q307.40625 161.85667 307.78125 161.21605Q308.15625 160.5598 308.82812 160.20042Q309.51562 159.82542 310.375 159.82542Q311.6875 159.82542 312.42188 160.46605Q313.15625 161.09105 313.15625 162.2473Q313.15625 162.88792 312.82812 163.54417Q312.5 164.20042 311.70312 165.07542L309.76562 167.1223L313.42188 167.1223L313.42188 168.48167ZM320.42188 168.48167L314.57812 168.48167L314.57812 167.32542L317.34375 164.3723Q317.90625 163.76292 318.17188 163.29417Q318.45312 162.82542 318.45312 162.41917Q318.45312 161.84105 318.15625 161.52855Q317.875 161.20042 317.34375 161.20042Q316.76562 161.20042 316.4375 161.59105Q316.10938 161.98167 316.10938 162.63792L314.40625 162.63792Q314.40625 161.85667 314.78125 161.21605Q315.15625 160.5598 315.82812 160.20042Q316.51562 159.82542 317.375 159.82542Q318.6875 159.82542 319.42188 160.46605Q320.15625 161.09105 320.15625 162.2473Q320.15625 162.88792 319.82812 163.54417Q319.5 164.20042 318.70312 165.07542L316.76562 167.1223L320.42188 167.1223L320.42188 168.48167Z" fill-rule="nonzero"/><path stroke="#ffffff" stroke-width="3.0" stroke-linejoin="round" stroke-linecap="round" d="M358.6875 235.74L357.0 235.74L357.0 229.20876L354.98438 229.83376L354.98438 228.45876L358.51562 227.19313L358.6875 227.19313L358.6875 235.74ZM367.42188 235.74L361.57812 235.74L361.57812 234.58376L364.34375 231.63063Q364.90625 231.02126 365.17188 230.5525Q365.45312 230.08376 365.45312 229.6775Q365.45312 229.09938 365.15625 228.78688Q364.875 228.45876 364.34375 228.45876Q363.76562 228.45876 363.4375 228.84938Q363.10938 229.24 363.10938 229.89626L361.40625 229.89626Q361.40625 229.115 361.78125 228.47438Q362.15625 227.81813 362.82812 227.45876Q363.51562 227.08376 364.375 227.08376Q365.6875 227.08376 366.42188 227.72438Q367.15625 228.34938 367.15625 229.50563Q367.15625 230.14626 366.82812 230.8025Q366.5 231.45876 365.70312 232.33376L363.76562 234.38063L367.42188 234.38063L367.42188 235.74Z" fill-rule="nonzero"/><path fill="#4285f4" d="M358.6875 235.74L357.0 235.74L357.0 229.20876L354.98438 229.83376L354.98438 228.45876L358.51562 227.19313L358.6875 227.19313L358.6875 235.74ZM367.42188 235.74L361.57812 235.74L361.57812 234.58376L364.34375 231.63063Q364.90625 231.02126 365.17188 230.5525Q365.45312 230.08376 365.45312 229.6775Q365.45312 229.09938 365.15625 228.78688Q364.875 228.45876 364.34375 228.45876Q363.76562 228.45876 363.4375 228.84938Q363.10938 229.24 363.10938 229.89626L361.40625 229.89626Q361.40625 229.115 361.78125 228.47438Q362.15625 227.81813 362.82812 227.45876Q363.51562 227.08376 364.375 227.08376Q365.6875 227.08376 366.42188 227.72438Q367.15625 228.34938 367.15625 229.50563Q367.15625 230.14626 366.82812 230.8025Q366.5 231.45876 365.70312 232.33376L363.76562 234.38063L367.42188 234.38063L367.42188 235.74Z" fill-rule="nonzero"/><path stroke="#ffffff" stroke-width="3.0" stroke-linejoin="round" stroke-linecap="round" d="M409.1875 309.72415L407.5 309.72415L407.5 303.1929L405.48438 303.8179L405.48438 302.4429L409.01562 301.17728L409.1875 301.17728L409.1875 309.72415Z" fill-rule="nonzero"/><path fill="#4285f4" d="M409.1875 309.72415L407.5 309.72415L407.5 303.1929L405.48438 303.8179L405.48438 302.4429L409.01562 301.17728L409.1875 301.17728L409.1875 309.72415Z" fill-rule="nonzero"/><path stroke="#ffffff" stroke-width="3.0" stroke-linejoin="round" stroke-linecap="round" d="M456.04688 252.51125Q455.375 253.15187 454.5 253.15187Q453.35938 253.15187 452.67188 252.38625Q452.0 251.605 452.0 250.2925Q452.0 249.44875 452.35938 248.74562Q452.73438 248.0425 453.39062 247.65187Q454.04688 247.26125 454.875 247.26125Q455.71875 247.26125 456.375 247.68312Q457.03125 248.105 457.39062 248.90187Q457.75 249.69875 457.76562 250.71437L457.76562 251.33937Q457.76562 253.48 456.70312 254.69875Q455.64062 255.9175 453.6875 255.99562L453.28125 255.99562L453.28125 254.58937L453.65625 254.57375Q455.85938 254.48 456.04688 252.51125ZM454.90625 251.855Q455.32812 251.855 455.60938 251.65187Q455.90625 251.43312 456.0625 251.13625L456.0625 250.44875Q456.0625 249.58937 455.73438 249.12062Q455.40625 248.63625 454.85938 248.63625Q454.34375 248.63625 454.01562 249.105Q453.6875 249.55812 453.6875 250.26125Q453.6875 250.96437 454.0 251.4175Q454.32812 251.855 454.90625 251.855Z" fill-rule="nonzero"/><path fill="#4285f4" d="M456.04688 252.51125Q455.375 253.15187 454.5 253.15187Q453.35938 253.15187 452.67188 252.38625Q452.0 251.605 452.0 250.2925Q452.0 249.44875 452.35938 248.74562Q452.73438 248.0425 453.39062 247.65187Q454.04688 247.26125 454.875 247.26125Q455.71875 247.26125 456.375 247.68312Q457.03125 248.105 457.39062 248.90187Q457.75 249.69875 457.76562 250.71437L457.76562 251.33937Q457.76562 253.48 456.70312 254.69875Q455.64062 255.9175 453.6875 255.99562L453.28125 255.99562L453.28125 254.58937L453.65625 254.57375Q455.85938 254.48 456.04688 252.51125ZM454.90625 251.855Q455.32812 251.855 455.60938 251.65187Q455.90625 251.43312 456.0625 251.13625L456.0625 250.44875Q456.0625 249.58937 455.73438 249.12062Q455.40625 248.63625 454.85938 248.63625Q454.34375 248.63625 454.01562 249.105Q453.6875 249.55812 453.6875 250.26125Q453.6875 250.96437 454.0 251.4175Q454.32812 251.855 454.90625 251.855Z" fill-rule="nonzero"/><path stroke="#ffffff" stroke-width="3.0" stroke-linejoin="round" stroke-linecap="round" d="M504.92188 302.99832L499.07812 302.99832L499.07812 301.84207L501.84375 298.88895Q502.40625 298.27957 502.67188 297.81082Q502.95312 297.34207 502.95312 296.93582Q502.95312 296.3577 502.65625 296.0452Q502.375 295.71707 501.84375 295.71707Q501.26562 295.71707 500.9375 296.1077Q500.60938 296.49832 500.60938 297.15457L498.90625 297.15457Q498.90625 296.37332 499.28125 295.7327Q499.65625 295.07645 500.32812 294.71707Q501.01562 294.34207 501.875 294.34207Q503.1875 294.34207 503.92188 294.9827Q504.65625 295.6077 504.65625 296.76395Q504.65625 297.40457 504.32812 298.06082Q504.0 298.71707 503.20312 299.59207L501.26562 301.63895L504.92188 301.63895L504.92188 302.99832Z" fill-rule="nonzero"/><path fill="#4285f4" d="M504.92188 302.99832L499.07812 302.99832L499.07812 301.84207L501.84375 298.88895Q502.40625 298.27957 502.67188 297.81082Q502.95312 297.34207 502.95312 296.93582Q502.95312 296.3577 502.65625 296.0452Q502.375 295.71707 501.84375 295.71707Q501.26562 295.71707 500.9375 296.1077Q500.60938 296.49832 500.60938 297.15457L498.90625 297.15457Q498.90625 296.37332 499.28125 295.7327Q499.65625 295.07645 500.32812 294.71707Q501.01562 294.34207 501.875 294.34207Q503.1875 294.34207 503.92188 294.9827Q504.65625 295.6077 504.65625 296.76395Q504.65625 297.40457 504.32812 298.06082Q504.0 298.71707 503.20312 299.59207L501.26562 301.63895L504.92188 301.63895L504.92188 302.99832Z" fill-rule="nonzero"/><path stroke="#ffffff" stroke-width="3.0" stroke-linejoin="round" stroke-linecap="round" d="M551.1875 309.72415L549.5 309.72415L549.5 303.1929L547.4844 303.8179L547.4844 302.4429L551.0156 301.17728L551.1875 301.17728L551.1875 309.72415Z" fill-rule="nonzero"/><path fill="#4285f4" d="M551.1875 309.72415L549.5 309.72415L549.5 303.1929L547.4844 303.8179L547.4844 302.4429L551.0156 301.17728L551.1875 301.17728L551.1875 309.72415Z" fill-rule="nonzero"/><path fill="#000000" d="M38.6125 332.3094Q38.6125 334.21564 37.95625 335.15314Q37.315624 336.075 35.925 336.075Q34.565624 336.075 33.909374 335.16876Q33.253124 334.2625 33.221874 332.45L33.221874 331.0125Q33.221874 329.1219 33.8625 328.21564Q34.51875 327.29376 35.909374 327.29376Q37.284374 327.29376 37.940624 328.1844Q38.596874 329.0594 38.6125 330.90314L38.6125 332.3094ZM37.51875 330.825Q37.51875 329.45 37.128124 328.825Q36.753124 328.1844 35.909374 328.1844Q35.08125 328.1844 34.690624 328.825Q34.315624 329.45 34.315624 330.7469L34.315624 332.48126Q34.315624 333.85626 34.70625 334.52814Q35.1125 335.1844 35.925 335.1844Q36.721874 335.1844 37.1125 334.5594Q37.503124 333.9344 37.51875 332.60626L37.51875 330.825Z" fill-rule="nonzero"/><path fill="#000000" d="M29.815624 268.69168L28.7375 268.69168L28.7375 261.47293L26.55 262.2698L26.55 261.28543L29.659374 260.11356L29.815624 260.11356L29.815624 268.69168ZM38.6125 265.05106Q38.6125 266.9573 37.95625 267.8948Q37.315624 268.81668 35.925 268.81668Q34.565624 268.81668 33.909374 267.91043Q33.253124 267.00418 33.221874 265.19168L33.221874 263.75418Q33.221874 261.86356 33.8625 260.9573Q34.51875 260.03543 35.909374 260.03543Q37.284374 260.03543 37.940624 260.92606Q38.596874 261.80106 38.6125 263.6448L38.6125 265.05106ZM37.51875 263.56668Q37.51875 262.19168 37.128124 261.56668Q36.753124 260.92606 35.909374 260.92606Q35.08125 260.92606 34.690624 261.56668Q34.315624 262.19168 34.315624 263.48856L34.315624 265.22293Q34.315624 266.59793 34.70625 267.2698Q35.1125 267.92606 35.925 267.92606Q36.721874 267.92606 37.1125 267.30106Q37.503124 266.67606 37.51875 265.34793L37.51875 263.56668Z" fill-rule="nonzero"/><path fill="#000000" d="M31.846874 201.43333L26.253124 201.43333L26.253124 200.65208L29.20625 197.37083Q29.8625 196.62083 30.1125 196.16771Q30.3625 195.69896 30.3625 195.19896Q30.3625 194.52708 29.95625 194.10521Q29.565624 193.66771 28.878124 193.66771Q28.08125 193.66771 27.628124 194.13646Q27.175 194.58958 27.175 195.41771L26.096874 195.41771Q26.096874 194.23021 26.846874 193.51146Q27.6125 192.77708 28.878124 192.77708Q30.08125 192.77708 30.76875 193.40208Q31.45625 194.02708 31.45625 195.07396Q31.45625 196.32396 29.846874 198.07396L27.565624 200.54271L31.846874 200.54271L31.846874 201.43333ZM38.6125 197.79271Q38.6125 199.69896 37.95625 200.63646Q37.315624 201.55833 35.925 201.55833Q34.565624 201.55833 33.909374 200.65208Q33.253124 199.74583 33.221874 197.93333L33.221874 196.49583Q33.221874 194.60521 33.8625 193.69896Q34.51875 192.77708 35.909374 192.77708Q37.284374 192.77708 37.940624 193.66771Q38.596874 194.54271 38.6125 196.38646L38.6125 197.79271ZM37.51875 196.30833Q37.51875 194.93333 37.128124 194.30833Q36.753124 193.66771 35.909374 193.66771Q35.08125 193.66771 34.690624 194.30833Q34.315624 194.93333 34.315624 196.23021L34.315624 197.96458Q34.315624 199.33958 34.70625 200.01146Q35.1125 200.66771 35.925 200.66771Q36.721874 200.66771 37.1125 200.04271Q37.503124 199.41771 37.51875 198.08958L37.51875 196.30833Z" fill-rule="nonzero"/><path fill="#000000" d="M27.83125 129.37813L28.64375 129.37813Q29.425 129.3625 29.8625 128.97188Q30.3 128.58125 30.3 127.90938Q30.3 126.40938 28.8 126.40938Q28.096874 126.40938 27.675 126.81563Q27.26875 127.22188 27.26875 127.87813L26.175 127.87813Q26.175 126.8625 26.909374 126.19063Q27.659374 125.51875 28.8 125.51875Q30.003124 125.51875 30.690624 126.15938Q31.378124 126.8 31.378124 127.94063Q31.378124 128.50313 31.01875 129.01875Q30.659374 129.53438 30.034374 129.8Q30.7375 130.01875 31.1125 130.53438Q31.503124 131.05 31.503124 131.8Q31.503124 132.94063 30.753124 133.62813Q30.003124 134.3 28.8 134.3Q27.6125 134.3 26.846874 133.64375Q26.096874 132.9875 26.096874 131.925L27.190624 131.925Q27.190624 132.59688 27.628124 133.00313Q28.065624 133.40938 28.815624 133.40938Q29.596874 133.40938 30.003124 133.00313Q30.425 132.58125 30.425 131.81563Q30.425 131.08125 29.971874 130.69063Q29.51875 130.28438 28.64375 130.26875L27.83125 130.26875L27.83125 129.37813ZM38.6125 130.53438Q38.6125 132.44063 37.95625 133.37813Q37.315624 134.3 35.925 134.3Q34.565624 134.3 33.909374 133.39375Q33.253124 132.4875 33.221874 130.675L33.221874 129.2375Q33.221874 127.34688 33.8625 126.44063Q34.51875 125.51875 35.909374 125.51875Q37.284374 125.51875 37.940624 126.40938Q38.596874 127.28438 38.6125 129.12813L38.6125 130.53438ZM37.51875 129.05Q37.51875 127.675 37.128124 127.05Q36.753124 126.40938 35.909374 126.40938Q35.08125 126.40938 34.690624 127.05Q34.315624 127.675 34.315624 128.97188L34.315624 130.70625Q34.315624 132.08125 34.70625 132.75313Q35.1125 133.40938 35.925 133.40938Q36.721874 133.40938 37.1125 132.78438Q37.503124 132.15938 37.51875 130.83125L37.51875 129.05Z" fill-rule="nonzero"/><path fill="#000000" d="M30.83125 64.05729L32.01875 64.05729L32.01875 64.93229L30.83125 64.93229L30.83125 66.916664L29.753124 66.916664L29.753124 64.93229L25.8625 64.93229L25.8625 64.291664L29.675 58.385414L30.83125 58.385414L30.83125 64.05729ZM27.096874 64.05729L29.753124 64.05729L29.753124 59.86979L29.6125 60.104164L27.096874 64.05729ZM38.6125 63.27604Q38.6125 65.18229 37.95625 66.11979Q37.315624 67.041664 35.925 67.041664Q34.565624 67.041664 33.909374 66.135414Q33.253124 65.229164 33.221874 63.416664L33.221874 61.979164Q33.221874 60.08854 33.8625 59.18229Q34.51875 58.260414 35.909374 58.260414Q37.284374 58.260414 37.940624 59.15104Q38.596874 60.02604 38.6125 61.86979L38.6125 63.27604ZM37.51875 61.791664Q37.51875 60.416664 37.128124 59.791664Q36.753124 59.15104 35.909374 59.15104Q35.08125 59.15104 34.690624 59.791664Q34.315624 60.416664 34.315624 61.71354L34.315624 63.447914Q34.315624 64.822914 34.70625 65.49479Q35.1125 66.15104 35.925 66.15104Q36.721874 66.15104 37.1125 65.52604Q37.503124 64.90104 37.51875 63.572914L37.51875 61.791664Z" fill-rule="nonzero"/><path fill="#000000" d="M72.12383 345.16876L72.56133 340.91876L76.93633 340.91876L76.93633 341.91876L73.48321 341.91876L73.21758 344.2469Q73.85821 343.8719 74.65508 343.8719Q75.81133 343.8719 76.49883 344.65314Q77.18633 345.41876 77.18633 346.73126Q77.18633 348.04376 76.46758 348.8094Q75.76446 349.575 74.48321 349.575Q73.35821 349.575 72.63946 348.95Q71.92071 348.3094 71.82696 347.2L72.84258 347.2Q72.95196 347.9344 73.37383 348.3094Q73.79571 348.6844 74.48321 348.6844Q75.23321 348.6844 75.67071 348.16876Q76.10821 347.65314 76.10821 346.7469Q76.10821 345.8875 75.63946 345.3719Q75.17071 344.85626 74.38946 344.85626Q73.68633 344.85626 73.28008 345.15314L72.99883 345.3875L72.12383 345.16876ZM81.28008 348.6844Q81.85821 348.6844 82.29571 348.34064Q82.73321 347.98126 82.78008 347.45L83.81133 347.45Q83.78008 347.9969 83.42071 348.4969Q83.07696 348.98126 82.49883 349.27814Q81.93633 349.575 81.28008 349.575Q79.98321 349.575 79.21758 348.71564Q78.46758 347.84064 78.46758 346.34064L78.46758 346.15314Q78.46758 345.23126 78.79571 344.5125Q79.13946 343.79376 79.76446 343.40314Q80.40508 342.9969 81.28008 342.9969Q82.34258 342.9969 83.04571 343.6375Q83.76446 344.2625 83.81133 345.29376L82.78008 345.29376Q82.73321 344.66876 82.31133 344.27814Q81.88946 343.8875 81.28008 343.8875Q80.45196 343.8875 79.99883 344.48126Q79.54571 345.075 79.54571 346.2L79.54571 346.40314Q79.54571 347.4969 79.99883 348.09064Q80.45196 348.6844 81.28008 348.6844Z" fill-rule="nonzero"/><path fill="#000000" d="M115.83969 345.16876L116.27719 340.91876L120.65219 340.91876L120.65219 341.91876L117.199066 341.91876L116.93344 344.2469Q117.574066 343.8719 118.37094 343.8719Q119.52719 343.8719 120.21469 344.65314Q120.90219 345.41876 120.90219 346.73126Q120.90219 348.04376 120.18344 348.8094Q119.480316 349.575 118.199066 349.575Q117.074066 349.575 116.355316 348.95Q115.636566 348.3094 115.542816 347.2L116.55844 347.2Q116.667816 347.9344 117.08969 348.3094Q117.511566 348.6844 118.199066 348.6844Q118.949066 348.6844 119.386566 348.16876Q119.824066 347.65314 119.824066 346.7469Q119.824066 345.8875 119.355316 345.3719Q118.886566 344.85626 118.105316 344.85626Q117.40219 344.85626 116.99594 345.15314L116.71469 345.3875L115.83969 345.16876ZM124.99594 348.6844Q125.574066 348.6844 126.011566 348.34064Q126.449066 347.98126 126.49594 347.45L127.52719 347.45Q127.49594 347.9969 127.136566 348.4969Q126.792816 348.98126 126.21469 349.27814Q125.65219 349.575 124.99594 349.575Q123.699066 349.575 122.93344 348.71564Q122.18344 347.84064 122.18344 346.34064L122.18344 346.15314Q122.18344 345.23126 122.511566 344.5125Q122.855316 343.79376 123.480316 343.40314Q124.12094 342.9969 124.99594 342.9969Q126.05844 342.9969 126.761566 343.6375Q127.480316 344.2625 127.52719 345.29376L126.49594 345.29376Q126.449066 344.66876 126.02719 344.27814Q125.605316 343.8875 124.99594 343.8875Q124.167816 343.8875 123.71469 344.48126Q123.261566 345.075 123.261566 346.2L123.261566 346.40314Q123.261566 347.4969 123.71469 348.09064Q124.167816 348.6844 124.99594 348.6844ZM131.55844 344.8719L133.94907 344.8719L133.94907 345.90314L131.55844 345.90314L131.55844 348.59064L130.48032 348.59064L130.48032 345.90314L128.08969 345.90314L128.08969 344.8719L130.48032 344.8719L130.48032 342.3875L131.55844 342.3875L131.55844 344.8719Z" fill-rule="nonzero"/><path fill="#000000" d="M169.82117 340.91876L169.82117 341.825L169.61804 341.825Q168.35242 341.85626 167.60242 342.59064Q166.85242 343.3094 166.72742 344.6219Q167.41492 343.85626 168.57117 343.85626Q169.68054 343.85626 170.35242 344.6375Q171.02429 345.41876 171.02429 346.66876Q171.02429 347.98126 170.30554 348.77814Q169.58679 349.575 168.36804 349.575Q167.14929 349.575 166.38367 348.6375Q165.63367 347.6844 165.63367 346.2L165.63367 345.79376Q165.63367 343.4344 166.63367 342.1844Q167.63367 340.9344 169.61804 340.91876L169.82117 340.91876ZM168.39929 344.7625Q167.83679 344.7625 167.36804 345.09064Q166.89929 345.41876 166.71179 345.9344L166.71179 346.325Q166.71179 347.3875 167.18054 348.02814Q167.66492 348.66876 168.36804 348.66876Q169.10242 348.66876 169.52429 348.1375Q169.94617 347.59064 169.94617 346.71564Q169.94617 345.84064 169.52429 345.3094Q169.10242 344.7625 168.39929 344.7625ZM176.58679 349.45Q176.49304 349.2625 176.43054 348.77814Q175.68054 349.575 174.63367 349.575Q173.69617 349.575 173.08679 349.04376Q172.49304 348.5125 172.49304 347.6844Q172.49304 346.7 173.24304 346.15314Q173.99304 345.60626 175.36804 345.60626L176.41492 345.60626L176.41492 345.10626Q176.41492 344.54376 176.07117 344.21564Q175.74304 343.8719 175.07117 343.8719Q174.49304 343.8719 174.10242 344.16876Q173.71179 344.45 173.71179 344.8719L172.61804 344.8719Q172.61804 344.3875 172.94617 343.95Q173.28992 343.5125 173.86804 343.2625Q174.44617 342.9969 175.13367 342.9969Q176.24304 342.9969 176.85242 343.54376Q177.47742 344.09064 177.50867 345.04376L177.50867 347.96564Q177.50867 348.84064 177.72742 349.35626L177.72742 349.45L176.58679 349.45ZM174.78992 348.6219Q175.30554 348.6219 175.75867 348.35626Q176.21179 348.09064 176.41492 347.66876L176.41492 346.3719L175.57117 346.3719Q173.57117 346.3719 173.57117 347.54376Q173.57117 348.04376 173.91492 348.34064Q174.25867 348.6219 174.78992 348.6219Z" fill-rule="nonzero"/><path fill="#000000" d="M213.53703 340.91876L213.53703 341.825L213.33391 341.825Q212.06828 341.85626 211.31828 342.59064Q210.56828 343.3094 210.44328 344.6219Q211.13078 343.85626 212.28703 343.85626Q213.39641 343.85626 214.06828 344.6375Q214.74016 345.41876 214.74016 346.66876Q214.74016 347.98126 214.02141 348.77814Q213.30266 349.575 212.08391 349.575Q210.86516 349.575 210.09953 348.6375Q209.34953 347.6844 209.34953 346.2L209.34953 345.79376Q209.34953 343.4344 210.34953 342.1844Q211.34953 340.9344 213.33391 340.91876L213.53703 340.91876ZM212.11516 344.7625Q211.55266 344.7625 211.08391 345.09064Q210.61516 345.41876 210.42766 345.9344L210.42766 346.325Q210.42766 347.3875 210.89641 348.02814Q211.38078 348.66876 212.08391 348.66876Q212.81828 348.66876 213.24016 348.1375Q213.66203 347.59064 213.66203 346.71564Q213.66203 345.84064 213.24016 345.3094Q212.81828 344.7625 212.11516 344.7625ZM220.30266 349.45Q220.20891 349.2625 220.14641 348.77814Q219.39641 349.575 218.34953 349.575Q217.41203 349.575 216.80266 349.04376Q216.20891 348.5125 216.20891 347.6844Q216.20891 346.7 216.95891 346.15314Q217.70891 345.60626 219.08391 345.60626L220.13078 345.60626L220.13078 345.10626Q220.13078 344.54376 219.78703 344.21564Q219.45891 343.8719 218.78703 343.8719Q218.20891 343.8719 217.81828 344.16876Q217.42766 344.45 217.42766 344.8719L216.33391 344.8719Q216.33391 344.3875 216.66203 343.95Q217.00578 343.5125 217.58391 343.2625Q218.16203 342.9969 218.84953 342.9969Q219.95891 342.9969 220.56828 343.54376Q221.19328 344.09064 221.22453 345.04376L221.22453 347.96564Q221.22453 348.84064 221.44328 349.35626L221.44328 349.45L220.30266 349.45ZM218.50578 348.6219Q219.02141 348.6219 219.47453 348.35626Q219.92766 348.09064 220.13078 347.66876L220.13078 346.3719L219.28703 346.3719Q217.28703 346.3719 217.28703 347.54376Q217.28703 348.04376 217.63078 348.34064Q217.97453 348.6219 218.50578 348.6219ZM226.49016 344.8719L228.88078 344.8719L228.88078 345.90314L226.49016 345.90314L226.49016 348.59064L225.41203 348.59064L225.41203 345.90314L223.02141 345.90314L223.02141 344.8719L225.41203 344.8719L225.41203 342.3875L226.49016 342.3875L226.49016 344.8719Z" fill-rule="nonzero"/><path fill="#000000" d="M264.2529 340.91876L264.2529 341.825L264.04977 341.825Q262.78415 341.85626 262.03415 342.59064Q261.28415 343.3094 261.15915 344.6219Q261.84665 343.85626 263.0029 343.85626Q264.11227 343.85626 264.78415 344.6375Q265.45602 345.41876 265.45602 346.66876Q265.45602 347.98126 264.73727 348.77814Q264.01852 349.575 262.79977 349.575Q261.58102 349.575 260.8154 348.6375Q260.0654 347.6844 260.0654 346.2L260.0654 345.79376Q260.0654 343.4344 261.0654 342.1844Q262.0654 340.9344 264.04977 340.91876L264.2529 340.91876ZM262.83102 344.7625Q262.26852 344.7625 261.79977 345.09064Q261.33102 345.41876 261.14352 345.9344L261.14352 346.325Q261.14352 347.3875 261.61227 348.02814Q262.09665 348.66876 262.79977 348.66876Q263.53415 348.66876 263.95602 348.1375Q264.3779 347.59064 264.3779 346.71564Q264.3779 345.84064 263.95602 345.3094Q263.53415 344.7625 262.83102 344.7625ZM272.47165 346.35626Q272.47165 347.8094 271.79977 348.7Q271.14352 349.575 270.01852 349.575Q268.8154 349.575 268.15915 348.71564L268.09665 349.45L267.11227 349.45L267.11227 340.45L268.1904 340.45L268.1904 343.8094Q268.84665 342.9969 270.0029 342.9969Q271.15915 342.9969 271.8154 343.8719Q272.47165 344.73126 272.47165 346.2625L272.47165 346.35626ZM271.39352 346.23126Q271.39352 345.1219 270.95602 344.52814Q270.53415 343.91876 269.73727 343.91876Q268.65915 343.91876 268.1904 344.90314L268.1904 347.65314Q268.6904 348.65314 269.73727 348.65314Q270.51852 348.65314 270.95602 348.04376Q271.39352 347.4344 271.39352 346.23126Z" fill-rule="nonzero"/><path fill="#000000" d="M307.96875 340.91876L307.96875 341.825L307.76562 341.825Q306.5 341.85626 305.75 342.59064Q305.0 343.3094 304.875 344.6219Q305.5625 343.85626 306.71875 343.85626Q307.82812 343.85626 308.5 344.6375Q309.17188 345.41876 309.17188 346.66876Q309.17188 347.98126 308.45312 348.77814Q307.73438 349.575 306.51562 349.575Q305.29688 349.575 304.53125 348.6375Q303.78125 347.6844 303.78125 346.2L303.78125 345.79376Q303.78125 343.4344 304.78125 342.1844Q305.78125 340.9344 307.76562 340.91876L307.96875 340.91876ZM306.54688 344.7625Q305.98438 344.7625 305.51562 345.09064Q305.04688 345.41876 304.85938 345.9344L304.85938 346.325Q304.85938 347.3875 305.32812 348.02814Q305.8125 348.66876 306.51562 348.66876Q307.25 348.66876 307.67188 348.1375Q308.09375 347.59064 308.09375 346.71564Q308.09375 345.84064 307.67188 345.3094Q307.25 344.7625 306.54688 344.7625ZM316.1875 346.35626Q316.1875 347.8094 315.51562 348.7Q314.85938 349.575 313.73438 349.575Q312.53125 349.575 311.875 348.71564L311.8125 349.45L310.82812 349.45L310.82812 340.45L311.90625 340.45L311.90625 343.8094Q312.5625 342.9969 313.71875 342.9969Q314.875 342.9969 315.53125 343.8719Q316.1875 344.73126 316.1875 346.2625L316.1875 346.35626ZM315.10938 346.23126Q315.10938 345.1219 314.67188 344.52814Q314.25 343.91876 313.45312 343.91876Q312.375 343.91876 311.90625 344.90314L311.90625 347.65314Q312.40625 348.65314 313.45312 348.65314Q314.23438 348.65314 314.67188 348.04376Q315.10938 347.4344 315.10938 346.23126ZM320.92188 344.8719L323.3125 344.8719L323.3125 345.90314L320.92188 345.90314L320.92188 348.59064L319.84375 348.59064L319.84375 345.90314L317.45312 345.90314L317.45312 344.8719L319.84375 344.8719L319.84375 342.3875L320.92188 342.3875L320.92188 344.8719Z" fill-rule="nonzero"/><path fill="#000000" d="M359.1846 340.91876L359.1846 341.825L358.98148 341.825Q357.71585 341.85626 356.96585 342.59064Q356.21585 343.3094 356.09085 344.6219Q356.77835 343.85626 357.9346 343.85626Q359.04398 343.85626 359.71585 344.6375Q360.38773 345.41876 360.38773 346.66876Q360.38773 347.98126 359.66898 348.77814Q358.95023 349.575 357.73148 349.575Q356.51273 349.575 355.7471 348.6375Q354.9971 347.6844 354.9971 346.2L354.9971 345.79376Q354.9971 343.4344 355.9971 342.1844Q356.9971 340.9344 358.98148 340.91876L359.1846 340.91876ZM357.76273 344.7625Q357.20023 344.7625 356.73148 345.09064Q356.26273 345.41876 356.07523 345.9344L356.07523 346.325Q356.07523 347.3875 356.54398 348.02814Q357.02835 348.66876 357.73148 348.66876Q358.46585 348.66876 358.88773 348.1375Q359.3096 347.59064 359.3096 346.71564Q359.3096 345.84064 358.88773 345.3094Q358.46585 344.7625 357.76273 344.7625ZM364.57523 348.6844Q365.15335 348.6844 365.59085 348.34064Q366.02835 347.98126 366.07523 347.45L367.10648 347.45Q367.07523 347.9969 366.71585 348.4969Q366.3721 348.98126 365.79398 349.27814Q365.23148 349.575 364.57523 349.575Q363.27835 349.575 362.51273 348.71564Q361.76273 347.84064 361.76273 346.34064L361.76273 346.15314Q361.76273 345.23126 362.09085 344.5125Q362.4346 343.79376 363.0596 343.40314Q363.70023 342.9969 364.57523 342.9969Q365.63773 342.9969 366.34085 343.6375Q367.0596 344.2625 367.10648 345.29376L366.07523 345.29376Q366.02835 344.66876 365.60648 344.27814Q365.1846 343.8875 364.57523 343.8875Q363.7471 343.8875 363.29398 344.48126Q362.84085 345.075 362.84085 346.2L362.84085 346.40314Q362.84085 347.4969 363.29398 348.09064Q363.7471 348.6844 364.57523 348.6844Z" fill-rule="nonzero"/><path fill="#000000" d="M402.90048 340.91876L402.90048 341.825L402.69736 341.825Q401.43173 341.85626 400.68173 342.59064Q399.93173 343.3094 399.80673 344.6219Q400.49423 343.85626 401.65048 343.85626Q402.75986 343.85626 403.43173 344.6375Q404.1036 345.41876 404.1036 346.66876Q404.1036 347.98126 403.38486 348.77814Q402.6661 349.575 401.44736 349.575Q400.2286 349.575 399.46298 348.6375Q398.71298 347.6844 398.71298 346.2L398.71298 345.79376Q398.71298 343.4344 399.71298 342.1844Q400.71298 340.9344 402.69736 340.91876L402.90048 340.91876ZM401.4786 344.7625Q400.9161 344.7625 400.44736 345.09064Q399.9786 345.41876 399.7911 345.9344L399.7911 346.325Q399.7911 347.3875 400.25986 348.02814Q400.74423 348.66876 401.44736 348.66876Q402.18173 348.66876 402.6036 348.1375Q403.02548 347.59064 403.02548 346.71564Q403.02548 345.84064 402.6036 345.3094Q402.18173 344.7625 401.4786 344.7625ZM408.2911 348.6844Q408.86923 348.6844 409.30673 348.34064Q409.74423 347.98126 409.7911 347.45L410.82236 347.45Q410.7911 347.9969 410.43173 348.4969Q410.08798 348.98126 409.50986 349.27814Q408.94736 349.575 408.2911 349.575Q406.99423 349.575 406.2286 348.71564Q405.4786 347.84064 405.4786 346.34064L405.4786 346.15314Q405.4786 345.23126 405.80673 344.5125Q406.15048 343.79376 406.77548 343.40314Q407.4161 342.9969 408.2911 342.9969Q409.3536 342.9969 410.05673 343.6375Q410.77548 344.2625 410.82236 345.29376L409.7911 345.29376Q409.74423 344.66876 409.32236 344.27814Q408.90048 343.8875 408.2911 343.8875Q407.46298 343.8875 407.00986 344.48126Q406.55673 345.075 406.55673 346.2L406.55673 346.40314Q406.55673 347.4969 407.00986 348.09064Q407.46298 348.6844 408.2911 348.6844ZM414.8536 344.8719L417.24423 344.8719L417.24423 345.90314L414.8536 345.90314L414.8536 348.59064L413.77548 348.59064L413.77548 345.90314L411.38486 345.90314L411.38486 344.8719L413.77548 344.8719L413.77548 342.3875L414.8536 342.3875L414.8536 344.8719Z" fill-rule="nonzero"/><path fill="#000000" d="M454.36633 341.52814L450.83508 349.45L449.69446 349.45L453.21008 341.8094L448.6007 341.8094L448.6007 340.91876L454.36633 340.91876L454.36633 341.52814ZM459.88196 349.45Q459.7882 349.2625 459.7257 348.77814Q458.9757 349.575 457.92883 349.575Q456.99133 349.575 456.38196 349.04376Q455.7882 348.5125 455.7882 347.6844Q455.7882 346.7 456.5382 346.15314Q457.2882 345.60626 458.6632 345.60626L459.71008 345.60626L459.71008 345.10626Q459.71008 344.54376 459.36633 344.21564Q459.0382 343.8719 458.36633 343.8719Q457.7882 343.8719 457.39758 344.16876Q457.00696 344.45 457.00696 344.8719L455.9132 344.8719Q455.9132 344.3875 456.24133 343.95Q456.58508 343.5125 457.1632 343.2625Q457.74133 342.9969 458.42883 342.9969Q459.5382 342.9969 460.14758 343.54376Q460.77258 344.09064 460.80383 345.04376L460.80383 347.96564Q460.80383 348.84064 461.02258 349.35626L461.02258 349.45L459.88196 349.45ZM458.08508 348.6219Q458.6007 348.6219 459.05383 348.35626Q459.50696 348.09064 459.71008 347.66876L459.71008 346.3719L458.86633 346.3719Q456.86633 346.3719 456.86633 347.54376Q456.86633 348.04376 457.21008 348.34064Q457.55383 348.6219 458.08508 348.6219Z" fill-rule="nonzero"/><path fill="#000000" d="M498.08218 341.52814L494.55093 349.45L493.4103 349.45L496.92593 341.8094L492.31656 341.8094L492.31656 340.91876L498.08218 340.91876L498.08218 341.52814ZM503.5978 349.45Q503.50406 349.2625 503.44156 348.77814Q502.69156 349.575 501.64468 349.575Q500.70718 349.575 500.0978 349.04376Q499.50406 348.5125 499.50406 347.6844Q499.50406 346.7 500.25406 346.15314Q501.00406 345.60626 502.37906 345.60626L503.42593 345.60626L503.42593 345.10626Q503.42593 344.54376 503.08218 344.21564Q502.75406 343.8719 502.08218 343.8719Q501.50406 343.8719 501.11343 344.16876Q500.7228 344.45 500.7228 344.8719L499.62906 344.8719Q499.62906 344.3875 499.95718 343.95Q500.30093 343.5125 500.87906 343.2625Q501.45718 342.9969 502.14468 342.9969Q503.25406 342.9969 503.86343 343.54376Q504.48843 344.09064 504.51968 345.04376L504.51968 347.96564Q504.51968 348.84064 504.73843 349.35626L504.73843 349.45L503.5978 349.45ZM501.80093 348.6219Q502.31656 348.6219 502.76968 348.35626Q503.2228 348.09064 503.42593 347.66876L503.42593 346.3719L502.58218 346.3719Q500.58218 346.3719 500.58218 347.54376Q500.58218 348.04376 500.92593 348.34064Q501.26968 348.6219 501.80093 348.6219ZM509.7853 344.8719L512.1759 344.8719L512.1759 345.90314L509.7853 345.90314L509.7853 348.59064L508.70718 348.59064L508.70718 345.90314L506.31656 345.90314L506.31656 344.8719L508.70718 344.8719L508.70718 342.3875L509.7853 342.3875L509.7853 344.8719Z" fill-rule="nonzero"/><path fill="#000000" d="M548.79803 341.52814L545.2668 349.45L544.12616 349.45L547.6418 341.8094L543.0324 341.8094L543.0324 340.91876L548.79803 340.91876L548.79803 341.52814ZM555.7668 346.35626Q555.7668 347.8094 555.0949 348.7Q554.43866 349.575 553.31366 349.575Q552.11053 349.575 551.4543 348.71564L551.3918 349.45L550.4074 349.45L550.4074 340.45L551.48553 340.45L551.48553 343.8094Q552.1418 342.9969 553.29803 342.9969Q554.4543 342.9969 555.11053 343.8719Q555.7668 344.73126 555.7668 346.2625L555.7668 346.35626ZM554.68866 346.23126Q554.68866 345.1219 554.25116 344.52814Q553.8293 343.91876 553.0324 343.91876Q551.9543 343.91876 551.48553 344.90314L551.48553 347.65314Q551.98553 348.65314 553.0324 348.65314Q553.81366 348.65314 554.25116 348.04376Q554.68866 347.4344 554.68866 346.23126Z" fill-rule="nonzero"/><path fill="#757575" d="M25.409374 31.8L22.08125 31.8L22.08125 37.55L20.190624 37.55L20.190624 23.33125L24.89375 23.33125Q27.3 23.33125 28.596874 24.425Q29.89375 25.51875 29.89375 27.6125Q29.89375 28.940624 29.175 29.925Q28.45625 30.909374 27.175 31.39375L30.51875 37.425L30.51875 37.55L28.503124 37.55L25.409374 31.8ZM22.08125 30.26875L24.95625 30.26875Q26.346874 30.26875 27.175 29.55Q28.003124 28.815624 28.003124 27.6125Q28.003124 26.284374 27.20625 25.58125Q26.425 24.878124 24.940624 24.878124L22.08125 24.878124L22.08125 30.26875ZM36.3 37.753124Q34.159374 37.753124 32.8 36.346874Q31.45625 34.925 31.45625 32.565624L31.45625 32.221874Q31.45625 30.659374 32.05 29.425Q32.659374 28.190624 33.7375 27.4875Q34.815624 26.784374 36.08125 26.784374Q38.14375 26.784374 39.284374 28.14375Q40.425 29.503124 40.425 32.034374L40.425 32.784374L33.26875 32.784374Q33.3 34.346874 34.175 35.315624Q35.05 36.26875 36.39375 36.26875Q37.3625 36.26875 38.01875 35.878124Q38.690624 35.4875 39.190624 34.846874L40.284374 35.70625Q38.95625 37.753124 36.3 37.753124ZM36.08125 28.26875Q34.9875 28.26875 34.2375 29.065624Q33.503124 29.8625 33.33125 31.3L38.6125 31.3L38.6125 31.159374Q38.534374 29.784374 37.8625 29.034374Q37.20625 28.26875 36.08125 28.26875ZM36.64375 22.55L38.83125 22.55L36.20625 25.425L34.753124 25.425L36.64375 22.55ZM51.846874 32.378124Q51.846874 34.8 50.7375 36.284374Q49.64375 37.753124 47.753124 37.753124Q45.83125 37.753124 44.721874 36.51875L44.721874 41.6125L42.925 41.6125L42.925 26.9875L44.565624 26.9875L44.659374 28.159374Q45.753124 26.784374 47.721874 26.784374Q49.628124 26.784374 50.7375 28.221874Q51.846874 29.659374 51.846874 32.221874L51.846874 32.378124ZM50.034374 32.175Q50.034374 30.39375 49.26875 29.3625Q48.51875 28.315624 47.190624 28.315624Q45.55 28.315624 44.721874 29.76875L44.721874 34.83125Q45.534374 36.26875 47.20625 36.26875Q48.503124 36.26875 49.26875 35.2375Q50.034374 34.20625 50.034374 32.175ZM60.440624 37.55Q60.284374 37.2375 60.190624 36.440624Q58.925 37.753124 57.175 37.753124Q55.6125 37.753124 54.6125 36.8625Q53.6125 35.971874 53.6125 34.6125Q53.6125 32.971874 54.8625 32.065624Q56.128124 31.14375 58.39375 31.14375L60.159374 31.14375L60.159374 30.315624Q60.159374 29.3625 59.58125 28.8Q59.01875 28.2375 57.925 28.2375Q56.95625 28.2375 56.3 28.7375Q55.64375 29.221874 55.64375 29.909374L53.83125 29.909374Q53.83125 29.128124 54.39375 28.39375Q54.95625 27.64375 55.909374 27.221874Q56.878124 26.784374 58.034374 26.784374Q59.8625 26.784374 60.89375 27.70625Q61.925 28.6125 61.971874 30.221874L61.971874 35.08125Q61.971874 36.534374 62.33125 37.39375L62.33125 37.55L60.440624 37.55ZM57.440624 36.175Q58.3 36.175 59.05 35.7375Q59.815624 35.3 60.159374 34.596874L60.159374 32.425L58.7375 32.425Q55.425 32.425 55.425 34.3625Q55.425 35.221874 55.9875 35.70625Q56.55 36.175 57.440624 36.175ZM70.01875 28.596874Q69.6125 28.534374 69.14375 28.534374Q67.3625 28.534374 66.72188 30.05L66.72188 37.55L64.925 37.55L64.925 26.9875L66.675 26.9875L66.70625 28.20625Q67.59688 26.784374 69.22188 26.784374Q69.75313 26.784374 70.01875 26.925L70.01875 28.596874ZM74.3625 24.425L74.3625 26.9875L76.34688 26.9875L76.34688 28.378124L74.3625 28.378124L74.3625 34.925Q74.3625 35.565624 74.62813 35.89375Q74.89375 36.20625 75.53438 36.20625Q75.84688 36.20625 76.39375 36.08125L76.39375 37.55Q75.675 37.753124 75.00313 37.753124Q73.8 37.753124 73.175 37.01875Q72.56563 36.284374 72.56563 34.925L72.56563 28.378124L70.64375 28.378124L70.64375 26.9875L72.56563 26.9875L72.56563 24.425L74.3625 24.425ZM80.87813 37.55L79.08125 37.55L79.08125 26.9875L80.87813 26.9875L80.87813 37.55ZM78.925 24.175Q78.925 23.7375 79.19063 23.440624Q79.47188 23.128124 79.9875 23.128124Q80.51875 23.128124 80.78438 23.440624Q81.06563 23.7375 81.06563 24.175Q81.06563 24.6125 80.78438 24.909374Q80.51875 25.20625 79.9875 25.20625Q79.47188 25.20625 79.19063 24.909374Q78.925 24.6125 78.925 24.175ZM86.3625 24.425L86.3625 26.9875L88.34688 26.9875L88.34688 28.378124L86.3625 28.378124L86.3625 34.925Q86.3625 35.565624 86.62813 35.89375Q86.89375 36.20625 87.53438 36.20625Q87.84688 36.20625 88.39375 36.08125L88.39375 37.55Q87.675 37.753124 87.00313 37.753124Q85.8 37.753124 85.175 37.01875Q84.56563 36.284374 84.56563 34.925L84.56563 28.378124L82.64375 28.378124L82.64375 26.9875L84.56563 26.9875L84.56563 24.425L86.3625 24.425ZM92.87813 37.55L91.08125 37.55L91.08125 26.9875L92.87813 26.9875L92.87813 37.55ZM90.925 24.175Q90.925 23.7375 91.19063 23.440624Q91.47188 23.128124 91.9875 23.128124Q92.51875 23.128124 92.78438 23.440624Q93.06563 23.7375 93.06563 24.175Q93.06563 24.6125 92.78438 24.909374Q92.51875 25.20625 91.9875 25.20625Q91.47188 25.20625 91.19063 24.909374Q90.925 24.6125 90.925 24.175ZM95.44063 32.175Q95.44063 30.6125 96.05 29.378124Q96.65938 28.128124 97.7375 27.45625Q98.83125 26.784374 100.2375 26.784374Q102.39375 26.784374 103.72188 28.284374Q105.06563 29.76875 105.06563 32.253124L105.06563 32.378124Q105.06563 33.925 104.47188 35.159374Q103.87813 36.378124 102.76875 37.065624Q101.675 37.753124 100.25313 37.753124Q98.1125 37.753124 96.76875 36.253124Q95.44063 34.753124 95.44063 32.3L95.44063 32.175ZM97.25313 32.378124Q97.25313 34.14375 98.06563 35.20625Q98.89375 36.26875 100.25313 36.26875Q101.62813 36.26875 102.44063 35.190624Q103.25313 34.1125 103.25313 32.175Q103.25313 30.425 102.425 29.346874Q101.59688 28.26875 100.2375 28.26875Q98.89375 28.26875 98.06563 29.33125Q97.25313 30.39375 97.25313 32.378124ZM108.62813 26.9875L108.69063 28.315624Q109.89375 26.784374 111.84688 26.784374Q115.20625 26.784374 115.22188 30.565624L115.22188 37.55L113.425 37.55L113.425 30.55Q113.40938 29.409374 112.89375 28.8625Q112.39375 28.315624 111.3 28.315624Q110.425 28.315624 109.75313 28.784374Q109.09688 29.253124 108.72188 30.01875L108.72188 37.55L106.925 37.55L106.925 26.9875L108.62813 26.9875ZM131.84688 32.378124Q131.84688 34.8 130.7375 36.284374Q129.64375 37.753124 127.75313 37.753124Q125.83125 37.753124 124.72188 36.51875L124.72188 41.6125L122.925 41.6125L122.925 26.9875L124.56563 26.9875L124.65938 28.159374Q125.75313 26.784374 127.72188 26.784374Q129.62813 26.784374 130.7375 28.221874Q131.84688 29.659374 131.84688 32.221874L131.84688 32.378124ZM130.03438 32.175Q130.03438 30.39375 129.26875 29.3625Q128.51875 28.315624 127.19063 28.315624Q125.55 28.315624 124.72188 29.76875L124.72188 34.83125Q125.53438 36.26875 127.20625 36.26875Q128.50313 36.26875 129.26875 35.2375Q130.03438 34.20625 130.03438 32.175ZM140.44063 37.55Q140.28438 37.2375 140.19063 36.440624Q138.925 37.753124 137.175 37.753124Q135.6125 37.753124 134.6125 36.8625Q133.6125 35.971874 133.6125 34.6125Q133.6125 32.971874 134.8625 32.065624Q136.12813 31.14375 138.39375 31.14375L140.15938 31.14375L140.15938 30.315624Q140.15938 29.3625 139.58125 28.8Q139.01875 28.2375 137.925 28.2375Q136.95625 28.2375 136.3 28.7375Q135.64375 29.221874 135.64375 29.909374L133.83125 29.909374Q133.83125 29.128124 134.39375 28.39375Q134.95625 27.64375 135.90938 27.221874Q136.87813 26.784374 138.03438 26.784374Q139.8625 26.784374 140.89375 27.70625Q141.925 28.6125 141.97188 30.221874L141.97188 35.08125Q141.97188 36.534374 142.33125 37.39375L142.33125 37.55L140.44063 37.55ZM137.44063 36.175Q138.3 36.175 139.05 35.7375Q139.81563 35.3 140.15938 34.596874L140.15938 32.425L138.7375 32.425Q135.425 32.425 135.425 34.3625Q135.425 35.221874 135.9875 35.70625Q136.55 36.175 137.44063 36.175ZM150.01875 28.596874Q149.6125 28.534374 149.14375 28.534374Q147.3625 28.534374 146.72188 30.05L146.72188 37.55L144.925 37.55L144.925 26.9875L146.675 26.9875L146.70625 28.20625Q147.59688 26.784374 149.22188 26.784374Q149.75313 26.784374 150.01875 26.925L150.01875 28.596874ZM161.15938 36.26875Q162.12813 36.26875 162.84688 35.690624Q163.56563 35.096874 163.64375 34.221874L165.3625 34.221874Q165.3 35.128124 164.72188 35.95625Q164.15938 36.76875 163.19063 37.26875Q162.2375 37.753124 161.15938 37.753124Q159.00313 37.753124 157.72188 36.315624Q156.45625 34.8625 156.45625 32.3625L156.45625 32.065624Q156.45625 30.51875 157.01875 29.315624Q157.58125 28.1125 158.64375 27.45625Q159.70625 26.784374 161.14375 26.784374Q162.925 26.784374 164.09688 27.846874Q165.28438 28.909374 165.3625 30.6125L163.64375 30.6125Q163.56563 29.596874 162.8625 28.940624Q162.175 28.26875 161.14375 28.26875Q159.76875 28.26875 159.00313 29.26875Q158.25313 30.253124 158.25313 32.128124L158.25313 32.471874Q158.25313 34.3 159.00313 35.284374Q159.75313 36.26875 161.15938 36.26875ZM166.44063 32.175Q166.44063 30.6125 167.05 29.378124Q167.65938 28.128124 168.7375 27.45625Q169.83125 26.784374 171.2375 26.784374Q173.39375 26.784374 174.72188 28.284374Q176.06563 29.76875 176.06563 32.253124L176.06563 32.378124Q176.06563 33.925 175.47188 35.159374Q174.87813 36.378124 173.76875 37.065624Q172.675 37.753124 171.25313 37.753124Q169.1125 37.753124 167.76875 36.253124Q166.44063 34.753124 166.44063 32.3L166.44063 32.175ZM168.25313 32.378124Q168.25313 34.14375 169.06563 35.20625Q169.89375 36.26875 171.25313 36.26875Q172.62813 36.26875 173.44063 35.190624Q174.25313 34.1125 174.25313 32.175Q174.25313 30.425 173.425 29.346874Q172.59688 28.26875 171.2375 28.26875Q169.89375 28.26875 169.06563 29.33125Q168.25313 30.39375 168.25313 32.378124ZM180.3625 24.425L180.3625 26.9875L182.34688 26.9875L182.34688 28.378124L180.3625 28.378124L180.3625 34.925Q180.3625 35.565624 180.62813 35.89375Q180.89375 36.20625 181.53438 36.20625Q181.84688 36.20625 182.39375 36.08125L182.39375 37.55Q181.675 37.753124 181.00313 37.753124Q179.8 37.753124 179.175 37.01875Q178.56563 36.284374 178.56563 34.925L178.56563 28.378124L176.64375 28.378124L176.64375 26.9875L178.56563 26.9875L178.56563 24.425L180.3625 24.425ZM191.44063 37.55Q191.28438 37.2375 191.19063 36.440624Q189.925 37.753124 188.175 37.753124Q186.6125 37.753124 185.6125 36.8625Q184.6125 35.971874 184.6125 34.6125Q184.6125 32.971874 185.8625 32.065624Q187.12813 31.14375 189.39375 31.14375L191.15938 31.14375L191.15938 30.315624Q191.15938 29.3625 190.58125 28.8Q190.01875 28.2375 188.925 28.2375Q187.95625 28.2375 187.3 28.7375Q186.64375 29.221874 186.64375 29.909374L184.83125 29.909374Q184.83125 29.128124 185.39375 28.39375Q185.95625 27.64375 186.90938 27.221874Q187.87813 26.784374 189.03438 26.784374Q190.8625 26.784374 191.89375 27.70625Q192.925 28.6125 192.97188 30.221874L192.97188 35.08125Q192.97188 36.534374 193.33125 37.39375L193.33125 37.55L191.44063 37.55ZM188.44063 36.175Q189.3 36.175 190.05 35.7375Q190.81563 35.3 191.15938 34.596874L191.15938 32.425L189.7375 32.425Q186.425 32.425 186.425 34.3625Q186.425 35.221874 186.9875 35.70625Q187.55 36.175 188.44063 36.175ZM198.3625 24.425L198.3625 26.9875L200.34688 26.9875L200.34688 28.378124L198.3625 28.378124L198.3625 34.925Q198.3625 35.565624 198.62813 35.89375Q198.89375 36.20625 199.53438 36.20625Q199.84688 36.20625 200.39375 36.08125L200.39375 37.55Q199.675 37.753124 199.00313 37.753124Q197.8 37.753124 197.175 37.01875Q196.56563 36.284374 196.56563 34.925L196.56563 28.378124L194.64375 28.378124L194.64375 26.9875L196.56563 26.9875L196.56563 24.425L198.3625 24.425ZM204.87813 37.55L203.08125 37.55L203.08125 26.9875L204.87813 26.9875L204.87813 37.55ZM202.925 24.175Q202.925 23.7375 203.19063 23.440624Q203.47188 23.128124 203.9875 23.128124Q204.51875 23.128124 204.78438 23.440624Q205.06563 23.7375 205.06563 24.175Q205.06563 24.6125 204.78438 24.909374Q204.51875 25.20625 203.9875 25.20625Q203.47188 25.20625 203.19063 24.909374Q202.925 24.6125 202.925 24.175ZM207.44063 32.175Q207.44063 30.6125 208.05 29.378124Q208.65938 28.128124 209.7375 27.45625Q210.83125 26.784374 212.2375 26.784374Q214.39375 26.784374 215.72188 28.284374Q217.06563 29.76875 217.06563 32.253124L217.06563 32.378124Q217.06563 33.925 216.47188 35.159374Q215.87813 36.378124 214.76875 37.065624Q213.675 37.753124 212.25313 37.753124Q210.1125 37.753124 208.76875 36.253124Q207.44063 34.753124 207.44063 32.3L207.44063 32.175ZM209.25313 32.378124Q209.25313 34.14375 210.06563 35.20625Q210.89375 36.26875 212.25313 36.26875Q213.62813 36.26875 214.44063 35.190624Q215.25313 34.1125 215.25313 32.175Q215.25313 30.425 214.425 29.346874Q213.59688 28.26875 212.2375 28.26875Q210.89375 28.26875 210.06563 29.33125Q209.25313 30.39375 209.25313 32.378124ZM220.62813 26.9875L220.69063 28.315624Q221.89375 26.784374 223.84688 26.784374Q227.20625 26.784374 227.22188 30.565624L227.22188 37.55L225.425 37.55L225.425 30.55Q225.40938 29.409374 224.89375 28.8625Q224.39375 28.315624 223.3 28.315624Q222.425 28.315624 221.75313 28.784374Q221.09688 29.253124 220.72188 30.01875L220.72188 37.55L218.925 37.55L218.925 26.9875L220.62813 26.9875Z" fill-rule="nonzero"/></svg>