<svg version="1.1" viewBox="0.0 0.0 600.0 292.0" fill="none" stroke="none" stroke-linecap="square" stroke-miterlimit="10" width="600" height="292" xmlns:xlink="http://www.w3.org/1999/xlink" xmlns="http://www.w3.org/2000/svg"><path fill="#ffffff" d="M0 0L600.0 0L600.0 292.0L0 292.0L0 0Z" fill-rule="nonzero"/><path stroke="#333333" stroke-width="1.0" stroke-linecap="butt" d="M41.5 256.5L585.5 256.5" fill-rule="nonzero"/><path stroke="#cccccc" stroke-width="1.0" stroke-linecap="butt" d="M41.5 216.5L585.5 216.5" fill-rule="nonzero"/><path stroke="#cccccc" stroke-width="1.0" stroke-linecap="butt" d="M41.5 176.5L585.5 176.5" fill-rule="nonzero"/><path stroke="#cccccc" stroke-width="1.0" stroke-linecap="butt" d="M41.5 136.5L585.5 136.5" fill-rule="nonzero"/><path stroke="#cccccc" stroke-width="1.0" stroke-linecap="butt" d="M41.5 95.5L585.5 95.5" fill-rule="nonzero"/><path stroke="#cccccc" stroke-width="1.0" stroke-linecap="butt" d="M41.5 55.5L585.5 55.5" fill-rule="nonzero"/><path stroke="#e6e6e6" stroke-width="1.0" stroke-linecap="butt" d="M41.5 243.5L585.5 243.5" fill-rule="nonzero"/><path stroke="#e6e6e6" stroke-width="1.0" stroke-linecap="butt" d="M41.5 229.5L585.5 229.5" fill-rule="nonzero"/><path stroke="#e6e6e6" stroke-width="1.0" stroke-linecap="butt" d="M41.5 202.5L585.5 202.5" fill-rule="nonzero"/><path stroke="#e6e6e6" stroke-width="1.0" stroke-linecap="butt" d="M41.5 189.5L585.5 189.5" fill-rule="nonzero"/><path stroke="#e6e6e6" stroke-width="1.0" stroke-linecap="butt" d="M41.5 162.5L585.5 162.5" fill-rule="nonzero"/><path stroke="#e6e6e6" stroke-width="1.0" stroke-linecap="butt" d="M41.5 149.5L585.5 149.5" fill-rule="nonzero"/><path stroke="#e6e6e6" stroke-width="1.0" stroke-linecap="butt" d="M41.5 122.5L585.5 122.5" fill-rule="nonzero"/><path stroke="#e6e6e6" stroke-width="1.0" stroke-linecap="butt" d="M41.5 109.5L585.5 109.5" fill-rule="nonzero"/><path stroke="#e6e6e6" stroke-width="1.0" stroke-linecap="butt" d="M41.5 82.5L585.5 82.5" fill-rule="nonzero"/><path stroke="#e6e6e6" stroke-width="1.0" stroke-linecap="butt" d="M41.5 69.5L585.5 69.5" fill-rule="nonzero"/><clipPath id="id_0"><path d="M41.6 55.833332L585.4 55.833332L585.4 256.4L41.6 256.4L41.6 55.833332Z" clip-rule="nonzero"/></clipPath><path stroke="#000000" stroke-width="2.0" stroke-linecap="butt" stroke-opacity="0.0" clip-path="url(#id_0)" d="M127.0 256.0L71.0 256.0L71.0 58.0C71.0 56.89543 71.89543 56.0 73.0 56.0L125.0 56.0C126.10457 56.0 127.0 56.89543 127.0 58.0Z" fill-rule="nonzero"/><path fill="#4285f4" clip-path="url(#id_0)" d="M127.0 256.0L71.0 256.0L71.0 58.0C71.0 56.89543 71.89543 56.0 73.0 56.0L125.0 56.0C126.10457 56.0 127.0 56.89543 127.0 58.0Z" fill-rule="nonzero"/><path stroke="#000000" stroke-width="2.0" stroke-linecap="butt" stroke-opacity="0.0" clip-path="url(#id_0)" d="M213.0 256.0L157.0 256.0L157.0 58.0C157.0 56.89543 157.89543 56.0 159.0 56.0L211.0 56.0C212.10457 56.0 213.0 56.89543 213.0 58.0Z" fill-rule="nonzero"/><path fill="#4285f4" clip-path="url(#id_0)" d="M213.0 256.0L157.0 256.0L157.0 58.0C157.0 56.89543 157.89543 56.0 159.0 56.0L211.0 56.0C212.10457 56.0 213.0 56.89543 213.0 58.0Z" fill-rule="nonzero"/><path stroke="#000000" stroke-width="2.0" stroke-linecap="butt" stroke-opacity="0.0" clip-path="url(#id_0)" d="M299.0 256.0L243.0 256.0L243.0 178.0C243.0 176.89543 243.89543 176.0 245.0 176.0L297.0 176.0C298.10458 176.0 299.0 176.89543 299.0 178.0Z" fill-rule="nonzero"/><path fill="#4285f4" clip-path="url(#id_0)" d="M299.0 256.0L243.0 256.0L243.0 178.0C243.0 176.89543 243.89543 176.0 245.0 176.0L297.0 176.0C298.10458 176.0 299.0 176.89543 299.0 178.0Z" fill-rule="nonzero"/><path stroke="#000000" stroke-width="2.0" stroke-linecap="butt" stroke-opacity="0.0" clip-path="url(#id_0)" d="M384.0 256.0L328.0 256.0L328.0 138.0C328.0 136.89543 328.89542 136.0 330.0 136.0L382.0 136.0C383.10458 136.0 384.0 136.89543 384.0 138.0Z" fill-rule="nonzero"/><path fill="#4285f4" clip-path="url(#id_0)" d="M384.0 256.0L328.0 256.0L328.0 138.0C328.0 136.89543 328.89542 136.0 330.0 136.0L382.0 136.0C383.10458 136.0 384.0 136.89543 384.0 138.0Z" fill-rule="nonzero"/><path stroke="#000000" stroke-width="2.0" stroke-linecap="butt" stroke-opacity="0.0" clip-path="url(#id_0)" d="M470.0 256.0L414.0 256.0L414.0 98.0C414.0 96.89543 414.89542 96.0 416.0 96.0L468.0 96.0C469.10458 96.0 470.0 96.89543 470.0 98.0Z" fill-rule="nonzero"/><path fill="#4285f4" clip-path="url(#id_0)" d="M470.0 256.0L414.0 256.0L414.0 98.0C414.0 96.89543 414.89542 96.0 416.0 96.0L468.0 96.0C469.10458 96.0 470.0 96.89543 470.0 98.0Z" fill-rule="nonzero"/><path stroke="#000000" stroke-width="2.0" stroke-linecap="butt" stroke-opacity="0.0" clip-path="url(#id_0)" d="M556.0 256.0L500.0 256.0L500.0 218.0C500.0 216.89543 500.89542 216.0 502.0 216.0L554.0 216.0C555.10455 216.0 556.0 216.89543 556.0 218.0Z" fill-rule="nonzero"/><path fill="#4285f4" clip-path="url(#id_0)" d="M556.0 256.0L500.0 256.0L500.0 218.0C500.0 216.89543 500.89542 216.0 502.0 216.0L554.0 216.0C555.10455 216.0 556.0 216.89543 556.0 218.0Z" fill-rule="nonzero"/><path stroke="#4285f4" stroke-width="3.0" stroke-linejoin="round" stroke-linecap="round" d="M96.328125 68.43021L96.828125 64.10208L101.609375 64.10208L101.609375 65.50833L98.21875 65.50833L98.0 67.35208Q98.609375 67.02396 99.28125 67.02396Q100.5 67.02396 101.1875 67.78958Q101.890625 68.53958 101.890625 69.89896Q101.890625 70.72708 101.53125 71.38333Q101.1875 72.02396 100.53125 72.39896Q99.890625 72.75833 99.0 72.75833Q98.234375 72.75833 97.5625 72.44583Q96.90625 72.11771 96.515625 71.55521Q96.140625 70.99271 96.109375 70.25833L97.796875 70.25833Q97.84375 70.78958 98.15625 71.08646Q98.484375 71.38333 99.0 71.38333Q99.578125 71.38333 99.875 70.97708Q100.1875 70.55521 100.1875 69.80521Q100.1875 69.07083 99.828125 68.69583Q99.484375 68.30521 98.828125 68.30521Q98.21875 68.30521 97.84375 68.61771L97.6875 68.77396L96.328125 68.43021Z" fill-rule="nonzero"/><path fill="#ffffff" d="M96.328125 68.43021L96.828125 64.10208L101.609375 64.10208L101.609375 65.50833L98.21875 65.50833L98.0 67.35208Q98.609375 67.02396 99.28125 67.02396Q100.5 67.02396 101.1875 67.78958Q101.890625 68.53958 101.890625 69.89896Q101.890625 70.72708 101.53125 71.38333Q101.1875 72.02396 100.53125 72.39896Q99.890625 72.75833 99.0 72.75833Q98.234375 72.75833 97.5625 72.44583Q96.90625 72.11771 96.515625 71.55521Q96.140625 70.99271 96.109375 70.25833L97.796875 70.25833Q97.84375 70.78958 98.15625 71.08646Q98.484375 71.38333 99.0 71.38333Q99.578125 71.38333 99.875 70.97708Q100.1875 70.55521 100.1875 69.80521Q100.1875 69.07083 99.828125 68.69583Q99.484375 68.30521 98.828125 68.30521Q98.21875 68.30521 97.84375 68.61771L97.6875 68.77396L96.328125 68.43021Z" fill-rule="nonzero"/><path stroke="#4285f4" stroke-width="3.0" stroke-linejoin="round" stroke-linecap="round" d="M182.32812 68.43021L182.82812 64.10208L187.60938 64.10208L187.60938 65.50833L184.21875 65.50833L184.0 67.35208Q184.60938 67.02396 185.28125 67.02396Q186.5 67.02396 187.1875 67.78958Q187.89062 68.53958 187.89062 69.89896Q187.89062 70.72708 187.53125 71.38333Q187.1875 72.02396 186.53125 72.39896Q185.89062 72.75833 185.0 72.75833Q184.23438 72.75833 183.5625 72.44583Q182.90625 72.11771 182.51562 71.55521Q182.14062 70.99271 182.10938 70.25833L183.79688 70.25833Q183.84375 70.78958 184.15625 71.08646Q184.48438 71.38333 185.0 71.38333Q185.57812 71.38333 185.875 70.97708Q186.1875 70.55521 186.1875 69.80521Q186.1875 69.07083 185.82812 68.69583Q185.48438 68.30521 184.82812 68.30521Q184.21875 68.30521 183.84375 68.61771L183.6875 68.77396L182.32812 68.43021Z" fill-rule="nonzero"/><path fill="#ffffff" d="M182.32812 68.43021L182.82812 64.10208L187.60938 64.10208L187.60938 65.50833L184.21875 65.50833L184.0 67.35208Q184.60938 67.02396 185.28125 67.02396Q186.5 67.02396 187.1875 67.78958Q187.89062 68.53958 187.89062 69.89896Q187.89062 70.72708 187.53125 71.38333Q187.1875 72.02396 186.53125 72.39896Q185.89062 72.75833 185.0 72.75833Q184.23438 72.75833 183.5625 72.44583Q182.90625 72.11771 182.51562 71.55521Q182.14062 70.99271 182.10938 70.25833L183.79688 70.25833Q183.84375 70.78958 184.15625 71.08646Q184.48438 71.38333 185.0 71.38333Q185.57812 71.38333 185.875 70.97708Q186.1875 70.55521 186.1875 69.80521Q186.1875 69.07083 185.82812 68.69583Q185.48438 68.30521 184.82812 68.30521Q184.21875 68.30521 183.84375 68.61771L183.6875 68.77396L182.32812 68.43021Z" fill-rule="nonzero"/><path stroke="#4285f4" stroke-width="3.0" stroke-linejoin="round" stroke-linecap="round" d="M273.92188 192.97333L268.07812 192.97333L268.07812 191.81708L270.84375 188.86395Q271.40625 188.25458 271.67188 187.78583Q271.95312 187.31708 271.95312 186.91083Q271.95312 186.3327 271.65625 186.0202Q271.375 185.69208 270.84375 185.69208Q270.26562 185.69208 269.9375 186.0827Q269.60938 186.47333 269.60938 187.12958L267.90625 187.12958Q267.90625 186.34833 268.28125 185.7077Q268.65625 185.05145 269.32812 184.69208Q270.01562 184.31708 270.875 184.31708Q272.1875 184.31708 272.92188 184.9577Q273.65625 185.5827 273.65625 186.73895Q273.65625 187.37958 273.32812 188.03583Q273.0 188.69208 272.20312 189.56708L270.26562 191.61395L273.92188 191.61395L273.92188 192.97333Z" fill-rule="nonzero"/><path fill="#ffffff" d="M273.92188 192.97333L268.07812 192.97333L268.07812 191.81708L270.84375 188.86395Q271.40625 188.25458 271.67188 187.78583Q271.95312 187.31708 271.95312 186.91083Q271.95312 186.3327 271.65625 186.0202Q271.375 185.69208 270.84375 185.69208Q270.26562 185.69208 269.9375 186.0827Q269.60938 186.47333 269.60938 187.12958L267.90625 187.12958Q267.90625 186.34833 268.28125 185.7077Q268.65625 185.05145 269.32812 184.69208Q270.01562 184.31708 270.875 184.31708Q272.1875 184.31708 272.92188 184.9577Q273.65625 185.5827 273.65625 186.73895Q273.65625 187.37958 273.32812 188.03583Q273.0 188.69208 272.20312 189.56708L270.26562 191.61395L273.92188 191.61395L273.92188 192.97333Z" fill-rule="nonzero"/><path stroke="#4285f4" stroke-width="3.0" stroke-linejoin="round" stroke-linecap="round" d="M354.79688 147.84438L355.70312 147.84438Q356.34375 147.84438 356.65625 147.53188Q356.96875 147.20375 356.96875 146.6725Q356.96875 146.15688 356.65625 145.87563Q356.35938 145.57875 355.8125 145.57875Q355.32812 145.57875 355.0 145.84438Q354.67188 146.11 354.67188 146.53188L352.98438 146.53188Q352.98438 145.87563 353.34375 145.34438Q353.70312 144.81313 354.34375 144.51625Q355.0 144.20375 355.78125 144.20375Q357.125 144.20375 357.89062 144.86Q358.67188 145.50063 358.67188 146.64125Q358.67188 147.235 358.3125 147.735Q357.95312 148.21938 357.375 148.46938Q358.09375 148.735 358.4375 149.25063Q358.79688 149.76625 358.79688 150.46938Q358.79688 151.61 357.96875 152.2975Q357.14062 152.985 355.78125 152.985Q354.5 152.985 353.6875 152.31313Q352.875 151.62563 352.875 150.51625L354.5625 150.51625Q354.5625 151.00063 354.92188 151.31313Q355.29688 151.61 355.8125 151.61Q356.42188 151.61 356.76562 151.2975Q357.10938 150.96938 357.10938 150.43813Q357.10938 149.1725 355.70312 149.1725L354.79688 149.1725L354.79688 147.84438Z" fill-rule="nonzero"/><path fill="#ffffff" d="M354.79688 147.84438L355.70312 147.84438Q356.34375 147.84438 356.65625 147.53188Q356.96875 147.20375 356.96875 146.6725Q356.96875 146.15688 356.65625 145.87563Q356.35938 145.57875 355.8125 145.57875Q355.32812 145.57875 355.0 145.84438Q354.67188 146.11 354.67188 146.53188L352.98438 146.53188Q352.98438 145.87563 353.34375 145.34438Q353.70312 144.81313 354.34375 144.51625Q355.0 144.20375 355.78125 144.20375Q357.125 144.20375 357.89062 144.86Q358.67188 145.50063 358.67188 146.64125Q358.67188 147.235 358.3125 147.735Q357.95312 148.21938 357.375 148.46938Q358.09375 148.735 358.4375 149.25063Q358.79688 149.76625 358.79688 150.46938Q358.79688 151.61 357.96875 152.2975Q357.14062 152.985 355.78125 152.985Q354.5 152.985 353.6875 152.31313Q352.875 151.62563 352.875 150.51625L354.5625 150.51625Q354.5625 151.00063 354.92188 151.31313Q355.29688 151.61 355.8125 151.61Q356.42188 151.61 356.76562 151.2975Q357.10938 150.96938 357.10938 150.43813Q357.10938 149.1725 355.70312 149.1725L354.79688 149.1725L354.79688 147.84438Z" fill-rule="nonzero"/><path stroke="#4285f4" stroke-width="3.0" stroke-linejoin="round" stroke-linecap="round" d="M444.09375 109.527916L445.0625 109.527916L445.0625 110.902916L444.09375 110.902916L444.09375 112.746666L442.39062 112.746666L442.39062 110.902916L438.90625 110.902916L438.82812 109.840416L442.375 104.215416L444.09375 104.215416L444.09375 109.527916ZM440.51562 109.527916L442.39062 109.527916L442.39062 106.527916L442.28125 106.715416L440.51562 109.527916Z" fill-rule="nonzero"/><path fill="#ffffff" d="M444.09375 109.527916L445.0625 109.527916L445.0625 110.902916L444.09375 110.902916L444.09375 112.746666L442.39062 112.746666L442.39062 110.902916L438.90625 110.902916L438.82812 109.840416L442.375 104.215416L444.09375 104.215416L444.09375 109.527916ZM440.51562 109.527916L442.39062 109.527916L442.39062 106.527916L442.28125 106.715416L440.51562 109.527916Z" fill-rule="nonzero"/><path stroke="#4285f4" stroke-width="3.0" stroke-linejoin="round" stroke-linecap="round" d="M529.1875 233.08667L527.5 233.08667L527.5 226.55542L525.4844 227.18042L525.4844 225.80542L529.0156 224.5398L529.1875 224.5398L529.1875 233.08667Z" fill-rule="nonzero"/><path fill="#ffffff" d="M529.1875 233.08667L527.5 233.08667L527.5 226.55542L525.4844 227.18042L525.4844 225.80542L529.0156 224.5398L529.1875 224.5398L529.1875 233.08667Z" fill-rule="nonzero"/><path fill="#000000" d="M34.6625 257.25937Q34.6625 259.16562 34.00625 260.10312Q33.365623 261.025 31.975 261.025Q30.615625 261.025 29.959375 260.11874Q29.303125 259.2125 29.271875 257.4L29.271875 255.9625Q29.271875 254.07187 29.9125 253.16562Q30.56875 252.24374 31.959375 252.24374Q33.334373 252.24374 33.990623 253.13437Q34.646873 254.00937 34.6625 255.85312L34.6625 257.25937ZM33.56875 255.775Q33.56875 254.4 33.178123 253.775Q32.803123 253.13437 31.959375 253.13437Q31.13125 253.13437 30.740625 253.775Q30.365625 254.4 30.365625 255.69687L30.365625 257.43124Q30.365625 258.80624 30.75625 259.47812Q31.1625 260.13437 31.975 260.13437Q32.771873 260.13437 33.1625 259.50937Q33.553123 258.88437 33.56875 257.55624L33.56875 255.775Z" fill-rule="nonzero"/><path fill="#000000" d="M32.865623 220.78667L31.7875 220.78667L31.7875 213.56792L29.6 214.36479L29.6 213.38042L32.709373 212.20854L32.865623 212.20854L32.865623 220.78667Z" fill-rule="nonzero"/><path fill="#000000" d="M34.896873 180.67334L29.303125 180.67334L29.303125 179.89209L32.25625 176.61084Q32.9125 175.86084 33.1625 175.40771Q33.4125 174.93896 33.4125 174.43896Q33.4125 173.76709 33.00625 173.34521Q32.615623 172.90771 31.928125 172.90771Q31.13125 172.90771 30.678125 173.37646Q30.225 173.82959 30.225 174.65771L29.146875 174.65771Q29.146875 173.47021 29.896875 172.75146Q30.6625 172.01709 31.928125 172.01709Q33.13125 172.01709 33.81875 172.64209Q34.50625 173.26709 34.50625 174.31396Q34.50625 175.56396 32.896873 177.31396L30.615625 179.78271L34.896873 179.78271L34.896873 180.67334Z" fill-rule="nonzero"/><path fill="#000000" d="M30.88125 135.76312L31.69375 135.76312Q32.475 135.7475 32.9125 135.35687Q33.35 134.96625 33.35 134.29437Q33.35 132.79437 31.85 132.79437Q31.146875 132.79437 30.725 133.20062Q30.31875 133.60687 30.31875 134.26312L29.225 134.26312Q29.225 133.2475 29.959375 132.57562Q30.709375 131.90375 31.85 131.90375Q33.053123 131.90375 33.740623 132.54437Q34.428123 133.185 34.428123 134.32562Q34.428123 134.88812 34.06875 135.40375Q33.709373 135.91937 33.084373 136.185Q33.7875 136.40375 34.1625 136.91937Q34.553123 137.435 34.553123 138.185Q34.553123 139.32562 33.803123 140.01312Q33.053123 140.685 31.85 140.685Q30.6625 140.685 29.896875 140.02875Q29.146875 139.3725 29.146875 138.31L30.240625 138.31Q30.240625 138.98187 30.678125 139.38812Q31.115625 139.79437 31.865625 139.79437Q32.646873 139.79437 33.053123 139.38812Q33.475 138.96625 33.475 138.20062Q33.475 137.46625 33.021873 137.07562Q32.56875 136.66937 31.69375 136.65375L30.88125 136.65375L30.88125 135.76312Z" fill-rule="nonzero"/><path fill="#000000" d="M33.88125 97.58729L35.06875 97.58729L35.06875 98.46229L33.88125 98.46229L33.88125 100.44666L32.803123 100.44666L32.803123 98.46229L28.9125 98.46229L28.9125 97.82166L32.725 91.91541L33.88125 91.91541L33.88125 97.58729ZM30.146875 97.58729L32.803123 97.58729L32.803123 93.39979L32.6625 93.63416L30.146875 97.58729Z" fill-rule="nonzero"/><path fill="#000000" d="M29.803125 56.052082L30.240625 51.802082L34.615623 51.802082L34.615623 52.802082L31.1625 52.802082L30.896875 55.130207Q31.5375 54.755207 32.334373 54.755207Q33.490623 54.755207 34.178123 55.536457Q34.865623 56.302082 34.865623 57.614582Q34.865623 58.927082 34.146873 59.692707Q33.44375 60.458332 32.1625 60.458332Q31.0375 60.458332 30.31875 59.833332Q29.6 59.192707 29.50625 58.083332L30.521875 58.083332Q30.63125 58.817707 31.053125 59.192707Q31.475 59.567707 32.1625 59.567707Q32.9125 59.567707 33.35 59.052082Q33.7875 58.536457 33.7875 57.630207Q33.7875 56.770832 33.31875 56.255207Q32.85 55.739582 32.06875 55.739582Q31.365625 55.739582 30.959375 56.036457L30.678125 56.270832L29.803125 56.052082Z" fill-rule="nonzero"/><path fill="#000000" d="M97.37426 265.86874L97.37426 266.775L97.171135 266.775Q95.90551 266.80624 95.15551 267.54062Q94.40551 268.25937 94.28051 269.57187Q94.96801 268.80624 96.12426 268.80624Q97.233635 268.80624 97.90551 269.5875Q98.577385 270.36874 98.577385 271.61874Q98.577385 272.93124 97.858635 273.72812Q97.139885 274.525 95.921135 274.525Q94.702385 274.525 93.93676 273.5875Q93.18676 272.63437 93.18676 271.15L93.18676 270.74374Q93.18676 268.38437 94.18676 267.13437Q95.18676 265.88437 97.171135 265.86874L97.37426 265.86874ZM95.952385 269.7125Q95.389885 269.7125 94.921135 270.04062Q94.452385 270.36874 94.264885 270.88437L94.264885 271.275Q94.264885 272.3375 94.733635 272.97812Q95.21801 273.61874 95.921135 273.61874Q96.65551 273.61874 97.077385 273.0875Q97.49926 272.54062 97.49926 271.66562Q97.49926 270.79062 97.077385 270.25937Q96.65551 269.7125 95.952385 269.7125ZM105.59301 271.30624Q105.59301 272.75937 104.921135 273.65Q104.264885 274.525 103.139885 274.525Q101.93676 274.525 101.28051 273.66562L101.21801 274.4L100.233635 274.4L100.233635 265.4L101.31176 265.4L101.31176 268.75937Q101.96801 267.94687 103.12426 267.94687Q104.28051 267.94687 104.93676 268.82187Q105.59301 269.68124 105.59301 271.2125L105.59301 271.30624ZM104.514885 271.18124Q104.514885 270.07187 104.077385 269.47812Q103.65551 268.86874 102.858635 268.86874Q101.78051 268.86874 101.31176 269.85312L101.31176 272.60312Q101.81176 273.60312 102.858635 273.60312Q103.639885 273.60312 104.077385 272.99374Q104.514885 272.38437 104.514885 271.18124Z" fill-rule="nonzero"/><path fill="#000000" d="M179.51205 265.86874L179.51205 266.775L179.30893 266.775Q178.0433 266.80624 177.2933 267.54062Q176.5433 268.25937 176.4183 269.57187Q177.1058 268.80624 178.26205 268.80624Q179.37143 268.80624 180.0433 269.5875Q180.71518 270.36874 180.71518 271.61874Q180.71518 272.93124 179.99643 273.72812Q179.27768 274.525 178.05893 274.525Q176.84018 274.525 176.07455 273.5875Q175.32455 272.63437 175.32455 271.15L175.32455 270.74374Q175.32455 268.38437 176.32455 267.13437Q177.32455 265.88437 179.30893 265.86874L179.51205 265.86874ZM178.09018 269.7125Q177.52768 269.7125 177.05893 270.04062Q176.59018 270.36874 176.40268 270.88437L176.40268 271.275Q176.40268 272.3375 176.87143 272.97812Q177.3558 273.61874 178.05893 273.61874Q178.7933 273.61874 179.21518 273.0875Q179.63705 272.54062 179.63705 271.66562Q179.63705 270.79062 179.21518 270.25937Q178.7933 269.7125 178.09018 269.7125ZM187.7308 271.30624Q187.7308 272.75937 187.05893 273.65Q186.40268 274.525 185.27768 274.525Q184.07455 274.525 183.4183 273.66562L183.3558 274.4L182.37143 274.4L182.37143 265.4L183.44955 265.4L183.44955 268.75937Q184.1058 267.94687 185.26205 267.94687Q186.4183 267.94687 187.07455 268.82187Q187.7308 269.68124 187.7308 271.2125L187.7308 271.30624ZM186.65268 271.18124Q186.65268 270.07187 186.21518 269.47812Q185.7933 268.86874 184.99643 268.86874Q183.9183 268.86874 183.44955 269.85312L183.44955 272.60312Q183.94955 273.60312 184.99643 273.60312Q185.77768 273.60312 186.21518 272.99374Q186.65268 272.38437 186.65268 271.18124ZM192.46518 269.82187L194.8558 269.82187L194.8558 270.85312L192.46518 270.85312L192.46518 273.54062L191.38705 273.54062L191.38705 270.85312L188.99643 270.85312L188.99643 269.82187L191.38705 269.82187L191.38705 267.3375L192.46518 267.3375L192.46518 269.82187Z" fill-rule="nonzero"/><path fill="#000000" d="M265.64984 265.86874L265.64984 266.775L265.44672 266.775Q264.1811 266.80624 263.4311 267.54062Q262.6811 268.25937 262.5561 269.57187Q263.2436 268.80624 264.39984 268.80624Q265.50922 268.80624 266.1811 269.5875Q266.85297 270.36874 266.85297 271.61874Q266.85297 272.93124 266.13422 273.72812Q265.41547 274.525 264.19672 274.525Q262.97797 274.525 262.21234 273.5875Q261.46234 272.63437 261.46234 271.15L261.46234 270.74374Q261.46234 268.38437 262.46234 267.13437Q263.46234 265.88437 265.44672 265.86874L265.64984 265.86874ZM264.22797 269.7125Q263.66547 269.7125 263.19672 270.04062Q262.72797 270.36874 262.54047 270.88437L262.54047 271.275Q262.54047 272.3375 263.00922 272.97812Q263.4936 273.61874 264.19672 273.61874Q264.9311 273.61874 265.35297 273.0875Q265.77484 272.54062 265.77484 271.66562Q265.77484 270.79062 265.35297 270.25937Q264.9311 269.7125 264.22797 269.7125ZM271.04047 273.63437Q271.6186 273.63437 272.0561 273.29062Q272.4936 272.93124 272.54047 272.4L273.57172 272.4Q273.54047 272.94687 273.1811 273.44687Q272.83734 273.93124 272.25922 274.22812Q271.69672 274.525 271.04047 274.525Q269.7436 274.525 268.97797 273.66562Q268.22797 272.79062 268.22797 271.29062L268.22797 271.10312Q268.22797 270.18124 268.5561 269.4625Q268.89984 268.74374 269.52484 268.35312Q270.16547 267.94687 271.04047 267.94687Q272.10297 267.94687 272.8061 268.5875Q273.52484 269.2125 273.57172 270.24374L272.54047 270.24374Q272.4936 269.61874 272.07172 269.22812Q271.64984 268.8375 271.04047 268.8375Q270.21234 268.8375 269.75922 269.43124Q269.3061 270.025 269.3061 271.15L269.3061 271.35312Q269.3061 272.44687 269.75922 273.04062Q270.21234 273.63437 271.04047 273.63437ZM277.60297 269.82187L279.9936 269.82187L279.9936 270.85312L277.60297 270.85312L277.60297 273.54062L276.52484 273.54062L276.52484 270.85312L274.13422 270.85312L274.13422 269.82187L276.52484 269.82187L276.52484 267.3375L277.60297 267.3375L277.60297 269.82187Z" fill-rule="nonzero"/><path fill="#000000" d="M355.53766 266.47812L352.0064 274.4L350.86578 274.4L354.3814 266.75937L349.77203 266.75937L349.77203 265.86874L355.53766 265.86874L355.53766 266.47812ZM361.05328 274.4Q360.95953 274.2125 360.89703 273.72812Q360.14703 274.525 359.10016 274.525Q358.16266 274.525 357.55328 273.99374Q356.95953 273.4625 356.95953 272.63437Q356.95953 271.65 357.70953 271.10312Q358.45953 270.55624 359.83453 270.55624L360.8814 270.55624L360.8814 270.05624Q360.8814 269.49374 360.53766 269.16562Q360.20953 268.82187 359.53766 268.82187Q358.95953 268.82187 358.5689 269.11874Q358.17828 269.4 358.17828 269.82187L357.08453 269.82187Q357.08453 269.3375 357.41266 268.9Q357.7564 268.4625 358.33453 268.2125Q358.91266 267.94687 359.60016 267.94687Q360.70953 267.94687 361.3189 268.49374Q361.9439 269.04062 361.97516 269.99374L361.97516 272.91562Q361.97516 273.79062 362.1939 274.30624L362.1939 274.4L361.05328 274.4ZM359.2564 273.57187Q359.77203 273.57187 360.22516 273.30624Q360.67828 273.04062 360.8814 272.61874L360.8814 271.32187L360.03766 271.32187Q358.03766 271.32187 358.03766 272.49374Q358.03766 272.99374 358.3814 273.29062Q358.72516 273.57187 359.2564 273.57187Z" fill-rule="nonzero"/><path fill="#000000" d="M440.42545 265.86874L440.42545 266.775L440.22232 266.775Q438.9567 266.80624 438.2067 267.54062Q437.4567 268.25937 437.3317 269.57187Q438.0192 268.80624 439.17545 268.80624Q440.28482 268.80624 440.9567 269.5875Q441.62857 270.36874 441.62857 271.61874Q441.62857 272.93124 440.90982 273.72812Q440.19107 274.525 438.97232 274.525Q437.75357 274.525 436.98795 273.5875Q436.23795 272.63437 436.23795 271.15L436.23795 270.74374Q436.23795 268.38437 437.23795 267.13437Q438.23795 265.88437 440.22232 265.86874L440.42545 265.86874ZM439.00357 269.7125Q438.44107 269.7125 437.97232 270.04062Q437.50357 270.36874 437.31607 270.88437L437.31607 271.275Q437.31607 272.3375 437.78482 272.97812Q438.2692 273.61874 438.97232 273.61874Q439.7067 273.61874 440.12857 273.0875Q440.55045 272.54062 440.55045 271.66562Q440.55045 270.79062 440.12857 270.25937Q439.7067 269.7125 439.00357 269.7125ZM445.81607 273.63437Q446.3942 273.63437 446.8317 273.29062Q447.2692 272.93124 447.31607 272.4L448.34732 272.4Q448.31607 272.94687 447.9567 273.44687Q447.61295 273.93124 447.03482 274.22812Q446.47232 274.525 445.81607 274.525Q444.5192 274.525 443.75357 273.66562Q443.00357 272.79062 443.00357 271.29062L443.00357 271.10312Q443.00357 270.18124 443.3317 269.4625Q443.67545 268.74374 444.30045 268.35312Q444.94107 267.94687 445.81607 267.94687Q446.87857 267.94687 447.5817 268.5875Q448.30045 269.2125 448.34732 270.24374L447.31607 270.24374Q447.2692 269.61874 446.84732 269.22812Q446.42545 268.8375 445.81607 268.8375Q444.98795 268.8375 444.53482 269.43124Q444.0817 270.025 444.0817 271.15L444.0817 271.35312Q444.0817 272.44687 444.53482 273.04062Q444.98795 273.63437 445.81607 273.63437Z" fill-rule="nonzero"/><path fill="#000000" d="M526.81323 266.47812L523.282 274.4L522.14136 274.4L525.657 266.75937L521.0476 266.75937L521.0476 265.86874L526.81323 265.86874L526.81323 266.47812ZM533.782 271.30624Q533.782 272.75937 533.1101 273.65Q532.45386 274.525 531.32886 274.525Q530.12573 274.525 529.4695 273.66562L529.407 274.4L528.4226 274.4L528.4226 265.4L529.50073 265.4L529.50073 268.75937Q530.157 267.94687 531.31323 267.94687Q532.4695 267.94687 533.12573 268.82187Q533.782 269.68124 533.782 271.2125L533.782 271.30624ZM532.70386 271.18124Q532.70386 270.07187 532.26636 269.47812Q531.8445 268.86874 531.0476 268.86874Q529.9695 268.86874 529.50073 269.85312L529.50073 272.60312Q530.00073 273.60312 531.0476 273.60312Q531.82886 273.60312 532.26636 272.99374Q532.70386 272.38437 532.70386 271.18124Z" fill-rule="nonzero"/><path fill="#757575" d="M21.459375 27.849998L18.13125 27.849998L18.13125 33.6L16.240625 33.6L16.240625 19.381248L20.94375 19.381248Q23.35 19.381248 24.646875 20.474998Q25.94375 21.568748 25.94375 23.662498Q25.94375 24.990623 25.225 25.974998Q24.50625 26.959373 23.225 27.443748L26.56875 33.475L26.56875 33.6L24.553125 33.6L21.459375 27.849998ZM18.13125 26.318748L21.00625 26.318748Q22.396875 26.318748 23.225 25.599998Q24.053125 24.865623 24.053125 23.662498Q24.053125 22.334373 23.25625 21.631248Q22.475 20.928123 20.990625 20.928123L18.13125 20.928123L18.13125 26.318748ZM32.35 33.803123Q30.209375 33.803123 28.85 32.396873Q27.50625 30.974998 27.50625 28.615623L27.50625 28.271873Q27.50625 26.709373 28.1 25.474998Q28.709375 24.240623 29.7875 23.537498Q30.865625 22.834373 32.13125 22.834373Q34.19375 22.834373 35.334373 24.193748Q36.475 25.553123 36.475 28.084373L36.475 28.834373L29.31875 28.834373Q29.35 30.396873 30.225 31.365623Q31.1 32.31875 32.44375 32.31875Q33.4125 32.31875 34.06875 31.928123Q34.740623 31.537498 35.240623 30.896873L36.334373 31.756248Q35.00625 33.803123 32.35 33.803123ZM32.13125 24.318748Q31.0375 24.318748 30.2875 25.115623Q29.553125 25.912498 29.38125 27.349998L34.6625 27.349998L34.6625 27.209373Q34.584373 25.834373 33.9125 25.084373Q33.25625 24.318748 32.13125 24.318748ZM32.69375 18.599998L34.88125 18.599998L32.25625 21.474998L30.803125 21.474998L32.69375 18.599998ZM47.896873 28.428123Q47.896873 30.849998 46.7875 32.334373Q45.69375 33.803123 43.803123 33.803123Q41.88125 33.803123 40.771873 32.56875L40.771873 37.6625L38.975 37.6625L38.975 23.037498L40.615623 23.037498L40.709373 24.209373Q41.803123 22.834373 43.771873 22.834373Q45.678123 22.834373 46.7875 24.271873Q47.896873 25.709373 47.896873 28.271873L47.896873 28.428123ZM46.084373 28.224998Q46.084373 26.443748 45.31875 25.412498Q44.56875 24.365623 43.240623 24.365623Q41.6 24.365623 40.771873 25.818748L40.771873 30.881248Q41.584373 32.31875 43.25625 32.31875Q44.553123 32.31875 45.31875 31.287498Q46.084373 30.256248 46.084373 28.224998ZM56.490623 33.6Q56.334373 33.2875 56.240623 32.490623Q54.975 33.803123 53.225 33.803123Q51.6625 33.803123 50.6625 32.9125Q49.6625 32.021873 49.6625 30.662498Q49.6625 29.021873 50.9125 28.115623Q52.178123 27.193748 54.44375 27.193748L56.209373 27.193748L56.209373 26.365623Q56.209373 25.412498 55.63125 24.849998Q55.06875 24.287498 53.975 24.287498Q53.00625 24.287498 52.35 24.787498Q51.69375 25.271873 51.69375 25.959373L49.88125 25.959373Q49.88125 25.178123 50.44375 24.443748Q51.00625 23.693748 51.959373 23.271873Q52.928123 22.834373 54.084373 22.834373Q55.9125 22.834373 56.94375 23.756248Q57.975 24.662498 58.021873 26.271873L58.021873 31.131248Q58.021873 32.584373 58.38125 33.44375L58.38125 33.6L56.490623 33.6ZM53.490623 32.225Q54.35 32.225 55.1 31.787498Q55.865623 31.349998 56.209373 30.646873L56.209373 28.474998L54.7875 28.474998Q51.475 28.474998 51.475 30.412498Q51.475 31.271873 52.0375 31.756248Q52.6 32.225 53.490623 32.225ZM66.06875 24.646873Q65.6625 24.584373 65.19375 24.584373Q63.4125 24.584373 62.771873 26.099998L62.771873 33.6L60.975 33.6L60.975 23.037498L62.725 23.037498L62.75625 24.256248Q63.646873 22.834373 65.27187 22.834373Q65.80312 22.834373 66.06875 22.974998L66.06875 24.646873ZM70.4125 20.474998L70.4125 23.037498L72.39687 23.037498L72.39687 24.428123L70.4125 24.428123L70.4125 30.974998Q70.4125 31.615623 70.67812 31.943748Q70.94375 32.25625 71.58437 32.25625Q71.89687 32.25625 72.44375 32.13125L72.44375 33.6Q71.725 33.803123 71.05312 33.803123Q69.85 33.803123 69.225 33.06875Q68.61562 32.334373 68.61562 30.974998L68.61562 24.428123L66.69375 24.428123L66.69375 23.037498L68.61562 23.037498L68.61562 20.474998L70.4125 20.474998ZM76.92812 33.6L75.13125 33.6L75.13125 23.037498L76.92812 23.037498L76.92812 33.6ZM74.975 20.224998Q74.975 19.787498 75.24062 19.490623Q75.52187 19.178123 76.0375 19.178123Q76.56875 19.178123 76.83437 19.490623Q77.11562 19.787498 77.11562 20.224998Q77.11562 20.662498 76.83437 20.959373Q76.56875 21.256248 76.0375 21.256248Q75.52187 21.256248 75.24062 20.959373Q74.975 20.662498 74.975 20.224998ZM82.4125 20.474998L82.4125 23.037498L84.39687 23.037498L84.39687 24.428123L82.4125 24.428123L82.4125 30.974998Q82.4125 31.615623 82.67812 31.943748Q82.94375 32.25625 83.58437 32.25625Q83.89687 32.25625 84.44375 32.13125L84.44375 33.6Q83.725 33.803123 83.05312 33.803123Q81.85 33.803123 81.225 33.06875Q80.61562 32.334373 80.61562 30.974998L80.61562 24.428123L78.69375 24.428123L78.69375 23.037498L80.61562 23.037498L80.61562 20.474998L82.4125 20.474998ZM88.92812 33.6L87.13125 33.6L87.13125 23.037498L88.92812 23.037498L88.92812 33.6ZM86.975 20.224998Q86.975 19.787498 87.24062 19.490623Q87.52187 19.178123 88.0375 19.178123Q88.56875 19.178123 88.83437 19.490623Q89.11562 19.787498 89.11562 20.224998Q89.11562 20.662498 88.83437 20.959373Q88.56875 21.256248 88.0375 21.256248Q87.52187 21.256248 87.24062 20.959373Q86.975 20.662498 86.975 20.224998ZM91.49062 28.224998Q91.49062 26.662498 92.1 25.428123Q92.70937 24.178123 93.7875 23.506248Q94.88125 22.834373 96.2875 22.834373Q98.44375 22.834373 99.77187 24.334373Q101.11562 25.818748 101.11562 28.303123L101.11562 28.428123Q101.11562 29.974998 100.52187 31.209373Q99.92812 32.428123 98.81875 33.115623Q97.725 33.803123 96.30312 33.803123Q94.1625 33.803123 92.81875 32.303123Q91.49062 30.803123 91.49062 28.349998L91.49062 28.224998ZM93.30312 28.428123Q93.30312 30.193748 94.11562 31.256248Q94.94375 32.31875 96.30312 32.31875Q97.67812 32.31875 98.49062 31.240623Q99.30312 30.162498 99.30312 28.224998Q99.30312 26.474998 98.475 25.396873Q97.64687 24.318748 96.2875 24.318748Q94.94375 24.318748 94.11562 25.381248Q93.30312 26.443748 93.30312 28.428123ZM104.67812 23.037498L104.74062 24.365623Q105.94375 22.834373 107.89687 22.834373Q111.25625 22.834373 111.27187 26.615623L111.27187 33.6L109.475 33.6L109.475 26.599998Q109.45937 25.459373 108.94375 24.912498Q108.44375 24.365623 107.35 24.365623Q106.475 24.365623 105.80312 24.834373Q105.14687 25.303123 104.77187 26.068748L104.77187 33.6L102.975 33.6L102.975 23.037498L104.67812 23.037498ZM127.89687 28.428123Q127.89687 30.849998 126.7875 32.334373Q125.69375 33.803123 123.80312 33.803123Q121.88125 33.803123 120.77187 32.56875L120.77187 37.6625L118.975 37.6625L118.975 23.037498L120.61562 23.037498L120.70937 24.209373Q121.80312 22.834373 123.77187 22.834373Q125.67812 22.834373 126.7875 24.271873Q127.89687 25.709373 127.89687 28.271873L127.89687 28.428123ZM126.08437 28.224998Q126.08437 26.443748 125.31875 25.412498Q124.56875 24.365623 123.24062 24.365623Q121.6 24.365623 120.77187 25.818748L120.77187 30.881248Q121.58437 32.31875 123.25625 32.31875Q124.55312 32.31875 125.31875 31.287498Q126.08437 30.256248 126.08437 28.224998ZM136.49063 33.6Q136.33438 33.2875 136.24063 32.490623Q134.975 33.803123 133.225 33.803123Q131.6625 33.803123 130.6625 32.9125Q129.6625 32.021873 129.6625 30.662498Q129.6625 29.021873 130.9125 28.115623Q132.17813 27.193748 134.44376 27.193748L136.20938 27.193748L136.20938 26.365623Q136.20938 25.412498 135.63126 24.849998Q135.06876 24.287498 133.975 24.287498Q133.00626 24.287498 132.35 24.787498Q131.69376 25.271873 131.69376 25.959373L129.88126 25.959373Q129.88126 25.178123 130.44376 24.443748Q131.00626 23.693748 131.95938 23.271873Q132.92813 22.834373 134.08438 22.834373Q135.9125 22.834373 136.94376 23.756248Q137.975 24.662498 138.02188 26.271873L138.02188 31.131248Q138.02188 32.584373 138.38126 33.44375L138.38126 33.6L136.49063 33.6ZM133.49063 32.225Q134.35 32.225 135.1 31.787498Q135.86563 31.349998 136.20938 30.646873L136.20938 28.474998L134.7875 28.474998Q131.475 28.474998 131.475 30.412498Q131.475 31.271873 132.0375 31.756248Q132.6 32.225 133.49063 32.225ZM146.06876 24.646873Q145.6625 24.584373 145.19376 24.584373Q143.4125 24.584373 142.77188 26.099998L142.77188 33.6L140.975 33.6L140.975 23.037498L142.725 23.037498L142.75626 24.256248Q143.64688 22.834373 145.27188 22.834373Q145.80313 22.834373 146.06876 22.974998L146.06876 24.646873ZM157.20938 32.31875Q158.17813 32.31875 158.89688 31.740623Q159.61563 31.146873 159.69376 30.271873L161.4125 30.271873Q161.35 31.178123 160.77188 32.00625Q160.20938 32.81875 159.24063 33.31875Q158.2875 33.803123 157.20938 33.803123Q155.05313 33.803123 153.77188 32.365623Q152.50626 30.912498 152.50626 28.412498L152.50626 28.115623Q152.50626 26.568748 153.06876 25.365623Q153.63126 24.162498 154.69376 23.506248Q155.75626 22.834373 157.19376 22.834373Q158.975 22.834373 160.14688 23.896873Q161.33438 24.959373 161.4125 26.662498L159.69376 26.662498Q159.61563 25.646873 158.9125 24.990623Q158.225 24.318748 157.19376 24.318748Q155.81876 24.318748 155.05313 25.318748Q154.30313 26.303123 154.30313 28.178123L154.30313 28.521873Q154.30313 30.349998 155.05313 31.334373Q155.80313 32.31875 157.20938 32.31875ZM162.49063 28.224998Q162.49063 26.662498 163.1 25.428123Q163.70938 24.178123 164.7875 23.506248Q165.88126 22.834373 167.2875 22.834373Q169.44376 22.834373 170.77188 24.334373Q172.11563 25.818748 172.11563 28.303123L172.11563 28.428123Q172.11563 29.974998 171.52188 31.209373Q170.92813 32.428123 169.81876 33.115623Q168.725 33.803123 167.30313 33.803123Q165.1625 33.803123 163.81876 32.303123Q162.49063 30.803123 162.49063 28.349998L162.49063 28.224998ZM164.30313 28.428123Q164.30313 30.193748 165.11563 31.256248Q165.94376 32.31875 167.30313 32.31875Q168.67813 32.31875 169.49063 31.240623Q170.30313 30.162498 170.30313 28.224998Q170.30313 26.474998 169.475 25.396873Q168.64688 24.318748 167.2875 24.318748Q165.94376 24.318748 165.11563 25.381248Q164.30313 26.443748 164.30313 28.428123ZM176.4125 20.474998L176.4125 23.037498L178.39688 23.037498L178.39688 24.428123L176.4125 24.428123L176.4125 30.974998Q176.4125 31.615623 176.67813 31.943748Q176.94376 32.25625 177.58438 32.25625Q177.89688 32.25625 178.44376 32.13125L178.44376 33.6Q177.725 33.803123 177.05313 33.803123Q175.85 33.803123 175.225 33.06875Q174.61563 32.334373 174.61563 30.974998L174.61563 24.428123L172.69376 24.428123L172.69376 23.037498L174.61563 23.037498L174.61563 20.474998L176.4125 20.474998ZM187.49063 33.6Q187.33438 33.2875 187.24063 32.490623Q185.975 33.803123 184.225 33.803123Q182.6625 33.803123 181.6625 32.9125Q180.6625 32.021873 180.6625 30.662498Q180.6625 29.021873 181.9125 28.115623Q183.17813 27.193748 185.44376 27.193748L187.20938 27.193748L187.20938 26.365623Q187.20938 25.412498 186.63126 24.849998Q186.06876 24.287498 184.975 24.287498Q184.00626 24.287498 183.35 24.787498Q182.69376 25.271873 182.69376 25.959373L180.88126 25.959373Q180.88126 25.178123 181.44376 24.443748Q182.00626 23.693748 182.95938 23.271873Q183.92813 22.834373 185.08438 22.834373Q186.9125 22.834373 187.94376 23.756248Q188.975 24.662498 189.02188 26.271873L189.02188 31.131248Q189.02188 32.584373 189.38126 33.44375L189.38126 33.6L187.49063 33.6ZM184.49063 32.225Q185.35 32.225 186.1 31.787498Q186.86563 31.349998 187.20938 30.646873L187.20938 28.474998L185.7875 28.474998Q182.475 28.474998 182.475 30.412498Q182.475 31.271873 183.0375 31.756248Q183.6 32.225 184.49063 32.225ZM194.4125 20.474998L194.4125 23.037498L196.39688 23.037498L196.39688 24.428123L194.4125 24.428123L194.4125 30.974998Q194.4125 31.615623 194.67813 31.943748Q194.94376 32.25625 195.58438 32.25625Q195.89688 32.25625 196.44376 32.13125L196.44376 33.6Q195.725 33.803123 195.05313 33.803123Q193.85 33.803123 193.225 33.06875Q192.61563 32.334373 192.61563 30.974998L192.61563 24.428123L190.69376 24.428123L190.69376 23.037498L192.61563 23.037498L192.61563 20.474998L194.4125 20.474998ZM200.92813 33.6L199.13126 33.6L199.13126 23.037498L200.92813 23.037498L200.92813 33.6ZM198.975 20.224998Q198.975 19.787498 199.24063 19.490623Q199.52188 19.178123 200.0375 19.178123Q200.56876 19.178123 200.83438 19.490623Q201.11563 19.787498 201.11563 20.224998Q201.11563 20.662498 200.83438 20.959373Q200.56876 21.256248 200.0375 21.256248Q199.52188 21.256248 199.24063 20.959373Q198.975 20.662498 198.975 20.224998ZM203.49063 28.224998Q203.49063 26.662498 204.1 25.428123Q204.70938 24.178123 205.7875 23.506248Q206.88126 22.834373 208.2875 22.834373Q210.44376 22.834373 211.77188 24.334373Q213.11563 25.818748 213.11563 28.303123L213.11563 28.428123Q213.11563 29.974998 212.52188 31.209373Q211.92813 32.428123 210.81876 33.115623Q209.725 33.803123 208.30313 33.803123Q206.1625 33.803123 204.81876 32.303123Q203.49063 30.803123 203.49063 28.349998L203.49063 28.224998ZM205.30313 28.428123Q205.30313 30.193748 206.11563 31.256248Q206.94376 32.31875 208.30313 32.31875Q209.67813 32.31875 210.49063 31.240623Q211.30313 30.162498 211.30313 28.224998Q211.30313 26.474998 210.475 25.396873Q209.64688 24.318748 208.2875 24.318748Q206.94376 24.318748 206.11563 25.381248Q205.30313 26.443748 205.30313 28.428123ZM216.67813 23.037498L216.74063 24.365623Q217.94376 22.834373 219.89688 22.834373Q223.25626 22.834373 223.27188 26.615623L223.27188 33.6L221.475 33.6L221.475 26.599998Q221.45938 25.459373 220.94376 24.912498Q220.44376 24.365623 219.35 24.365623Q218.475 24.365623 217.80313 24.834373Q217.14688 25.303123 216.77188 26.068748L216.77188 33.6L214.975 33.6L214.975 23.037498L216.67813 23.037498ZM235.35 33.803123Q233.20938 33.803123 231.85 32.396873Q230.50626 30.974998 230.50626 28.615623L230.50626 28.271873Q230.50626 26.709373 231.1 25.474998Q231.70938 24.240623 232.7875 23.537498Q233.86563 22.834373 235.13126 22.834373Q237.19376 22.834373 238.33438 24.193748Q239.475 25.553123 239.475 28.084373L239.475 28.834373L232.31876 28.834373Q232.35 30.396873 233.225 31.365623Q234.1 32.31875 235.44376 32.31875Q236.4125 32.31875 237.06876 31.928123Q237.74063 31.537498 238.24063 30.896873L239.33438 31.756248Q238.00626 33.803123 235.35 33.803123ZM235.13126 24.318748Q234.0375 24.318748 233.2875 25.115623Q232.55313 25.912498 232.38126 27.349998L237.6625 27.349998L237.6625 27.209373Q237.58438 25.834373 236.9125 25.084373Q236.25626 24.318748 235.13126 24.318748ZM243.67813 23.037498L243.74063 24.365623Q244.94376 22.834373 246.89688 22.834373Q250.25626 22.834373 250.27188 26.615623L250.27188 33.6L248.475 33.6L248.475 26.599998Q248.45938 25.459373 247.94376 24.912498Q247.44376 24.365623 246.35 24.365623Q245.475 24.365623 244.80313 24.834373Q244.14688 25.303123 243.77188 26.068748L243.77188 33.6L241.975 33.6L241.975 23.037498L243.67813 23.037498ZM262.44376 27.256248Q260.02188 26.568748 258.92813 25.568748Q257.83438 24.553123 257.83438 23.068748Q257.83438 21.381248 259.17813 20.287498Q260.52188 19.178123 262.6625 19.178123Q264.13126 19.178123 265.27188 19.756248Q266.42813 20.318748 267.05313 21.318748Q267.67813 22.303123 267.67813 23.490623L265.80313 23.490623Q265.80313 22.209373 264.975 21.474998Q264.1625 20.724998 262.6625 20.724998Q261.27188 20.724998 260.49063 21.334373Q259.725 21.943748 259.725 23.037498Q259.725 23.896873 260.45938 24.506248Q261.19376 25.099998 262.95938 25.599998Q264.74063 26.099998 265.74063 26.709373Q266.74063 27.303123 267.225 28.099998Q267.70938 28.896873 267.70938 29.990623Q267.70938 31.709373 266.36563 32.75625Q265.02188 33.803123 262.75626 33.803123Q261.30313 33.803123 260.02188 33.240623Q258.75626 32.678123 258.06876 31.709373Q257.38126 30.724998 257.38126 29.474998L259.27188 29.474998Q259.27188 30.771873 260.225 31.521873Q261.17813 32.25625 262.75626 32.25625Q264.24063 32.25625 265.0375 31.662498Q265.83438 31.053123 265.83438 30.006248Q265.83438 28.959373 265.1 28.396873Q264.36563 27.818748 262.44376 27.256248ZM278.1 29.881248L272.14688 29.881248L270.80313 33.6L268.88126 33.6L274.30313 19.381248L275.94376 19.381248L281.38126 33.6L279.45938 33.6L278.1 29.881248ZM272.70938 28.349998L277.55313 28.349998L275.13126 21.693748L272.70938 28.349998ZM291.2875 27.021873L285.13126 27.021873L285.13126 32.06875L292.2875 32.06875L292.2875 33.6L283.25626 33.6L283.25626 19.381248L292.19376 19.381248L292.19376 20.928123L285.13126 20.928123L285.13126 25.490623L291.2875 25.490623L291.2875 27.021873Z" fill-rule="nonzero"/></svg>