<svg version="1.1" viewBox="0.0 0.0 600.0 371.0" fill="none" stroke="none" stroke-linecap="square" stroke-miterlimit="10" width="600" height="371" xmlns:xlink="http://www.w3.org/1999/xlink" xmlns="http://www.w3.org/2000/svg"><path fill="#ffffff" d="M0 0L600.0 0L600.0 371.0L0 371.0L0 0Z" fill-rule="nonzero"/><path fill="#fbbc04" d="M241.07654 67.08338C259.68402 59.0569 279.73517 54.916668 300.0 54.916668L300.0 129.3C289.86758 129.3 279.842 131.37012 270.53827 135.38336Z" fill-rule="nonzero"/><path fill="#ea4335" d="M167.05725 270.44968C148.67572 233.84906 146.1969 191.28925 160.20506 152.80214C174.21323 114.315025 203.46904 83.30567 241.07654 67.08338L270.53827 135.38336C251.73451 143.4945 237.10661 158.99918 230.10252 178.24274C223.09845 197.4863 224.33786 218.7662 233.52863 237.06651Z" fill-rule="nonzero"/><path fill="#4285f4" d="M300.0 54.916668C373.2865 54.916668 435.65582 108.28977 446.97995 180.69609C458.3041 253.1024 415.20926 322.96982 345.42233 345.34607C275.6354 367.72235 199.94817 335.9409 167.05725 270.44968L233.52863 237.06651C249.97409 269.8121 287.81772 285.70285 322.71115 274.5147C357.6046 263.32657 379.15204 228.39287 373.49 192.18971C367.8279 155.98656 336.64325 129.3 300.0 129.3Z" fill-rule="nonzero"/><path fill="#000000" d="M398.86032 260.6645L395.01657 269.50824L392.93845 269.50824L396.7822 261.14886L391.8447 261.14886L391.8447 259.5551L398.86032 259.5551L398.86032 260.6645ZM402.11032 263.64886L403.1572 263.64886Q403.9072 263.64886 404.26657 263.27386Q404.64157 262.89886 404.64157 262.2895Q404.64157 261.6801 404.2822 261.352Q403.92282 261.00824 403.29782 261.00824Q402.7197 261.00824 402.32907 261.32074Q401.95407 261.63324 401.95407 262.13324L399.98532 262.13324Q399.98532 261.352 400.4072 260.7426Q400.82907 260.1176 401.57907 259.77386Q402.32907 259.4145 403.25095 259.4145Q404.82907 259.4145 405.7197 260.1801Q406.61032 260.9301 406.61032 262.25824Q406.61032 262.94574 406.18845 263.52386Q405.7822 264.08636 405.11032 264.39886Q405.93845 264.69574 406.3447 265.3051Q406.76657 265.89886 406.76657 266.71136Q406.76657 268.0395 405.79782 268.852Q404.8447 269.64886 403.25095 269.64886Q401.75095 269.64886 400.79782 268.8676Q399.86032 268.07074 399.86032 266.77386L401.82907 266.77386Q401.82907 267.33636 402.25095 267.69574Q402.67282 268.0551 403.29782 268.0551Q404.00095 268.0551 404.39157 267.6801Q404.79782 267.3051 404.79782 266.69574Q404.79782 265.19574 403.1572 265.19574L402.11032 265.19574L402.11032 263.64886Z" fill-rule="nonzero"/><path fill="#000000" d="M188.05191 167.61955L181.22379 167.61955L181.22379 166.26018L184.44254 162.8383Q185.11441 162.10393 185.42691 161.57268Q185.75504 161.0258 185.75504 160.54143Q185.75504 159.88518 185.41129 159.51018Q185.08316 159.11955 184.45816 159.11955Q183.78629 159.11955 183.39566 159.5883Q183.02066 160.04143 183.02066 160.79143L181.03629 160.79143Q181.03629 159.88518 181.45816 159.13518Q181.89566 158.38518 182.69254 157.9633Q183.48941 157.5258 184.48941 157.5258Q186.02066 157.5258 186.86441 158.2758Q187.72379 159.01018 187.72379 160.35393Q187.72379 161.0883 187.33316 161.85393Q186.95816 162.61955 186.03629 163.63518L183.77066 166.0258L188.05191 166.0258L188.05191 167.61955ZM195.72379 160.30705Q195.72379 161.04143 195.34879 161.60393Q194.98941 162.1508 194.34879 162.49455Q195.08316 162.8383 195.50504 163.44768Q195.92691 164.05705 195.92691 164.88518Q195.92691 166.2133 195.02066 166.99455Q194.13004 167.76018 192.56754 167.76018Q191.02066 167.76018 190.11441 166.99455Q189.20816 166.2133 189.20816 164.88518Q189.20816 164.05705 189.63004 163.44768Q190.05191 162.8383 190.77066 162.49455Q190.13004 162.1508 189.77066 161.60393Q189.41129 161.04143 189.41129 160.30705Q189.41129 159.04143 190.25504 158.29143Q191.11441 157.5258 192.56754 157.5258Q194.02066 157.5258 194.86441 158.2758Q195.72379 159.0258 195.72379 160.30705ZM193.94254 164.74455Q193.94254 164.10393 193.56754 163.7133Q193.19254 163.32268 192.55191 163.32268Q191.92691 163.32268 191.55191 163.7133Q191.17691 164.0883 191.17691 164.74455Q191.17691 165.38518 191.53629 165.7758Q191.91129 166.16643 192.56754 166.16643Q193.20816 166.16643 193.56754 165.79143Q193.94254 165.41643 193.94254 164.74455ZM193.73941 160.4008Q193.73941 159.82268 193.42691 159.47893Q193.13004 159.11955 192.56754 159.11955Q192.00504 159.11955 191.69254 159.4633Q191.39566 159.80705 191.39566 160.4008Q191.39566 160.99455 191.69254 161.36955Q192.00504 161.72893 192.56754 161.72893Q193.13004 161.72893 193.42691 161.36955Q193.73941 160.99455 193.73941 160.4008Z" fill-rule="nonzero"/><path fill="#000000" d="M278.88464 80.42993L275.0409 89.27368L272.96277 89.27368L276.80652 80.91431L271.86902 80.91431L271.86902 79.32056L278.88464 79.32056L278.88464 80.42993Z" fill-rule="nonzero"/><path fill="#1a1a1a" d="M19.909374 66.916664L19.909374 61.416664L18.909374 61.416664L18.909374 60.572914L19.909374 60.572914L19.909374 59.93229Q19.909374 58.90104 20.440624 58.354164Q20.9875 57.791664 21.9875 57.791664Q22.3625 57.791664 22.7375 57.885414L22.675 58.77604Q22.39375 58.71354 22.096874 58.71354Q21.565624 58.71354 21.26875 59.02604Q20.9875 59.33854 20.9875 59.90104L20.9875 60.572914L22.346874 60.572914L22.346874 61.416664L20.9875 61.416664L20.9875 66.916664L19.909374 66.916664ZM24.55 66.916664L23.471874 66.916664L23.471874 57.916664L24.55 57.916664L24.55 66.916664ZM30.284374 66.916664Q30.190624 66.729164 30.128124 66.24479Q29.378124 67.041664 28.33125 67.041664Q27.39375 67.041664 26.784374 66.510414Q26.190624 65.979164 26.190624 65.15104Q26.190624 64.166664 26.940624 63.61979Q27.690624 63.072914 29.065624 63.072914L30.1125 63.072914L30.1125 62.572914Q30.1125 62.010414 29.76875 61.68229Q29.440624 61.33854 28.76875 61.33854Q28.190624 61.33854 27.8 61.635414Q27.409374 61.916664 27.409374 62.33854L26.315624 62.33854Q26.315624 61.854164 26.64375 61.416664Q26.9875 60.979164 27.565624 60.729164Q28.14375 60.46354 28.83125 60.46354Q29.940624 60.46354 30.55 61.010414Q31.175 61.55729 31.20625 62.510414L31.20625 65.43229Q31.20625 66.30729 31.425 66.822914L31.425 66.916664L30.284374 66.916664ZM28.4875 66.08854Q29.003124 66.08854 29.45625 65.822914Q29.909374 65.55729 30.1125 65.135414L30.1125 63.83854L29.26875 63.83854Q27.26875 63.83854 27.26875 65.010414Q27.26875 65.510414 27.6125 65.80729Q27.95625 66.08854 28.4875 66.08854ZM37.065624 65.229164Q37.065624 64.791664 36.721874 64.55729Q36.39375 64.30729 35.565624 64.135414Q34.753124 63.96354 34.26875 63.71354Q33.784374 63.46354 33.55 63.135414Q33.33125 62.791664 33.33125 62.322914Q33.33125 61.541664 33.9875 61.010414Q34.64375 60.46354 35.675 60.46354Q36.753124 60.46354 37.409374 61.02604Q38.08125 61.572914 38.08125 62.43229L37.003124 62.43229Q37.003124 61.99479 36.6125 61.68229Q36.2375 61.354164 35.675 61.354164Q35.08125 61.354164 34.7375 61.61979Q34.409374 61.86979 34.409374 62.27604Q34.409374 62.666664 34.721874 62.86979Q35.034374 63.072914 35.846874 63.260414Q36.659374 63.43229 37.159374 63.68229Q37.659374 63.93229 37.89375 64.291664Q38.14375 64.65104 38.14375 65.15104Q38.14375 66.010414 37.45625 66.52604Q36.784374 67.041664 35.70625 67.041664Q34.940624 67.041664 34.346874 66.77604Q33.76875 66.49479 33.440624 66.010414Q33.1125 65.52604 33.1125 64.96354L34.190624 64.96354Q34.221874 65.510414 34.628124 65.83854Q35.034374 66.15104 35.70625 66.15104Q36.315624 66.15104 36.690624 65.90104Q37.065624 65.65104 37.065624 65.229164ZM40.45625 61.33854Q41.175 60.46354 42.33125 60.46354Q44.346874 60.46354 44.3625 62.729164L44.3625 66.916664L43.26875 66.916664L43.26875 62.71354Q43.26875 62.041664 42.95625 61.71354Q42.659374 61.385414 42.003124 61.385414Q41.471874 61.385414 41.065624 61.666664Q40.675 61.947914 40.45625 62.40104L40.45625 66.916664L39.378124 66.916664L39.378124 57.916664L40.45625 57.916664L40.45625 61.33854Z" fill-rule="nonzero"/><path fill="#9e9e9e" d="M23.51875 76.385414L23.51875 77.291664L23.315624 77.291664Q22.05 77.322914 21.3 78.05729Q20.55 78.77604 20.425 80.08854Q21.1125 79.322914 22.26875 79.322914Q23.378124 79.322914 24.05 80.104164Q24.721874 80.885414 24.721874 82.135414Q24.721874 83.447914 24.003124 84.24479Q23.284374 85.041664 22.065624 85.041664Q20.846874 85.041664 20.08125 84.104164Q19.33125 83.15104 19.33125 81.666664L19.33125 81.260414Q19.33125 78.90104 20.33125 77.65104Q21.33125 76.40104 23.315624 76.385414L23.51875 76.385414ZM22.096874 80.229164Q21.534374 80.229164 21.065624 80.55729Q20.596874 80.885414 20.409374 81.40104L20.409374 81.791664Q20.409374 82.854164 20.878124 83.49479Q21.3625 84.135414 22.065624 84.135414Q22.8 84.135414 23.221874 83.604164Q23.64375 83.05729 23.64375 82.18229Q23.64375 81.30729 23.221874 80.77604Q22.8 80.229164 22.096874 80.229164ZM26.33125 86.61979L25.721874 86.197914Q26.26875 85.43229 26.3 84.604164L26.3 83.635414L27.3625 83.635414L27.3625 84.479164Q27.3625 85.072914 27.065624 85.666664Q26.76875 86.260414 26.33125 86.61979ZM28.753124 80.635414L29.190624 76.385414L33.565624 76.385414L33.565624 77.385414L30.1125 77.385414L29.846874 79.71354Q30.4875 79.33854 31.284374 79.33854Q32.440624 79.33854 33.128124 80.11979Q33.815624 80.885414 33.815624 82.197914Q33.815624 83.510414 33.096874 84.27604Q32.39375 85.041664 31.1125 85.041664Q29.9875 85.041664 29.26875 84.416664Q28.55 83.77604 28.45625 82.666664L29.471874 82.666664Q29.58125 83.40104 30.003124 83.77604Q30.425 84.15104 31.1125 84.15104Q31.8625 84.15104 32.3 83.635414Q32.7375 83.11979 32.7375 82.21354Q32.7375 81.354164 32.26875 80.83854Q31.8 80.322914 31.01875 80.322914Q30.315624 80.322914 29.909374 80.61979L29.628124 80.854164L28.753124 80.635414ZM35.159374 78.02604Q35.159374 77.260414 35.64375 76.760414Q36.14375 76.260414 36.909374 76.260414Q37.690624 76.260414 38.175 76.760414Q38.659374 77.260414 38.659374 78.05729L38.659374 78.479164Q38.659374 79.24479 38.159374 79.74479Q37.675 80.229164 36.925 80.229164Q36.159374 80.229164 35.659374 79.74479Q35.159374 79.24479 35.159374 78.43229L35.159374 78.02604ZM35.971874 78.479164Q35.971874 78.93229 36.221874 79.229164Q36.4875 79.52604 36.925 79.52604Q37.346874 79.52604 37.596874 79.24479Q37.846874 78.947914 37.846874 78.447914L37.846874 78.02604Q37.846874 77.572914 37.596874 77.27604Q37.346874 76.96354 36.909374 76.96354Q36.471874 76.96354 36.221874 77.27604Q35.971874 77.572914 35.971874 78.041664L35.971874 78.479164ZM39.315624 82.822914Q39.315624 82.05729 39.8 81.572914Q40.3 81.072914 41.065624 81.072914Q41.83125 81.072914 42.315624 81.572914Q42.815624 82.05729 42.815624 82.86979L42.815624 83.27604Q42.815624 84.041664 42.33125 84.541664Q41.846874 85.041664 41.08125 85.041664Q40.315624 85.041664 39.815624 84.55729Q39.315624 84.05729 39.315624 83.24479L39.315624 82.822914ZM40.128124 83.27604Q40.128124 83.74479 40.378124 84.041664Q40.64375 84.33854 41.08125 84.33854Q41.503124 84.33854 41.753124 84.05729Q42.003124 83.760414 42.003124 83.260414L42.003124 82.822914Q42.003124 82.354164 41.7375 82.072914Q41.4875 81.77604 41.065624 81.77604Q40.64375 81.77604 40.378124 82.072914Q40.128124 82.354164 40.128124 82.854164L40.128124 83.27604ZM37.175 84.27604L36.55 83.885414L40.721874 77.21354L41.33125 77.604164L37.175 84.27604Z" fill-rule="nonzero"/><path stroke="#757575" stroke-width="1.0" stroke-linecap="butt" d="M18.55 71.416664L145.23334 71.416664L271.42093 65.27476" fill-rule="nonzero"/><path fill="#9e9e9e" d="M273.42093 65.27476C273.42093 64.17019 272.52548 63.274757 271.42093 63.274757C270.31635 63.274757 269.42093 64.17019 269.42093 65.27476C269.42093 66.379326 270.31635 67.27476 271.42093 67.27476C272.52548 67.27476 273.42093 66.379326 273.42093 65.27476" fill-rule="nonzero"/><path fill="#1a1a1a" d="M23.284374 150.84619Q23.190624 150.65869 23.128124 150.17432Q22.378124 150.97119 21.33125 150.97119Q20.39375 150.97119 19.784374 150.43994Q19.190624 149.90869 19.190624 149.08057Q19.190624 148.09619 19.940624 147.54932Q20.690624 147.00244 22.065624 147.00244L23.1125 147.00244L23.1125 146.50244Q23.1125 145.93994 22.76875 145.61182Q22.440624 145.26807 21.76875 145.26807Q21.190624 145.26807 20.8 145.56494Q20.409374 145.84619 20.409374 146.26807L19.315624 146.26807Q19.315624 145.78369 19.64375 145.34619Q19.9875 144.90869 20.565624 144.65869Q21.14375 144.39307 21.83125 144.39307Q22.940624 144.39307 23.55 144.93994Q24.175 145.48682 24.20625 146.43994L24.20625 149.36182Q24.20625 150.23682 24.425 150.75244L24.425 150.84619L23.284374 150.84619ZM21.4875 150.01807Q22.003124 150.01807 22.45625 149.75244Q22.909374 149.48682 23.1125 149.06494L23.1125 147.76807L22.26875 147.76807Q20.26875 147.76807 20.26875 148.93994Q20.26875 149.43994 20.6125 149.73682Q20.95625 150.01807 21.4875 150.01807ZM31.721874 147.75244Q31.721874 149.18994 31.065624 150.08057Q30.409374 150.97119 29.26875 150.97119Q28.1125 150.97119 27.45625 150.23682L27.45625 153.28369L26.378124 153.28369L26.378124 144.50244L27.3625 144.50244L27.409374 145.20557Q28.08125 144.39307 29.253124 144.39307Q30.39375 144.39307 31.05 145.25244Q31.721874 146.11182 31.721874 147.64307L31.721874 147.75244ZM30.64375 147.62744Q30.64375 146.54932 30.175 145.93994Q29.721874 145.31494 28.925 145.31494Q27.940624 145.31494 27.45625 146.17432L27.45625 149.20557Q27.940624 150.08057 28.940624 150.08057Q29.721874 150.08057 30.175 149.47119Q30.64375 148.84619 30.64375 147.62744ZM36.440624 145.47119Q36.190624 145.43994 35.909374 145.43994Q34.83125 145.43994 34.45625 146.34619L34.45625 150.84619L33.378124 150.84619L33.378124 144.50244L34.425 144.50244L34.440624 145.23682Q34.971874 144.39307 35.95625 144.39307Q36.26875 144.39307 36.440624 144.47119L36.440624 145.47119ZM40.003124 150.97119Q38.70625 150.97119 37.89375 150.12744Q37.096874 149.26807 37.096874 147.84619L37.096874 147.65869Q37.096874 146.70557 37.45625 145.97119Q37.815624 145.22119 38.45625 144.81494Q39.1125 144.39307 39.8625 144.39307Q41.096874 144.39307 41.784374 145.20557Q42.471874 146.01807 42.471874 147.53369L42.471874 147.98682L38.175 147.98682Q38.20625 148.92432 38.721874 149.50244Q39.253124 150.08057 40.065624 150.08057Q40.628124 150.08057 41.01875 149.84619Q41.425 149.61182 41.7375 149.22119L42.39375 149.73682Q41.596874 150.97119 40.003124 150.97119ZM39.8625 145.28369Q39.20625 145.28369 38.753124 145.76807Q38.315624 146.23682 38.221874 147.09619L41.39375 147.09619L41.39375 147.01807Q41.346874 146.18994 40.940624 145.73682Q40.55 145.28369 39.8625 145.28369ZM40.33125 143.56494L39.39375 143.56494L37.878124 141.84619L39.190624 141.84619L40.33125 143.56494ZM47.065624 149.15869Q47.065624 148.72119 46.721874 148.48682Q46.39375 148.23682 45.565624 148.06494Q44.753124 147.89307 44.26875 147.64307Q43.784374 147.39307 43.55 147.06494Q43.33125 146.72119 43.33125 146.25244Q43.33125 145.47119 43.9875 144.93994Q44.64375 144.39307 45.675 144.39307Q46.753124 144.39307 47.409374 144.95557Q48.08125 145.50244 48.08125 146.36182L47.003124 146.36182Q47.003124 145.92432 46.6125 145.61182Q46.2375 145.28369 45.675 145.28369Q45.08125 145.28369 44.7375 145.54932Q44.409374 145.79932 44.409374 146.20557Q44.409374 146.59619 44.721874 146.79932Q45.034374 147.00244 45.846874 147.18994Q46.659374 147.36182 47.159374 147.61182Q47.659374 147.86182 47.89375 148.22119Q48.14375 148.58057 48.14375 149.08057Q48.14375 149.93994 47.45625 150.45557Q46.784374 150.97119 45.70625 150.97119Q44.940624 150.97119 44.346874 150.70557Q43.76875 150.42432 43.440624 149.93994Q43.1125 149.45557 43.1125 148.89307L44.190624 148.89307Q44.221874 149.43994 44.628124 149.76807Q45.034374 150.08057 45.70625 150.08057Q46.315624 150.08057 46.690624 149.83057Q47.065624 149.58057 47.065624 149.15869ZM53.846874 142.97119L53.846874 144.50244L55.01875 144.50244L55.01875 145.34619L53.846874 145.34619L53.846874 149.26807Q53.846874 149.65869 54.003124 149.84619Q54.159374 150.03369 54.534374 150.03369Q54.721874 150.03369 55.05 149.97119L55.05 150.84619Q54.628124 150.97119 54.221874 150.97119Q53.503124 150.97119 53.128124 150.53369Q52.753124 150.08057 52.753124 149.26807L52.753124 145.34619L51.596874 145.34619L51.596874 144.50244L52.753124 144.50244L52.753124 142.97119L53.846874 142.97119ZM59.440624 145.47119Q59.190624 145.43994 58.909374 145.43994Q57.83125 145.43994 57.45625 146.34619L57.45625 150.84619L56.378124 150.84619L56.378124 144.50244L57.425 144.50244L57.440624 145.23682Q57.971874 144.39307 58.95625 144.39307Q59.26875 144.39307 59.440624 144.47119L59.440624 145.47119ZM64.28438 150.84619Q64.19063 150.65869 64.12813 150.17432Q63.378124 150.97119 62.33125 150.97119Q61.39375 150.97119 60.784374 150.43994Q60.190624 149.90869 60.190624 149.08057Q60.190624 148.09619 60.940624 147.54932Q61.690624 147.00244 63.065624 147.00244L64.1125 147.00244L64.1125 146.50244Q64.1125 145.93994 63.76875 145.61182Q63.440624 145.26807 62.76875 145.26807Q62.190624 145.26807 61.8 145.56494Q61.409374 145.84619 61.409374 146.26807L60.315624 146.26807Q60.315624 145.78369 60.64375 145.34619Q60.9875 144.90869 61.565624 144.65869Q62.14375 144.39307 62.83125 144.39307Q63.940624 144.39307 64.55 144.93994Q65.175 145.48682 65.20625 146.43994L65.20625 149.36182Q65.20625 150.23682 65.425 150.75244L65.425 150.84619L64.28438 150.84619ZM62.4875 150.01807Q63.003124 150.01807 63.45625 149.75244Q63.909374 149.48682 64.1125 149.06494L64.1125 147.76807L63.26875 147.76807Q61.26875 147.76807 61.26875 148.93994Q61.26875 149.43994 61.6125 149.73682Q61.95625 150.01807 62.4875 150.01807ZM69.45625 149.37744L71.03438 144.50244L72.14375 144.50244L69.8625 150.84619L69.03438 150.84619L66.7375 144.50244L67.84688 144.50244L69.45625 149.37744ZM77.28438 150.84619Q77.19063 150.65869 77.12813 150.17432Q76.37813 150.97119 75.33125 150.97119Q74.39375 150.97119 73.78438 150.43994Q73.19063 149.90869 73.19063 149.08057Q73.19063 148.09619 73.94063 147.54932Q74.69063 147.00244 76.06563 147.00244L77.1125 147.00244L77.1125 146.50244Q77.1125 145.93994 76.76875 145.61182Q76.44063 145.26807 75.76875 145.26807Q75.19063 145.26807 74.8 145.56494Q74.40938 145.84619 74.40938 146.26807L73.31563 146.26807Q73.31563 145.78369 73.64375 145.34619Q73.9875 144.90869 74.56563 144.65869Q75.14375 144.39307 75.83125 144.39307Q76.94063 144.39307 77.55 144.93994Q78.175 145.48682 78.20625 146.43994L78.20625 149.36182Q78.20625 150.23682 78.425 150.75244L78.425 150.84619L77.28438 150.84619ZM75.4875 150.01807Q76.00313 150.01807 76.45625 149.75244Q76.90938 149.48682 77.1125 149.06494L77.1125 147.76807L76.26875 147.76807Q74.26875 147.76807 74.26875 148.93994Q74.26875 149.43994 74.6125 149.73682Q74.95625 150.01807 75.4875 150.01807ZM81.55 150.84619L80.47188 150.84619L80.47188 144.50244L81.55 144.50244L81.55 150.84619ZM80.37813 142.83057Q80.37813 142.56494 80.53438 142.37744Q80.70625 142.18994 81.01875 142.18994Q81.33125 142.18994 81.4875 142.37744Q81.65938 142.56494 81.65938 142.83057Q81.65938 143.08057 81.4875 143.26807Q81.33125 143.43994 81.01875 143.43994Q80.70625 143.43994 80.53438 143.26807Q80.37813 143.08057 80.37813 142.83057ZM84.55 150.84619L83.47188 150.84619L83.47188 141.84619L84.55 141.84619L84.55 150.84619Z" fill-rule="nonzero"/><path fill="#9e9e9e" d="M24.846874 168.84619L19.253124 168.84619L19.253124 168.06494L22.20625 164.78369Q22.8625 164.03369 23.1125 163.58057Q23.3625 163.11182 23.3625 162.61182Q23.3625 161.93994 22.95625 161.51807Q22.565624 161.08057 21.878124 161.08057Q21.08125 161.08057 20.628124 161.54932Q20.175 162.00244 20.175 162.83057L19.096874 162.83057Q19.096874 161.64307 19.846874 160.92432Q20.6125 160.18994 21.878124 160.18994Q23.08125 160.18994 23.76875 160.81494Q24.45625 161.43994 24.45625 162.48682Q24.45625 163.73682 22.846874 165.48682L20.565624 167.95557L24.846874 167.95557L24.846874 168.84619ZM26.753124 164.56494L27.190624 160.31494L31.565624 160.31494L31.565624 161.31494L28.1125 161.31494L27.846874 163.64307Q28.4875 163.26807 29.284374 163.26807Q30.440624 163.26807 31.128124 164.04932Q31.815624 164.81494 31.815624 166.12744Q31.815624 167.43994 31.096874 168.20557Q30.39375 168.97119 29.1125 168.97119Q27.9875 168.97119 27.26875 168.34619Q26.55 167.70557 26.45625 166.59619L27.471874 166.59619Q27.58125 167.33057 28.003124 167.70557Q28.425 168.08057 29.1125 168.08057Q29.8625 168.08057 30.3 167.56494Q30.7375 167.04932 30.7375 166.14307Q30.7375 165.28369 30.26875 164.76807Q29.8 164.25244 29.01875 164.25244Q28.315624 164.25244 27.909374 164.54932L27.628124 164.78369L26.753124 164.56494ZM33.33125 170.54932L32.721874 170.12744Q33.26875 169.36182 33.3 168.53369L33.3 167.56494L34.3625 167.56494L34.3625 168.40869Q34.3625 169.00244 34.065624 169.59619Q33.76875 170.18994 33.33125 170.54932ZM39.409374 165.09619Q39.08125 165.50244 38.596874 165.75244Q38.128124 165.98682 37.565624 165.98682Q36.83125 165.98682 36.284374 165.62744Q35.7375 165.26807 35.440624 164.61182Q35.14375 163.93994 35.14375 163.14307Q35.14375 162.29932 35.45625 161.61182Q35.784374 160.92432 36.378124 160.56494Q36.9875 160.18994 37.784374 160.18994Q39.05 160.18994 39.76875 161.14307Q40.503124 162.09619 40.503124 163.72119L40.503124 164.03369Q40.503124 166.53369 39.51875 167.67432Q38.534374 168.81494 36.55 168.84619L36.33125 168.84619L36.33125 167.93994L36.565624 167.93994Q37.909374 167.90869 38.628124 167.23682Q39.346874 166.56494 39.409374 165.09619ZM37.7375 165.09619Q38.284374 165.09619 38.7375 164.76807Q39.20625 164.42432 39.425 163.93994L39.425 163.50244Q39.425 162.43994 38.95625 161.76807Q38.4875 161.09619 37.784374 161.09619Q37.065624 161.09619 36.628124 161.64307Q36.20625 162.18994 36.20625 163.09619Q36.20625 163.97119 36.6125 164.53369Q37.034374 165.09619 37.7375 165.09619ZM42.159374 161.95557Q42.159374 161.18994 42.64375 160.68994Q43.14375 160.18994 43.909374 160.18994Q44.690624 160.18994 45.175 160.68994Q45.659374 161.18994 45.659374 161.98682L45.659374 162.40869Q45.659374 163.17432 45.159374 163.67432Q44.675 164.15869 43.925 164.15869Q43.159374 164.15869 42.659374 163.67432Q42.159374 163.17432 42.159374 162.36182L42.159374 161.95557ZM42.971874 162.40869Q42.971874 162.86182 43.221874 163.15869Q43.4875 163.45557 43.925 163.45557Q44.346874 163.45557 44.596874 163.17432Q44.846874 162.87744 44.846874 162.37744L44.846874 161.95557Q44.846874 161.50244 44.596874 161.20557Q44.346874 160.89307 43.909374 160.89307Q43.471874 160.89307 43.221874 161.20557Q42.971874 161.50244 42.971874 161.97119L42.971874 162.40869ZM46.315624 166.75244Q46.315624 165.98682 46.8 165.50244Q47.3 165.00244 48.065624 165.00244Q48.83125 165.00244 49.315624 165.50244Q49.815624 165.98682 49.815624 166.79932L49.815624 167.20557Q49.815624 167.97119 49.33125 168.47119Q48.846874 168.97119 48.08125 168.97119Q47.315624 168.97119 46.815624 168.48682Q46.315624 167.98682 46.315624 167.17432L46.315624 166.75244ZM47.128124 167.20557Q47.128124 167.67432 47.378124 167.97119Q47.64375 168.26807 48.08125 168.26807Q48.503124 168.26807 48.753124 167.98682Q49.003124 167.68994 49.003124 167.18994L49.003124 166.75244Q49.003124 166.28369 48.7375 166.00244Q48.4875 165.70557 48.065624 165.70557Q47.64375 165.70557 47.378124 166.00244Q47.128124 166.28369 47.128124 166.78369L47.128124 167.20557ZM44.175 168.20557L43.55 167.81494L47.721874 161.14307L48.33125 161.53369L44.175 168.20557Z" fill-rule="nonzero"/><path stroke="#757575" stroke-width="1.0" stroke-linecap="butt" d="M18.55 155.34619L145.23334 155.34619L167.19481 155.34619" fill-rule="nonzero"/><path fill="#9e9e9e" d="M169.19481 155.34619C169.19481 154.24162 168.29938 153.34619 167.19481 153.34619C166.09024 153.34619 165.19481 154.24162 165.19481 155.34619C165.19481 156.45076 166.09024 157.34619 167.19481 157.34619C168.29938 157.34619 169.19481 156.45076 169.19481 155.34619" fill-rule="nonzero"/><path fill="#1a1a1a" d="M557.1844 273.3774Q557.09064 273.1899 557.02814 272.70554Q556.27814 273.5024 555.23126 273.5024Q554.29376 273.5024 553.6844 272.97116Q553.09064 272.4399 553.09064 271.6118Q553.09064 270.6274 553.84064 270.08054Q554.59064 269.53366 555.96564 269.53366L557.0125 269.53366L557.0125 269.03366Q557.0125 268.47116 556.66876 268.14304Q556.34064 267.7993 555.66876 267.7993Q555.09064 267.7993 554.7 268.09616Q554.3094 268.3774 554.3094 268.7993L553.21564 268.7993Q553.21564 268.3149 553.54376 267.8774Q553.8875 267.4399 554.46564 267.1899Q555.04376 266.9243 555.73126 266.9243Q556.84064 266.9243 557.45 267.47116Q558.075 268.01804 558.10626 268.97116L558.10626 271.89304Q558.10626 272.76804 558.325 273.28366L558.325 273.3774L557.1844 273.3774ZM555.3875 272.5493Q555.90314 272.5493 556.35626 272.28366Q556.8094 272.01804 557.0125 271.59616L557.0125 270.2993L556.16876 270.2993Q554.16876 270.2993 554.16876 271.47116Q554.16876 271.97116 554.5125 272.26804Q554.85626 272.5493 555.3875 272.5493ZM556.23126 266.09616L555.29376 266.09616L553.77814 264.3774L555.09064 264.3774L556.23126 266.09616ZM565.35626 271.90866L566.9344 267.03366L568.04376 267.03366L565.7625 273.3774L564.9344 273.3774L562.6375 267.03366L563.7469 267.03366L565.35626 271.90866ZM573.1844 272.7524Q572.5594 273.5024 571.325 273.5024Q570.3094 273.5024 569.77814 272.90866Q569.2469 272.3149 569.2469 271.15866L569.2469 267.03366L570.325 267.03366L570.325 271.1274Q570.325 272.58054 571.4969 272.58054Q572.7469 272.58054 573.15314 271.64304L573.15314 267.03366L574.2469 267.03366L574.2469 273.3774L573.21564 273.3774L573.1844 272.7524ZM578.90314 273.5024Q577.60626 273.5024 576.79376 272.65866Q575.9969 271.7993 575.9969 270.3774L575.9969 270.1899Q575.9969 269.2368 576.35626 268.5024Q576.71564 267.7524 577.35626 267.34616Q578.0125 266.9243 578.7625 266.9243Q579.9969 266.9243 580.6844 267.7368Q581.3719 268.5493 581.3719 270.0649L581.3719 270.51804L577.075 270.51804Q577.10626 271.45554 577.6219 272.03366Q578.15314 272.6118 578.96564 272.6118Q579.52814 272.6118 579.91876 272.3774Q580.325 272.14304 580.6375 271.7524L581.29376 272.26804Q580.4969 273.5024 578.90314 273.5024ZM578.7625 267.8149Q578.10626 267.8149 577.65314 268.2993Q577.21564 268.76804 577.1219 269.6274L580.29376 269.6274L580.29376 269.5493Q580.2469 268.72116 579.84064 268.26804Q579.45 267.8149 578.7625 267.8149Z" fill-rule="nonzero"/><path fill="#9e9e9e" d="M554.41876 282.84616L554.41876 283.7524L554.21564 283.7524Q552.95 283.78366 552.2 284.51804Q551.45 285.2368 551.325 286.5493Q552.0125 285.78366 553.16876 285.78366Q554.27814 285.78366 554.95 286.5649Q555.6219 287.34616 555.6219 288.59616Q555.6219 289.90866 554.90314 290.70554Q554.1844 291.5024 552.96564 291.5024Q551.7469 291.5024 550.98126 290.5649Q550.23126 289.6118 550.23126 288.1274L550.23126 287.72116Q550.23126 285.3618 551.23126 284.1118Q552.23126 282.8618 554.21564 282.84616L554.41876 282.84616ZM552.9969 286.6899Q552.4344 286.6899 551.96564 287.01804Q551.4969 287.34616 551.3094 287.8618L551.3094 288.2524Q551.3094 289.3149 551.77814 289.95554Q552.2625 290.59616 552.96564 290.59616Q553.7 290.59616 554.1219 290.0649Q554.54376 289.51804 554.54376 288.64304Q554.54376 287.76804 554.1219 287.2368Q553.7 286.6899 552.9969 286.6899ZM562.66876 283.45554L559.1375 291.3774L557.9969 291.3774L561.5125 283.7368L556.90314 283.7368L556.90314 282.84616L562.66876 282.84616L562.66876 283.45554ZM564.23126 293.08054L563.6219 292.65866Q564.16876 291.89304 564.2 291.0649L564.2 290.09616L565.2625 290.09616L565.2625 290.9399Q565.2625 291.53366 564.96564 292.1274Q564.66876 292.72116 564.23126 293.08054ZM570.41876 282.84616L570.41876 283.7524L570.21564 283.7524Q568.95 283.78366 568.2 284.51804Q567.45 285.2368 567.325 286.5493Q568.0125 285.78366 569.16876 285.78366Q570.27814 285.78366 570.95 286.5649Q571.6219 287.34616 571.6219 288.59616Q571.6219 289.90866 570.90314 290.70554Q570.1844 291.5024 568.96564 291.5024Q567.7469 291.5024 566.98126 290.5649Q566.23126 289.6118 566.23126 288.1274L566.23126 287.72116Q566.23126 285.3618 567.23126 284.1118Q568.23126 282.8618 570.21564 282.84616L570.41876 282.84616ZM568.9969 286.6899Q568.4344 286.6899 567.96564 287.01804Q567.4969 287.34616 567.3094 287.8618L567.3094 288.2524Q567.3094 289.3149 567.77814 289.95554Q568.2625 290.59616 568.96564 290.59616Q569.7 290.59616 570.1219 290.0649Q570.54376 289.51804 570.54376 288.64304Q570.54376 287.76804 570.1219 287.2368Q569.7 286.6899 568.9969 286.6899ZM573.0594 284.4868Q573.0594 283.72116 573.54376 283.22116Q574.04376 282.72116 574.8094 282.72116Q575.59064 282.72116 576.075 283.22116Q576.5594 283.72116 576.5594 284.51804L576.5594 284.9399Q576.5594 285.70554 576.0594 286.20554Q575.575 286.6899 574.825 286.6899Q574.0594 286.6899 573.5594 286.20554Q573.0594 285.70554 573.0594 284.89304L573.0594 284.4868ZM573.8719 284.9399Q573.8719 285.39304 574.1219 285.6899Q574.3875 285.9868 574.825 285.9868Q575.2469 285.9868 575.4969 285.70554Q575.7469 285.40866 575.7469 284.90866L575.7469 284.4868Q575.7469 284.03366 575.4969 283.7368Q575.2469 283.4243 574.8094 283.4243Q574.3719 283.4243 574.1219 283.7368Q573.8719 284.03366 573.8719 284.5024L573.8719 284.9399ZM577.21564 289.28366Q577.21564 288.51804 577.7 288.03366Q578.2 287.53366 578.96564 287.53366Q579.73126 287.53366 580.21564 288.03366Q580.71564 288.51804 580.71564 289.33054L580.71564 289.7368Q580.71564 290.5024 580.23126 291.0024Q579.7469 291.5024 578.98126 291.5024Q578.21564 291.5024 577.71564 291.01804Q577.21564 290.51804 577.21564 289.70554L577.21564 289.28366ZM578.02814 289.7368Q578.02814 290.20554 578.27814 290.5024Q578.54376 290.7993 578.98126 290.7993Q579.40314 290.7993 579.65314 290.51804Q579.90314 290.22116 579.90314 289.72116L579.90314 289.28366Q579.90314 288.8149 579.6375 288.53366Q579.3875 288.2368 578.96564 288.2368Q578.54376 288.2368 578.27814 288.53366Q578.02814 288.8149 578.02814 289.3149L578.02814 289.7368ZM575.075 290.7368L574.45 290.34616L578.6219 283.6743L579.23126 284.0649L575.075 290.7368Z" fill-rule="nonzero"/><path stroke="#757575" stroke-width="1.0" stroke-linecap="butt" d="M581.45 277.8774L454.76666 277.8774L420.2869 277.8774" fill-rule="nonzero"/><path fill="#9e9e9e" d="M422.2869 277.8774C422.2869 276.77283 421.39148 275.8774 420.2869 275.8774C419.18234 275.8774 418.2869 276.77283 418.2869 277.8774C418.2869 278.98196 419.18234 279.8774 420.2869 279.8774C421.39148 279.8774 422.2869 278.98196 422.2869 277.8774" fill-rule="nonzero"/><path fill="#757575" d="M25.409374 31.8L22.08125 31.8L22.08125 37.55L20.190624 37.55L20.190624 23.33125L24.89375 23.33125Q27.3 23.33125 28.596874 24.425Q29.89375 25.51875 29.89375 27.6125Q29.89375 28.940624 29.175 29.925Q28.45625 30.909374 27.175 31.39375L30.51875 37.425L30.51875 37.55L28.503124 37.55L25.409374 31.8ZM22.08125 30.26875L24.95625 30.26875Q26.346874 30.26875 27.175 29.55Q28.003124 28.815624 28.003124 27.6125Q28.003124 26.284374 27.20625 25.58125Q26.425 24.878124 24.940624 24.878124L22.08125 24.878124L22.08125 30.26875ZM36.3 37.753124Q34.159374 37.753124 32.8 36.346874Q31.45625 34.925 31.45625 32.565624L31.45625 32.221874Q31.45625 30.659374 32.05 29.425Q32.659374 28.190624 33.7375 27.4875Q34.815624 26.784374 36.08125 26.784374Q38.14375 26.784374 39.284374 28.14375Q40.425 29.503124 40.425 32.034374L40.425 32.784374L33.26875 32.784374Q33.3 34.346874 34.175 35.315624Q35.05 36.26875 36.39375 36.26875Q37.3625 36.26875 38.01875 35.878124Q38.690624 35.4875 39.190624 34.846874L40.284374 35.70625Q38.95625 37.753124 36.3 37.753124ZM36.08125 28.26875Q34.9875 28.26875 34.2375 29.065624Q33.503124 29.8625 33.33125 31.3L38.6125 31.3L38.6125 31.159374Q38.534374 29.784374 37.8625 29.034374Q37.20625 28.26875 36.08125 28.26875ZM36.64375 22.55L38.83125 22.55L36.20625 25.425L34.753124 25.425L36.64375 22.55ZM51.846874 32.378124Q51.846874 34.8 50.7375 36.284374Q49.64375 37.753124 47.753124 37.753124Q45.83125 37.753124 44.721874 36.51875L44.721874 41.6125L42.925 41.6125L42.925 26.9875L44.565624 26.9875L44.659374 28.159374Q45.753124 26.784374 47.721874 26.784374Q49.628124 26.784374 50.7375 28.221874Q51.846874 29.659374 51.846874 32.221874L51.846874 32.378124ZM50.034374 32.175Q50.034374 30.39375 49.26875 29.3625Q48.51875 28.315624 47.190624 28.315624Q45.55 28.315624 44.721874 29.76875L44.721874 34.83125Q45.534374 36.26875 47.20625 36.26875Q48.503124 36.26875 49.26875 35.2375Q50.034374 34.20625 50.034374 32.175ZM60.440624 37.55Q60.284374 37.2375 60.190624 36.440624Q58.925 37.753124 57.175 37.753124Q55.6125 37.753124 54.6125 36.8625Q53.6125 35.971874 53.6125 34.6125Q53.6125 32.971874 54.8625 32.065624Q56.128124 31.14375 58.39375 31.14375L60.159374 31.14375L60.159374 30.315624Q60.159374 29.3625 59.58125 28.8Q59.01875 28.2375 57.925 28.2375Q56.95625 28.2375 56.3 28.7375Q55.64375 29.221874 55.64375 29.909374L53.83125 29.909374Q53.83125 29.128124 54.39375 28.39375Q54.95625 27.64375 55.909374 27.221874Q56.878124 26.784374 58.034374 26.784374Q59.8625 26.784374 60.89375 27.70625Q61.925 28.6125 61.971874 30.221874L61.971874 35.08125Q61.971874 36.534374 62.33125 37.39375L62.33125 37.55L60.440624 37.55ZM57.440624 36.175Q58.3 36.175 59.05 35.7375Q59.815624 35.3 60.159374 34.596874L60.159374 32.425L58.7375 32.425Q55.425 32.425 55.425 34.3625Q55.425 35.221874 55.9875 35.70625Q56.55 36.175 57.440624 36.175ZM70.01875 28.596874Q69.6125 28.534374 69.14375 28.534374Q67.3625 28.534374 66.72188 30.05L66.72188 37.55L64.925 37.55L64.925 26.9875L66.675 26.9875L66.70625 28.20625Q67.59688 26.784374 69.22188 26.784374Q69.75313 26.784374 70.01875 26.925L70.01875 28.596874ZM74.3625 24.425L74.3625 26.9875L76.34688 26.9875L76.34688 28.378124L74.3625 28.378124L74.3625 34.925Q74.3625 35.565624 74.62813 35.89375Q74.89375 36.20625 75.53438 36.20625Q75.84688 36.20625 76.39375 36.08125L76.39375 37.55Q75.675 37.753124 75.00313 37.753124Q73.8 37.753124 73.175 37.01875Q72.56563 36.284374 72.56563 34.925L72.56563 28.378124L70.64375 28.378124L70.64375 26.9875L72.56563 26.9875L72.56563 24.425L74.3625 24.425ZM80.87813 37.55L79.08125 37.55L79.08125 26.9875L80.87813 26.9875L80.87813 37.55ZM78.925 24.175Q78.925 23.7375 79.19063 23.440624Q79.47188 23.128124 79.9875 23.128124Q80.51875 23.128124 80.78438 23.440624Q81.06563 23.7375 81.06563 24.175Q81.06563 24.6125 80.78438 24.909374Q80.51875 25.20625 79.9875 25.20625Q79.47188 25.20625 79.19063 24.909374Q78.925 24.6125 78.925 24.175ZM86.3625 24.425L86.3625 26.9875L88.34688 26.9875L88.34688 28.378124L86.3625 28.378124L86.3625 34.925Q86.3625 35.565624 86.62813 35.89375Q86.89375 36.20625 87.53438 36.20625Q87.84688 36.20625 88.39375 36.08125L88.39375 37.55Q87.675 37.753124 87.00313 37.753124Q85.8 37.753124 85.175 37.01875Q84.56563 36.284374 84.56563 34.925L84.56563 28.378124L82.64375 28.378124L82.64375 26.9875L84.56563 26.9875L84.56563 24.425L86.3625 24.425ZM92.87813 37.55L91.08125 37.55L91.08125 26.9875L92.87813 26.9875L92.87813 37.55ZM90.925 24.175Q90.925 23.7375 91.19063 23.440624Q91.47188 23.128124 91.9875 23.128124Q92.51875 23.128124 92.78438 23.440624Q93.06563 23.7375 93.06563 24.175Q93.06563 24.6125 92.78438 24.909374Q92.51875 25.20625 91.9875 25.20625Q91.47188 25.20625 91.19063 24.909374Q90.925 24.6125 90.925 24.175ZM95.44063 32.175Q95.44063 30.6125 96.05 29.378124Q96.65938 28.128124 97.7375 27.45625Q98.83125 26.784374 100.2375 26.784374Q102.39375 26.784374 103.72188 28.284374Q105.06563 29.76875 105.06563 32.253124L105.06563 32.378124Q105.06563 33.925 104.47188 35.159374Q103.87813 36.378124 102.76875 37.065624Q101.675 37.753124 100.25313 37.753124Q98.1125 37.753124 96.76875 36.253124Q95.44063 34.753124 95.44063 32.3L95.44063 32.175ZM97.25313 32.378124Q97.25313 34.14375 98.06563 35.20625Q98.89375 36.26875 100.25313 36.26875Q101.62813 36.26875 102.44063 35.190624Q103.25313 34.1125 103.25313 32.175Q103.25313 30.425 102.425 29.346874Q101.59688 28.26875 100.2375 28.26875Q98.89375 28.26875 98.06563 29.33125Q97.25313 30.39375 97.25313 32.378124ZM108.62813 26.9875L108.69063 28.315624Q109.89375 26.784374 111.84688 26.784374Q115.20625 26.784374 115.22188 30.565624L115.22188 37.55L113.425 37.55L113.425 30.55Q113.40938 29.409374 112.89375 28.8625Q112.39375 28.315624 111.3 28.315624Q110.425 28.315624 109.75313 28.784374Q109.09688 29.253124 108.72188 30.01875L108.72188 37.55L106.925 37.55L106.925 26.9875L108.62813 26.9875ZM131.84688 32.378124Q131.84688 34.8 130.7375 36.284374Q129.64375 37.753124 127.75313 37.753124Q125.83125 37.753124 124.72188 36.51875L124.72188 41.6125L122.925 41.6125L122.925 26.9875L124.56563 26.9875L124.65938 28.159374Q125.75313 26.784374 127.72188 26.784374Q129.62813 26.784374 130.7375 28.221874Q131.84688 29.659374 131.84688 32.221874L131.84688 32.378124ZM130.03438 32.175Q130.03438 30.39375 129.26875 29.3625Q128.51875 28.315624 127.19063 28.315624Q125.55 28.315624 124.72188 29.76875L124.72188 34.83125Q125.53438 36.26875 127.20625 36.26875Q128.50313 36.26875 129.26875 35.2375Q130.03438 34.20625 130.03438 32.175ZM140.44063 37.55Q140.28438 37.2375 140.19063 36.440624Q138.925 37.753124 137.175 37.753124Q135.6125 37.753124 134.6125 36.8625Q133.6125 35.971874 133.6125 34.6125Q133.6125 32.971874 134.8625 32.065624Q136.12813 31.14375 138.39375 31.14375L140.15938 31.14375L140.15938 30.315624Q140.15938 29.3625 139.58125 28.8Q139.01875 28.2375 137.925 28.2375Q136.95625 28.2375 136.3 28.7375Q135.64375 29.221874 135.64375 29.909374L133.83125 29.909374Q133.83125 29.128124 134.39375 28.39375Q134.95625 27.64375 135.90938 27.221874Q136.87813 26.784374 138.03438 26.784374Q139.8625 26.784374 140.89375 27.70625Q141.925 28.6125 141.97188 30.221874L141.97188 35.08125Q141.97188 36.534374 142.33125 37.39375L142.33125 37.55L140.44063 37.55ZM137.44063 36.175Q138.3 36.175 139.05 35.7375Q139.81563 35.3 140.15938 34.596874L140.15938 32.425L138.7375 32.425Q135.425 32.425 135.425 34.3625Q135.425 35.221874 135.9875 35.70625Q136.55 36.175 137.44063 36.175ZM150.01875 28.596874Q149.6125 28.534374 149.14375 28.534374Q147.3625 28.534374 146.72188 30.05L146.72188 37.55L144.925 37.55L144.925 26.9875L146.675 26.9875L146.70625 28.20625Q147.59688 26.784374 149.22188 26.784374Q149.75313 26.784374 150.01875 26.925L150.01875 28.596874ZM159.3625 24.425L159.3625 26.9875L161.34688 26.9875L161.34688 28.378124L159.3625 28.378124L159.3625 34.925Q159.3625 35.565624 159.62813 35.89375Q159.89375 36.20625 160.53438 36.20625Q160.84688 36.20625 161.39375 36.08125L161.39375 37.55Q160.675 37.753124 160.00313 37.753124Q158.8 37.753124 158.175 37.01875Q157.56563 36.284374 157.56563 34.925L157.56563 28.378124L155.64375 28.378124L155.64375 26.9875L157.56563 26.9875L157.56563 24.425L159.3625 24.425ZM167.37813 34.909374L169.83125 26.9875L171.76875 26.9875L167.51875 39.175Q166.53438 41.815624 164.39375 41.815624L164.05 41.784374L163.37813 41.659374L163.37813 40.190624L163.8625 40.2375Q164.78438 40.2375 165.28438 39.8625Q165.8 39.4875 166.12813 38.503124L166.53438 37.425L162.76875 26.9875L164.7375 26.9875L167.37813 34.909374ZM181.84688 32.378124Q181.84688 34.8 180.7375 36.284374Q179.64375 37.753124 177.75313 37.753124Q175.83125 37.753124 174.72188 36.51875L174.72188 41.6125L172.925 41.6125L172.925 26.9875L174.56563 26.9875L174.65938 28.159374Q175.75313 26.784374 177.72188 26.784374Q179.62813 26.784374 180.7375 28.221874Q181.84688 29.659374 181.84688 32.221874L181.84688 32.378124ZM180.03438 32.175Q180.03438 30.39375 179.26875 29.3625Q178.51875 28.315624 177.19063 28.315624Q175.55 28.315624 174.72188 29.76875L174.72188 34.83125Q175.53438 36.26875 177.20625 36.26875Q178.50313 36.26875 179.26875 35.2375Q180.03438 34.20625 180.03438 32.175ZM188.3 37.753124Q186.15938 37.753124 184.8 36.346874Q183.45625 34.925 183.45625 32.565624L183.45625 32.221874Q183.45625 30.659374 184.05 29.425Q184.65938 28.190624 185.7375 27.4875Q186.81563 26.784374 188.08125 26.784374Q190.14375 26.784374 191.28438 28.14375Q192.425 29.503124 192.425 32.034374L192.425 32.784374L185.26875 32.784374Q185.3 34.346874 186.175 35.315624Q187.05 36.26875 188.39375 36.26875Q189.3625 36.26875 190.01875 35.878124Q190.69063 35.4875 191.19063 34.846874L192.28438 35.70625Q190.95625 37.753124 188.3 37.753124ZM188.08125 28.26875Q186.9875 28.26875 186.2375 29.065624Q185.50313 29.8625 185.33125 31.3L190.6125 31.3L190.6125 31.159374Q190.53438 29.784374 189.8625 29.034374Q189.20625 28.26875 188.08125 28.26875ZM199.47188 32.175Q199.47188 29.753124 200.62813 28.26875Q201.78438 26.784374 203.64375 26.784374Q205.50313 26.784374 206.58125 28.05L206.58125 22.55L208.39375 22.55L208.39375 37.55L206.7375 37.55L206.64375 36.409374Q205.56563 37.753124 203.62813 37.753124Q201.8 37.753124 200.62813 36.253124Q199.47188 34.7375 199.47188 32.315624L199.47188 32.175ZM201.28438 32.378124Q201.28438 34.175 202.01875 35.190624Q202.76875 36.20625 204.08125 36.20625Q205.8 36.20625 206.58125 34.675L206.58125 29.815624Q205.78438 28.315624 204.09688 28.315624Q202.76875 28.315624 202.01875 29.346874Q201.28438 30.378124 201.28438 32.378124ZM212.01875 23.628124L211.81563 27.221874L210.55 27.221874L210.56563 22.55L212.01875 22.55L212.01875 23.628124ZM218.3 37.753124Q216.15938 37.753124 214.8 36.346874Q213.45625 34.925 213.45625 32.565624L213.45625 32.221874Q213.45625 30.659374 214.05 29.425Q214.65938 28.190624 215.7375 27.4875Q216.81563 26.784374 218.08125 26.784374Q220.14375 26.784374 221.28438 28.14375Q222.425 29.503124 222.425 32.034374L222.425 32.784374L215.26875 32.784374Q215.3 34.346874 216.175 35.315624Q217.05 36.26875 218.39375 36.26875Q219.3625 36.26875 220.01875 35.878124Q220.69063 35.4875 221.19063 34.846874L222.28438 35.70625Q220.95625 37.753124 218.3 37.753124ZM218.08125 28.26875Q216.9875 28.26875 216.2375 29.065624Q215.50313 29.8625 215.33125 31.3L220.6125 31.3L220.6125 31.159374Q220.53438 29.784374 219.8625 29.034374Q219.20625 28.26875 218.08125 28.26875ZM226.62813 26.9875L226.69063 28.315624Q227.89375 26.784374 229.84688 26.784374Q233.20625 26.784374 233.22188 30.565624L233.22188 37.55L231.425 37.55L231.425 30.55Q231.40938 29.409374 230.89375 28.8625Q230.39375 28.315624 229.3 28.315624Q228.425 28.315624 227.75313 28.784374Q227.09688 29.253124 226.72188 30.01875L226.72188 37.55L224.925 37.55L224.925 26.9875L226.62813 26.9875ZM240.15938 36.26875Q241.12813 36.26875 241.84688 35.690624Q242.56563 35.096874 242.64375 34.221874L244.3625 34.221874Q244.3 35.128124 243.72188 35.95625Q243.15938 36.76875 242.19063 37.26875Q241.2375 37.753124 240.15938 37.753124Q238.00313 37.753124 236.72188 36.315624Q235.45625 34.8625 235.45625 32.3625L235.45625 32.065624Q235.45625 30.51875 236.01875 29.315624Q236.58125 28.1125 237.64375 27.45625Q238.70625 26.784374 240.14375 26.784374Q241.925 26.784374 243.09688 27.846874Q244.28438 28.909374 244.3625 30.6125L242.64375 30.6125Q242.56563 29.596874 241.8625 28.940624Q241.175 28.26875 240.14375 28.26875Q238.76875 28.26875 238.00313 29.26875Q237.25313 30.253124 237.25313 32.128124L237.25313 32.471874Q237.25313 34.3 238.00313 35.284374Q238.75313 36.26875 240.15938 36.26875ZM247.72188 28.26875Q248.925 26.784374 250.84688 26.784374Q254.20625 26.784374 254.22188 30.565624L254.22188 37.55L252.425 37.55L252.425 30.55Q252.40938 29.409374 251.89375 28.8625Q251.39375 28.315624 250.3 28.315624Q249.425 28.315624 248.75313 28.784374Q248.09688 29.253124 247.72188 30.01875L247.72188 37.55L245.925 37.55L245.925 22.55L247.72188 22.55L247.72188 28.26875ZM263.4406 37.55Q263.28436 37.2375 263.1906 36.440624Q261.925 37.753124 260.175 37.753124Q258.6125 37.753124 257.6125 36.8625Q256.6125 35.971874 256.6125 34.6125Q256.6125 32.971874 257.8625 32.065624Q259.1281 31.14375 261.39374 31.14375L263.15936 31.14375L263.15936 30.315624Q263.15936 29.3625 262.58124 28.8Q262.01874 28.2375 260.925 28.2375Q259.95624 28.2375 259.3 28.7375Q258.64374 29.221874 258.64374 29.909374L256.83124 29.909374Q256.83124 29.128124 257.39374 28.39375Q257.95624 27.64375 258.90936 27.221874Q259.8781 26.784374 261.03436 26.784374Q262.8625 26.784374 263.89374 27.70625Q264.925 28.6125 264.97186 30.221874L264.97186 35.08125Q264.97186 36.534374 265.33124 37.39375L265.33124 37.55L263.4406 37.55ZM260.4406 36.175Q261.3 36.175 262.05 35.7375Q262.8156 35.3 263.15936 34.596874L263.15936 32.425L261.7375 32.425Q258.425 32.425 258.425 34.3625Q258.425 35.221874 258.9875 35.70625Q259.55 36.175 260.4406 36.175ZM269.8781 37.55L268.08124 37.55L268.08124 26.9875L269.8781 26.9875L269.8781 37.55ZM267.925 24.175Q267.925 23.7375 268.1906 23.440624Q268.47186 23.128124 268.9875 23.128124Q269.51874 23.128124 269.78436 23.440624Q270.0656 23.7375 270.0656 24.175Q270.0656 24.6125 269.78436 24.909374Q269.51874 25.20625 268.9875 25.20625Q268.47186 25.20625 268.1906 24.909374Q267.925 24.6125 267.925 24.175ZM274.6281 26.9875L274.6906 28.315624Q275.89374 26.784374 277.84686 26.784374Q281.20624 26.784374 281.22186 30.565624L281.22186 37.55L279.425 37.55L279.425 30.55Q279.40936 29.409374 278.89374 28.8625Q278.39374 28.315624 277.3 28.315624Q276.425 28.315624 275.7531 28.784374Q275.09686 29.253124 274.72186 30.01875L274.72186 37.55L272.925 37.55L272.925 26.9875L274.6281 26.9875ZM288.3 37.753124Q286.15936 37.753124 284.8 36.346874Q283.45624 34.925 283.45624 32.565624L283.45624 32.221874Q283.45624 30.659374 284.05 29.425Q284.65936 28.190624 285.7375 27.4875Q286.8156 26.784374 288.08124 26.784374Q290.14374 26.784374 291.28436 28.14375Q292.425 29.503124 292.425 32.034374L292.425 32.784374L285.26874 32.784374Q285.3 34.346874 286.175 35.315624Q287.05 36.26875 288.39374 36.26875Q289.3625 36.26875 290.01874 35.878124Q290.6906 35.4875 291.1906 34.846874L292.28436 35.70625Q290.95624 37.753124 288.3 37.753124ZM288.08124 28.26875Q286.9875 28.26875 286.2375 29.065624Q285.5031 29.8625 285.33124 31.3L290.6125 31.3L290.6125 31.159374Q290.53436 29.784374 289.8625 29.034374Q289.20624 28.26875 288.08124 28.26875ZM296.6125 26.9875L296.65936 28.159374Q297.83124 26.784374 299.8 26.784374Q302.01874 26.784374 302.8156 28.4875Q303.34686 27.721874 304.1906 27.253124Q305.03436 26.784374 306.1906 26.784374Q309.65936 26.784374 309.72186 30.471874L309.72186 37.55L307.90936 37.55L307.90936 30.58125Q307.90936 29.440624 307.39374 28.878124Q306.8781 28.315624 305.65936 28.315624Q304.65936 28.315624 303.9875 28.925Q303.33124 29.51875 303.22186 30.534374L303.22186 37.55L301.40936 37.55L301.40936 30.628124Q301.40936 28.315624 299.14374 28.315624Q297.3625 28.315624 296.72186 29.83125L296.72186 37.55L294.90936 37.55L294.90936 26.9875L296.6125 26.9875ZM317.3 37.753124Q315.15936 37.753124 313.8 36.346874Q312.45624 34.925 312.45624 32.565624L312.45624 32.221874Q312.45624 30.659374 313.05 29.425Q313.65936 28.190624 314.7375 27.4875Q315.8156 26.784374 317.08124 26.784374Q319.14374 26.784374 320.28436 28.14375Q321.425 29.503124 321.425 32.034374L321.425 32.784374L314.26874 32.784374Q314.3 34.346874 315.175 35.315624Q316.05 36.26875 317.39374 36.26875Q318.3625 36.26875 319.01874 35.878124Q319.6906 35.4875 320.1906 34.846874L321.28436 35.70625Q319.95624 37.753124 317.3 37.753124ZM317.08124 28.26875Q315.9875 28.26875 315.2375 29.065624Q314.5031 29.8625 314.33124 31.3L319.6125 31.3L319.6125 31.159374Q319.53436 29.784374 318.8625 29.034374Q318.20624 28.26875 317.08124 28.26875ZM325.6281 26.9875L325.6906 28.315624Q326.89374 26.784374 328.84686 26.784374Q332.20624 26.784374 332.22186 30.565624L332.22186 37.55L330.425 37.55L330.425 30.55Q330.40936 29.409374 329.89374 28.8625Q329.39374 28.315624 328.3 28.315624Q327.425 28.315624 326.7531 28.784374Q326.09686 29.253124 325.72186 30.01875L325.72186 37.55L323.925 37.55L323.925 26.9875L325.6281 26.9875ZM337.3625 24.425L337.3625 26.9875L339.34686 26.9875L339.34686 28.378124L337.3625 28.378124L337.3625 34.925Q337.3625 35.565624 337.6281 35.89375Q337.89374 36.20625 338.53436 36.20625Q338.84686 36.20625 339.39374 36.08125L339.39374 37.55Q338.675 37.753124 338.0031 37.753124Q336.8 37.753124 336.175 37.01875Q335.5656 36.284374 335.5656 34.925L335.5656 28.378124L333.64374 28.378124L333.64374 26.9875L335.5656 26.9875L335.5656 24.425L337.3625 24.425Z" fill-rule="nonzero"/></svg>