<svg version="1.1" viewBox="0.0 0.0 779.0 481.0" fill="none" stroke="none" stroke-linecap="square" stroke-miterlimit="10" width="779" height="481" xmlns:xlink="http://www.w3.org/1999/xlink" xmlns="http://www.w3.org/2000/svg"><path fill="#ffffff" d="M0 0L779.0 0L779.0 481.0L0 481.0L0 0Z" fill-rule="nonzero"/><path stroke="#333333" stroke-width="1.0" stroke-linecap="butt" d="M51.5 369.5L754.5 369.5" fill-rule="nonzero"/><path stroke="#cccccc" stroke-width="1.0" stroke-linecap="butt" d="M51.5 310.5L754.5 310.5" fill-rule="nonzero"/><path stroke="#cccccc" stroke-width="1.0" stroke-linecap="butt" d="M51.5 250.5L754.5 250.5" fill-rule="nonzero"/><path stroke="#cccccc" stroke-width="1.0" stroke-linecap="butt" d="M51.5 190.5L754.5 190.5" fill-rule="nonzero"/><path stroke="#cccccc" stroke-width="1.0" stroke-linecap="butt" d="M51.5 131.5L754.5 131.5" fill-rule="nonzero"/><path stroke="#cccccc" stroke-width="1.0" stroke-linecap="butt" d="M51.5 71.5L754.5 71.5" fill-rule="nonzero"/><path stroke="#e6e6e6" stroke-width="1.0" stroke-linecap="butt" d="M51.5 350.5L754.5 350.5" fill-rule="nonzero"/><path stroke="#e6e6e6" stroke-width="1.0" stroke-linecap="butt" d="M51.5 330.5L754.5 330.5" fill-rule="nonzero"/><path stroke="#e6e6e6" stroke-width="1.0" stroke-linecap="butt" d="M51.5 290.5L754.5 290.5" fill-rule="nonzero"/><path stroke="#e6e6e6" stroke-width="1.0" stroke-linecap="butt" d="M51.5 270.5L754.5 270.5" fill-rule="nonzero"/><path stroke="#e6e6e6" stroke-width="1.0" stroke-linecap="butt" d="M51.5 230.5L754.5 230.5" fill-rule="nonzero"/><path stroke="#e6e6e6" stroke-width="1.0" stroke-linecap="butt" d="M51.5 210.5L754.5 210.5" fill-rule="nonzero"/><path stroke="#e6e6e6" stroke-width="1.0" stroke-linecap="butt" d="M51.5 171.5L754.5 171.5" fill-rule="nonzero"/><path stroke="#e6e6e6" stroke-width="1.0" stroke-linecap="butt" d="M51.5 151.5L754.5 151.5" fill-rule="nonzero"/><path stroke="#e6e6e6" stroke-width="1.0" stroke-linecap="butt" d="M51.5 111.5L754.5 111.5" fill-rule="nonzero"/><path stroke="#e6e6e6" stroke-width="1.0" stroke-linecap="butt" d="M51.5 91.5L754.5 91.5" fill-rule="nonzero"/><clipPath id="id_0"><path d="M51.05 71.583336L754.95 71.583336L754.95 369.98627L51.05 369.98627L51.05 71.583336Z" clip-rule="nonzero"/></clipPath><path stroke="#000000" stroke-width="2.0" stroke-linecap="butt" stroke-opacity="0.0" clip-path="url(#id_0)" d="M127.0 370.0L78.0 370.0L78.0 366.0C78.0 364.89542 78.89543 364.0 80.0 364.0L125.0 364.0C126.10457 364.0 127.0 364.89542 127.0 366.0Z" fill-rule="nonzero"/><path fill="#4285f4" clip-path="url(#id_0)" d="M127.0 370.0L78.0 370.0L78.0 366.0C78.0 364.89542 78.89543 364.0 80.0 364.0L125.0 364.0C126.10457 364.0 127.0 364.89542 127.0 366.0Z" fill-rule="nonzero"/><path stroke="#000000" stroke-width="2.0" stroke-linecap="butt" stroke-opacity="0.0" clip-path="url(#id_0)" d="M202.0 370.0L153.0 370.0L153.0 348.0C153.0 346.89542 153.89543 346.0 155.0 346.0L200.0 346.0C201.10457 346.0 202.0 346.89542 202.0 348.0Z" fill-rule="nonzero"/><path fill="#4285f4" clip-path="url(#id_0)" d="M202.0 370.0L153.0 370.0L153.0 348.0C153.0 346.89542 153.89543 346.0 155.0 346.0L200.0 346.0C201.10457 346.0 202.0 346.89542 202.0 348.0Z" fill-rule="nonzero"/><path stroke="#000000" stroke-width="2.0" stroke-linecap="butt" stroke-opacity="0.0" clip-path="url(#id_0)" d="M277.0 370.0L228.0 370.0L228.0 360.0C228.0 358.89542 228.89543 358.0 230.0 358.0L275.0 358.0C276.10458 358.0 277.0 358.89542 277.0 360.0Z" fill-rule="nonzero"/><path fill="#4285f4" clip-path="url(#id_0)" d="M277.0 370.0L228.0 370.0L228.0 360.0C228.0 358.89542 228.89543 358.0 230.0 358.0L275.0 358.0C276.10458 358.0 277.0 358.89542 277.0 360.0Z" fill-rule="nonzero"/><path stroke="#000000" stroke-width="2.0" stroke-linecap="butt" stroke-opacity="0.0" clip-path="url(#id_0)" d="M353.0 370.0L304.0 370.0L304.0 360.0C304.0 358.89542 304.89542 358.0 306.0 358.0L351.0 358.0C352.10458 358.0 353.0 358.89542 353.0 360.0Z" fill-rule="nonzero"/><path fill="#4285f4" clip-path="url(#id_0)" d="M353.0 370.0L304.0 370.0L304.0 360.0C304.0 358.89542 304.89542 358.0 306.0 358.0L351.0 358.0C352.10458 358.0 353.0 358.89542 353.0 360.0Z" fill-rule="nonzero"/><path stroke="#000000" stroke-width="2.0" stroke-linecap="butt" stroke-opacity="0.0" clip-path="url(#id_0)" d="M428.0 370.0L379.0 370.0L379.0 300.0C379.0 298.89542 379.89542 298.0 381.0 298.0L426.0 298.0C427.10458 298.0 428.0 298.89542 428.0 300.0Z" fill-rule="nonzero"/><path fill="#4285f4" clip-path="url(#id_0)" d="M428.0 370.0L379.0 370.0L379.0 300.0C379.0 298.89542 379.89542 298.0 381.0 298.0L426.0 298.0C427.10458 298.0 428.0 298.89542 428.0 300.0Z" fill-rule="nonzero"/><path stroke="#000000" stroke-width="2.0" stroke-linecap="butt" stroke-opacity="0.0" clip-path="url(#id_0)" d="M503.0 370.0L454.0 370.0L454.0 97.0C454.0 95.89543 454.89542 95.0 456.0 95.0L501.0 95.0C502.10458 95.0 503.0 95.89543 503.0 97.0Z" fill-rule="nonzero"/><path fill="#4285f4" clip-path="url(#id_0)" d="M503.0 370.0L454.0 370.0L454.0 97.0C454.0 95.89543 454.89542 95.0 456.0 95.0L501.0 95.0C502.10458 95.0 503.0 95.89543 503.0 97.0Z" fill-rule="nonzero"/><path stroke="#000000" stroke-width="2.0" stroke-linecap="butt" stroke-opacity="0.0" clip-path="url(#id_0)" d="M579.0 370.0L530.0 370.0L530.0 366.0C530.0 364.89542 530.89545 364.0 532.0 364.0L577.0 364.0C578.10455 364.0 579.0 364.89542 579.0 366.0Z" fill-rule="nonzero"/><path fill="#4285f4" clip-path="url(#id_0)" d="M579.0 370.0L530.0 370.0L530.0 366.0C530.0 364.89542 530.89545 364.0 532.0 364.0L577.0 364.0C578.10455 364.0 579.0 364.89542 579.0 366.0Z" fill-rule="nonzero"/><path stroke="#000000" stroke-width="2.0" stroke-linecap="butt" stroke-opacity="0.0" clip-path="url(#id_0)" d="M654.0 370.0L605.0 370.0L605.0 312.0C605.0 310.89542 605.89545 310.0 607.0 310.0L652.0 310.0C653.10455 310.0 654.0 310.89542 654.0 312.0Z" fill-rule="nonzero"/><path fill="#4285f4" clip-path="url(#id_0)" d="M654.0 370.0L605.0 370.0L605.0 312.0C605.0 310.89542 605.89545 310.0 607.0 310.0L652.0 310.0C653.10455 310.0 654.0 310.89542 654.0 312.0Z" fill-rule="nonzero"/><path stroke="#000000" stroke-width="2.0" stroke-linecap="butt" stroke-opacity="0.0" clip-path="url(#id_0)" d="M729.0 370.0L680.0 370.0L680.0 360.0C680.0 358.89542 680.89545 358.0 682.0 358.0L727.0 358.0C728.10455 358.0 729.0 358.89542 729.0 360.0Z" fill-rule="nonzero"/><path fill="#4285f4" clip-path="url(#id_0)" d="M729.0 370.0L680.0 370.0L680.0 360.0C680.0 358.89542 680.89545 358.0 682.0 358.0L727.0 358.0C728.10455 358.0 729.0 358.89542 729.0 360.0Z" fill-rule="nonzero"/><path stroke="#ffffff" stroke-width="3.0" stroke-linejoin="round" stroke-linecap="round" d="M102.765625 349.01822L101.6875 349.01822L101.6875 341.79947L99.5 342.59634L99.5 341.61197L102.609375 340.4401L102.765625 340.4401L102.765625 349.01822Z" fill-rule="nonzero"/><path fill="#4285f4" d="M102.765625 349.01822L101.6875 349.01822L101.6875 341.79947L99.5 342.59634L99.5 341.61197L102.609375 340.4401L102.765625 340.4401L102.765625 349.01822Z" fill-rule="nonzero"/><path stroke="#4285f4" stroke-width="3.0" stroke-linejoin="round" stroke-linecap="round" d="M178.78125 359.6908L179.96875 359.6908L179.96875 360.5658L178.78125 360.5658L178.78125 362.55017L177.70312 362.55017L177.70312 360.5658L173.8125 360.5658L173.8125 359.92517L177.625 354.01892L178.78125 354.01892L178.78125 359.6908ZM175.04688 359.6908L177.70312 359.6908L177.70312 355.5033L177.5625 355.73767L175.04688 359.6908Z" fill-rule="nonzero"/><path fill="#ffffff" d="M178.78125 359.6908L179.96875 359.6908L179.96875 360.5658L178.78125 360.5658L178.78125 362.55017L177.70312 362.55017L177.70312 360.5658L173.8125 360.5658L173.8125 359.92517L177.625 354.01892L178.78125 354.01892L178.78125 359.6908ZM175.04688 359.6908L177.70312 359.6908L177.70312 355.5033L177.5625 355.73767L175.04688 359.6908Z" fill-rule="nonzero"/><path stroke="#ffffff" stroke-width="3.0" stroke-linejoin="round" stroke-linecap="round" d="M254.79688 343.05017L249.20312 343.05017L249.20312 342.26892L252.15625 338.98767Q252.8125 338.23767 253.0625 337.78455Q253.3125 337.3158 253.3125 336.8158Q253.3125 336.14392 252.90625 335.72205Q252.51562 335.28455 251.82812 335.28455Q251.03125 335.28455 250.57812 335.7533Q250.125 336.20642 250.125 337.03455L249.04688 337.03455Q249.04688 335.84705 249.79688 335.1283Q250.5625 334.39392 251.82812 334.39392Q253.03125 334.39392 253.71875 335.01892Q254.40625 335.64392 254.40625 336.6908Q254.40625 337.9408 252.79688 339.6908L250.51562 342.15955L254.79688 342.15955L254.79688 343.05017Z" fill-rule="nonzero"/><path fill="#4285f4" d="M254.79688 343.05017L249.20312 343.05017L249.20312 342.26892L252.15625 338.98767Q252.8125 338.23767 253.0625 337.78455Q253.3125 337.3158 253.3125 336.8158Q253.3125 336.14392 252.90625 335.72205Q252.51562 335.28455 251.82812 335.28455Q251.03125 335.28455 250.57812 335.7533Q250.125 336.20642 250.125 337.03455L249.04688 337.03455Q249.04688 335.84705 249.79688 335.1283Q250.5625 334.39392 251.82812 334.39392Q253.03125 334.39392 253.71875 335.01892Q254.40625 335.64392 254.40625 336.6908Q254.40625 337.9408 252.79688 339.6908L250.51562 342.15955L254.79688 342.15955L254.79688 343.05017Z" fill-rule="nonzero"/><path stroke="#ffffff" stroke-width="3.0" stroke-linejoin="round" stroke-linecap="round" d="M330.79688 343.05017L325.20312 343.05017L325.20312 342.26892L328.15625 338.98767Q328.8125 338.23767 329.0625 337.78455Q329.3125 337.3158 329.3125 336.8158Q329.3125 336.14392 328.90625 335.72205Q328.51562 335.28455 327.82812 335.28455Q327.03125 335.28455 326.57812 335.7533Q326.125 336.20642 326.125 337.03455L325.04688 337.03455Q325.04688 335.84705 325.79688 335.1283Q326.5625 334.39392 327.82812 334.39392Q329.03125 334.39392 329.71875 335.01892Q330.40625 335.64392 330.40625 336.6908Q330.40625 337.9408 328.79688 339.6908L326.51562 342.15955L330.79688 342.15955L330.79688 343.05017Z" fill-rule="nonzero"/><path fill="#4285f4" d="M330.79688 343.05017L325.20312 343.05017L325.20312 342.26892L328.15625 338.98767Q328.8125 338.23767 329.0625 337.78455Q329.3125 337.3158 329.3125 336.8158Q329.3125 336.14392 328.90625 335.72205Q328.51562 335.28455 327.82812 335.28455Q327.03125 335.28455 326.57812 335.7533Q326.125 336.20642 326.125 337.03455L325.04688 337.03455Q325.04688 335.84705 325.79688 335.1283Q326.5625 334.39392 327.82812 334.39392Q329.03125 334.39392 329.71875 335.01892Q330.40625 335.64392 330.40625 336.6908Q330.40625 337.9408 328.79688 339.6908L326.51562 342.15955L330.79688 342.15955L330.79688 343.05017Z" fill-rule="nonzero"/><path stroke="#4285f4" stroke-width="3.0" stroke-linejoin="round" stroke-linecap="round" d="M400.26562 315.16956L399.1875 315.16956L399.1875 307.9508L397.0 308.74768L397.0 307.7633L400.10938 306.59143L400.26562 306.59143L400.26562 315.16956ZM409.29688 315.16956L403.70312 315.16956L403.70312 314.3883L406.65625 311.10706Q407.3125 310.35706 407.5625 309.90393Q407.8125 309.43518 407.8125 308.93518Q407.8125 308.2633 407.40625 307.84143Q407.01562 307.40393 406.32812 307.40393Q405.53125 307.40393 405.07812 307.87268Q404.625 308.3258 404.625 309.15393L403.54688 309.15393Q403.54688 307.96643 404.29688 307.24768Q405.0625 306.5133 406.32812 306.5133Q407.53125 306.5133 408.21875 307.1383Q408.90625 307.7633 408.90625 308.81018Q408.90625 310.06018 407.29688 311.81018L405.01562 314.27893L409.29688 314.27893L409.29688 315.16956Z" fill-rule="nonzero"/><path fill="#ffffff" d="M400.26562 315.16956L399.1875 315.16956L399.1875 307.9508L397.0 308.74768L397.0 307.7633L400.10938 306.59143L400.26562 306.59143L400.26562 315.16956ZM409.29688 315.16956L403.70312 315.16956L403.70312 314.3883L406.65625 311.10706Q407.3125 310.35706 407.5625 309.90393Q407.8125 309.43518 407.8125 308.93518Q407.8125 308.2633 407.40625 307.84143Q407.01562 307.40393 406.32812 307.40393Q405.53125 307.40393 405.07812 307.87268Q404.625 308.3258 404.625 309.15393L403.54688 309.15393Q403.54688 307.96643 404.29688 307.24768Q405.0625 306.5133 406.32812 306.5133Q407.53125 306.5133 408.21875 307.1383Q408.90625 307.7633 408.90625 308.81018Q408.90625 310.06018 407.29688 311.81018L405.01562 314.27893L409.29688 314.27893L409.29688 315.16956Z" fill-rule="nonzero"/><path stroke="#4285f4" stroke-width="3.0" stroke-linejoin="round" stroke-linecap="round" d="M476.28125 109.396194L477.46875 109.396194L477.46875 110.271194L476.28125 110.271194L476.28125 112.25557L475.20312 112.25557L475.20312 110.271194L471.3125 110.271194L471.3125 109.63057L475.125 103.72432L476.28125 103.72432L476.28125 109.396194ZM472.54688 109.396194L475.20312 109.396194L475.20312 105.208694L475.0625 105.44307L472.54688 109.396194ZM482.96875 103.72432L482.96875 104.63057L482.76562 104.63057Q481.5 104.66182 480.75 105.396194Q480.0 106.114944 479.875 107.427444Q480.5625 106.66182 481.71875 106.66182Q482.82812 106.66182 483.5 107.44307Q484.17188 108.22432 484.17188 109.47432Q484.17188 110.78682 483.45312 111.583694Q482.73438 112.38057 481.51562 112.38057Q480.29688 112.38057 479.53125 111.44307Q478.78125 110.489944 478.78125 109.00557L478.78125 108.59932Q478.78125 106.239944 479.78125 104.989944Q480.78125 103.739944 482.76562 103.72432L482.96875 103.72432ZM481.54688 107.56807Q480.98438 107.56807 480.51562 107.896194Q480.04688 108.22432 479.85938 108.739944L479.85938 109.13057Q479.85938 110.19307 480.32812 110.833694Q480.8125 111.47432 481.51562 111.47432Q482.25 111.47432 482.67188 110.94307Q483.09375 110.396194 483.09375 109.521194Q483.09375 108.646194 482.67188 108.114944Q482.25 107.56807 481.54688 107.56807Z" fill-rule="nonzero"/><path fill="#ffffff" d="M476.28125 109.396194L477.46875 109.396194L477.46875 110.271194L476.28125 110.271194L476.28125 112.25557L475.20312 112.25557L475.20312 110.271194L471.3125 110.271194L471.3125 109.63057L475.125 103.72432L476.28125 103.72432L476.28125 109.396194ZM472.54688 109.396194L475.20312 109.396194L475.20312 105.208694L475.0625 105.44307L472.54688 109.396194ZM482.96875 103.72432L482.96875 104.63057L482.76562 104.63057Q481.5 104.66182 480.75 105.396194Q480.0 106.114944 479.875 107.427444Q480.5625 106.66182 481.71875 106.66182Q482.82812 106.66182 483.5 107.44307Q484.17188 108.22432 484.17188 109.47432Q484.17188 110.78682 483.45312 111.583694Q482.73438 112.38057 481.51562 112.38057Q480.29688 112.38057 479.53125 111.44307Q478.78125 110.489944 478.78125 109.00557L478.78125 108.59932Q478.78125 106.239944 479.78125 104.989944Q480.78125 103.739944 482.76562 103.72432L482.96875 103.72432ZM481.54688 107.56807Q480.98438 107.56807 480.51562 107.896194Q480.04688 108.22432 479.85938 108.739944L479.85938 109.13057Q479.85938 110.19307 480.32812 110.833694Q480.8125 111.47432 481.51562 111.47432Q482.25 111.47432 482.67188 110.94307Q483.09375 110.396194 483.09375 109.521194Q483.09375 108.646194 482.67188 108.114944Q482.25 107.56807 481.54688 107.56807Z" fill-rule="nonzero"/><path stroke="#ffffff" stroke-width="3.0" stroke-linejoin="round" stroke-linecap="round" d="M554.7656 349.01822L553.6875 349.01822L553.6875 341.79947L551.5 342.59634L551.5 341.61197L554.6094 340.4401L554.7656 340.4401L554.7656 349.01822Z" fill-rule="nonzero"/><path fill="#4285f4" d="M554.7656 349.01822L553.6875 349.01822L553.6875 341.79947L551.5 342.59634L551.5 341.61197L554.6094 340.4401L554.7656 340.4401L554.7656 349.01822Z" fill-rule="nonzero"/><path stroke="#4285f4" stroke-width="3.0" stroke-linejoin="round" stroke-linecap="round" d="M626.2656 327.10568L625.1875 327.10568L625.1875 319.88693L623.0 320.6838L623.0 319.69943L626.1094 318.52756L626.2656 318.52756L626.2656 327.10568ZM635.0625 323.46506Q635.0625 325.3713 634.40625 326.3088Q633.7656 327.23068 632.375 327.23068Q631.0156 327.23068 630.3594 326.32443Q629.7031 325.41818 629.6719 323.60568L629.6719 322.16818Q629.6719 320.27756 630.3125 319.3713Q630.96875 318.44943 632.3594 318.44943Q633.7344 318.44943 634.3906 319.34006Q635.0469 320.21506 635.0625 322.0588L635.0625 323.46506ZM633.96875 321.98068Q633.96875 320.60568 633.5781 319.98068Q633.2031 319.34006 632.3594 319.34006Q631.53125 319.34006 631.1406 319.98068Q630.7656 320.60568 630.7656 321.90256L630.7656 323.63693Q630.7656 325.01193 631.15625 325.6838Q631.5625 326.34006 632.375 326.34006Q633.1719 326.34006 633.5625 325.71506Q633.9531 325.09006 633.96875 323.76193L633.96875 321.98068Z" fill-rule="nonzero"/><path fill="#ffffff" d="M626.2656 327.10568L625.1875 327.10568L625.1875 319.88693L623.0 320.6838L623.0 319.69943L626.1094 318.52756L626.2656 318.52756L626.2656 327.10568ZM635.0625 323.46506Q635.0625 325.3713 634.40625 326.3088Q633.7656 327.23068 632.375 327.23068Q631.0156 327.23068 630.3594 326.32443Q629.7031 325.41818 629.6719 323.60568L629.6719 322.16818Q629.6719 320.27756 630.3125 319.3713Q630.96875 318.44943 632.3594 318.44943Q633.7344 318.44943 634.3906 319.34006Q635.0469 320.21506 635.0625 322.0588L635.0625 323.46506ZM633.96875 321.98068Q633.96875 320.60568 633.5781 319.98068Q633.2031 319.34006 632.3594 319.34006Q631.53125 319.34006 631.1406 319.98068Q630.7656 320.60568 630.7656 321.90256L630.7656 323.63693Q630.7656 325.01193 631.15625 325.6838Q631.5625 326.34006 632.375 326.34006Q633.1719 326.34006 633.5625 325.71506Q633.9531 325.09006 633.96875 323.76193L633.96875 321.98068Z" fill-rule="nonzero"/><path stroke="#ffffff" stroke-width="3.0" stroke-linejoin="round" stroke-linecap="round" d="M706.7969 343.05017L701.2031 343.05017L701.2031 342.26892L704.15625 338.98767Q704.8125 338.23767 705.0625 337.78455Q705.3125 337.3158 705.3125 336.8158Q705.3125 336.14392 704.90625 335.72205Q704.5156 335.28455 703.8281 335.28455Q703.03125 335.28455 702.5781 335.7533Q702.125 336.20642 702.125 337.03455L701.0469 337.03455Q701.0469 335.84705 701.7969 335.1283Q702.5625 334.39392 703.8281 334.39392Q705.03125 334.39392 705.71875 335.01892Q706.40625 335.64392 706.40625 336.6908Q706.40625 337.9408 704.7969 339.6908L702.5156 342.15955L706.7969 342.15955L706.7969 343.05017Z" fill-rule="nonzero"/><path fill="#4285f4" d="M706.7969 343.05017L701.2031 343.05017L701.2031 342.26892L704.15625 338.98767Q704.8125 338.23767 705.0625 337.78455Q705.3125 337.3158 705.3125 336.8158Q705.3125 336.14392 704.90625 335.72205Q704.5156 335.28455 703.8281 335.28455Q703.03125 335.28455 702.5781 335.7533Q702.125 336.20642 702.125 337.03455L701.0469 337.03455Q701.0469 335.84705 701.7969 335.1283Q702.5625 334.39392 703.8281 334.39392Q705.03125 334.39392 705.71875 335.01892Q706.40625 335.64392 706.40625 336.6908Q706.40625 337.9408 704.7969 339.6908L702.5156 342.15955L706.7969 342.15955L706.7969 343.05017Z" fill-rule="nonzero"/><path fill="#000000" d="M44.1125 370.84564Q44.1125 372.7519 43.45625 373.6894Q42.815624 374.61127 41.425 374.61127Q40.065624 374.61127 39.409374 373.70502Q38.753124 372.79877 38.721874 370.98627L38.721874 369.54877Q38.721874 367.65814 39.3625 366.7519Q40.01875 365.83002 41.409374 365.83002Q42.784374 365.83002 43.440624 366.72064Q44.096874 367.59564 44.1125 369.4394L44.1125 370.84564ZM43.01875 369.36127Q43.01875 367.98627 42.628124 367.36127Q42.253124 366.72064 41.409374 366.72064Q40.58125 366.72064 40.190624 367.36127Q39.815624 367.98627 39.815624 369.28314L39.815624 371.01752Q39.815624 372.39252 40.20625 373.0644Q40.6125 373.72064 41.425 373.72064Q42.221874 373.72064 42.6125 373.09564Q43.003124 372.47064 43.01875 371.14252L43.01875 369.36127Z" fill-rule="nonzero"/><path fill="#000000" d="M35.315624 314.8057L34.2375 314.8057L34.2375 307.58694L32.05 308.38382L32.05 307.39944L35.159374 306.22757L35.315624 306.22757L35.315624 314.8057ZM44.1125 311.16507Q44.1125 313.07132 43.45625 314.00882Q42.815624 314.9307 41.425 314.9307Q40.065624 314.9307 39.409374 314.02444Q38.753124 313.1182 38.721874 311.3057L38.721874 309.8682Q38.721874 307.97757 39.3625 307.07132Q40.01875 306.14944 41.409374 306.14944Q42.784374 306.14944 43.440624 307.04007Q44.096874 307.91507 44.1125 309.75882L44.1125 311.16507ZM43.01875 309.6807Q43.01875 308.3057 42.628124 307.6807Q42.253124 307.04007 41.409374 307.04007Q40.58125 307.04007 40.190624 307.6807Q39.815624 308.3057 39.815624 309.60257L39.815624 311.33694Q39.815624 312.71194 40.20625 313.38382Q40.6125 314.04007 41.425 314.04007Q42.221874 314.04007 42.6125 313.41507Q43.003124 312.79007 43.01875 311.46194L43.01875 309.6807Z" fill-rule="nonzero"/><path fill="#000000" d="M37.346874 255.12509L31.753124 255.12509L31.753124 254.34384L34.70625 251.06259Q35.3625 250.31259 35.6125 249.85947Q35.8625 249.39072 35.8625 248.89072Q35.8625 248.21884 35.45625 247.79697Q35.065624 247.35947 34.378124 247.35947Q33.58125 247.35947 33.128124 247.82822Q32.675 248.28134 32.675 249.10947L31.596874 249.10947Q31.596874 247.92197 32.346874 247.20322Q33.1125 246.46884 34.378124 246.46884Q35.58125 246.46884 36.26875 247.09384Q36.95625 247.71884 36.95625 248.76572Q36.95625 250.01572 35.346874 251.76572L33.065624 254.23447L37.346874 254.23447L37.346874 255.12509ZM44.1125 251.48447Q44.1125 253.39072 43.45625 254.32822Q42.815624 255.25009 41.425 255.25009Q40.065624 255.25009 39.409374 254.34384Q38.753124 253.43759 38.721874 251.62509L38.721874 250.18759Q38.721874 248.29697 39.3625 247.39072Q40.01875 246.46884 41.409374 246.46884Q42.784374 246.46884 43.440624 247.35947Q44.096874 248.23447 44.1125 250.07822L44.1125 251.48447ZM43.01875 250.00009Q43.01875 248.62509 42.628124 248.00009Q42.253124 247.35947 41.409374 247.35947Q40.58125 247.35947 40.190624 248.00009Q39.815624 248.62509 39.815624 249.92197L39.815624 251.65634Q39.815624 253.03134 40.20625 253.70322Q40.6125 254.35947 41.425 254.35947Q42.221874 254.35947 42.6125 253.73447Q43.003124 253.10947 43.01875 251.78134L43.01875 250.00009Z" fill-rule="nonzero"/><path fill="#000000" d="M33.33125 190.64763L34.14375 190.64763Q34.925 190.632 35.3625 190.24138Q35.8 189.85075 35.8 189.17888Q35.8 187.67888 34.3 187.67888Q33.596874 187.67888 33.175 188.08513Q32.76875 188.49138 32.76875 189.14763L31.675 189.14763Q31.675 188.132 32.409374 187.46013Q33.159374 186.78825 34.3 186.78825Q35.503124 186.78825 36.190624 187.42888Q36.878124 188.0695 36.878124 189.21013Q36.878124 189.77263 36.51875 190.28825Q36.159374 190.80388 35.534374 191.0695Q36.2375 191.28825 36.6125 191.80388Q37.003124 192.3195 37.003124 193.0695Q37.003124 194.21013 36.253124 194.89763Q35.503124 195.5695 34.3 195.5695Q33.1125 195.5695 32.346874 194.91325Q31.596874 194.257 31.596874 193.1945L32.690624 193.1945Q32.690624 193.86638 33.128124 194.27263Q33.565624 194.67888 34.315624 194.67888Q35.096874 194.67888 35.503124 194.27263Q35.925 193.85075 35.925 193.08513Q35.925 192.35075 35.471874 191.96013Q35.01875 191.55388 34.14375 191.53825L33.33125 191.53825L33.33125 190.64763ZM44.1125 191.80388Q44.1125 193.71013 43.45625 194.64763Q42.815624 195.5695 41.425 195.5695Q40.065624 195.5695 39.409374 194.66325Q38.753124 193.757 38.721874 191.9445L38.721874 190.507Q38.721874 188.61638 39.3625 187.71013Q40.01875 186.78825 41.409374 186.78825Q42.784374 186.78825 43.440624 187.67888Q44.096874 188.55388 44.1125 190.39763L44.1125 191.80388ZM43.01875 190.3195Q43.01875 188.9445 42.628124 188.3195Q42.253124 187.67888 41.409374 187.67888Q40.58125 187.67888 40.190624 188.3195Q39.815624 188.9445 39.815624 190.24138L39.815624 191.97575Q39.815624 193.35075 40.20625 194.02263Q40.6125 194.67888 41.425 194.67888Q42.221874 194.67888 42.6125 194.05388Q43.003124 193.42888 43.01875 192.10075L43.01875 190.3195Z" fill-rule="nonzero"/><path fill="#000000" d="M36.33125 132.90454L37.51875 132.90454L37.51875 133.77954L36.33125 133.77954L36.33125 135.76392L35.253124 135.76392L35.253124 133.77954L31.3625 133.77954L31.3625 133.13892L35.175 127.232666L36.33125 127.232666L36.33125 132.90454ZM32.596874 132.90454L35.253124 132.90454L35.253124 128.71704L35.1125 128.95142L32.596874 132.90454ZM44.1125 132.12329Q44.1125 134.02954 43.45625 134.96704Q42.815624 135.88892 41.425 135.88892Q40.065624 135.88892 39.409374 134.98267Q38.753124 134.07642 38.721874 132.26392L38.721874 130.82642Q38.721874 128.93579 39.3625 128.02954Q40.01875 127.107666 41.409374 127.107666Q42.784374 127.107666 43.440624 127.99829Q44.096874 128.87329 44.1125 130.71704L44.1125 132.12329ZM43.01875 130.63892Q43.01875 129.26392 42.628124 128.63892Q42.253124 127.99829 41.409374 127.99829Q40.58125 127.99829 40.190624 128.63892Q39.815624 129.26392 39.815624 130.56079L39.815624 132.29517Q39.815624 133.67017 40.20625 134.34204Q40.6125 134.99829 41.425 134.99829Q42.221874 134.99829 42.6125 134.37329Q43.003124 133.74829 43.01875 132.42017L43.01875 130.63892Z" fill-rule="nonzero"/><path fill="#000000" d="M32.253124 71.802086L32.690624 67.552086L37.065624 67.552086L37.065624 68.552086L33.6125 68.552086L33.346874 70.88021Q33.9875 70.50521 34.784374 70.50521Q35.940624 70.50521 36.628124 71.28646Q37.315624 72.052086 37.315624 73.364586Q37.315624 74.677086 36.596874 75.44271Q35.89375 76.208336 34.6125 76.208336Q33.4875 76.208336 32.76875 75.583336Q32.05 74.94271 31.95625 73.833336L32.971874 73.833336Q33.08125 74.56771 33.503124 74.94271Q33.925 75.31771 34.6125 75.31771Q35.3625 75.31771 35.8 74.802086Q36.2375 74.28646 36.2375 73.38021Q36.2375 72.520836 35.76875 72.00521Q35.3 71.489586 34.51875 71.489586Q33.815624 71.489586 33.409374 71.78646L33.128124 72.020836L32.253124 71.802086ZM44.1125 72.44271Q44.1125 74.34896 43.45625 75.28646Q42.815624 76.208336 41.425 76.208336Q40.065624 76.208336 39.409374 75.302086Q38.753124 74.395836 38.721874 72.583336L38.721874 71.145836Q38.721874 69.25521 39.3625 68.34896Q40.01875 67.427086 41.409374 67.427086Q42.784374 67.427086 43.440624 68.31771Q44.096874 69.19271 44.1125 71.03646L44.1125 72.44271ZM43.01875 70.958336Q43.01875 69.583336 42.628124 68.958336Q42.253124 68.31771 41.409374 68.31771Q40.58125 68.31771 40.190624 68.958336Q39.815624 69.583336 39.815624 70.88021L39.815624 72.614586Q39.815624 73.989586 40.20625 74.66146Q40.6125 75.31771 41.425 75.31771Q42.221874 75.31771 42.6125 74.69271Q43.003124 74.06771 43.01875 72.739586L43.01875 70.958336Z" fill-rule="nonzero"/><path fill="#000000" d="M81.691666 409.9716L79.161545 412.5017L80.17801 414.6451L79.36042 415.4627L75.626015 407.1321L76.32207 406.43607L84.66372 410.15942L83.84613 410.977L81.691666 409.9716ZM78.75275 411.60678L80.80778 409.55173L76.96288 407.76187L78.75275 411.60678ZM83.84613 403.3756Q83.647255 403.53027 83.44838 403.72916Q82.68603 404.49152 83.06168 405.3975L86.24366 408.57947L85.481316 409.34183L80.995605 404.8561L81.735855 404.11584L82.26619 404.62408Q82.04521 403.65182 82.74127 402.95575Q82.96224 402.7348 83.13902 402.6685L83.84613 403.3756ZM85.84592 404.4252Q84.80735 403.38666 84.67477 402.2818Q84.531136 401.1659 85.32663 400.3704Q86.11108 399.58597 87.105446 399.65225L84.77421 397.321L85.53655 396.55865L91.90051 402.9226L91.19341 403.62973L90.674126 403.17673Q90.784615 404.2153 89.96702 405.0329Q89.19363 405.80627 88.055626 405.66266Q86.92867 405.50797 85.90115 404.48047L85.84592 404.4252ZM86.696655 403.75125Q87.459 404.5136 88.19926 404.63513Q88.950554 404.74564 89.50298 404.1932Q90.232185 403.464 89.91178 402.4586L87.85675 400.40353Q86.884476 400.11627 86.16632 400.83444Q85.602844 401.39792 85.71333 402.1492Q85.83487 402.88947 86.696655 403.75125ZM95.20403 399.79587Q94.287 400.7129 93.11585 400.6908Q91.94471 400.6466 90.93929 399.6412L90.80671 399.5086Q90.13275 398.83466 89.867584 398.06125Q89.59137 397.2768 89.757095 396.53656Q89.92283 395.7742 90.453156 395.24387Q91.32599 394.37103 92.38665 394.45944Q93.44731 394.54782 94.51902 395.61954L94.83943 395.93994L91.80108 398.97827Q92.48609 399.6191 93.25949 399.6633Q94.04393 399.69644 94.61846 399.12192Q95.016205 398.72418 95.12669 398.28223Q95.24822 397.82922 95.192986 397.33206L96.02162 397.2326Q96.330986 398.6689 95.20403 399.79587ZM91.082924 395.87366Q90.61889 396.33768 90.64098 397.00058Q90.66308 397.64142 91.20446 398.31537L93.44731 396.0725L93.39207 396.01727Q92.77335 395.46484 92.16568 395.4317Q91.56906 395.3875 91.082924 395.87366ZM90.19904 394.32684L89.536125 394.98975L87.24908 394.84613L88.177155 393.91806L90.19904 394.32684ZM98.75061 394.98975Q99.15941 394.58096 99.2257 394.02853Q99.280945 393.46506 98.93844 393.05627L99.66764 392.32706Q100.03224 392.73587 100.13168 393.34354Q100.23112 393.9291 100.03224 394.54782Q99.84442 395.1555 99.38038 395.61954Q98.46335 396.53656 97.3143 396.47028Q96.16525 396.38187 95.10459 395.32123L94.97201 395.18863Q94.320145 394.53677 94.04393 393.7965Q93.77877 393.04523 93.944496 392.32706Q94.11022 391.58682 94.72894 390.96808Q95.48025 390.2168 96.43042 390.1726Q97.38059 390.1063 98.142944 390.80237L97.41374 391.53156Q96.93865 391.12277 96.36413 391.14487Q95.789604 391.16696 95.35871 391.59787Q94.77314 392.18344 94.872574 392.92368Q94.97201 393.66394 95.76751 394.45944L95.91114 394.60306Q96.68453 395.37646 97.42479 395.4759Q98.16504 395.57532 98.75061 394.98975ZM98.56279 388.37167Q98.45231 387.24472 99.2699 386.42712Q100.69516 385.00186 102.30825 386.59286L105.26926 389.55386L104.495865 390.32727L101.5238 387.35522Q101.04871 386.88013 100.595726 386.86908Q100.153786 386.847 99.68974 387.311Q99.314095 387.68668 99.22571 388.1728Q99.14837 388.6479 99.314095 389.123L102.507126 392.316L101.744774 393.07837L95.38081 386.7144L96.143166 385.95206L98.56279 388.37167ZM108.63907 386.36084Q107.72204 387.27786 106.55089 387.25577Q105.379745 387.21158 104.37433 386.20618L104.241745 386.07358Q103.56779 385.39963 103.30262 384.62622Q103.026405 383.84177 103.19213 383.10153Q103.357864 382.33917 103.88819 381.80884Q104.761024 380.936 105.821686 381.02438Q106.88235 381.1128 107.954056 382.18448L108.27446 382.5049L105.236115 385.54324Q105.92112 386.18405 106.69452 386.22827Q107.478966 386.2614 108.05349 385.6869Q108.45124 385.28912 108.56172 384.8472Q108.68326 384.3942 108.62801 383.897L109.45666 383.79758Q109.766014 385.2339 108.63907 386.36084ZM104.51796 382.4386Q104.05392 382.90265 104.07602 383.56555Q104.098114 384.2064 104.639496 384.88034L106.88235 382.63748L106.8271 382.58224Q106.20839 382.02982 105.600716 381.99667Q105.0041 381.95248 104.51796 382.4386Z" fill-rule="nonzero"/><path fill="#000000" d="M164.04616 402.9005L161.51604 405.43063L162.5325 407.57404L161.7149 408.39163L157.9805 400.06104L158.67656 399.365L167.01822 403.08835L166.20062 403.90594L164.04616 402.9005ZM161.10724 404.5357L163.16228 402.48068L159.31738 400.6908L161.10724 404.5357ZM166.20062 396.30453Q166.00174 396.45923 165.80287 396.65808Q165.04053 397.42044 165.41617 398.32642L168.59816 401.5084L167.8358 402.27075L163.3501 397.78503L164.09035 397.0448L164.62068 397.553Q164.3997 396.58075 165.09576 395.8847Q165.31674 395.66373 165.49352 395.59744L166.20062 396.30453ZM171.49287 398.61368L170.73053 399.37604L166.24481 394.89032L167.00716 394.12796L171.49287 398.61368ZM164.99632 393.7744Q164.8085 393.58658 164.7864 393.34354Q164.77536 393.08942 164.99632 392.86844Q165.2173 392.64746 165.46037 392.66956Q165.71448 392.6806 165.90231 392.86844Q166.07909 393.04523 166.09013 393.29932Q166.10118 393.53134 165.88022 393.75232Q165.65924 393.9733 165.41617 393.9733Q165.17311 393.9512 164.99632 393.7744ZM174.7301 395.55322Q173.81306 396.47028 172.64192 396.44815Q171.47078 396.40396 170.46536 395.39856L170.33278 395.26596Q169.65881 394.592 169.39365 393.8186Q169.11743 393.03418 169.28316 392.2939Q169.4489 391.53156 169.97922 391.00122Q170.85205 390.1284 171.91272 390.2168Q172.97337 390.30518 174.04509 391.3769L174.3655 391.6973L171.32715 394.73566Q172.01216 395.37646 172.78555 395.42065Q173.56999 395.4538 174.14452 394.87927Q174.54227 394.48154 174.65276 394.03958Q174.77429 393.58658 174.71904 393.08942L175.54768 392.98996Q175.85704 394.42627 174.7301 395.55322ZM170.609 391.631Q170.14494 392.09503 170.16705 392.75797Q170.18915 393.39877 170.73053 394.07272L172.97337 391.82986L172.91814 391.77463Q172.29942 391.2222 171.69174 391.18906Q171.09512 391.14487 170.609 391.631ZM169.7251 390.0842L169.0622 390.74713L166.77515 390.6035L167.70322 389.6754L169.7251 390.0842ZM174.56436 390.99017Q173.51476 389.94058 173.38217 388.83572Q173.24959 387.73087 174.04509 386.93536Q174.86267 386.11777 175.90125 386.22827L175.4372 385.69794L176.1443 384.9908L180.51953 389.36606Q181.39236 390.2389 181.37027 391.25534Q181.35922 392.28287 180.49744 393.14465Q180.01129 393.6308 179.33734 393.88492Q178.66338 394.139 178.06676 394.02853L178.00046 393.16675Q179.09427 393.28827 179.81242 392.57013Q180.36485 392.0177 180.3538 391.38794Q180.36485 390.75818 179.79033 390.18365L179.40363 389.79694Q179.48097 390.80237 178.68547 391.59787Q177.90103 392.3823 176.78513 392.23868Q175.65817 392.08398 174.56436 390.99017ZM175.42615 390.30518Q176.17746 391.0565 176.92876 391.18906Q177.669 391.3106 178.23248 390.74713Q178.95064 390.02896 178.63023 389.02356L176.58626 386.97955Q175.59189 386.6923 174.88478 387.3994Q174.33235 387.95184 174.44284 388.70312Q174.56436 389.4434 175.42615 390.30518ZM183.92249 386.36084Q183.00545 387.27786 181.8343 387.25577Q180.66316 387.21158 179.65775 386.20618L179.52516 386.07358Q178.8512 385.39963 178.58604 384.62622Q178.30983 383.84177 178.47556 383.10153Q178.64128 382.33917 179.17162 381.80884Q180.04445 380.936 181.1051 381.0244Q182.16577 381.1128 183.23747 382.1845L183.55788 382.5049L180.51953 385.54324Q181.20454 386.18408 181.97794 386.22827Q182.76239 386.2614 183.33691 385.6869Q183.73466 385.28912 183.84514 384.8472Q183.96667 384.3942 183.91144 383.89703L184.74008 383.79758Q185.04944 385.2339 183.92249 386.36084ZM179.80138 382.4386Q179.33734 382.90265 179.35944 383.56555Q179.38153 384.2064 179.92291 384.88034L182.16577 382.63748L182.11052 382.58224Q181.4918 382.02982 180.88414 381.99667Q180.2875 381.95248 179.80138 382.4386Z" fill-rule="nonzero"/><path fill="#000000" d="M184.38516 456.27603L186.74956 458.6404L185.95406 459.4359L179.92155 453.4034L182.15337 451.1716Q183.13667 450.1883 184.20839 450.13306Q185.26904 450.06674 186.10873 450.90643Q186.98157 451.77927 186.90424 452.8068Q186.83794 453.82324 185.81042 454.85077L184.38516 456.27603ZM183.7333 455.62418L185.16962 454.18787Q185.81042 453.54703 185.84357 452.91727Q185.88777 452.27646 185.3243 451.71298Q184.78291 451.1716 184.12 451.1937Q183.45709 451.1937 182.84941 451.77927L181.36891 453.25977L183.7333 455.62418ZM191.83188 451.3042L189.52274 446.8958L190.34033 446.07822L193.72119 453.0609Q194.41724 454.59665 193.51126 455.50262L193.34554 455.64627L193.01408 455.86725L192.39536 455.2485L192.60529 455.0607Q193.00304 454.66293 193.05827 454.29834Q193.12456 453.9227 192.84834 453.35922L192.55003 452.72946L186.51753 449.90103L187.35722 449.06134L191.83188 451.3042ZM194.10788 443.6807Q193.90901 443.83536 193.71013 444.03424Q192.94778 444.7966 193.32344 445.70258L196.50542 448.88455L195.74307 449.6469L191.25735 445.1612L191.99762 444.42096L192.52794 444.92917Q192.30698 443.9569 193.00304 443.26083Q193.224 443.0399 193.40077 442.97357L194.10788 443.6807ZM200.51604 445.05072Q199.59901 445.96774 198.42787 445.94565Q197.25671 445.90146 196.2513 444.89603L196.11871 444.76346Q195.44476 444.08948 195.1796 443.3161Q194.90338 442.53165 195.0691 441.79138Q195.23483 441.02905 195.76517 440.49872Q196.638 439.6259 197.69865 439.71426Q198.75932 439.80264 199.83102 440.87436L200.15144 441.19476L197.11308 444.23312Q197.7981 444.87393 198.5715 444.91812Q199.35594 444.95126 199.93047 444.37674Q200.32822 443.979 200.4387 443.53705Q200.56023 443.08408 200.50499 442.58688L201.33363 442.48746Q201.64299 443.92377 200.51604 445.05072ZM196.39493 441.12848Q195.9309 441.59253 195.95299 442.25543Q195.97508 442.89624 196.51646 443.57022L198.75932 441.32736L198.70407 441.27213Q198.08536 440.7197 197.47769 440.68652Q196.88107 440.64233 196.39493 441.12848ZM194.35095 438.3111L195.27902 437.38303L195.37846 439.71426L194.75975 440.33298L194.35095 438.3111ZM199.04659 437.37198L199.63216 437.91336Q199.51062 436.75327 200.33926 435.92462Q201.76453 434.49936 203.37761 436.09033L206.33862 439.05136L205.56522 439.82474L202.59317 436.8527Q202.11807 436.3776 201.66508 436.36655Q201.22314 436.34445 200.75911 436.8085Q200.38345 437.18414 200.29507 437.6703Q200.21773 438.1454 200.38345 438.62045L203.57649 441.81348L202.81413 442.57584L198.32843 438.09012L199.04659 437.37198ZM209.70842 435.85834Q208.7914 436.77536 207.62025 436.75327Q206.44911 436.70908 205.4437 435.70364L205.31111 435.57108Q204.63715 434.8971 204.37198 434.12372Q204.09576 433.33926 204.26149 432.599Q204.42723 431.83664 204.95755 431.30634Q205.83038 430.4335 206.89105 430.52188Q207.9517 430.61026 209.02342 431.68198L209.34383 432.00238L206.30548 435.04074Q206.99048 435.68155 207.76389 435.72574Q208.54832 435.75888 209.12285 435.18436Q209.5206 434.78662 209.63109 434.34467Q209.75262 433.8917 209.69737 433.3945L210.52602 433.29507Q210.83537 434.73138 209.70842 435.85834ZM205.58733 431.9361Q205.12328 432.40012 205.14539 433.06305Q205.16748 433.70386 205.70885 434.3778L207.9517 432.13498L207.89647 432.0797Q207.27774 431.52728 206.67007 431.49414Q206.07346 431.44995 205.58733 431.9361ZM203.54333 429.1187L204.47142 428.19064L204.57086 430.52188L203.95213 431.1406L203.54333 429.1187ZM213.95107 431.6157Q213.03404 432.5327 211.8629 432.51062Q210.69174 432.46643 209.68633 431.461L209.55374 431.32843Q208.87979 430.65445 208.61462 429.88107Q208.33841 429.09662 208.50414 428.35635Q208.66986 427.59402 209.2002 427.0637Q210.07303 426.19086 211.13368 426.27924Q212.19435 426.3676 213.26605 427.43933L213.58647 427.75974L210.54811 430.7981Q211.23312 431.4389 212.00653 431.4831Q212.79097 431.51624 213.3655 430.9417Q213.76324 430.54398 213.87373 430.10202Q213.99525 429.64905 213.94002 429.15186L214.76866 429.05243Q215.07802 430.48874 213.95107 431.6157ZM209.82996 427.69345Q209.36592 428.1575 209.38802 428.8204Q209.41011 429.4612 209.95149 430.1352L212.19435 427.89233L212.13911 427.83707Q211.52039 427.28467 210.91272 427.2515Q210.3161 427.2073 209.82996 427.69345ZM217.66338 425.34012Q217.35402 425.03076 216.94522 425.1081Q216.53642 425.16333 215.82932 425.62738Q215.13326 426.08035 214.61398 426.2461Q214.0947 426.41183 213.69695 426.34552Q213.29921 426.25714 212.96774 425.9257Q212.41531 425.37326 212.50371 424.53357Q212.58105 423.68283 213.31026 422.9536Q214.0726 422.19128 214.93439 422.125Q215.79617 422.0366 216.40384 422.64426L215.6415 423.40662Q215.33214 423.09726 214.83495 423.1525Q214.33777 423.18564 213.94002 423.5834Q213.52017 424.00323 213.46494 424.43414Q213.40968 424.84293 213.69695 425.1302Q213.97316 425.4064 214.33777 425.32907Q214.70236 425.2517 215.40947 424.80978Q216.10553 424.35678 216.63586 424.18002Q217.1662 424.00323 217.58604 424.0916Q218.01694 424.16898 218.37048 424.52252Q218.97815 425.1302 218.85663 425.98093Q218.74614 426.82062 217.98378 427.58298Q217.44241 428.12436 216.83473 428.35635Q216.22707 428.56628 215.65254 428.4558Q215.07802 428.3453 214.68027 427.94757L215.44263 427.1852Q215.85141 427.5498 216.3707 427.49457Q216.87894 427.42828 217.35402 426.9532Q217.78491 426.5223 217.8733 426.08035Q217.96169 425.63843 217.66338 425.34012ZM225.37526 420.0147Q225.17639 419.94843 224.78969 419.65012Q224.82283 420.74393 224.08258 421.48416Q223.41966 422.1471 222.61313 422.20233Q221.81763 422.24652 221.23206 421.66095Q220.536 420.96487 220.67963 420.04785Q220.82326 419.13083 221.79553 418.15857L222.53578 417.4183L222.18224 417.06476Q221.78448 416.667 221.3094 416.67804Q220.8343 416.667 220.35922 417.1421Q219.95042 417.55087 219.88414 418.03702Q219.8068 418.51212 220.1051 418.81042L219.33171 419.58383Q218.9892 419.2413 218.91187 418.69995Q218.84557 418.14752 219.07759 417.56195Q219.29857 416.9653 219.7847 416.4792Q220.56915 415.69473 221.38673 415.65054Q222.21538 415.5953 222.91144 416.24716L224.97751 418.31323Q225.59624 418.93195 226.11551 419.14188L226.18181 419.20816L225.37526 420.0147ZM223.5191 420.69974Q223.88371 420.3351 224.0163 419.82687Q224.14888 419.31866 223.99419 418.8767L223.07716 417.9597L222.48055 418.5563Q221.06633 419.97052 221.89497 420.79916Q222.24852 421.1527 222.7015 421.11957Q223.14346 421.07538 223.5191 420.69974ZM223.03297 411.22006L224.11572 412.30283L224.94437 411.47418L225.54099 412.0708L224.71236 412.89944L227.48553 415.67264Q227.76175 415.94885 228.00482 415.97095Q228.24788 415.99304 228.51305 415.72787Q228.64563 415.5953 228.83345 415.3191L229.45218 415.9378Q229.24225 416.3245 228.95499 416.61176Q228.44676 417.12 227.87224 417.0758Q227.28667 417.02057 226.71214 416.44604L223.93895 413.67285L223.12135 414.49045L222.52473 413.89383L223.34233 413.07623L222.25957 411.99347L223.03297 411.22006ZM231.21994 414.17004L230.4576 414.93237L224.09363 408.56842L224.85599 407.80606L231.21994 414.17004ZM235.27475 410.1152Q235.07588 410.04892 234.68918 409.7506Q234.72234 410.84442 233.98207 411.5847Q233.31917 412.2476 232.51262 412.30283Q231.71713 412.34702 231.13155 411.76144Q230.4355 411.0654 230.57913 410.14838Q230.72276 409.23132 231.69502 408.25906L232.43529 407.5188L232.08173 407.16525Q231.68398 406.76752 231.2089 406.77856Q230.73381 406.76752 230.25871 407.24258Q229.84991 407.6514 229.78363 408.13754Q229.70628 408.6126 230.00461 408.91092L229.2312 409.68433Q228.8887 409.34183 228.81136 408.80045Q228.74507 408.24802 228.97708 407.66245Q229.19806 407.06583 229.68419 406.57968Q230.46864 405.79523 231.28624 405.75104Q232.11487 405.6958 232.81093 406.34766L234.87701 408.41376Q235.49573 409.03247 236.01501 409.24237L236.0813 409.3087L235.27475 410.1152ZM233.4186 410.80023Q233.7832 410.43564 233.91579 409.9274Q234.04837 409.41916 233.89369 408.9772L232.97665 408.06018L232.38004 408.6568Q230.96582 410.071 231.79446 410.89966Q232.14803 411.2532 232.60101 411.22006Q233.04295 411.17587 233.4186 410.80023ZM233.69481 402.72375L234.28038 403.2651Q234.15886 402.105 234.98749 401.2764Q236.41275 399.85114 238.02585 401.4421L240.98685 404.4031L240.21346 405.1765L237.2414 402.20447Q236.76631 401.72937 236.31332 401.71832Q235.87138 401.69623 235.40733 402.16028Q235.0317 402.53592 234.9433 403.02206Q234.86597 403.49713 235.0317 403.97223L238.22472 407.16525L237.46237 407.9276L232.97665 403.4419L233.69481 402.72375ZM237.88222 396.37082L238.96497 397.45358L239.79361 396.62494L240.39023 397.22156L239.56158 398.0502L242.33478 400.8234Q242.611 401.0996 242.85406 401.1217Q243.09712 401.1438 243.36229 400.87863Q243.49487 400.74606 243.6827 400.46985L244.30142 401.08856Q244.09149 401.47525 243.80423 401.7625Q243.296 402.27075 242.72148 402.22656Q242.1359 402.17133 241.56137 401.5968L238.7882 398.8236L237.9706 399.6412L237.37398 399.0446L238.19157 398.227L237.10881 397.14423L237.88222 396.37082ZM246.06918 399.3208L245.30684 400.08313L240.82112 395.59744L241.58348 394.83508L246.06918 399.3208ZM239.57265 394.48154Q239.38481 394.2937 239.36272 394.05063Q239.35167 393.7965 239.57265 393.57556Q239.79361 393.35458 240.03668 393.37668Q240.2908 393.38773 240.47862 393.57556Q240.6554 393.75232 240.66644 394.00644Q240.67749 394.23846 240.45653 394.45944Q240.23555 394.6804 239.99248 394.6804Q239.74942 394.6583 239.57265 394.48154ZM244.89804 395.93994Q243.83737 394.87927 243.70479 393.7965Q243.57222 392.69165 244.3898 391.87408Q245.1853 391.07858 246.17967 391.14487L245.75983 390.65872L246.46693 389.95163L252.67621 396.16092L251.90282 396.9343L249.7594 394.7909Q249.80359 395.76315 249.04124 396.5255Q248.22365 397.3431 247.10774 397.19946Q245.99184 397.03375 244.95328 395.99518L244.89804 395.93994ZM245.74878 395.26596Q246.51112 396.02832 247.27347 396.14987Q248.04688 396.26035 248.5993 395.70792Q249.28432 395.02292 249.0302 394.06168L246.83153 391.86304Q245.88136 391.64206 245.21844 392.30496Q244.65497 392.86844 244.76546 393.64185Q244.887 394.40417 245.74878 395.26596ZM254.6318 389.8743Q254.7202 390.84656 253.84735 391.7194Q253.1292 392.43756 252.33371 392.39334Q251.53821 392.34915 250.72063 391.53156L247.8038 388.61475L248.56616 387.85242L251.46088 390.74713Q252.48839 391.77463 253.31703 390.94598Q254.20091 390.0621 253.82526 389.11194L250.56595 385.85263L251.33934 385.07922L255.82504 389.56494L255.09584 390.29413L254.6318 389.8743ZM259.2059 386.36084Q258.28888 387.2779 257.11774 387.25577Q255.94658 387.21158 254.94116 386.20618L254.80858 386.07358Q254.13461 385.39963 253.86946 384.62622Q253.59325 383.8418 253.75897 383.10153Q253.9247 382.33917 254.45503 381.80884Q255.32787 380.936 256.38852 381.0244Q257.4492 381.1128 258.5209 382.1845L258.8413 382.5049L255.80295 385.54324Q256.48795 386.18408 257.26135 386.22827Q258.0458 386.2614 258.62033 385.6869Q259.01807 385.28915 259.12857 384.8472Q259.2501 384.3942 259.19485 383.89703L260.0235 383.79758Q260.33286 385.2339 259.2059 386.36084ZM255.0848 382.43863Q254.62076 382.90265 254.64285 383.56558Q254.66495 384.2064 255.20633 384.88034L257.4492 382.63748L257.39395 382.58224Q256.7752 382.02982 256.16754 381.99667Q255.57094 381.95248 255.0848 382.43863Z" fill-rule="nonzero"/><path fill="#000000" d="M307.54193 409.9716L305.0118 412.5017L306.02826 414.6451L305.2107 415.4627L301.47626 407.1321L302.17233 406.43607L310.51398 410.15942L309.69638 410.97702L307.54193 409.9716ZM304.603 411.60678L306.65805 409.55176L302.81314 407.76187L304.603 411.60678ZM311.76248 406.8338L309.4312 402.27075L310.21567 401.4863L313.0883 407.5851L312.50272 408.1707L306.39288 405.3091L307.1773 404.52466L311.76248 406.8338ZM317.51877 403.33142Q316.6017 404.24844 315.43057 404.22635Q314.25943 404.18216 313.25403 403.17673L313.12143 403.04416Q312.44748 402.37018 312.1823 401.5968Q311.9061 400.81235 312.07184 400.07208Q312.23755 399.30975 312.76788 398.77942Q313.64072 397.9066 314.7014 397.99496Q315.76202 398.08334 316.83374 399.15506L317.15414 399.47546L314.1158 402.51382Q314.8008 403.15463 315.57422 403.19882Q316.35867 403.232 316.9332 402.65744Q317.33093 402.2597 317.4414 401.81778Q317.56296 401.36478 317.50772 400.86758L318.33636 400.76816Q318.64572 402.20447 317.51877 403.33142ZM313.39764 399.40918Q312.93362 399.87323 312.95572 400.53613Q312.9778 401.17694 313.5192 401.85092L315.76202 399.60806L315.7068 399.55283Q315.08807 399.0004 314.4804 398.96725Q313.8838 398.92303 313.39764 399.40918ZM320.14832 398.27118L317.83917 393.86282L318.65677 393.04523L322.0376 400.0279Q322.73367 401.56366 321.8277 402.46964L321.66196 402.61325L321.3305 402.83423L320.7118 402.2155L320.92172 402.02768Q321.31946 401.62994 321.3747 401.26535Q321.44098 400.88968 321.16476 400.3262L320.86646 399.69644L314.83395 396.868L315.67365 396.02832L320.14832 398.27118ZM322.42432 390.64767Q322.22543 390.80237 322.02655 391.00125Q321.26422 391.76358 321.63986 392.6696L324.82184 395.85156L324.0595 396.6139L319.5738 392.1282L320.31403 391.38794L320.84436 391.89618Q320.6234 390.9239 321.31946 390.22784Q321.54044 390.00687 321.7172 389.94058L322.42432 390.64767ZM324.39096 391.70834Q323.73907 391.0565 323.46286 390.27203Q323.19772 389.47653 323.38553 388.7363Q323.56232 387.985 324.1479 387.3994Q325.0649 386.4824 326.25815 386.54868Q327.46243 386.6039 328.5231 387.66458L328.57834 387.71982Q329.23022 388.37167 329.4954 389.14508Q329.76053 389.9185 329.59482 390.68085Q329.41803 391.43213 328.81036 392.0398Q327.9044 392.9458 326.7001 392.89053Q325.49582 392.8132 324.4462 391.76358L324.39096 391.70834ZM325.2638 391.0344Q326.00403 391.77463 326.79953 391.88513Q327.60608 391.98456 328.1806 391.41003Q328.76617 390.82446 328.6557 390.02896Q328.53415 389.2224 327.7055 388.3938Q326.97632 387.66458 326.16977 387.56516Q325.36322 387.4436 324.77765 388.02917Q324.21417 388.59265 324.3136 389.3992Q324.41306 390.18365 325.2638 391.0344ZM328.07013 383.63187L328.6557 384.17325Q328.53415 383.01315 329.3628 382.1845Q330.78806 380.75925 332.40115 382.35022L335.36215 385.31125L334.58875 386.08463L331.6167 383.11258Q331.1416 382.63748 330.68863 382.62643Q330.24667 382.60434 329.78265 383.0684Q329.40698 383.44403 329.3186 383.93018Q329.24127 384.40527 329.40698 384.88034L332.6 388.07336L331.83768 388.83572L327.35196 384.35L328.07013 383.63187Z" fill-rule="nonzero"/><path fill="#000000" d="M365.91003 430.04678L365.11453 430.8423L362.3303 428.05807L359.28088 431.10745L362.06512 433.8917L361.26962 434.6872L355.23712 428.6547L356.03262 427.8592L358.62903 430.4556L361.67844 427.4062L359.08203 424.80978L359.8775 424.01428L365.91003 430.04678ZM370.28525 425.67157Q370.08636 425.6053 369.69968 425.30698Q369.73282 426.4008 368.99255 427.14102Q368.32965 427.80396 367.5231 427.8592Q366.7276 427.90338 366.14203 427.3178Q365.44598 426.62177 365.5896 425.7047Q365.73325 424.7877 366.7055 423.81543L367.44577 423.07516L367.09222 422.72162Q366.69446 422.32385 366.2194 422.33493Q365.7443 422.32385 365.2692 422.79895Q364.8604 423.20776 364.79413 423.69388Q364.71677 424.16898 365.01508 424.4673L364.2417 425.2407Q363.8992 424.89816 363.82184 424.3568Q363.75555 423.80438 363.98758 423.2188Q364.20856 422.6222 364.69467 422.13605Q365.47913 421.3516 366.29672 421.3074Q367.12537 421.25217 367.8214 421.90402L369.88748 423.9701Q370.50623 424.5888 371.02548 424.79874L371.0918 424.86502L370.28525 425.67157ZM368.42908 426.3566Q368.7937 425.99197 368.92627 425.48376Q369.05887 424.97552 368.90417 424.53357L367.98715 423.61655L367.39053 424.21317Q365.97632 425.62738 366.80496 426.45602Q367.1585 426.80957 367.6115 426.77643Q368.05344 426.73224 368.42908 426.3566ZM374.79306 420.27988Q374.88144 421.25217 374.0086 422.125Q373.29044 422.84314 372.49496 422.79895Q371.69946 422.75476 370.88187 421.93716L367.96506 419.02036L368.7274 418.258L371.62213 421.1527Q372.64963 422.18024 373.47827 421.3516Q374.36215 420.4677 373.9865 419.51755L370.72717 416.2582L371.50058 415.48483L375.9863 419.97052L375.25708 420.69974L374.79306 420.27988ZM372.8927 411.9272L373.97546 413.00995L374.8041 412.1813L375.40073 412.77792L374.57208 413.60657L377.34528 416.37976Q377.6215 416.65598 377.86453 416.67807Q378.1076 416.70016 378.37277 416.435Q378.50537 416.3024 378.69318 416.02618L379.3119 416.64493Q379.102 417.03162 378.81473 417.31888Q378.3065 417.82712 377.73196 417.78293Q377.1464 417.72766 376.57187 417.15314L373.79868 414.37997L372.98108 415.19757L372.38446 414.60092L373.20206 413.78336L372.1193 412.7006L372.8927 411.9272ZM382.1956 413.93802Q381.27853 414.85504 380.1074 414.83295Q378.93625 414.78876 377.93085 413.78336L377.79825 413.65076Q377.1243 412.9768 376.85913 412.2034Q376.58292 411.41895 376.74866 410.6787Q376.91437 409.91635 377.4447 409.38602Q378.31754 408.51318 379.3782 408.60156Q380.43884 408.68997 381.51056 409.76166L381.83096 410.0821L378.79263 413.12042Q379.47763 413.76123 380.25104 413.80545Q381.0355 413.8386 381.61002 413.26407Q382.00775 412.8663 382.11823 412.42438Q382.23978 411.97137 382.18454 411.47418L383.01315 411.37476Q383.32254 412.81107 382.1956 413.93802ZM378.07446 410.01578Q377.61044 410.47983 377.63254 411.14273Q377.65463 411.78357 378.196 412.45752L380.43884 410.21466L380.3836 410.15942Q379.7649 409.607 379.15723 409.57385Q378.5606 409.52966 378.07446 410.01578ZM385.9079 407.66245Q385.5985 407.3531 385.18973 407.43042Q384.78094 407.4857 384.07382 407.9497Q383.37778 408.4027 382.8585 408.56842Q382.3392 408.73416 381.94147 408.66788Q381.5437 408.57947 381.21225 408.24802Q380.65982 407.6956 380.74823 406.8559Q380.82556 406.00516 381.55475 405.27597Q382.3171 404.5136 383.1789 404.44733Q384.04068 404.35895 384.64835 404.9666L383.886 405.72894Q383.57663 405.4196 383.07947 405.47482Q382.58228 405.508 382.18454 405.90573Q381.76468 406.32556 381.70944 406.75647Q381.6542 407.16525 381.94147 407.4525Q382.21768 407.72873 382.58228 407.6514Q382.94687 407.57407 383.654 407.1321Q384.35004 406.67914 384.88037 406.50235Q385.4107 406.32556 385.83054 406.41397Q386.26144 406.4913 386.615 406.84485Q387.22266 407.4525 387.10114 408.30325Q386.99063 409.14294 386.2283 409.9053Q385.68692 410.4467 385.07925 410.6787Q384.4716 410.8886 383.89706 410.77814Q383.32254 410.66766 382.92477 410.2699L383.68713 409.50757Q384.09592 409.87216 384.6152 409.81693Q385.12344 409.7506 385.5985 409.27554Q386.02942 408.84464 386.1178 408.4027Q386.2062 407.96075 385.9079 407.66245ZM392.72482 400.0721L390.19473 402.6022L391.21118 404.74564L390.3936 405.56323L386.65918 397.23264L387.35526 396.53656L395.6969 400.25992L394.8793 401.0775L392.72482 400.0721ZM389.78592 401.70728L391.84094 399.65225L387.99606 397.8624L389.78592 401.70728ZM397.34314 398.61368L396.58078 399.37604L390.21683 393.0121L390.97916 392.24973L397.34314 398.61368ZM400.2268 391.3548Q401.24326 392.37128 401.409 393.46506Q401.5747 394.55887 400.7682 395.36542Q399.9506 396.183 398.96725 396.12778L401.12173 398.28223L400.35938 399.0446L394.1501 392.8353L394.84616 392.13925L395.3765 392.60327Q395.27704 391.55368 396.10568 390.72504Q396.91223 389.9185 397.98395 390.06213Q399.0667 390.1947 400.14944 391.27747L400.2268 391.3548ZM399.37607 392.02875Q398.6137 391.26642 397.85135 391.16696Q397.08902 391.04544 396.52554 391.60892Q395.82947 392.30496 396.09464 393.25516L398.23807 395.39856Q399.19928 395.67477 399.9064 394.96768Q400.45883 394.41525 400.34833 393.66394Q400.23785 392.89053 399.37607 392.02875ZM405.5301 390.6035Q404.61307 391.52054 403.44193 391.49844Q402.27078 391.45422 401.26535 390.44882L401.13278 390.31622Q400.45883 389.64227 400.19366 388.86887Q399.91745 388.08444 400.08316 387.34418Q400.2489 386.58182 400.77924 386.0515Q401.65207 385.17865 402.7127 385.26706Q403.77338 385.35544 404.8451 386.42715L405.1655 386.74756L402.12714 389.78592Q402.81216 390.42673 403.58554 390.47092Q404.37 390.50406 404.94452 389.92953Q405.3423 389.5318 405.45276 389.08984Q405.57428 388.63687 405.51904 388.13968L406.3477 388.04022Q406.65704 389.47653 405.5301 390.6035ZM401.409 386.68127Q400.94495 387.1453 400.96704 387.80823Q400.98914 388.44904 401.53052 389.123L403.77338 386.88013L403.71814 386.8249Q403.09943 386.27246 402.49176 386.23932Q401.89514 386.19513 401.409 386.68127ZM409.2424 384.3279Q408.93304 384.01855 408.52426 384.09592Q408.11545 384.15115 407.40836 384.61517Q406.71228 385.06818 406.19302 385.23392Q405.67374 385.39963 405.27597 385.33334Q404.87823 385.24496 404.54678 384.9135Q403.99435 384.36108 404.08273 383.5214Q404.16006 382.67065 404.88928 381.94144Q405.65164 381.17908 406.51343 381.1128Q407.3752 381.0244 407.98288 381.63208L407.22052 382.39444Q406.91116 382.08508 406.41397 382.14032Q405.9168 382.17346 405.51904 382.5712Q405.0992 382.99106 405.04398 383.42194Q404.9887 383.83075 405.27597 384.118Q405.5522 384.39423 405.9168 384.31686Q406.2814 384.23953 406.9885 383.7976Q407.68457 383.3446 408.2149 383.16782Q408.74524 382.99106 409.16507 383.07944Q409.59595 383.15677 409.94952 383.51035Q410.5572 384.118 410.43564 384.96875Q410.32516 385.80844 409.5628 386.57077Q409.02142 387.11215 408.41376 387.34418Q407.8061 387.5541 407.23157 387.4436Q406.65704 387.33313 406.2593 386.9354L407.02164 386.17303Q407.43045 386.53763 407.94974 386.4824Q408.45798 386.4161 408.93304 385.941Q409.36395 385.51013 409.45233 385.06818Q409.5407 384.62625 409.2424 384.3279Z" fill-rule="nonzero"/><path fill="#000000" d="M475.59863 394.3379L478.4602 391.47632L479.11206 392.12817L475.44394 395.7963L469.41144 389.7638L470.218 388.95724L475.59863 394.3379ZM477.07913 389.587Q476.42728 388.93515 476.15106 388.1507Q475.8859 387.3552 476.0737 386.61496Q476.2505 385.86365 476.83606 385.27808Q477.75308 384.36105 478.94632 384.42734Q480.15063 384.48257 481.21127 385.54324L481.26654 385.59848Q481.9184 386.25037 482.18356 387.02374Q482.44873 387.79715 482.283 388.5595Q482.10623 389.3108 481.49854 389.91846Q480.59256 390.82446 479.38828 390.7692Q478.184 390.69186 477.13437 389.64224L477.07913 389.587ZM477.95197 388.91306Q478.69223 389.65332 479.4877 389.7638Q480.29425 389.86322 480.86877 389.2887Q481.45435 388.70312 481.34387 387.90762Q481.22232 387.1011 480.3937 386.27246Q479.6645 385.54324 478.85794 385.44382Q478.0514 385.32227 477.46582 385.90784Q476.90234 386.4713 477.0018 387.27786Q477.10123 388.06232 477.95197 388.91306ZM479.99594 380.10736L481.0787 381.19012L481.90735 380.36148L482.50397 380.9581L481.67532 381.78674L484.44852 384.55994Q484.72473 384.83615 484.9678 384.85825Q485.21085 384.88034 485.476 384.61517Q485.6086 384.48257 485.79642 384.20636L486.41516 384.8251Q486.20523 385.2118 485.91797 385.49905Q485.40973 386.0073 484.8352 385.9631Q484.24963 385.90784 483.6751 385.3333L480.90192 382.56015L480.08432 383.37775L479.4877 382.7811L480.3053 381.96353L479.22253 380.88077L479.99594 380.10736Z" fill-rule="nonzero"/><path fill="#000000" d="M507.0414 438.17853L509.90298 435.31696L510.55484 435.9688L506.88672 439.63693L500.85422 433.60443L501.66077 432.79788L507.0414 438.17853ZM508.5219 433.42767Q507.87006 432.7758 507.59384 431.99136Q507.32867 431.19586 507.51648 430.4556Q507.69327 429.7043 508.27884 429.11874Q509.19586 428.2017 510.3891 428.268Q511.5934 428.32324 512.65405 429.38388L512.7093 429.43915Q513.36115 430.091 513.62634 430.8644Q513.8915 431.6378 513.72577 432.40015Q513.549 433.15146 512.94135 433.75912Q512.03534 434.6651 510.83105 434.60986Q509.62677 434.5325 508.57715 433.4829L508.5219 433.42767ZM509.39474 432.7537Q510.13498 433.49396 510.93048 433.60443Q511.73703 433.7039 512.3116 433.12936Q512.89716 432.54376 512.7866 431.7483Q512.6651 430.94174 511.83646 430.1131Q511.10727 429.38388 510.30072 429.28445Q509.49417 429.16293 508.9086 429.7485Q508.34512 430.31198 508.44458 431.11853Q508.544 431.90295 509.39474 432.7537ZM511.43872 423.948L512.5215 425.03076L513.3501 424.20212L513.9467 424.79874L513.1181 425.62738L515.8913 428.40057Q516.1675 428.6768 516.4106 428.69888Q516.6536 428.72098 516.9188 428.4558Q517.0514 428.32324 517.2392 428.04703L517.8579 428.66574Q517.648 429.05243 517.3607 429.3397Q516.85254 429.84793 516.27795 429.80374Q515.6924 429.7485 515.11786 429.17398L512.3447 426.4008L511.5271 427.21838L510.93048 426.62177L511.74808 425.80417L510.6653 424.7214L511.43872 423.948ZM518.13416 423.8817L516.11224 425.9036L515.4935 425.28488L517.51544 423.263L518.13416 423.8817ZM522.8629 423.83752Q521.94586 424.75455 520.7747 424.73245Q519.6036 424.68826 518.5982 423.68283L518.4656 423.55026Q517.7916 422.8763 517.5265 422.1029Q517.25024 421.31845 517.41595 420.57822Q517.5817 419.81586 518.11206 419.28552Q518.98486 418.4127 520.04553 418.50107Q521.1062 418.58948 522.1779 419.66116L522.4983 419.9816L519.45996 423.01993Q520.14496 423.66074 520.9184 423.70496Q521.7028 423.7381 522.27734 423.16357Q522.6751 422.7658 522.7856 422.32388Q522.9071 421.87088 522.85187 421.3737L523.6805 421.27426Q523.98987 422.71057 522.8629 423.83752ZM518.7418 419.91528Q518.2778 420.37933 518.29987 421.04224Q518.32196 421.68304 518.86334 422.35703L521.1062 420.11417L521.05096 420.05893Q520.43225 419.5065 519.8246 419.47336Q519.22797 419.42917 518.7418 419.91528ZM520.6311 414.7556L521.71387 415.83838L522.5425 415.00974L523.13916 415.60635L522.3105 416.435L525.0837 419.2082Q525.35986 419.4844 525.60297 419.5065Q525.846 419.5286 526.1112 419.26343Q526.2438 419.13086 526.4316 418.85464L527.0503 419.47336Q526.8404 419.86005 526.5531 420.1473Q526.0449 420.65555 525.4704 420.61136Q524.8848 420.55612 524.3103 419.9816L521.5371 417.2084L520.7195 418.026L520.12286 417.42938L520.9405 416.6118L519.8577 415.52902L520.6311 414.7556ZM527.32654 414.68933L525.3046 416.7112L524.6859 416.0925L526.7078 414.07062L527.32654 414.68933ZM533.88934 411.0433Q534.022 411.79462 533.6905 412.56802Q533.359 413.3414 532.6298 414.07062Q531.90063 414.7998 530.9836 415.03183Q530.05554 415.2528 529.10535 414.92136Q528.15515 414.5899 527.30444 413.76126L526.78516 413.24197Q525.4151 411.87195 525.2936 410.49088Q525.1831 409.09875 526.33215 407.9497Q527.28235 406.99954 528.343 406.91116Q529.4036 406.82275 530.4201 407.57407L529.62463 408.36957Q528.19934 407.40836 527.0061 408.6016Q526.1996 409.40814 526.35425 410.3804Q526.49786 411.3416 527.55853 412.42438L528.0447 412.91052Q529.06116 413.92697 530.1329 414.07062Q531.19354 414.2032 531.989 413.4077Q532.43097 412.96576 532.66296 412.53485Q532.90607 412.09293 532.884 411.62888L531.536 410.28098L530.1439 411.67307L529.49207 411.0212L531.6796 408.83362L533.88934 411.0433ZM538.5297 407.99393Q538.3309 407.9276 537.94415 407.6293Q537.9773 408.7231 537.23706 409.46338Q536.57416 410.12628 535.76764 410.18152Q534.9721 410.2257 534.38654 409.64014Q533.6905 408.9441 533.8341 408.02707Q533.9777 407.11002 534.95 406.13776L535.69025 405.3975L535.33673 405.04395Q534.93896 404.6462 534.46387 404.65726Q533.9888 404.6462 533.51373 405.1213Q533.1049 405.5301 533.03864 406.01624Q532.9613 406.4913 533.2596 406.7896L532.4862 407.56302Q532.1437 407.22052 532.06635 406.67914Q532.00006 406.1267 532.23206 405.54114Q532.45306 404.94452 532.9392 404.45837Q533.72363 403.67392 534.5412 403.62973Q535.3699 403.5745 536.0659 404.22635L538.132 406.29245Q538.75073 406.91116 539.27 407.1211L539.3363 407.18738L538.5297 407.99393ZM536.6736 408.67892Q537.0382 408.31433 537.1708 407.8061Q537.30334 407.29785 537.1487 406.85593L536.2316 405.93887L535.635 406.5355Q534.2208 407.9497 535.04944 408.77835Q535.403 409.13193 535.856 409.09875Q536.298 409.05457 536.6736 408.67892ZM539.08215 399.8401Q538.8833 399.99478 538.68445 400.19363Q537.92206 400.956 538.2977 401.86197L541.47974 405.04395L540.71735 405.8063L536.2316 401.3206L536.9719 400.58035L537.50226 401.08856Q537.28125 400.1163 537.9773 399.42026Q538.1983 399.19928 538.37506 399.133L539.08215 399.8401ZM541.0488 400.90076Q540.397 400.24887 540.1207 399.46445Q539.8556 398.66895 540.0434 397.92868Q540.22015 397.1774 540.8057 396.59183Q541.7228 395.67477 542.916 395.7411Q544.1203 395.79633 545.18097 396.857L545.2362 396.91223Q545.88806 397.5641 546.15326 398.3375Q546.4184 399.11087 546.2527 399.87323Q546.0759 400.62454 545.46826 401.2322Q544.56226 402.13818 543.358 402.08295Q542.1537 402.0056 541.10406 400.956L541.0488 400.90076ZM541.92163 400.22678Q542.6619 400.96704 543.4574 401.0775Q544.2639 401.17697 544.83844 400.60245Q545.4241 400.01688 545.31354 399.22137Q545.192 398.41483 544.3634 397.58618Q543.63416 396.857 542.82764 396.75754Q542.0211 396.63602 541.43555 397.2216Q540.8721 397.78506 540.9715 398.5916Q541.0709 399.37604 541.92163 400.22678ZM544.72797 392.82425L545.31354 393.36563Q545.192 392.20554 546.0207 391.3769Q547.4459 389.95163 549.059 391.54263L552.02 394.50363L551.24664 395.27704L548.27454 392.305Q547.7995 391.8299 547.3465 391.81885Q546.90454 391.79675 546.4405 392.2608Q546.0649 392.63644 545.97644 393.1226Q545.8991 393.59766 546.0649 394.07275L549.2579 397.26578L548.49554 398.02814L544.0098 393.54242L544.72797 392.82425ZM549.67773 387.8745L550.2633 388.4159Q550.1418 387.2558 550.9704 386.42715Q552.3957 385.0019 554.0088 386.5929L556.9698 389.5539L556.19635 390.3273L553.2243 387.35522Q552.7492 386.88016 552.29626 386.8691Q551.8543 386.84702 551.39026 387.31104Q551.0146 387.68668 550.9262 388.17282Q550.8489 388.64792 551.0146 389.12302L554.20764 392.31604L553.4453 393.07837L548.9596 388.59268L549.67773 387.8745ZM560.3396 386.36087Q559.42255 387.2779 558.2514 387.2558Q557.08026 387.2116 556.0748 386.20618L555.94226 386.0736Q555.2683 385.39963 555.0031 384.62625Q554.7269 383.8418 554.89264 383.10153Q555.05835 382.3392 555.5887 381.80887Q556.46155 380.93604 557.5222 381.0244Q558.5829 381.1128 559.65454 382.1845L559.975 382.5049L556.93665 385.54327Q557.62164 386.18408 558.395 386.22827Q559.1795 386.26144 559.754 385.6869Q560.15173 385.28915 560.2622 384.84723Q560.3838 384.39423 560.32855 383.89703L561.15717 383.7976Q561.46655 385.23392 560.3396 386.36087ZM556.21844 382.43863Q555.75446 382.90268 555.77655 383.56558Q555.79865 384.2064 556.34 384.88037L558.5829 382.6375L558.5276 382.58228Q557.9089 382.02985 557.3012 381.9967Q556.7046 381.95248 556.21844 382.43863Z" fill-rule="nonzero"/><path fill="#000000" d="M562.2165 454.86182L564.5809 457.2262L563.7854 458.0217L557.75287 451.9892L559.9847 449.7574Q560.968 448.77408 562.03973 448.71884Q563.1004 448.65253 563.94006 449.49222Q564.8129 450.36505 564.73553 451.39258Q564.66925 452.40903 563.6418 453.43655L562.2165 454.86182ZM561.56464 454.20996L563.0009 452.77365Q563.6418 452.1328 563.6749 451.50305Q563.7191 450.86224 563.15564 450.29877Q562.61426 449.7574 561.95135 449.77948Q561.2884 449.77948 560.6807 450.36505L559.20026 451.84555L561.56464 454.20996ZM569.6632 449.88998L567.35406 445.4816L568.17163 444.664L571.5525 451.6467Q572.2486 453.18243 571.3426 454.0884L571.1769 454.23206L570.8454 454.45303L570.2267 453.8343L570.4366 453.64648Q570.83435 453.24872 570.8896 452.88412Q570.9559 452.50848 570.6797 451.945L570.38135 451.31525L564.3489 448.48682L565.18854 447.64713L569.6632 449.88998ZM571.9392 442.26648Q571.74036 442.42114 571.54144 442.62003Q570.7791 443.3824 571.1548 444.28836L574.33673 447.47034L573.5744 448.2327L569.0887 443.74698L569.8289 443.00674L570.35925 443.51495Q570.1383 442.5427 570.83435 441.84662Q571.0553 441.62567 571.2321 441.55936L571.9392 442.26648ZM578.34735 443.6365Q577.43036 444.55353 576.2592 444.53143Q575.0881 444.48724 574.08264 443.4818L573.9501 443.34924Q573.27606 442.67526 573.0109 441.9019Q572.7347 441.11743 572.90045 440.37717Q573.06616 439.61484 573.5965 439.0845Q574.4693 438.21167 575.52997 438.30005Q576.59064 438.38843 577.66235 439.46014L577.9828 439.78055L574.9444 442.8189Q575.6294 443.45972 576.40283 443.5039Q577.18726 443.53705 577.7618 442.96252Q578.15955 442.5648 578.27 442.12283Q578.39154 441.66986 578.3363 441.17267L579.165 441.07324Q579.4743 442.50955 578.34735 443.6365ZM574.22626 439.71426Q573.7622 440.1783 573.7843 440.84122Q573.8064 441.48203 574.3478 442.156L576.59064 439.91315L576.5354 439.8579Q575.9167 439.30548 575.309 439.2723Q574.7124 439.22812 574.22626 439.71426ZM572.18225 436.89688L573.11035 435.9688L573.2098 438.30005L572.59106 438.91876L572.18225 436.89688ZM576.8779 435.95776L577.4635 436.49915Q577.3419 435.33905 578.1706 434.5104Q579.5958 433.08514 581.2089 434.67612L584.1699 437.63715L583.39655 438.41052L580.4245 435.43848Q579.9494 434.96338 579.4964 434.95233Q579.05444 434.93024 578.59045 435.3943Q578.2148 435.76993 578.1264 436.25607Q578.0491 436.73117 578.2148 437.20624L581.40784 440.39926L580.64545 441.16162L576.1597 436.6759L576.8779 435.95776ZM587.53973 434.44412Q586.62274 435.36115 585.4516 435.33905Q584.28046 435.29486 583.275 434.28943L583.14246 434.15686Q582.46844 433.48288 582.2033 432.7095Q581.9271 431.92505 582.09283 431.18478Q582.25854 430.42245 582.7889 429.89212Q583.66174 429.0193 584.72235 429.10767Q585.783 429.19604 586.85474 430.26776L587.1752 430.58817L584.1368 433.62653Q584.82184 434.26733 585.5952 434.31152Q586.37964 434.34467 586.95416 433.77014Q587.3519 433.3724 587.4624 432.93045Q587.5839 432.47748 587.5287 431.9803L588.35736 431.88086Q588.6667 433.31717 587.53973 434.44412ZM583.41864 430.52188Q582.9546 430.9859 582.9767 431.64883Q582.9988 432.28964 583.54016 432.9636L585.783 430.72076L585.7278 430.6655Q585.1091 430.11307 584.5014 430.07993Q583.9048 430.03574 583.41864 430.52188ZM581.3747 427.7045L582.30273 426.77643L582.40216 429.10767L581.78345 429.72638L581.3747 427.7045ZM591.7824 430.20148Q590.86536 431.1185 589.6942 431.0964Q588.5231 431.05222 587.51764 430.04678L587.3851 429.9142Q586.7111 429.24023 586.4459 428.46686Q586.16974 427.6824 586.33545 426.94214Q586.5012 426.1798 587.0315 425.64948Q587.90436 424.77664 588.965 424.86502Q590.0257 424.9534 591.0974 426.02512L591.4178 426.34552L588.37946 429.38388Q589.06445 430.0247 589.8378 430.06888Q590.6223 430.10202 591.19684 429.5275Q591.59454 429.12976 591.7051 428.6878Q591.8266 428.23483 591.77136 427.73764L592.6 427.6382Q592.90936 429.07452 591.7824 430.20148ZM587.6613 426.27924Q587.19727 426.7433 587.21936 427.4062Q587.24146 428.047 587.78284 428.72098L590.0257 426.47812L589.97046 426.42288Q589.35175 425.87045 588.744 425.83728Q588.1474 425.7931 587.6613 426.27924ZM595.4947 423.9259Q595.18536 423.61655 594.77655 423.69388Q594.36774 423.7491 593.66064 424.21317Q592.9646 424.66614 592.4453 424.83188Q591.926 424.99762 591.52826 424.9313Q591.13055 424.84293 590.7991 424.51147Q590.24664 423.95905 590.335 423.11935Q590.41235 422.26862 591.1416 421.5394Q591.90393 420.77707 592.7657 420.7108Q593.6275 420.62238 594.23517 421.23004L593.47284 421.9924Q593.16345 421.68304 592.66626 421.73828Q592.16907 421.77142 591.77136 422.1692Q591.3515 422.58902 591.29626 423.01993Q591.241 423.4287 591.52826 423.71597Q591.8045 423.9922 592.16907 423.91486Q592.5337 423.8375 593.2408 423.39557Q593.9369 422.94257 594.46716 422.7658Q594.9975 422.58902 595.41736 422.6774Q595.84827 422.75476 596.2018 423.1083Q596.8095 423.71597 596.6879 424.5667Q596.57745 425.4064 595.8151 426.16876Q595.27374 426.71014 594.6661 426.94214Q594.0584 427.15207 593.4839 427.0416Q592.90936 426.9311 592.5116 426.53336L593.2739 425.771Q593.68274 426.1356 594.202 426.08035Q594.71027 426.01407 595.18536 425.53897Q595.6162 425.1081 595.70465 424.66614Q595.793 424.2242 595.4947 423.9259ZM597.9475 419.28552Q597.2956 418.63364 597.0194 417.84918Q596.7542 417.0537 596.9421 416.31345Q597.11884 415.56213 597.7044 414.97656Q598.62146 414.05954 599.8147 414.12582Q601.019 414.1811 602.07965 415.24173L602.1349 415.297Q602.78674 415.94885 603.0519 416.72226Q603.3171 417.49564 603.15137 418.258Q602.97455 419.0093 602.3669 419.61697Q601.46094 420.52295 600.25665 420.4677Q599.0523 420.39035 598.00275 419.34076L597.9475 419.28552ZM598.8203 418.61154Q599.56055 419.3518 600.3561 419.46228Q601.1626 419.5617 601.7371 418.98718Q602.3227 418.4016 602.2122 417.60614Q602.0907 416.7996 601.262 415.97095Q600.53284 415.24173 599.7263 415.1423Q598.91974 415.02078 598.33417 415.60635Q597.7707 416.16983 597.8701 416.97635Q597.9696 417.7608 598.8203 418.61154ZM603.75903 410.4467Q603.5601 410.60135 603.36127 410.80023Q602.59894 411.56256 602.97455 412.46857L606.15656 415.65054L605.3942 416.41287L600.9085 411.9272L601.64874 411.18692L602.1791 411.69516Q601.9581 410.7229 602.6542 410.02682Q602.8751 409.80585 603.0519 409.73956L603.75903 410.4467ZM609.0513 412.75583L608.28894 413.51816L603.8032 409.03247L604.56555 408.2701L609.0513 412.75583ZM602.55475 407.91656Q602.3669 407.72873 602.3448 407.48566Q602.33374 407.23154 602.55475 407.0106Q602.7757 406.7896 603.01874 406.8117Q603.2729 406.82275 603.4607 407.0106Q603.6375 407.18735 603.64856 407.44147Q603.6596 407.6735 603.4386 407.89447Q603.21765 408.11542 602.97455 408.11542Q602.7315 408.09332 602.55475 407.91656ZM612.2885 409.69537Q611.37146 410.6124 610.2003 410.5903Q609.0292 410.5461 608.02374 409.54068L607.8912 409.4081Q607.2172 408.73416 606.952 407.96075Q606.67584 407.1763 606.84155 406.43607Q607.00726 405.6737 607.5376 405.14337Q608.41046 404.27054 609.4711 404.35892Q610.5318 404.44733 611.60345 405.519L611.9239 405.83942L608.88556 408.87778Q609.57056 409.5186 610.34393 409.56277Q611.1284 409.59595 611.70294 409.02142Q612.10065 408.62366 612.2112 408.18173Q612.3327 407.72873 612.27747 407.23154L613.1061 407.1321Q613.41547 408.56842 612.2885 409.69537ZM608.16736 405.77313Q607.70337 406.23718 607.72546 406.9001Q607.74756 407.5409 608.28894 408.21487L610.5318 405.97202L610.4765 405.91678Q609.8578 405.36435 609.2501 405.3312Q608.6535 405.28702 608.16736 405.77313ZM610.81903 402.01663L611.4046 402.558Q611.2831 401.39792 612.1117 400.56927Q613.537 399.144 615.1501 400.73502L618.1111 403.696L617.33765 404.46942L614.3656 401.49734Q613.8905 401.02228 613.43756 401.01123Q612.9956 400.9891 612.53156 401.45316Q612.1559 401.8288 612.0675 402.31494Q611.9902 402.79004 612.1559 403.2651L615.34894 406.45816L614.5866 407.2205L610.1009 402.7348L610.81903 402.01663ZM615.0064 395.66373L616.0892 396.7465L616.91785 395.91785L617.51447 396.51447L616.6858 397.3431L619.459 400.11627Q619.7352 400.3925 619.9783 400.41458Q620.2214 400.4367 620.4865 400.17154Q620.6191 400.03894 620.80695 399.76273L621.42566 400.38144Q621.2157 400.76816 620.92847 401.05542Q620.4202 401.56363 619.8457 401.51944Q619.26013 401.4642 618.6856 400.88968L615.9124 398.1165L615.09485 398.93408L614.4982 398.33746L615.3158 397.51987L614.23303 396.43713L615.0064 395.66373ZM625.1269 396.68018Q624.92804 396.6139 624.5413 396.31558Q624.57446 397.4094 623.8342 398.14966Q623.1713 398.81256 622.36475 398.8678Q621.5693 398.912 620.9837 398.32642Q620.28766 397.63037 620.4313 396.71335Q620.5749 395.7963 621.5472 394.82404L622.2874 394.08377L621.9339 393.73022Q621.53613 393.3325 621.06104 393.34354Q620.58594 393.3325 620.11084 393.80756Q619.7021 394.21637 619.6358 394.70248Q619.5584 395.17758 619.85675 395.4759L619.0834 396.2493Q618.74084 395.9068 618.6635 395.36542Q618.5972 394.813 618.8292 394.22742Q619.0502 393.6308 619.5363 393.14465Q620.3208 392.3602 621.13837 392.316Q621.96704 392.26077 622.6631 392.91263L624.7291 394.9787Q625.3479 395.59744 625.8671 395.80734L625.9335 395.87366L625.1269 396.68018ZM623.27075 397.3652Q623.6354 397.0006 623.76794 396.49237Q623.9005 395.98413 623.74585 395.54218L622.8288 394.62515L622.2322 395.22177Q620.818 396.636 621.6466 397.46463Q622.0002 397.81818 622.4531 397.78503Q622.8951 397.74084 623.27075 397.3652ZM628.1431 393.66394L627.3808 394.4263L621.01685 388.06232L621.7792 387.3L628.1431 393.66394ZM631.3804 390.6035Q630.4633 391.5205 629.2922 391.4984Q628.12103 391.45422 627.11566 390.44882L626.98303 390.31622Q626.3091 389.64227 626.04395 388.86887Q625.7677 388.0844 625.9335 387.34418Q626.0992 386.58182 626.6295 386.05148Q627.5023 385.17865 628.563 385.26703Q629.62366 385.35544 630.6954 386.42715L631.01575 386.74756L627.9774 389.7859Q628.6624 390.42673 629.43585 390.47092Q630.2203 390.50406 630.7948 389.92953Q631.19257 389.53177 631.30304 389.08984Q631.42456 388.63684 631.3693 388.13968L632.19794 388.04022Q632.5073 389.47653 631.3804 390.6035ZM627.2593 386.68124Q626.7952 387.1453 626.8173 387.8082Q626.8394 388.44904 627.3808 389.123L629.62366 386.88013L629.5684 386.8249Q628.9497 386.27246 628.34204 386.23932Q627.7454 386.19513 627.2593 386.68124ZM635.0927 384.3279Q634.7833 384.01855 634.3745 384.0959Q633.96576 384.15115 633.2586 384.61517Q632.56256 385.06818 632.0433 385.2339Q631.524 385.39963 631.1263 385.33334Q630.7285 385.24493 630.39703 384.91348Q629.8446 384.36105 629.93304 383.52136Q630.0104 382.67062 630.73956 381.94144Q631.5019 381.17908 632.3637 381.1128Q633.22546 381.0244 633.8331 381.63208L633.0708 382.3944Q632.7614 382.08505 632.2643 382.14032Q631.7671 382.17346 631.3693 382.5712Q630.94946 382.99103 630.8942 383.42194Q630.839 383.83072 631.1263 384.11798Q631.40247 384.3942 631.7671 384.31686Q632.13165 384.23953 632.8388 383.79758Q633.53485 383.3446 634.0652 383.16782Q634.5955 382.99103 635.0153 383.07944Q635.4462 383.15677 635.7998 383.5103Q636.4075 384.11798 636.28595 384.96872Q636.1754 385.8084 635.4131 386.57077Q634.8717 387.11215 634.26404 387.34418Q633.6564 387.55408 633.08185 387.4436Q632.5073 387.33313 632.10956 386.93536L632.87195 386.17303Q633.2807 386.53763 633.8 386.4824Q634.3082 386.41608 634.7833 385.941Q635.21423 385.5101 635.3026 385.06818Q635.391 384.62622 635.0927 384.3279Z" fill-rule="nonzero"/><path fill="#000000" d="M694.4331 391.89615L692.4885 393.8407L697.8692 399.22134L697.0847 400.00577L691.7041 394.62515L689.7595 396.56967L689.10767 395.91782L693.7812 391.2443L694.4331 391.89615ZM703.2388 393.85175Q703.0399 393.78546 702.6532 393.48715Q702.68634 394.58093 701.9461 395.3212Q701.2832 395.9841 700.4766 396.03937Q699.68115 396.08356 699.0956 395.498Q698.3995 394.8019 698.54315 393.8849Q698.68677 392.96786 699.65906 391.99557L700.3993 391.25534L700.0457 390.9018Q699.648 390.50403 699.1729 390.51508Q698.6978 390.50403 698.2227 390.97913Q697.8139 391.3879 697.7476 391.87405Q697.6703 392.34915 697.9686 392.64746L697.1952 393.42084Q696.8527 393.07834 696.7754 392.53696Q696.7091 391.98453 696.9411 391.39896Q697.16205 390.80234 697.6482 390.31622Q698.4327 389.53177 699.25024 389.48758Q700.07886 389.4323 700.77496 390.0842L702.841 392.15027Q703.4597 392.76898 703.979 392.9789L704.0453 393.0452L703.2388 393.85175ZM701.3826 394.53674Q701.7472 394.17215 701.8798 393.6639Q702.0124 393.15567 701.8577 392.71375L700.9407 391.79672L700.34406 392.39334Q698.9298 393.80756 699.7585 394.6362Q700.112 394.98975 700.565 394.9566Q701.00696 394.9124 701.3826 394.53674ZM703.7912 385.6979Q703.59235 385.8526 703.39343 386.05148Q702.6311 386.8138 703.0068 387.7198L706.1887 390.9018L705.4264 391.66412L700.9407 387.17844L701.6809 386.43817L702.21124 386.9464Q701.9903 385.97412 702.68634 385.27808Q702.9073 385.0571 703.0841 384.9908L703.7912 385.6979ZM704.48724 383.63184L705.0728 384.17322Q704.9513 383.01312 705.7799 382.18448Q707.2052 380.75922 708.8183 382.35022L711.7793 385.31122L711.0059 386.08463L708.0338 383.11255Q707.5588 382.63748 707.1058 382.62643Q706.6638 382.60434 706.19977 383.06836Q705.8241 383.444 705.7357 383.93015Q705.6584 384.40524 705.8241 384.88034L709.01715 388.07336L708.2548 388.8357L703.7691 384.35L704.48724 383.63184Z" fill-rule="nonzero"/><path fill="#757575" d="M29.89375 36.70625Q27.471874 36.01875 26.378124 35.01875Q25.284374 34.003124 25.284374 32.51875Q25.284374 30.83125 26.628124 29.7375Q27.971874 28.628124 30.1125 28.628124Q31.58125 28.628124 32.721874 29.20625Q33.878124 29.76875 34.503124 30.76875Q35.128124 31.753124 35.128124 32.940624L33.253124 32.940624Q33.253124 31.659374 32.425 30.925Q31.6125 30.175 30.1125 30.175Q28.721874 30.175 27.940624 30.784374Q27.175 31.39375 27.175 32.4875Q27.175 33.346874 27.909374 33.95625Q28.64375 34.55 30.409374 35.05Q32.190624 35.55 33.190624 36.159374Q34.190624 36.753124 34.675 37.55Q35.159374 38.346874 35.159374 39.440624Q35.159374 41.159374 33.815624 42.20625Q32.471874 43.253124 30.20625 43.253124Q28.753124 43.253124 27.471874 42.690624Q26.20625 42.128124 25.51875 41.159374Q24.83125 40.175 24.83125 38.925L26.721874 38.925Q26.721874 40.221874 27.675 40.971874Q28.628124 41.70625 30.20625 41.70625Q31.690624 41.70625 32.4875 41.1125Q33.284374 40.503124 33.284374 39.45625Q33.284374 38.409374 32.55 37.846874Q31.815624 37.26875 29.89375 36.70625ZM36.940624 37.675Q36.940624 36.1125 37.55 34.878124Q38.159374 33.628124 39.2375 32.95625Q40.33125 32.284374 41.7375 32.284374Q43.89375 32.284374 45.221874 33.784374Q46.565624 35.26875 46.565624 37.753124L46.565624 37.878124Q46.565624 39.425 45.971874 40.659374Q45.378124 41.878124 44.26875 42.565624Q43.175 43.253124 41.753124 43.253124Q39.6125 43.253124 38.26875 41.753124Q36.940624 40.253124 36.940624 37.8L36.940624 37.675ZM38.753124 37.878124Q38.753124 39.64375 39.565624 40.70625Q40.39375 41.76875 41.753124 41.76875Q43.128124 41.76875 43.940624 40.690624Q44.753124 39.6125 44.753124 37.675Q44.753124 35.925 43.925 34.846874Q43.096874 33.76875 41.7375 33.76875Q40.39375 33.76875 39.565624 34.83125Q38.753124 35.89375 38.753124 37.878124ZM53.51875 34.096874Q53.1125 34.034374 52.64375 34.034374Q50.8625 34.034374 50.221874 35.55L50.221874 43.05L48.425 43.05L48.425 32.4875L50.175 32.4875L50.20625 33.70625Q51.096874 32.284374 52.721874 32.284374Q53.253124 32.284374 53.51875 32.425L53.51875 34.096874ZM57.8625 29.925L57.8625 32.4875L59.846874 32.4875L59.846874 33.878124L57.8625 33.878124L57.8625 40.425Q57.8625 41.065624 58.128124 41.39375Q58.39375 41.70625 59.034374 41.70625Q59.346874 41.70625 59.89375 41.58125L59.89375 43.05Q59.175 43.253124 58.503124 43.253124Q57.3 43.253124 56.675 42.51875Q56.065624 41.784374 56.065624 40.425L56.065624 33.878124L54.14375 33.878124L54.14375 32.4875L56.065624 32.4875L56.065624 29.925L57.8625 29.925ZM64.37813 43.05L62.58125 43.05L62.58125 32.4875L64.37813 32.4875L64.37813 43.05ZM62.425 29.675Q62.425 29.2375 62.690624 28.940624Q62.971874 28.628124 63.4875 28.628124Q64.01875 28.628124 64.28438 28.940624Q64.56563 29.2375 64.56563 29.675Q64.56563 30.1125 64.28438 30.409374Q64.01875 30.70625 63.4875 30.70625Q62.971874 30.70625 62.690624 30.409374Q62.425 30.1125 62.425 29.675ZM71.8 43.253124Q69.65938 43.253124 68.3 41.846874Q66.95625 40.425 66.95625 38.065624L66.95625 37.721874Q66.95625 36.159374 67.55 34.925Q68.15938 33.690624 69.2375 32.9875Q70.31563 32.284374 71.58125 32.284374Q73.64375 32.284374 74.78438 33.64375Q75.925 35.003124 75.925 37.534374L75.925 38.284374L68.76875 38.284374Q68.8 39.846874 69.675 40.815624Q70.55 41.76875 71.89375 41.76875Q72.8625 41.76875 73.51875 41.378124Q74.19063 40.9875 74.69063 40.346874L75.78438 41.20625Q74.45625 43.253124 71.8 43.253124ZM71.58125 33.76875Q70.4875 33.76875 69.7375 34.565624Q69.00313 35.3625 68.83125 36.8L74.1125 36.8L74.1125 36.659374Q74.03438 35.284374 73.3625 34.534374Q72.70625 33.76875 71.58125 33.76875ZM84.56563 40.253124Q84.56563 39.51875 84.01875 39.1125Q83.47188 38.70625 82.09688 38.409374Q80.72188 38.1125 79.90938 37.70625Q79.1125 37.3 78.72188 36.7375Q78.34688 36.159374 78.34688 35.378124Q78.34688 34.08125 79.44063 33.190624Q80.53438 32.284374 82.25313 32.284374Q84.05 32.284374 85.15938 33.221874Q86.28438 34.14375 86.28438 35.58125L84.45625 35.58125Q84.45625 34.846874 83.83125 34.315624Q83.20625 33.76875 82.25313 33.76875Q81.25313 33.76875 80.69063 34.20625Q80.14375 34.628124 80.14375 35.33125Q80.14375 35.971874 80.65938 36.315624Q81.175 36.64375 82.53438 36.95625Q83.89375 37.253124 84.72188 37.675Q85.56563 38.08125 85.97188 38.675Q86.37813 39.26875 86.37813 40.1125Q86.37813 41.534374 85.2375 42.39375Q84.1125 43.253124 82.3 43.253124Q81.03438 43.253124 80.05 42.8Q79.08125 42.346874 78.51875 41.55Q77.97188 40.7375 77.97188 39.8L79.78438 39.8Q79.83125 40.70625 80.50313 41.2375Q81.19063 41.76875 82.3 41.76875Q83.33125 41.76875 83.94063 41.3625Q84.56563 40.940624 84.56563 40.253124ZM97.89375 36.70625Q95.47188 36.01875 94.37813 35.01875Q93.28438 34.003124 93.28438 32.51875Q93.28438 30.83125 94.62813 29.7375Q95.97188 28.628124 98.1125 28.628124Q99.58125 28.628124 100.72188 29.20625Q101.87813 29.76875 102.50313 30.76875Q103.12813 31.753124 103.12813 32.940624L101.25313 32.940624Q101.25313 31.659374 100.425 30.925Q99.6125 30.175 98.1125 30.175Q96.72188 30.175 95.94063 30.784374Q95.175 31.39375 95.175 32.4875Q95.175 33.346874 95.90938 33.95625Q96.64375 34.55 98.40938 35.05Q100.19063 35.55 101.19063 36.159374Q102.19063 36.753124 102.675 37.55Q103.15938 38.346874 103.15938 39.440624Q103.15938 41.159374 101.81563 42.20625Q100.47188 43.253124 98.20625 43.253124Q96.75313 43.253124 95.47188 42.690624Q94.20625 42.128124 93.51875 41.159374Q92.83125 40.175 92.83125 38.925L94.72188 38.925Q94.72188 40.221874 95.675 40.971874Q96.62813 41.70625 98.20625 41.70625Q99.69063 41.70625 100.4875 41.1125Q101.28438 40.503124 101.28438 39.45625Q101.28438 38.409374 100.55 37.846874Q99.81563 37.26875 97.89375 36.70625ZM116.62813 43.05L114.7375 43.05L107.58125 32.096874L107.58125 43.05L105.70625 43.05L105.70625 28.83125L107.58125 28.83125L114.76875 39.83125L114.76875 28.83125L116.62813 28.83125L116.62813 43.05ZM127.7375 36.471874L121.58125 36.471874L121.58125 41.51875L128.7375 41.51875L128.7375 43.05L119.70625 43.05L119.70625 28.83125L128.64375 28.83125L128.64375 30.378124L121.58125 30.378124L121.58125 34.940624L127.7375 34.940624L127.7375 36.471874ZM144.34688 37.878124Q144.34688 40.3 143.2375 41.784374Q142.14375 43.253124 140.25313 43.253124Q138.33125 43.253124 137.22188 42.01875L137.22188 47.1125L135.425 47.1125L135.425 32.4875L137.06563 32.4875L137.15938 33.659374Q138.25313 32.284374 140.22188 32.284374Q142.12813 32.284374 143.2375 33.721874Q144.34688 35.159374 144.34688 37.721874L144.34688 37.878124ZM142.53438 37.675Q142.53438 35.89375 141.76875 34.8625Q141.01875 33.815624 139.69063 33.815624Q138.05 33.815624 137.22188 35.26875L137.22188 40.33125Q138.03438 41.76875 139.70625 41.76875Q141.00313 41.76875 141.76875 40.7375Q142.53438 39.70625 142.53438 37.675ZM152.94063 43.05Q152.78438 42.7375 152.69063 41.940624Q151.425 43.253124 149.675 43.253124Q148.1125 43.253124 147.1125 42.3625Q146.1125 41.471874 146.1125 40.1125Q146.1125 38.471874 147.3625 37.565624Q148.62813 36.64375 150.89375 36.64375L152.65938 36.64375L152.65938 35.815624Q152.65938 34.8625 152.08125 34.3Q151.51875 33.7375 150.425 33.7375Q149.45625 33.7375 148.8 34.2375Q148.14375 34.721874 148.14375 35.409374L146.33125 35.409374Q146.33125 34.628124 146.89375 33.89375Q147.45625 33.14375 148.40938 32.721874Q149.37813 32.284374 150.53438 32.284374Q152.3625 32.284374 153.39375 33.20625Q154.425 34.1125 154.47188 35.721874L154.47188 40.58125Q154.47188 42.034374 154.83125 42.89375L154.83125 43.05L152.94063 43.05ZM149.94063 41.675Q150.8 41.675 151.55 41.2375Q152.31563 40.8 152.65938 40.096874L152.65938 37.925L151.2375 37.925Q147.925 37.925 147.925 39.8625Q147.925 40.721874 148.4875 41.20625Q149.05 41.675 149.94063 41.675ZM162.51875 34.096874Q162.1125 34.034374 161.64375 34.034374Q159.8625 34.034374 159.22188 35.55L159.22188 43.05L157.425 43.05L157.425 32.4875L159.175 32.4875L159.20625 33.70625Q160.09688 32.284374 161.72188 32.284374Q162.25313 32.284374 162.51875 32.425L162.51875 34.096874ZM168.97188 37.675Q168.97188 35.253124 170.12813 33.76875Q171.28438 32.284374 173.14375 32.284374Q175.00313 32.284374 176.08125 33.55L176.08125 28.05L177.89375 28.05L177.89375 43.05L176.2375 43.05L176.14375 41.909374Q175.06563 43.253124 173.12813 43.253124Q171.3 43.253124 170.12813 41.753124Q168.97188 40.2375 168.97188 37.815624L168.97188 37.675ZM170.78438 37.878124Q170.78438 39.675 171.51875 40.690624Q172.26875 41.70625 173.58125 41.70625Q175.3 41.70625 176.08125 40.175L176.08125 35.315624Q175.28438 33.815624 173.59688 33.815624Q172.26875 33.815624 171.51875 34.846874Q170.78438 35.878124 170.78438 37.878124ZM184.8 43.253124Q182.65938 43.253124 181.3 41.846874Q179.95625 40.425 179.95625 38.065624L179.95625 37.721874Q179.95625 36.159374 180.55 34.925Q181.15938 33.690624 182.2375 32.9875Q183.31563 32.284374 184.58125 32.284374Q186.64375 32.284374 187.78438 33.64375Q188.925 35.003124 188.925 37.534374L188.925 38.284374L181.76875 38.284374Q181.8 39.846874 182.675 40.815624Q183.55 41.76875 184.89375 41.76875Q185.8625 41.76875 186.51875 41.378124Q187.19063 40.9875 187.69063 40.346874L188.78438 41.20625Q187.45625 43.253124 184.8 43.253124ZM184.58125 33.76875Q183.4875 33.76875 182.7375 34.565624Q182.00313 35.3625 181.83125 36.8L187.1125 36.8L187.1125 36.659374Q187.03438 35.284374 186.3625 34.534374Q185.70625 33.76875 184.58125 33.76875ZM185.14375 28.05L187.33125 28.05L184.70625 30.925L183.25313 30.925L185.14375 28.05ZM200.34688 37.878124Q200.34688 40.3 199.2375 41.784374Q198.14375 43.253124 196.25313 43.253124Q194.33125 43.253124 193.22188 42.01875L193.22188 47.1125L191.425 47.1125L191.425 32.4875L193.06563 32.4875L193.15938 33.659374Q194.25313 32.284374 196.22188 32.284374Q198.12813 32.284374 199.2375 33.721874Q200.34688 35.159374 200.34688 37.721874L200.34688 37.878124ZM198.53438 37.675Q198.53438 35.89375 197.76875 34.8625Q197.01875 33.815624 195.69063 33.815624Q194.05 33.815624 193.22188 35.26875L193.22188 40.33125Q194.03438 41.76875 195.70625 41.76875Q197.00313 41.76875 197.76875 40.7375Q198.53438 39.70625 198.53438 37.675ZM208.94063 43.05Q208.78438 42.7375 208.69063 41.940624Q207.425 43.253124 205.675 43.253124Q204.1125 43.253124 203.1125 42.3625Q202.1125 41.471874 202.1125 40.1125Q202.1125 38.471874 203.3625 37.565624Q204.62813 36.64375 206.89375 36.64375L208.65938 36.64375L208.65938 35.815624Q208.65938 34.8625 208.08125 34.3Q207.51875 33.7375 206.425 33.7375Q205.45625 33.7375 204.8 34.2375Q204.14375 34.721874 204.14375 35.409374L202.33125 35.409374Q202.33125 34.628124 202.89375 33.89375Q203.45625 33.14375 204.40938 32.721874Q205.37813 32.284374 206.53438 32.284374Q208.3625 32.284374 209.39375 33.20625Q210.425 34.1125 210.47188 35.721874L210.47188 40.58125Q210.47188 42.034374 210.83125 42.89375L210.83125 43.05L208.94063 43.05ZM205.94063 41.675Q206.8 41.675 207.55 41.2375Q208.31563 40.8 208.65938 40.096874L208.65938 37.925L207.2375 37.925Q203.925 37.925 203.925 39.8625Q203.925 40.721874 204.4875 41.20625Q205.05 41.675 205.94063 41.675ZM218.51875 34.096874Q218.1125 34.034374 217.64375 34.034374Q215.8625 34.034374 215.22188 35.55L215.22188 43.05L213.425 43.05L213.425 32.4875L215.175 32.4875L215.20625 33.70625Q216.09688 32.284374 217.72188 32.284374Q218.25313 32.284374 218.51875 32.425L218.51875 34.096874ZM222.8625 29.925L222.8625 32.4875L224.84688 32.4875L224.84688 33.878124L222.8625 33.878124L222.8625 40.425Q222.8625 41.065624 223.12813 41.39375Q223.39375 41.70625 224.03438 41.70625Q224.34688 41.70625 224.89375 41.58125L224.89375 43.05Q224.175 43.253124 223.50313 43.253124Q222.3 43.253124 221.675 42.51875Q221.06563 41.784374 221.06563 40.425L221.06563 33.878124L219.14375 33.878124L219.14375 32.4875L221.06563 32.4875L221.06563 29.925L222.8625 29.925ZM231.8 43.253124Q229.65938 43.253124 228.3 41.846874Q226.95625 40.425 226.95625 38.065624L226.95625 37.721874Q226.95625 36.159374 227.55 34.925Q228.15938 33.690624 229.2375 32.9875Q230.31563 32.284374 231.58125 32.284374Q233.64375 32.284374 234.78438 33.64375Q235.925 35.003124 235.925 37.534374L235.925 38.284374L228.76875 38.284374Q228.8 39.846874 229.675 40.815624Q230.55 41.76875 231.89375 41.76875Q232.8625 41.76875 233.51875 41.378124Q234.19063 40.9875 234.69063 40.346874L235.78438 41.20625Q234.45625 43.253124 231.8 43.253124ZM231.58125 33.76875Q230.4875 33.76875 229.7375 34.565624Q229.00313 35.3625 228.83125 36.8L234.1125 36.8L234.1125 36.659374Q234.03438 35.284374 233.3625 34.534374Q232.70625 33.76875 231.58125 33.76875ZM240.1125 32.4875L240.15938 33.659374Q241.33125 32.284374 243.3 32.284374Q245.51875 32.284374 246.31563 33.9875Q246.84688 33.221874 247.69063 32.753124Q248.53438 32.284374 249.69063 32.284374Q253.15938 32.284374 253.22188 35.971874L253.22188 43.05L251.40938 43.05L251.40938 36.08125Q251.40938 34.940624 250.89375 34.378124Q250.37813 33.815624 249.15938 33.815624Q248.15938 33.815624 247.4875 34.425Q246.83125 35.01875 246.72188 36.034374L246.72188 43.05L244.90938 43.05L244.90938 36.128124Q244.90938 33.815624 242.64375 33.815624Q240.8625 33.815624 240.22188 35.33125L240.22188 43.05L238.40938 43.05L238.40938 32.4875L240.1125 32.4875ZM260.8 43.253124Q258.65936 43.253124 257.3 41.846874Q255.95625 40.425 255.95625 38.065624L255.95625 37.721874Q255.95625 36.159374 256.55 34.925Q257.15936 33.690624 258.2375 32.9875Q259.3156 32.284374 260.58124 32.284374Q262.64374 32.284374 263.78436 33.64375Q264.925 35.003124 264.925 37.534374L264.925 38.284374L257.76874 38.284374Q257.8 39.846874 258.675 40.815624Q259.55 41.76875 260.89374 41.76875Q261.8625 41.76875 262.51874 41.378124Q263.1906 40.9875 263.6906 40.346874L264.78436 41.20625Q263.45624 43.253124 260.8 43.253124ZM260.58124 33.76875Q259.4875 33.76875 258.7375 34.565624Q258.0031 35.3625 257.83124 36.8L263.1125 36.8L263.1125 36.659374Q263.03436 35.284374 262.3625 34.534374Q261.70624 33.76875 260.58124 33.76875ZM269.1281 32.4875L269.1906 33.815624Q270.39374 32.284374 272.34686 32.284374Q275.70624 32.284374 275.72186 36.065624L275.72186 43.05L273.925 43.05L273.925 36.05Q273.90936 34.909374 273.39374 34.3625Q272.89374 33.815624 271.8 33.815624Q270.925 33.815624 270.2531 34.284374Q269.59686 34.753124 269.22186 35.51875L269.22186 43.05L267.425 43.05L267.425 32.4875L269.1281 32.4875ZM280.8625 29.925L280.8625 32.4875L282.84686 32.4875L282.84686 33.878124L280.8625 33.878124L280.8625 40.425Q280.8625 41.065624 281.1281 41.39375Q281.39374 41.70625 282.03436 41.70625Q282.34686 41.70625 282.89374 41.58125L282.89374 43.05Q282.175 43.253124 281.5031 43.253124Q280.3 43.253124 279.675 42.51875Q279.0656 41.784374 279.0656 40.425L279.0656 33.878124L277.14374 33.878124L277.14374 32.4875L279.0656 32.4875L279.0656 29.925L280.8625 29.925Z" fill-rule="nonzero"/></svg>