<svg version="1.1" viewBox="0.0 0.0 723.0 447.0" fill="none" stroke="none" stroke-linecap="square" stroke-miterlimit="10" width="723" height="447" xmlns:xlink="http://www.w3.org/1999/xlink" xmlns="http://www.w3.org/2000/svg"><path fill="#ffffff" d="M0 0L723.0 0L723.0 447.0L0 447.0L0 0Z" fill-rule="nonzero"/><path stroke="#333333" stroke-width="1.0" stroke-linecap="butt" d="M49.5 332.5L700.5 332.5" fill-rule="nonzero"/><path stroke="#cccccc" stroke-width="1.0" stroke-linecap="butt" d="M49.5 279.5L700.5 279.5" fill-rule="nonzero"/><path stroke="#cccccc" stroke-width="1.0" stroke-linecap="butt" d="M49.5 227.5L700.5 227.5" fill-rule="nonzero"/><path stroke="#cccccc" stroke-width="1.0" stroke-linecap="butt" d="M49.5 174.5L700.5 174.5" fill-rule="nonzero"/><path stroke="#cccccc" stroke-width="1.0" stroke-linecap="butt" d="M49.5 121.5L700.5 121.5" fill-rule="nonzero"/><path stroke="#cccccc" stroke-width="1.0" stroke-linecap="butt" d="M49.5 68.5L700.5 68.5" fill-rule="nonzero"/><clipPath id="id_0"><path d="M49.35 68.75L700.65 68.75L700.65 332.7365L49.35 332.7365L49.35 68.75Z" clip-rule="nonzero"/></clipPath><path stroke="#000000" stroke-width="2.0" stroke-linecap="butt" stroke-opacity="0.0" clip-path="url(#id_0)" d="M119.0 333.0L74.0 333.0L74.0 329.0C74.0 327.89542 74.89543 327.0 76.0 327.0L117.0 327.0C118.10457 327.0 119.0 327.89542 119.0 329.0Z" fill-rule="nonzero"/><path fill="#4285f4" clip-path="url(#id_0)" d="M119.0 333.0L74.0 333.0L74.0 329.0C74.0 327.89542 74.89543 327.0 76.0 327.0L117.0 327.0C118.10457 327.0 119.0 327.89542 119.0 329.0Z" fill-rule="nonzero"/><path stroke="#000000" stroke-width="2.0" stroke-linecap="butt" stroke-opacity="0.0" clip-path="url(#id_0)" d="M189.0 333.0L144.0 333.0L144.0 314.0C144.0 312.89542 144.89543 312.0 146.0 312.0L187.0 312.0C188.10457 312.0 189.0 312.89542 189.0 314.0Z" fill-rule="nonzero"/><path fill="#4285f4" clip-path="url(#id_0)" d="M189.0 333.0L144.0 333.0L144.0 314.0C144.0 312.89542 144.89543 312.0 146.0 312.0L187.0 312.0C188.10457 312.0 189.0 312.89542 189.0 314.0Z" fill-rule="nonzero"/><path stroke="#000000" stroke-width="2.0" stroke-linecap="butt" stroke-opacity="0.0" clip-path="url(#id_0)" d="M259.0 333.0L214.0 333.0L214.0 324.0C214.0 322.89542 214.89543 322.0 216.0 322.0L257.0 322.0C258.10458 322.0 259.0 322.89542 259.0 324.0Z" fill-rule="nonzero"/><path fill="#4285f4" clip-path="url(#id_0)" d="M259.0 333.0L214.0 333.0L214.0 324.0C214.0 322.89542 214.89543 322.0 216.0 322.0L257.0 322.0C258.10458 322.0 259.0 322.89542 259.0 324.0Z" fill-rule="nonzero"/><path stroke="#000000" stroke-width="2.0" stroke-linecap="butt" stroke-opacity="0.0" clip-path="url(#id_0)" d="M328.0 333.0L283.0 333.0L283.0 271.0C283.0 269.89542 283.89542 269.0 285.0 269.0L326.0 269.0C327.10458 269.0 328.0 269.89542 328.0 271.0Z" fill-rule="nonzero"/><path fill="#4285f4" clip-path="url(#id_0)" d="M328.0 333.0L283.0 333.0L283.0 271.0C283.0 269.89542 283.89542 269.0 285.0 269.0L326.0 269.0C327.10458 269.0 328.0 269.89542 328.0 271.0Z" fill-rule="nonzero"/><path stroke="#000000" stroke-width="2.0" stroke-linecap="butt" stroke-opacity="0.0" clip-path="url(#id_0)" d="M398.0 333.0L353.0 333.0L353.0 92.0C353.0 90.89543 353.89542 90.0 355.0 90.0L396.0 90.0C397.10458 90.0 398.0 90.89543 398.0 92.0Z" fill-rule="nonzero"/><path fill="#4285f4" clip-path="url(#id_0)" d="M398.0 333.0L353.0 333.0L353.0 92.0C353.0 90.89543 353.89542 90.0 355.0 90.0L396.0 90.0C397.10458 90.0 398.0 90.89543 398.0 92.0Z" fill-rule="nonzero"/><path stroke="#000000" stroke-width="2.0" stroke-linecap="butt" stroke-opacity="0.0" clip-path="url(#id_0)" d="M468.0 333.0L423.0 333.0L423.0 329.0C423.0 327.89542 423.89542 327.0 425.0 327.0L466.0 327.0C467.10458 327.0 468.0 327.89542 468.0 329.0Z" fill-rule="nonzero"/><path fill="#4285f4" clip-path="url(#id_0)" d="M468.0 333.0L423.0 333.0L423.0 329.0C423.0 327.89542 423.89542 327.0 425.0 327.0L466.0 327.0C467.10458 327.0 468.0 327.89542 468.0 329.0Z" fill-rule="nonzero"/><path stroke="#000000" stroke-width="2.0" stroke-linecap="butt" stroke-opacity="0.0" clip-path="url(#id_0)" d="M537.0 333.0L492.0 333.0L492.0 324.0C492.0 322.89542 492.89542 322.0 494.0 322.0L535.0 322.0C536.10455 322.0 537.0 322.89542 537.0 324.0Z" fill-rule="nonzero"/><path fill="#4285f4" clip-path="url(#id_0)" d="M537.0 333.0L492.0 333.0L492.0 324.0C492.0 322.89542 492.89542 322.0 494.0 322.0L535.0 322.0C536.10455 322.0 537.0 322.89542 537.0 324.0Z" fill-rule="nonzero"/><path stroke="#000000" stroke-width="2.0" stroke-linecap="butt" stroke-opacity="0.0" clip-path="url(#id_0)" d="M607.0 333.0L562.0 333.0L562.0 282.0C562.0 280.89542 562.89545 280.0 564.0 280.0L605.0 280.0C606.10455 280.0 607.0 280.89542 607.0 282.0Z" fill-rule="nonzero"/><path fill="#4285f4" clip-path="url(#id_0)" d="M607.0 333.0L562.0 333.0L562.0 282.0C562.0 280.89542 562.89545 280.0 564.0 280.0L605.0 280.0C606.10455 280.0 607.0 280.89542 607.0 282.0Z" fill-rule="nonzero"/><path stroke="#000000" stroke-width="2.0" stroke-linecap="butt" stroke-opacity="0.0" clip-path="url(#id_0)" d="M677.0 333.0L632.0 333.0L632.0 324.0C632.0 322.89542 632.89545 322.0 634.0 322.0L675.0 322.0C676.10455 322.0 677.0 322.89542 677.0 324.0Z" fill-rule="nonzero"/><path fill="#4285f4" clip-path="url(#id_0)" d="M677.0 333.0L632.0 333.0L632.0 324.0C632.0 322.89542 632.89545 322.0 634.0 322.0L675.0 322.0C676.10455 322.0 677.0 322.89542 677.0 324.0Z" fill-rule="nonzero"/><path stroke="#ffffff" stroke-width="3.0" stroke-linejoin="round" stroke-linecap="round" d="M97.1875 312.4568L95.5 312.4568L95.5 305.92554L93.484375 306.55054L93.484375 305.17554L97.015625 303.9099L97.1875 303.9099L97.1875 312.4568Z" fill-rule="nonzero"/><path fill="#4285f4" d="M97.1875 312.4568L95.5 312.4568L95.5 305.92554L93.484375 306.55054L93.484375 305.17554L97.015625 303.9099L97.1875 303.9099L97.1875 312.4568Z" fill-rule="nonzero"/><path stroke="#ffffff" stroke-width="3.0" stroke-linejoin="round" stroke-linecap="round" d="M168.09375 293.39886L169.0625 293.39886L169.0625 294.77386L168.09375 294.77386L168.09375 296.6176L166.39062 296.6176L166.39062 294.77386L162.90625 294.77386L162.82812 293.71136L166.375 288.08636L168.09375 288.08636L168.09375 293.39886ZM164.51562 293.39886L166.39062 293.39886L166.39062 290.39886L166.28125 290.58636L164.51562 293.39886Z" fill-rule="nonzero"/><path fill="#4285f4" d="M168.09375 293.39886L169.0625 293.39886L169.0625 294.77386L168.09375 294.77386L168.09375 296.6176L166.39062 296.6176L166.39062 294.77386L162.90625 294.77386L162.82812 293.71136L166.375 288.08636L168.09375 288.08636L168.09375 293.39886ZM164.51562 293.39886L166.39062 293.39886L166.39062 290.39886L166.28125 290.58636L164.51562 293.39886Z" fill-rule="nonzero"/><path stroke="#ffffff" stroke-width="3.0" stroke-linejoin="round" stroke-linecap="round" d="M238.92188 307.17706L233.07812 307.17706L233.07812 306.0208L235.84375 303.0677Q236.40625 302.4583 236.67188 301.98956Q236.95312 301.5208 236.95312 301.11456Q236.95312 300.53644 236.65625 300.22394Q236.375 299.8958 235.84375 299.8958Q235.26562 299.8958 234.9375 300.28644Q234.60938 300.67706 234.60938 301.3333L232.90625 301.3333Q232.90625 300.55206 233.28125 299.91144Q233.65625 299.2552 234.32812 298.8958Q235.01562 298.5208 235.875 298.5208Q237.1875 298.5208 237.92188 299.16144Q238.65625 299.78644 238.65625 300.9427Q238.65625 301.5833 238.32812 302.23956Q238.0 302.8958 237.20312 303.7708L235.26562 305.8177L238.92188 305.8177L238.92188 307.17706Z" fill-rule="nonzero"/><path fill="#4285f4" d="M238.92188 307.17706L233.07812 307.17706L233.07812 306.0208L235.84375 303.0677Q236.40625 302.4583 236.67188 301.98956Q236.95312 301.5208 236.95312 301.11456Q236.95312 300.53644 236.65625 300.22394Q236.375 299.8958 235.84375 299.8958Q235.26562 299.8958 234.9375 300.28644Q234.60938 300.67706 234.60938 301.3333L232.90625 301.3333Q232.90625 300.55206 233.28125 299.91144Q233.65625 299.2552 234.32812 298.8958Q235.01562 298.5208 235.875 298.5208Q237.1875 298.5208 237.92188 299.16144Q238.65625 299.78644 238.65625 300.9427Q238.65625 301.5833 238.32812 302.23956Q238.0 302.8958 237.20312 303.7708L235.26562 305.8177L238.92188 305.8177L238.92188 307.17706Z" fill-rule="nonzero"/><path stroke="#ffffff" stroke-width="3.0" stroke-linejoin="round" stroke-linecap="round" d="M302.6875 254.37976L301.0 254.37976L301.0 247.84851L298.98438 248.47351L298.98438 247.09851L302.51562 245.83289L302.6875 245.83289L302.6875 254.37976ZM311.42188 254.37976L305.57812 254.37976L305.57812 253.22351L308.34375 250.27039Q308.90625 249.66101 309.17188 249.19226Q309.45312 248.72351 309.45312 248.31726Q309.45312 247.73914 309.15625 247.42664Q308.875 247.09851 308.34375 247.09851Q307.76562 247.09851 307.4375 247.48914Q307.10938 247.87976 307.10938 248.53601L305.40625 248.53601Q305.40625 247.75476 305.78125 247.11414Q306.15625 246.45789 306.82812 246.09851Q307.51562 245.72351 308.375 245.72351Q309.6875 245.72351 310.42188 246.36414Q311.15625 246.98914 311.15625 248.14539Q311.15625 248.78601 310.82812 249.44226Q310.5 250.09851 309.70312 250.97351L307.76562 253.02039L311.42188 253.02039L311.42188 254.37976Z" fill-rule="nonzero"/><path fill="#4285f4" d="M302.6875 254.37976L301.0 254.37976L301.0 247.84851L298.98438 248.47351L298.98438 247.09851L302.51562 245.83289L302.6875 245.83289L302.6875 254.37976ZM311.42188 254.37976L305.57812 254.37976L305.57812 253.22351L308.34375 250.27039Q308.90625 249.66101 309.17188 249.19226Q309.45312 248.72351 309.45312 248.31726Q309.45312 247.73914 309.15625 247.42664Q308.875 247.09851 308.34375 247.09851Q307.76562 247.09851 307.4375 247.48914Q307.10938 247.87976 307.10938 248.53601L305.40625 248.53601Q305.40625 247.75476 305.78125 247.11414Q306.15625 246.45789 306.82812 246.09851Q307.51562 245.72351 308.375 245.72351Q309.6875 245.72351 310.42188 246.36414Q311.15625 246.98914 311.15625 248.14539Q311.15625 248.78601 310.82812 249.44226Q310.5 250.09851 309.70312 250.97351L307.76562 253.02039L311.42188 253.02039L311.42188 254.37976Z" fill-rule="nonzero"/><path stroke="#ffffff" stroke-width="3.0" stroke-linejoin="round" stroke-linecap="round" d="M373.59375 71.65017L374.5625 71.65017L374.5625 73.02517L373.59375 73.02517L373.59375 74.86892L371.89062 74.86892L371.89062 73.02517L368.40625 73.02517L368.32812 71.96267L371.875 66.33767L373.59375 66.33767L373.59375 71.65017ZM370.01562 71.65017L371.89062 71.65017L371.89062 68.65017L371.78125 68.83767L370.01562 71.65017ZM380.17188 66.24392L380.17188 67.65017L380.01562 67.65017Q378.85938 67.665794 378.15625 68.24392Q377.46875 68.822044 377.32812 69.853294Q378.0 69.165794 379.03125 69.165794Q380.15625 69.165794 380.8125 69.96267Q381.46875 70.759544 381.46875 72.05642Q381.46875 72.884544 381.10938 73.55642Q380.75 74.228294 380.07812 74.61892Q379.42188 74.99392 378.59375 74.99392Q377.25 74.99392 376.42188 74.05642Q375.59375 73.103294 375.59375 71.540794L375.59375 70.93142Q375.59375 69.540794 376.10938 68.478294Q376.64062 67.415794 377.60938 66.83767Q378.59375 66.259544 379.89062 66.24392L380.17188 66.24392ZM378.51562 70.52517Q378.10938 70.52517 377.76562 70.74392Q377.4375 70.947044 377.28125 71.30642L377.28125 71.822044Q377.28125 72.665794 377.60938 73.15017Q377.95312 73.61892 378.5625 73.61892Q379.10938 73.61892 379.4375 73.197044Q379.78125 72.759544 379.78125 72.072044Q379.78125 71.36892 379.4375 70.947044Q379.09375 70.52517 378.51562 70.52517Z" fill-rule="nonzero"/><path fill="#4285f4" d="M373.59375 71.65017L374.5625 71.65017L374.5625 73.02517L373.59375 73.02517L373.59375 74.86892L371.89062 74.86892L371.89062 73.02517L368.40625 73.02517L368.32812 71.96267L371.875 66.33767L373.59375 66.33767L373.59375 71.65017ZM370.01562 71.65017L371.89062 71.65017L371.89062 68.65017L371.78125 68.83767L370.01562 71.65017ZM380.17188 66.24392L380.17188 67.65017L380.01562 67.65017Q378.85938 67.665794 378.15625 68.24392Q377.46875 68.822044 377.32812 69.853294Q378.0 69.165794 379.03125 69.165794Q380.15625 69.165794 380.8125 69.96267Q381.46875 70.759544 381.46875 72.05642Q381.46875 72.884544 381.10938 73.55642Q380.75 74.228294 380.07812 74.61892Q379.42188 74.99392 378.59375 74.99392Q377.25 74.99392 376.42188 74.05642Q375.59375 73.103294 375.59375 71.540794L375.59375 70.93142Q375.59375 69.540794 376.10938 68.478294Q376.64062 67.415794 377.60938 66.83767Q378.59375 66.259544 379.89062 66.24392L380.17188 66.24392ZM378.51562 70.52517Q378.10938 70.52517 377.76562 70.74392Q377.4375 70.947044 377.28125 71.30642L377.28125 71.822044Q377.28125 72.665794 377.60938 73.15017Q377.95312 73.61892 378.5625 73.61892Q379.10938 73.61892 379.4375 73.197044Q379.78125 72.759544 379.78125 72.072044Q379.78125 71.36892 379.4375 70.947044Q379.09375 70.52517 378.51562 70.52517Z" fill-rule="nonzero"/><path stroke="#ffffff" stroke-width="3.0" stroke-linejoin="round" stroke-linecap="round" d="M446.1875 312.4568L444.5 312.4568L444.5 305.92554L442.48438 306.55054L442.48438 305.17554L446.01562 303.9099L446.1875 303.9099L446.1875 312.4568Z" fill-rule="nonzero"/><path fill="#4285f4" d="M446.1875 312.4568L444.5 312.4568L444.5 305.92554L442.48438 306.55054L442.48438 305.17554L446.01562 303.9099L446.1875 303.9099L446.1875 312.4568Z" fill-rule="nonzero"/><path stroke="#ffffff" stroke-width="3.0" stroke-linejoin="round" stroke-linecap="round" d="M516.9219 307.17706L511.07812 307.17706L511.07812 306.0208L513.84375 303.0677Q514.40625 302.4583 514.6719 301.98956Q514.9531 301.5208 514.9531 301.11456Q514.9531 300.53644 514.65625 300.22394Q514.375 299.8958 513.84375 299.8958Q513.2656 299.8958 512.9375 300.28644Q512.6094 300.67706 512.6094 301.3333L510.90625 301.3333Q510.90625 300.55206 511.28125 299.91144Q511.65625 299.2552 512.3281 298.8958Q513.0156 298.5208 513.875 298.5208Q515.1875 298.5208 515.9219 299.16144Q516.65625 299.78644 516.65625 300.9427Q516.65625 301.5833 516.3281 302.23956Q516.0 302.8958 515.2031 303.7708L513.2656 305.8177L516.9219 305.8177L516.9219 307.17706Z" fill-rule="nonzero"/><path fill="#4285f4" d="M516.9219 307.17706L511.07812 307.17706L511.07812 306.0208L513.84375 303.0677Q514.40625 302.4583 514.6719 301.98956Q514.9531 301.5208 514.9531 301.11456Q514.9531 300.53644 514.65625 300.22394Q514.375 299.8958 513.84375 299.8958Q513.2656 299.8958 512.9375 300.28644Q512.6094 300.67706 512.6094 301.3333L510.90625 301.3333Q510.90625 300.55206 511.28125 299.91144Q511.65625 299.2552 512.3281 298.8958Q513.0156 298.5208 513.875 298.5208Q515.1875 298.5208 515.9219 299.16144Q516.65625 299.78644 516.65625 300.9427Q516.65625 301.5833 516.3281 302.23956Q516.0 302.8958 515.2031 303.7708L513.2656 305.8177L516.9219 305.8177L516.9219 307.17706Z" fill-rule="nonzero"/><path stroke="#ffffff" stroke-width="3.0" stroke-linejoin="round" stroke-linecap="round" d="M581.6875 264.9392L580.0 264.9392L580.0 258.40796L577.9844 259.03296L577.9844 257.65796L581.5156 256.39233L581.6875 256.39233L581.6875 264.9392ZM590.3281 261.40796Q590.3281 263.17358 589.59375 264.1267Q588.8594 265.0642 587.4531 265.0642Q586.0469 265.0642 585.3125 264.14233Q584.5781 263.22046 584.5625 261.5017L584.5625 259.92358Q584.5625 258.14233 585.2969 257.22046Q586.0469 256.28296 587.4375 256.28296Q588.8281 256.28296 589.5625 257.20483Q590.3125 258.1267 590.3281 259.84546L590.3281 261.40796ZM588.625 259.6892Q588.625 258.6267 588.3281 258.14233Q588.0469 257.65796 587.4375 257.65796Q586.84375 257.65796 586.5469 258.1267Q586.2656 258.57983 586.25 259.5642L586.25 261.6267Q586.25 262.67358 586.53125 263.1892Q586.8125 263.6892 587.4531 263.6892Q588.0625 263.6892 588.34375 263.20483Q588.625 262.72046 588.625 261.72046L588.625 259.6892Z" fill-rule="nonzero"/><path fill="#4285f4" d="M581.6875 264.9392L580.0 264.9392L580.0 258.40796L577.9844 259.03296L577.9844 257.65796L581.5156 256.39233L581.6875 256.39233L581.6875 264.9392ZM590.3281 261.40796Q590.3281 263.17358 589.59375 264.1267Q588.8594 265.0642 587.4531 265.0642Q586.0469 265.0642 585.3125 264.14233Q584.5781 263.22046 584.5625 261.5017L584.5625 259.92358Q584.5625 258.14233 585.2969 257.22046Q586.0469 256.28296 587.4375 256.28296Q588.8281 256.28296 589.5625 257.20483Q590.3125 258.1267 590.3281 259.84546L590.3281 261.40796ZM588.625 259.6892Q588.625 258.6267 588.3281 258.14233Q588.0469 257.65796 587.4375 257.65796Q586.84375 257.65796 586.5469 258.1267Q586.2656 258.57983 586.25 259.5642L586.25 261.6267Q586.25 262.67358 586.53125 263.1892Q586.8125 263.6892 587.4531 263.6892Q588.0625 263.6892 588.34375 263.20483Q588.625 262.72046 588.625 261.72046L588.625 259.6892Z" fill-rule="nonzero"/><path stroke="#ffffff" stroke-width="3.0" stroke-linejoin="round" stroke-linecap="round" d="M656.9219 307.17706L651.0781 307.17706L651.0781 306.0208L653.84375 303.0677Q654.40625 302.4583 654.6719 301.98956Q654.9531 301.5208 654.9531 301.11456Q654.9531 300.53644 654.65625 300.22394Q654.375 299.8958 653.84375 299.8958Q653.2656 299.8958 652.9375 300.28644Q652.6094 300.67706 652.6094 301.3333L650.90625 301.3333Q650.90625 300.55206 651.28125 299.91144Q651.65625 299.2552 652.3281 298.8958Q653.0156 298.5208 653.875 298.5208Q655.1875 298.5208 655.9219 299.16144Q656.65625 299.78644 656.65625 300.9427Q656.65625 301.5833 656.3281 302.23956Q656.0 302.8958 655.2031 303.7708L653.2656 305.8177L656.9219 305.8177L656.9219 307.17706Z" fill-rule="nonzero"/><path fill="#4285f4" d="M656.9219 307.17706L651.0781 307.17706L651.0781 306.0208L653.84375 303.0677Q654.40625 302.4583 654.6719 301.98956Q654.9531 301.5208 654.9531 301.11456Q654.9531 300.53644 654.65625 300.22394Q654.375 299.8958 653.84375 299.8958Q653.2656 299.8958 652.9375 300.28644Q652.6094 300.67706 652.6094 301.3333L650.90625 301.3333Q650.90625 300.55206 651.28125 299.91144Q651.65625 299.2552 652.3281 298.8958Q653.0156 298.5208 653.875 298.5208Q655.1875 298.5208 655.9219 299.16144Q656.65625 299.78644 656.65625 300.9427Q656.65625 301.5833 656.3281 302.23956Q656.0 302.8958 655.2031 303.7708L653.2656 305.8177L656.9219 305.8177L656.9219 307.17706Z" fill-rule="nonzero"/><path fill="#000000" d="M42.4125 333.5959Q42.4125 335.50214 41.75625 336.43964Q41.115623 337.3615 39.725 337.3615Q38.365623 337.3615 37.709373 336.45526Q37.053123 335.549 37.021873 333.7365L37.021873 332.299Q37.021873 330.4084 37.6625 329.50214Q38.31875 328.58026 39.709373 328.58026Q41.084373 328.58026 41.740623 329.4709Q42.396873 330.3459 42.4125 332.18964L42.4125 333.5959ZM41.31875 332.1115Q41.31875 330.7365 40.928123 330.1115Q40.553123 329.4709 39.709373 329.4709Q38.88125 329.4709 38.490623 330.1115Q38.115623 330.7365 38.115623 332.0334L38.115623 333.76776Q38.115623 335.14276 38.50625 335.81464Q38.9125 336.4709 39.725 336.4709Q40.521873 336.4709 40.9125 335.8459Q41.303123 335.2209 41.31875 333.89276L41.31875 332.1115Z" fill-rule="nonzero"/><path fill="#000000" d="M33.615623 284.4392L32.5375 284.4392L32.5375 277.22046L30.35 278.01733L30.35 277.03296L33.459373 275.86108L33.615623 275.86108L33.615623 284.4392ZM42.4125 280.79858Q42.4125 282.70483 41.75625 283.64233Q41.115623 284.5642 39.725 284.5642Q38.365623 284.5642 37.709373 283.65796Q37.053123 282.7517 37.021873 280.9392L37.021873 279.5017Q37.021873 277.61108 37.6625 276.70483Q38.31875 275.78296 39.709373 275.78296Q41.084373 275.78296 41.740623 276.67358Q42.396873 277.54858 42.4125 279.39233L42.4125 280.79858ZM41.31875 279.3142Q41.31875 277.9392 40.928123 277.3142Q40.553123 276.67358 39.709373 276.67358Q38.88125 276.67358 38.490623 277.3142Q38.115623 277.9392 38.115623 279.23608L38.115623 280.97046Q38.115623 282.34546 38.50625 283.01733Q38.9125 283.67358 39.725 283.67358Q40.521873 283.67358 40.9125 283.04858Q41.303123 282.42358 41.31875 281.09546L41.31875 279.3142Z" fill-rule="nonzero"/><path fill="#000000" d="M35.646873 231.64192L30.053125 231.64192L30.053125 230.86067L33.00625 227.57942Q33.6625 226.82942 33.9125 226.3763Q34.1625 225.90755 34.1625 225.40755Q34.1625 224.73567 33.75625 224.3138Q33.365623 223.8763 32.678123 223.8763Q31.88125 223.8763 31.428125 224.34505Q30.975 224.79817 30.975 225.6263L29.896875 225.6263Q29.896875 224.4388 30.646875 223.72005Q31.4125 222.98567 32.678123 222.98567Q33.88125 222.98567 34.56875 223.61067Q35.25625 224.23567 35.25625 225.28255Q35.25625 226.53255 33.646873 228.28255L31.365625 230.7513L35.646873 230.7513L35.646873 231.64192ZM42.4125 228.0013Q42.4125 229.90755 41.75625 230.84505Q41.115623 231.76692 39.725 231.76692Q38.365623 231.76692 37.709373 230.86067Q37.053123 229.95442 37.021873 228.14192L37.021873 226.70442Q37.021873 224.8138 37.6625 223.90755Q38.31875 222.98567 39.709373 222.98567Q41.084373 222.98567 41.740623 223.8763Q42.396873 224.7513 42.4125 226.59505L42.4125 228.0013ZM41.31875 226.51692Q41.31875 225.14192 40.928123 224.51692Q40.553123 223.8763 39.709373 223.8763Q38.88125 223.8763 38.490623 224.51692Q38.115623 225.14192 38.115623 226.4388L38.115623 228.17317Q38.115623 229.54817 38.50625 230.22005Q38.9125 230.8763 39.725 230.8763Q40.521873 230.8763 40.9125 230.2513Q41.303123 229.6263 41.31875 228.29817L41.31875 226.51692Z" fill-rule="nonzero"/><path fill="#000000" d="M31.63125 174.04773L32.44375 174.04773Q33.225 174.0321 33.6625 173.64148Q34.1 173.25085 34.1 172.57898Q34.1 171.07898 32.6 171.07898Q31.896875 171.07898 31.475 171.48523Q31.06875 171.89148 31.06875 172.54773L29.975 172.54773Q29.975 171.5321 30.709375 170.86023Q31.459375 170.18835 32.6 170.18835Q33.803123 170.18835 34.490623 170.82898Q35.178123 171.4696 35.178123 172.61023Q35.178123 173.17273 34.81875 173.68835Q34.459373 174.20398 33.834373 174.4696Q34.5375 174.68835 34.9125 175.20398Q35.303123 175.7196 35.303123 176.4696Q35.303123 177.61023 34.553123 178.29773Q33.803123 178.9696 32.6 178.9696Q31.4125 178.9696 30.646875 178.31335Q29.896875 177.6571 29.896875 176.5946L30.990625 176.5946Q30.990625 177.26648 31.428125 177.67273Q31.865625 178.07898 32.615623 178.07898Q33.396873 178.07898 33.803123 177.67273Q34.225 177.25085 34.225 176.48523Q34.225 175.75085 33.771873 175.36023Q33.31875 174.95398 32.44375 174.93835L31.63125 174.93835L31.63125 174.04773ZM42.4125 175.20398Q42.4125 177.11023 41.75625 178.04773Q41.115623 178.9696 39.725 178.9696Q38.365623 178.9696 37.709373 178.06335Q37.053123 177.1571 37.021873 175.3446L37.021873 173.9071Q37.021873 172.01648 37.6625 171.11023Q38.31875 170.18835 39.709373 170.18835Q41.084373 170.18835 41.740623 171.07898Q42.396873 171.95398 42.4125 173.79773L42.4125 175.20398ZM41.31875 173.7196Q41.31875 172.3446 40.928123 171.7196Q40.553123 171.07898 39.709373 171.07898Q38.88125 171.07898 38.490623 171.7196Q38.115623 172.3446 38.115623 173.64148L38.115623 175.37585Q38.115623 176.75085 38.50625 177.42273Q38.9125 178.07898 39.725 178.07898Q40.521873 178.07898 40.9125 177.45398Q41.303123 176.82898 41.31875 175.50085L41.31875 173.7196Z" fill-rule="nonzero"/><path fill="#000000" d="M34.63125 123.18793L35.81875 123.18793L35.81875 124.06293L34.63125 124.06293L34.63125 126.0473L33.553123 126.0473L33.553123 124.06293L29.6625 124.06293L29.6625 123.4223L33.475 117.51605L34.63125 117.51605L34.63125 123.18793ZM30.896875 123.18793L33.553123 123.18793L33.553123 119.00043L33.4125 119.2348L30.896875 123.18793ZM42.4125 122.40668Q42.4125 124.31293 41.75625 125.25043Q41.115623 126.1723 39.725 126.1723Q38.365623 126.1723 37.709373 125.26605Q37.053123 124.3598 37.021873 122.5473L37.021873 121.1098Q37.021873 119.21918 37.6625 118.31293Q38.31875 117.39105 39.709373 117.39105Q41.084373 117.39105 41.740623 118.28168Q42.396873 119.15668 42.4125 121.00043L42.4125 122.40668ZM41.31875 120.9223Q41.31875 119.5473 40.928123 118.9223Q40.553123 118.28168 39.709373 118.28168Q38.88125 118.28168 38.490623 118.9223Q38.115623 119.5473 38.115623 120.84418L38.115623 122.57855Q38.115623 123.95355 38.50625 124.62543Q38.9125 125.28168 39.725 125.28168Q40.521873 125.28168 40.9125 124.65668Q41.303123 124.03168 41.31875 122.70355L41.31875 120.9223Z" fill-rule="nonzero"/><path fill="#000000" d="M30.553125 68.96875L30.990625 64.71875L35.365623 64.71875L35.365623 65.71875L31.9125 65.71875L31.646875 68.046875Q32.2875 67.671875 33.084373 67.671875Q34.240623 67.671875 34.928123 68.453125Q35.615623 69.21875 35.615623 70.53125Q35.615623 71.84375 34.896873 72.609375Q34.19375 73.375 32.9125 73.375Q31.7875 73.375 31.06875 72.75Q30.35 72.109375 30.25625 71.0L31.271875 71.0Q31.38125 71.734375 31.803125 72.109375Q32.225 72.484375 32.9125 72.484375Q33.6625 72.484375 34.1 71.96875Q34.5375 71.453125 34.5375 70.546875Q34.5375 69.6875 34.06875 69.171875Q33.6 68.65625 32.81875 68.65625Q32.115623 68.65625 31.709375 68.953125L31.428125 69.1875L30.553125 68.96875ZM42.4125 69.609375Q42.4125 71.515625 41.75625 72.453125Q41.115623 73.375 39.725 73.375Q38.365623 73.375 37.709373 72.46875Q37.053123 71.5625 37.021873 69.75L37.021873 68.3125Q37.021873 66.421875 37.6625 65.515625Q38.31875 64.59375 39.709373 64.59375Q41.084373 64.59375 41.740623 65.484375Q42.396873 66.359375 42.4125 68.203125L42.4125 69.609375ZM41.31875 68.125Q41.31875 66.75 40.928123 66.125Q40.553123 65.484375 39.709373 65.484375Q38.88125 65.484375 38.490623 66.125Q38.115623 66.75 38.115623 68.046875L38.115623 69.78125Q38.115623 71.15625 38.50625 71.828125Q38.9125 72.484375 39.725 72.484375Q40.521873 72.484375 40.9125 71.859375Q41.303123 71.234375 41.31875 69.90625L41.31875 68.125Z" fill-rule="nonzero"/><path fill="#000000" d="M76.19435 372.72186L73.66424 375.25195L74.6807 377.3954L73.863106 378.21298L70.1287 369.8824L70.82476 369.1863L79.16641 372.90967L78.348816 373.72726L76.19435 372.72186ZM73.25544 374.35703L75.31047 372.302L71.465576 370.51215L73.25544 374.35703ZM78.348816 366.1259Q78.14994 366.28055 77.95107 366.47943Q77.18872 367.24176 77.56437 368.14777L80.74635 371.32974L79.984 372.09207L75.49829 367.60638L76.23855 366.86612L76.768875 367.37436Q76.547905 366.40207 77.243965 365.70602Q77.464935 365.48505 77.64171 365.41876L78.348816 366.1259ZM80.3486 367.17548Q79.31004 366.13693 79.17746 365.03207Q79.03383 363.91617 79.82932 363.12067Q80.61377 362.3362 81.60814 362.4025L79.27689 360.07126L80.039246 359.30893L86.403206 365.67288L85.6961 366.37997L85.17682 365.927Q85.2873 366.96555 84.46971 367.78314Q83.69631 368.55655 82.55831 368.41293Q81.43136 368.25824 80.40385 367.2307L80.3486 367.17548ZM81.19934 366.50153Q81.96169 367.26385 82.70194 367.3854Q83.45325 367.49588 84.00567 366.94345Q84.73488 366.21426 84.41447 365.20883L82.359436 363.1538Q81.38717 362.86655 80.669014 363.58472Q80.10554 364.1482 80.21602 364.89948Q80.337555 365.63974 81.19934 366.50153ZM89.70672 362.54614Q88.78969 363.46317 87.618546 363.44107Q86.4474 363.39688 85.44198 362.39145L85.3094 362.25888Q84.63544 361.58493 84.37027 360.81152Q84.09406 360.02707 84.25979 359.28683Q84.425514 358.52448 84.95585 357.99414Q85.82868 357.1213 86.88934 357.2097Q87.950005 357.2981 89.02171 358.36978L89.34212 358.6902L86.30377 361.72855Q86.98878 362.36935 87.76218 362.41357Q88.54662 362.44672 89.12115 361.8722Q89.5189 361.47443 89.62938 361.0325Q89.750916 360.5795 89.69567 360.0823L90.524315 359.98288Q90.83367 361.4192 89.70672 362.54614ZM85.58561 358.6239Q85.121574 359.08795 85.14367 359.75085Q85.16577 360.39166 85.707146 361.06564L87.950005 358.82278L87.89476 358.76755Q87.27604 358.21512 86.66837 358.18198Q86.07175 358.1378 85.58561 358.6239ZM84.70173 357.07712L84.03882 357.74002L81.75177 357.5964L82.67985 356.6683L84.70173 357.07712ZM93.2533 357.74002Q93.6621 357.33124 93.728386 356.7788Q93.78363 356.21533 93.441124 355.80652L94.170334 355.07733Q94.534935 355.4861 94.63437 356.09378Q94.73381 356.67935 94.534935 357.2981Q94.34711 357.90576 93.88307 358.36978Q92.96604 359.28683 91.81699 359.22052Q90.667946 359.13214 89.607285 358.07147L89.4747 357.9389Q88.82284 357.28705 88.54662 356.54678Q88.281456 355.79547 88.44719 355.07733Q88.612915 354.33707 89.23163 353.71835Q89.98293 352.96704 90.933105 352.92285Q91.883286 352.85657 92.64563 353.5526L91.91643 354.28183Q91.44134 353.87305 90.86681 353.89514Q90.29229 353.91724 89.8614 354.3481Q89.275826 354.9337 89.37527 355.67395Q89.4747 356.4142 90.270195 357.2097L90.413826 357.35333Q91.187225 358.12674 91.927475 358.22617Q92.66773 358.3256 93.2533 357.74002ZM93.065475 351.12195Q92.954994 349.995 93.77258 349.1774Q95.197845 347.75214 96.810936 349.34314L99.77194 352.30414L98.99854 353.07755L96.02649 350.10547Q95.5514 349.6304 95.09841 349.61935Q94.65646 349.59726 94.19243 350.06128Q93.81678 350.43695 93.728386 350.92307Q93.65105 351.39816 93.81678 351.87326L97.0098 355.06628L96.24746 355.8286L89.8835 349.46466L90.64584 348.70233L93.065475 351.12195ZM103.14175 349.1111Q102.22472 350.02814 101.05357 350.00604Q99.88243 349.96185 98.877014 348.95642L98.74443 348.82385Q98.070465 348.1499 97.805305 347.3765Q97.52909 346.59204 97.69482 345.8518Q97.86054 345.08945 98.39088 344.5591Q99.26371 343.68628 100.32437 343.77466Q101.38503 343.86307 102.45674 344.93475L102.777145 345.25516L99.7388 348.29352Q100.423805 348.93433 101.197205 348.97852Q101.98165 349.0117 102.556175 348.43716Q102.953926 348.0394 103.06441 347.59747Q103.18594 347.14447 103.1307 346.64728L103.95934 346.54785Q104.2687 347.98416 103.14175 349.1111ZM99.020645 345.18887Q98.5566 345.65292 98.5787 346.31583Q98.6008 346.95663 99.14217 347.6306L101.38503 345.38776L101.32979 345.33252Q100.71107 344.7801 100.1034 344.74695Q99.506775 344.70276 99.020645 345.18887Z" fill-rule="nonzero"/><path fill="#000000" d="M152.92317 365.6508L150.39305 368.1809L151.40952 370.3243L150.59192 371.1419L146.85751 362.8113L147.55357 362.11526L155.89522 365.83862L155.07764 366.65622L152.92317 365.6508ZM149.98425 367.28598L152.03928 365.23096L148.1944 363.44107L149.98425 367.28598ZM155.07764 359.0548Q154.87875 359.20947 154.67989 359.40836Q153.91754 360.17072 154.29318 361.0767L157.47517 364.25867L156.71281 365.02103L152.22711 360.5353L152.96736 359.79507L153.4977 360.30328Q153.27672 359.33102 153.97278 358.63495Q154.19376 358.414 154.37053 358.3477L155.07764 359.0548ZM160.36989 361.36395L159.60753 362.1263L155.12183 357.6406L155.88417 356.87823L160.36989 361.36395ZM153.87334 356.5247Q153.68552 356.33685 153.66342 356.0938Q153.65237 355.8397 153.87334 355.6187Q154.09431 355.39774 154.33739 355.41983Q154.59149 355.43088 154.77933 355.6187Q154.9561 355.7955 154.96715 356.0496Q154.9782 356.28162 154.75722 356.5026Q154.53625 356.72357 154.29318 356.72357Q154.05013 356.70148 153.87334 356.5247ZM163.6071 358.3035Q162.69008 359.22055 161.51894 359.19843Q160.3478 359.15424 159.34238 358.14883L159.2098 358.01624Q158.53583 357.3423 158.27066 356.56888Q157.99445 355.78445 158.16017 355.0442Q158.3259 354.28183 158.85623 353.7515Q159.72906 352.87866 160.78973 352.96707Q161.85039 353.05545 162.9221 354.12717L163.24251 354.44757L160.20416 357.4859Q160.88916 358.12674 161.66257 358.17093Q162.447 358.20407 163.02153 357.62955Q163.41928 357.2318 163.52977 356.78986Q163.6513 356.33685 163.59605 355.8397L164.4247 355.74023Q164.73405 357.17654 163.6071 358.3035ZM159.48601 354.3813Q159.02196 354.8453 159.04405 355.50824Q159.06616 356.14905 159.60753 356.823L161.85039 354.58014L161.79515 354.5249Q161.17642 353.97247 160.56876 353.93933Q159.97214 353.89514 159.48601 354.3813ZM158.60211 352.83447L157.93921 353.4974L155.65216 353.35376L156.58023 352.4257L158.60211 352.83447ZM163.44138 353.74045Q162.39177 352.69086 162.25919 351.586Q162.1266 350.48114 162.9221 349.68564Q163.73969 348.86804 164.77826 348.97855L164.31421 348.4482L165.02132 347.7411L169.39655 352.11633Q170.26938 352.98917 170.24728 354.0056Q170.23624 355.03314 169.37445 355.89493Q168.8883 356.38107 168.21436 356.63516Q167.54039 356.88928 166.94377 356.7788L166.87747 355.91702Q167.97128 356.03854 168.68944 355.3204Q169.24187 354.76797 169.23082 354.1382Q169.24187 353.50845 168.66734 352.93393L168.28064 352.5472Q168.35799 353.55264 167.56248 354.3481Q166.77805 355.13257 165.66214 354.98895Q164.53519 354.83426 163.44138 353.74045ZM164.30316 353.05545Q165.05447 353.80676 165.80577 353.93933Q166.54602 354.06085 167.1095 353.4974Q167.82765 352.77924 167.50725 351.7738L165.46326 349.72983Q164.46889 349.44257 163.7618 350.1497Q163.20937 350.70212 163.31984 351.4534Q163.44138 352.19366 164.30316 353.05545ZM172.7995 349.1111Q171.88246 350.02814 170.71132 350.00604Q169.54018 349.96185 168.53476 348.95645L168.40218 348.82385Q167.72821 348.1499 167.46304 347.3765Q167.18683 346.59204 167.35257 345.8518Q167.5183 345.08945 168.04863 344.5591Q168.92146 343.68628 169.98212 343.77466Q171.04277 343.86307 172.11449 344.93478L172.43489 345.2552L169.39655 348.29352Q170.08156 348.93436 170.85495 348.97855Q171.6394 349.0117 172.21393 348.43716Q172.61166 348.0394 172.72215 347.59747Q172.84369 347.14447 172.78845 346.6473L173.6171 346.54785Q173.92645 347.98416 172.7995 349.1111ZM168.67839 345.18887Q168.21436 345.65292 168.23645 346.31583Q168.25854 346.95667 168.79993 347.6306L171.04277 345.38776L170.98753 345.33252Q170.36882 344.7801 169.76115 344.74695Q169.16452 344.70276 168.67839 345.18887Z" fill-rule="nonzero"/><path fill="#000000" d="M215.50986 372.72186L212.97974 375.25195L213.9962 377.3954L213.17862 378.21298L209.44421 369.8824L210.14026 369.1863L218.48192 372.90967L217.66432 373.72726L215.50986 372.72186ZM212.57094 374.35703L214.62598 372.302L210.78108 370.51215L212.57094 374.35703ZM219.73041 369.58408L217.39915 365.02103L218.18361 364.23657L221.05623 370.33536L220.47066 370.92093L214.36081 368.05936L215.14525 367.27493L219.73041 369.58408ZM225.4867 366.08167Q224.56966 366.99872 223.39851 366.97662Q222.22737 366.9324 221.22195 365.927L221.08937 365.7944Q220.4154 365.12045 220.15025 364.34705Q219.87404 363.56262 220.03976 362.82236Q220.20549 362.06 220.73582 361.52966Q221.60866 360.65683 222.66931 360.74524Q223.72998 360.83362 224.80168 361.90533L225.12209 362.22574L222.08374 365.2641Q222.76875 365.9049 223.54214 365.9491Q224.3266 365.98224 224.90112 365.4077Q225.29887 365.00998 225.40935 364.56802Q225.53088 364.11505 225.47565 363.61786L226.30429 363.5184Q226.61365 364.9547 225.4867 366.08167ZM221.36559 362.15945Q220.90155 362.62347 220.92365 363.2864Q220.94574 363.92722 221.48712 364.60117L223.72998 362.3583L223.67473 362.30307Q223.05602 361.75064 222.44835 361.7175Q221.85172 361.6733 221.36559 362.15945ZM228.11624 361.02145L225.8071 356.61307L226.6247 355.79547L230.00554 362.77817Q230.7016 364.3139 229.79562 365.21988L229.6299 365.36353L229.29845 365.5845L228.67972 364.96576L228.88965 364.77795Q229.28738 364.3802 229.34264 364.0156Q229.40892 363.63995 229.1327 363.07648L228.8344 362.44672L222.8019 359.6183L223.64159 358.7786L228.11624 361.02145ZM230.39223 353.39795Q230.19336 353.55264 229.99449 353.75153Q229.23215 354.51385 229.6078 355.41983L232.78978 358.6018L232.02744 359.36417L227.54172 354.87845L228.28197 354.1382L228.8123 354.64642Q228.59134 353.67416 229.28738 352.97812Q229.50835 352.75714 229.68513 352.69086L230.39223 353.39795ZM232.35887 354.45862Q231.70702 353.80676 231.4308 353.0223Q231.16563 352.2268 231.35345 351.48657Q231.53023 350.73526 232.11581 350.1497Q233.03284 349.23267 234.22607 349.29895Q235.43037 349.3542 236.49103 350.41486L236.54628 350.4701Q237.19814 351.12195 237.4633 351.89536Q237.72847 352.66876 237.56274 353.4311Q237.38596 354.1824 236.77829 354.79007Q235.87231 355.69604 234.66801 355.6408Q233.46373 355.56348 232.41412 354.51385L232.35887 354.45862ZM233.2317 353.78467Q233.97197 354.5249 234.76746 354.6354Q235.574 354.73483 236.14853 354.1603Q236.7341 353.57474 236.62361 352.77924Q236.50208 351.9727 235.67343 351.14404Q234.94423 350.41486 234.1377 350.31543Q233.33115 350.19388 232.74557 350.77945Q232.1821 351.34293 232.28154 352.14948Q232.38097 352.93393 233.2317 353.78467ZM236.03804 346.38214L236.62361 346.92352Q236.50208 345.76343 237.33072 344.93478Q238.75598 343.50952 240.36906 345.1005L243.33008 348.06152L242.55669 348.8349L239.58463 345.86285Q239.10954 345.38776 238.65654 345.3767Q238.2146 345.3546 237.75056 345.81866Q237.37491 346.1943 237.28653 346.68045Q237.20918 347.15555 237.37491 347.6306L240.56795 350.82364L239.80559 351.586L235.31989 347.10028L236.03804 346.38214Z" fill-rule="nonzero"/><path fill="#000000" d="M268.2523 392.79706L267.4568 393.59256L264.67258 390.80832L261.62317 393.8577L264.4074 396.64194L263.6119 397.43744L257.5794 391.40494L258.3749 390.60944L260.9713 393.20584L264.0207 390.15646L261.4243 387.56003L262.2198 386.76456L268.2523 392.79706ZM272.62753 388.4218Q272.42865 388.35553 272.04196 388.05722Q272.0751 389.15103 271.33484 389.8913Q270.67194 390.5542 269.8654 390.60944Q269.0699 390.65363 268.4843 390.06805Q267.78827 389.372 267.9319 388.455Q268.07553 387.53793 269.0478 386.56567L269.78806 385.8254L269.43448 385.47186Q269.03674 385.07413 268.56165 385.08517Q268.08658 385.07413 267.61148 385.5492Q267.2027 385.958 267.13638 386.44415Q267.05905 386.91922 267.35736 387.21753L266.58395 387.99094Q266.24146 387.64844 266.16412 387.10706Q266.09784 386.55463 266.32986 385.96906Q266.5508 385.37244 267.03696 384.8863Q267.8214 384.10184 268.639 384.05765Q269.46762 384.0024 270.1637 384.65427L272.22977 386.72034Q272.84848 387.33908 273.36777 387.54898L273.43405 387.6153L272.62753 388.4218ZM270.77136 389.10684Q271.13596 388.74225 271.26855 388.234Q271.40112 387.72577 271.24646 387.2838L270.32944 386.3668L269.7328 386.9634Q268.31857 388.37762 269.14722 389.20627Q269.5008 389.5598 269.95377 389.52667Q270.39572 389.48248 270.77136 389.10684ZM277.1353 383.03015Q277.22372 384.0024 276.3509 384.87524Q275.63272 385.5934 274.83722 385.5492Q274.04175 385.505 273.22415 384.6874L270.3073 381.7706L271.06967 381.00824L273.9644 383.90298Q274.9919 384.93048 275.82056 384.10184Q276.70444 383.21796 276.3288 382.2678L273.06946 379.00845L273.84286 378.23508L278.32858 382.72076L277.59937 383.44998L277.1353 383.03015ZM275.235 374.67743L276.31772 375.7602L277.14636 374.93155L277.74298 375.52817L276.91437 376.3568L279.68753 379.13Q279.96375 379.40622 280.20682 379.4283Q280.4499 379.4504 280.71506 379.18524Q280.84763 379.05267 281.03546 378.77646L281.65417 379.39517Q281.44424 379.78186 281.15698 380.06912Q280.64877 380.57736 280.07425 380.53317Q279.48868 380.47794 278.91415 379.9034L276.14096 377.13022L275.32336 377.9478L274.72675 377.3512L275.54434 376.5336L274.46158 375.45084L275.235 374.67743ZM284.53784 376.68826Q283.62082 377.60532 282.44968 377.58322Q281.27853 377.539 280.2731 376.5336L280.14053 376.401Q279.46655 375.72705 279.20142 374.95364Q278.9252 374.16922 279.0909 373.42896Q279.25665 372.6666 279.787 372.13626Q280.65982 371.26343 281.72046 371.35184Q282.78113 371.44022 283.85284 372.51193L284.17325 372.83234L281.1349 375.8707Q281.81992 376.5115 282.5933 376.5557Q283.37775 376.58884 283.95227 376.0143Q284.35004 375.61658 284.4605 375.17462Q284.58203 374.72162 284.5268 374.22446L285.35544 374.125Q285.6648 375.5613 284.53784 376.68826ZM280.41675 372.76605Q279.9527 373.23007 279.9748 373.893Q279.9969 374.5338 280.53827 375.20776L282.78113 372.9649L282.7259 372.90967Q282.10718 372.35724 281.4995 372.3241Q280.9029 372.2799 280.41675 372.76605ZM288.25015 370.4127Q287.9408 370.10333 287.532 370.1807Q287.1232 370.23593 286.4161 370.69995Q285.72003 371.15295 285.20078 371.3187Q284.6815 371.4844 284.28372 371.41812Q283.886 371.32974 283.55453 370.99826Q283.0021 370.44586 283.09048 369.60617Q283.16782 368.75543 283.89703 368.0262Q284.6594 367.26385 285.52118 367.19757Q286.38297 367.1092 286.99063 367.71686L286.22827 368.47922Q285.9189 368.16986 285.42172 368.2251Q284.92456 368.25824 284.5268 368.65598Q284.10696 369.07584 284.05173 369.5067Q283.99646 369.91553 284.28372 370.2028Q284.55994 370.479 284.92456 370.40164Q285.28915 370.3243 285.99625 369.8824Q286.69232 369.42938 287.22266 369.2526Q287.75296 369.07584 288.17282 369.1642Q288.6037 369.24155 288.95728 369.59512Q289.56494 370.2028 289.4434 371.05353Q289.33292 371.89322 288.57056 372.65555Q288.02917 373.19693 287.4215 373.42896Q286.81384 373.6389 286.23932 373.52838Q285.6648 373.4179 285.26706 373.02017L286.0294 372.2578Q286.4382 372.6224 286.9575 372.56717Q287.4657 372.5009 287.9408 372.0258Q288.3717 371.5949 288.46008 371.15295Q288.54846 370.711 288.25015 370.4127ZM295.0671 362.82236L292.537 365.35248L293.55347 367.49588L292.73587 368.31348L289.00146 359.98288L289.6975 359.2868L298.03915 363.01016L297.2216 363.82776L295.0671 362.82236ZM292.1282 364.45755L294.18323 362.4025L290.33835 360.61264L292.1282 364.45755ZM299.6854 361.36395L298.92307 362.12628L292.55908 355.76233L293.32144 354.99997L299.6854 361.36395ZM302.56906 354.10504Q303.58554 355.12152 303.75125 356.21533Q303.917 357.30914 303.11044 358.11566Q302.29285 358.93326 301.30954 358.87802L303.464 361.0325L302.70166 361.79483L296.49237 355.58557L297.18845 354.8895L297.71875 355.35355Q297.61932 354.30392 298.44797 353.47528Q299.25452 352.66873 300.32623 352.81238Q301.40897 352.94495 302.49173 354.0277L302.56906 354.10504ZM301.71832 354.77902Q300.956 354.01666 300.19363 353.91724Q299.43127 353.7957 298.8678 354.35916Q298.17175 355.05524 298.43692 356.0054L300.58032 358.1488Q301.54156 358.42502 302.24866 357.71793Q302.8011 357.1655 302.6906 356.41418Q302.5801 355.6408 301.71832 354.77902ZM307.87238 353.35376Q306.95535 354.27078 305.7842 354.2487Q304.61307 354.2045 303.60764 353.19907L303.47507 353.0665Q302.8011 352.39252 302.53592 351.61914Q302.2597 350.8347 302.42545 350.09442Q302.59116 349.3321 303.1215 348.80176Q303.99432 347.92892 305.055 348.0173Q306.11566 348.10568 307.18738 349.1774L307.50778 349.4978L304.46942 352.53616Q305.15442 353.17697 305.92783 353.22116Q306.71228 353.2543 307.2868 352.67978Q307.68454 352.28204 307.79504 351.8401Q307.91656 351.38712 307.86133 350.88992L308.68997 350.7905Q308.99933 352.2268 307.87238 353.35376ZM303.75125 349.43152Q303.28723 349.89557 303.30933 350.55847Q303.33142 351.19928 303.8728 351.87326L306.11566 349.6304L306.06042 349.57513Q305.44168 349.02274 304.834 348.98956Q304.2374 348.94537 303.75125 349.43152ZM311.5847 347.0782Q311.27533 346.76883 310.86652 346.84616Q310.45773 346.9014 309.7506 347.36545Q309.05457 347.81842 308.53528 347.98416Q308.016 348.14987 307.61826 348.0836Q307.22052 347.9952 306.88904 347.66376Q306.33664 347.11133 306.42502 346.27164Q306.50235 345.4209 307.23157 344.69168Q307.9939 343.92935 308.85568 343.86304Q309.71747 343.77466 310.32516 344.38232L309.5628 345.14468Q309.25345 344.83533 308.75626 344.89056Q308.25906 344.9237 307.86133 345.32147Q307.44147 345.7413 307.38623 346.1722Q307.331 346.581 307.61826 346.86826Q307.89447 347.14447 308.25906 347.06714Q308.6237 346.98978 309.33078 346.54785Q310.02682 346.09485 310.55716 345.9181Q311.0875 345.7413 311.50735 345.82968Q311.93823 345.90704 312.29178 346.2606Q312.89948 346.86826 312.77792 347.719Q312.66745 348.5587 311.9051 349.32104Q311.3637 349.8624 310.75604 350.09442Q310.14838 350.30435 309.57385 350.19388Q308.99933 350.08337 308.60156 349.68564L309.36392 348.92328Q309.77274 349.28787 310.292 349.23264Q310.80023 349.16635 311.27533 348.69125Q311.7062 348.26038 311.79462 347.81842Q311.883 347.3765 311.5847 347.0782Z" fill-rule="nonzero"/><path fill="#000000" d="M372.31522 357.08817L375.1768 354.2266L375.82864 354.87845L372.16052 358.54657L366.12802 352.51407L366.93457 351.70752L372.31522 357.08817ZM373.79572 352.33728Q373.14386 351.68542 372.86765 350.90097Q372.60248 350.1055 372.79028 349.36523Q372.96707 348.61392 373.55264 348.02835Q374.46967 347.11133 375.6629 347.1776Q376.86722 347.23285 377.92786 348.29352L377.98312 348.34875Q378.63498 349.00064 378.90015 349.77402Q379.1653 350.54742 378.99957 351.30978Q378.8228 352.06107 378.21512 352.66873Q377.30914 353.57474 376.10486 353.51947Q374.90057 353.44214 373.85095 352.39255L373.79572 352.33728ZM374.66855 351.66333Q375.4088 352.4036 376.20428 352.51407Q377.01083 352.6135 377.58536 352.03897Q378.17093 351.4534 378.06046 350.6579Q377.9389 349.85138 377.1103 349.02274Q376.38107 348.29352 375.57452 348.1941Q374.76797 348.07254 374.1824 348.6581Q373.61893 349.2216 373.71838 350.02814Q373.8178 350.8126 374.66855 351.66333ZM376.71252 342.85764L377.7953 343.9404L378.62393 343.11176L379.22055 343.70837L378.3919 344.53702L381.1651 347.3102Q381.4413 347.58643 381.6844 347.60852Q381.92743 347.6306 382.1926 347.36545Q382.3252 347.23285 382.513 346.95667L383.13174 347.57538Q382.9218 347.96207 382.63455 348.24933Q382.1263 348.75757 381.5518 348.71338Q380.96622 348.6581 380.3917 348.0836L377.6185 345.31042L376.8009 346.12802L376.20428 345.5314L377.02188 344.7138L375.93912 343.63104L376.71252 342.85764Z" fill-rule="nonzero"/><path fill="#000000" d="M398.13232 400.9288L400.9939 398.06723L401.64578 398.7191L397.97766 402.3872L391.94516 396.3547L392.7517 395.54816L398.13232 400.9288ZM399.61285 396.17792Q398.96097 395.52606 398.68475 394.7416Q398.4196 393.9461 398.60742 393.20587Q398.7842 392.45456 399.36978 391.869Q400.2868 390.95197 401.48004 391.01825Q402.68433 391.0735 403.745 392.13416L403.80023 392.1894Q404.45212 392.84125 404.71725 393.61465Q404.98242 394.38806 404.8167 395.1504Q404.63992 395.9017 404.03226 396.50937Q403.12628 397.41534 401.922 397.3601Q400.71768 397.28278 399.6681 396.23315L399.61285 396.17792ZM400.4857 395.50397Q401.22592 396.2442 402.02142 396.3547Q402.82797 396.45413 403.4025 395.8796Q403.98807 395.29404 403.87756 394.49854Q403.75604 393.692 402.9274 392.86334Q402.1982 392.13416 401.39166 392.0347Q400.5851 391.91318 399.99954 392.49875Q399.43607 393.06223 399.5355 393.86877Q399.63495 394.65323 400.4857 395.50397ZM402.52966 386.69827L403.61243 387.78104L404.44104 386.9524L405.0377 387.549L404.20905 388.37766L406.9822 391.15082Q407.25842 391.42703 407.5015 391.44913Q407.74457 391.47125 408.00974 391.2061Q408.1423 391.0735 408.33014 390.79727L408.94885 391.416Q408.73895 391.8027 408.45166 392.08997Q407.94345 392.59818 407.36893 392.554Q406.78336 392.49875 406.20883 391.92422L403.43564 389.15103L402.61804 389.96863L402.02142 389.372L402.83902 388.5544L401.75626 387.47168L402.52966 386.69827ZM409.22507 386.632L407.2032 388.65387L406.58447 388.03513L408.60635 386.01324L409.22507 386.632ZM413.95386 386.58777Q413.03683 387.50482 411.86566 387.48273Q410.69452 387.4385 409.68912 386.4331L409.55652 386.3005Q408.88257 385.62656 408.6174 384.85315Q408.3412 384.06873 408.50693 383.32846Q408.67264 382.5661 409.20297 382.03577Q410.0758 381.16293 411.13647 381.25134Q412.19714 381.33972 413.26883 382.41144L413.58923 382.73184L410.5509 385.7702Q411.2359 386.411 412.0093 386.4552Q412.79376 386.48834 413.3683 385.91382Q413.76602 385.51608 413.8765 385.07413Q413.99805 384.62115 413.9428 384.12396L414.77145 384.0245Q415.0808 385.46082 413.95386 386.58777ZM409.83273 382.66556Q409.3687 383.12958 409.3908 383.7925Q409.4129 384.43332 409.95428 385.10727L412.19714 382.8644L412.14188 382.80917Q411.52316 382.25674 410.9155 382.2236Q410.31888 382.1794 409.83273 382.66556ZM411.72205 377.5059L412.8048 378.58862L413.63345 377.76L414.23007 378.35663L413.40143 379.18527L416.17462 381.95844Q416.4508 382.23465 416.69388 382.25674Q416.93695 382.27884 417.20212 382.01367Q417.33472 381.8811 417.52252 381.6049L418.14124 382.2236Q417.93134 382.6103 417.64407 382.89758Q417.13583 383.4058 416.5613 383.3616Q415.97574 383.30637 415.4012 382.73184L412.62802 379.95865L411.81042 380.77625L411.2138 380.17963L412.0314 379.36203L410.94864 378.27927L411.72205 377.5059ZM418.41745 377.43958L416.39557 379.46146L415.77686 378.84274L417.79874 376.82086L418.41745 377.43958ZM424.9803 373.79358Q425.11288 374.54486 424.78143 375.31827Q424.44995 376.09167 423.72076 376.82086Q422.99155 377.55008 422.07452 377.7821Q421.14645 378.00305 420.1963 377.6716Q419.2461 377.34015 418.39536 376.5115L417.87607 375.99222Q416.50607 374.62222 416.38452 373.24115Q416.27405 371.84903 417.4231 370.69998Q418.37326 369.7498 419.43393 369.6614Q420.4946 369.57303 421.51105 370.3243L420.71555 371.1198Q419.29028 370.1586 418.09705 371.35184Q417.2905 372.1584 417.4452 373.13065Q417.5888 374.0919 418.64948 375.17462L419.13562 375.66077Q420.15207 376.67725 421.2238 376.82086Q422.28445 376.95346 423.07996 376.15796Q423.52188 375.716 423.7539 375.28513Q423.99698 374.84317 423.97488 374.37915L422.62695 373.03122L421.23483 374.42334L420.58298 373.77148L422.7706 371.58386L424.9803 373.79358ZM429.6207 370.74417Q429.4218 370.6779 429.03513 370.37958Q429.06827 371.4734 428.328 372.21362Q427.6651 372.87653 426.85855 372.9318Q426.06305 372.97598 425.47748 372.3904Q424.78143 371.69434 424.92505 370.7773Q425.0687 369.8603 426.04095 368.888L426.78122 368.14777L426.42764 367.79422Q426.0299 367.39645 425.5548 367.4075Q425.07974 367.39645 424.60464 367.87155Q424.19586 368.28033 424.12955 368.76648Q424.05222 369.24158 424.35052 369.5399L423.57712 370.31326Q423.23462 369.97076 423.1573 369.42938Q423.091 368.87695 423.32303 368.29138Q423.54398 367.69476 424.03012 367.20865Q424.81458 366.4242 425.63217 366.38Q426.46082 366.32474 427.15686 366.97662L429.22293 369.0427Q429.84164 369.6614 430.36093 369.87134L430.42722 369.93762L429.6207 370.74417ZM427.76453 371.42917Q428.12912 371.06458 428.26172 370.55634Q428.3943 370.04813 428.23962 369.60617L427.3226 368.68915L426.72595 369.28577Q425.31177 370.69998 426.14038 371.52863Q426.49396 371.88217 426.94693 371.84903Q427.3889 371.80484 427.76453 371.42917ZM430.17313 362.59033Q429.97424 362.74503 429.77536 362.9439Q429.013 363.70624 429.38867 364.61224L432.57065 367.79422L431.8083 368.55655L427.3226 364.07086L428.06284 363.3306L428.59317 363.83884Q428.3722 362.86655 429.06827 362.1705Q429.2892 361.94952 429.466 361.88324L430.17313 362.59033ZM432.13974 363.651Q431.48788 362.99915 431.21167 362.2147Q430.9465 361.4192 431.13434 360.67896Q431.31113 359.92764 431.8967 359.34207Q432.81372 358.42505 434.00696 358.49133Q435.21124 358.54657 436.2719 359.60724L436.32715 359.66248Q436.979 360.31433 437.24417 361.08774Q437.50934 361.86115 437.34363 362.6235Q437.16684 363.3748 436.55917 363.98245Q435.6532 364.88843 434.44888 364.8332Q433.2446 364.75586 432.195 363.70624L432.13974 363.651ZM433.01257 362.97705Q433.75284 363.7173 434.54834 363.8278Q435.3549 363.92722 435.9294 363.3527Q436.51498 362.76712 436.40448 361.97162Q436.28296 361.16507 435.4543 360.33646Q434.7251 359.60724 433.91858 359.5078Q433.11203 359.38626 432.52646 359.97183Q431.96298 360.5353 432.0624 361.34186Q432.16183 362.1263 433.01257 362.97705ZM435.8189 355.57452L436.40448 356.1159Q436.28296 354.9558 437.1116 354.12717Q438.53687 352.7019 440.14993 354.29288L443.11096 357.2539L442.33755 358.02728L439.3655 355.05524Q438.8904 354.58014 438.4374 354.5691Q437.99548 354.547 437.53143 355.01105Q437.1558 355.3867 437.0674 355.87283Q436.99005 356.34793 437.1558 356.823L440.34882 360.01602L439.58646 360.77838L435.10077 356.29266L435.8189 355.57452ZM440.76868 350.6248L441.35425 351.16614Q441.2327 350.00604 442.06134 349.1774Q443.4866 347.75214 445.0997 349.34314L448.0607 352.30414L447.2873 353.07755L444.31525 350.1055Q443.84015 349.6304 443.38718 349.61935Q442.94522 349.59726 442.4812 350.0613Q442.10553 350.43695 442.01715 350.9231Q441.93982 351.39816 442.10553 351.87326L445.29855 355.06628L444.53622 355.82864L440.0505 351.34293L440.76868 350.6248ZM451.4305 349.1111Q450.5135 350.02814 449.34235 350.00604Q448.1712 349.96185 447.16577 348.95645L447.0332 348.82385Q446.35922 348.1499 446.09406 347.3765Q445.81784 346.59204 445.98358 345.8518Q446.1493 345.08945 446.67963 344.5591Q447.55246 343.68628 448.61313 343.7747Q449.6738 343.86307 450.7455 344.93478L451.06592 345.2552L448.02756 348.29352Q448.71255 348.93436 449.48596 348.97855Q450.27042 349.0117 450.84494 348.43716Q451.24268 348.0394 451.35318 347.59747Q451.4747 347.14447 451.41946 346.6473L452.2481 346.54785Q452.55746 347.98416 451.4305 349.1111ZM447.30942 345.1889Q446.84537 345.65292 446.86746 346.31583Q446.88956 346.95667 447.43094 347.6306L449.6738 345.38776L449.61856 345.33252Q448.99982 344.7801 448.39215 344.74695Q447.79553 344.70276 447.30942 345.1889Z" fill-rule="nonzero"/><path fill="#000000" d="M441.3178 423.97604L443.6822 426.34042L442.8867 427.13593L436.8542 421.10342L439.086 418.8716Q440.0693 417.88828 441.14102 417.83304Q442.2017 417.76675 443.04138 418.60645Q443.9142 419.47928 443.83685 420.5068Q443.77057 421.52325 442.74307 422.55078L441.3178 423.97604ZM440.66592 423.32416L442.10223 421.88785Q442.74307 421.24704 442.7762 420.61728Q442.8204 419.97647 442.25693 419.413Q441.71555 418.8716 441.05264 418.8937Q440.3897 418.8937 439.78204 419.47928L438.30154 420.95978L440.66592 423.32416ZM448.76453 419.00418L446.45535 414.59583L447.27295 413.77823L450.6538 420.76093Q451.34988 422.29666 450.44388 423.20264L450.27817 423.34628L449.94672 423.56723L449.328 422.94852L449.5379 422.7607Q449.93567 422.36295 449.9909 421.99835Q450.0572 421.6227 449.78098 421.05923L449.48267 420.42944L443.45016 417.601L444.28986 416.76135L448.76453 419.00418ZM451.04053 411.3807Q450.84164 411.53537 450.64276 411.73425Q449.8804 412.4966 450.25607 413.4026L453.43805 416.58456L452.6757 417.34692L448.19 412.8612L448.93024 412.12094L449.46057 412.62918Q449.2396 411.65692 449.93567 410.96085Q450.15662 410.73987 450.3334 410.67358L451.04053 411.3807ZM457.44867 412.7507Q456.53165 413.66776 455.3605 413.64566Q454.18936 413.60144 453.18393 412.59604L453.05136 412.46344Q452.37738 411.7895 452.1122 411.01608Q451.836 410.23166 452.00174 409.4914Q452.16745 408.72903 452.69778 408.19873Q453.57062 407.3259 454.6313 407.41428Q455.69196 407.50266 456.76367 408.57437L457.08408 408.89478L454.04572 411.93314Q454.7307 412.57394 455.50412 412.61813Q456.28857 412.65128 456.8631 412.07675Q457.26083 411.67902 457.37134 411.23706Q457.49286 410.7841 457.43762 410.2869L458.26627 410.18747Q458.57562 411.62378 457.44867 412.7507ZM453.32758 408.8285Q452.86353 409.2925 452.88562 409.95544Q452.9077 410.59625 453.4491 411.2702L455.69196 409.02734L455.63672 408.9721Q455.01797 408.41968 454.4103 408.38654Q453.8137 408.34235 453.32758 408.8285ZM451.28357 406.0111L452.21167 405.08304L452.3111 407.41428L451.69238 408.033L451.28357 406.0111ZM455.97922 405.072L456.5648 405.61337Q456.44324 404.45325 457.27188 403.62463Q458.69714 402.19937 460.31024 403.79034L463.27124 406.75134L462.49786 407.52475L459.5258 404.5527Q459.05072 404.0776 458.59772 404.06656Q458.15576 404.04446 457.69174 404.5085Q457.3161 404.88416 457.2277 405.3703Q457.15036 405.84537 457.3161 406.32047L460.50912 409.5135L459.74677 410.27585L455.26105 405.79013L455.97922 405.072ZM466.64105 403.55832Q465.72403 404.47537 464.5529 404.45325Q463.38174 404.40906 462.3763 403.40366L462.24374 403.27106Q461.56976 402.5971 461.3046 401.8237Q461.0284 401.03925 461.19412 400.299Q461.35986 399.53665 461.8902 399.00632Q462.76303 398.13348 463.82367 398.2219Q464.88434 398.31027 465.95605 399.382L466.27646 399.7024L463.2381 402.74072Q463.92313 403.38156 464.6965 403.42575Q465.48096 403.4589 466.05548 402.88437Q466.45322 402.48663 466.56372 402.04468Q466.68524 401.59167 466.63 401.0945L467.45865 400.99506Q467.768 402.43137 466.64105 403.55832ZM462.51996 399.6361Q462.0559 400.10013 462.078 400.76306Q462.1001 401.40387 462.64148 402.07782L464.88434 399.83496L464.8291 399.77972Q464.2104 399.2273 463.60272 399.19415Q463.00607 399.14996 462.51996 399.6361ZM460.47598 396.81873L461.40405 395.89062L461.50348 398.2219L460.88477 398.8406L460.47598 396.81873ZM470.8837 399.31567Q469.96667 400.23273 468.79553 400.21063Q467.6244 400.1664 466.61896 399.161L466.4864 399.0284Q465.8124 398.35446 465.54724 397.58105Q465.27103 396.79663 465.43677 396.05637Q465.6025 395.294 466.1328 394.7637Q467.00565 393.89084 468.0663 393.97925Q469.12698 394.06763 470.1987 395.13934L470.5191 395.45975L467.48074 398.4981Q468.16574 399.13892 468.93915 399.1831Q469.7236 399.21625 470.29813 398.64172Q470.69586 398.244 470.80637 397.80203Q470.9279 397.34906 470.87265 396.85187L471.7013 396.7524Q472.01065 398.18875 470.8837 399.31567ZM466.7626 395.39346Q466.29855 395.85748 466.32065 396.52042Q466.34274 397.16122 466.88412 397.83517L469.12698 395.59232L469.07175 395.53708Q468.453 394.98465 467.84534 394.9515Q467.24872 394.90732 466.7626 395.39346ZM474.596 393.0401Q474.28665 392.73074 473.87784 392.8081Q473.46906 392.86334 472.76196 393.3274Q472.0659 393.78036 471.5466 393.9461Q471.02734 394.11182 470.62958 394.04553Q470.23184 393.95715 469.9004 393.6257Q469.34796 393.07327 469.43634 392.23358Q469.51367 391.38284 470.2429 390.65363Q471.00522 389.89127 471.867 389.82498Q472.7288 389.7366 473.3365 390.34427L472.57413 391.10663Q472.26477 390.79727 471.76758 390.8525Q471.2704 390.88565 470.87265 391.2834Q470.4528 391.70325 470.39755 392.13412Q470.34232 392.54294 470.62958 392.8302Q470.9058 393.1064 471.2704 393.02905Q471.635 392.95172 472.3421 392.5098Q473.03818 392.0568 473.56848 391.88Q474.09882 391.70325 474.51868 391.79163Q474.94955 391.86896 475.3031 392.22253Q475.9108 392.8302 475.78925 393.68094Q475.67877 394.52063 474.9164 395.28296Q474.37503 395.82434 473.76736 396.05637Q473.1597 396.2663 472.58517 396.1558Q472.01065 396.04532 471.6129 395.64758L472.37524 394.88522Q472.78406 395.24982 473.3033 395.19458Q473.81155 395.1283 474.28665 394.6532Q474.71753 394.22232 474.80594 393.78036Q474.89432 393.33844 474.596 393.0401ZM481.41296 385.44977L478.88284 387.9799L479.89932 390.1233L479.08173 390.9409L475.34732 382.6103L476.04337 381.91425L484.385 385.6376L483.5674 386.45517L481.41296 385.44977ZM478.47406 387.08496L480.52908 385.0299L476.68417 383.24005L478.47406 387.08496ZM480.6727 378.21298L481.75546 379.29572L482.5841 378.46707L483.18073 379.06372L482.35208 379.89233L485.12527 382.66553Q485.4015 382.94174 485.64456 382.96384Q485.88763 382.98593 486.15277 382.72076Q486.28537 382.5882 486.4732 382.31198L487.09192 382.9307Q486.882 383.31738 486.59473 383.60464Q486.0865 384.11288 485.51196 384.0687Q484.9264 384.01346 484.35187 383.43893L481.57867 380.66574L480.7611 381.48334L480.16446 380.88672L480.98206 380.06912L479.89932 378.98636L480.6727 378.21298ZM488.85968 381.16293L488.09732 381.9253L481.73337 375.5613L482.49573 374.79898L488.85968 381.16293ZM492.9145 377.10812Q492.7156 377.04184 492.32892 376.7435Q492.36206 377.8373 491.62183 378.57758Q490.9589 379.24048 490.15234 379.29572Q489.35687 379.33994 488.7713 378.75433Q488.07523 378.0583 488.21887 377.14127Q488.3625 376.22424 489.33478 375.25195L490.075 374.51172L489.72147 374.15814Q489.32373 373.7604 488.84863 373.77145Q488.37354 373.7604 487.89847 374.2355Q487.48965 374.6443 487.42337 375.13043Q487.34604 375.6055 487.64435 375.90384L486.87094 376.67722Q486.52844 376.33472 486.45108 375.79333Q486.3848 375.2409 486.61682 374.65533Q486.8378 374.05872 487.32394 373.57257Q488.10837 372.78815 488.92596 372.74393Q489.7546 372.6887 490.45065 373.34058L492.51675 375.40665Q493.13547 376.02536 493.65475 376.2353L493.72104 376.30157L492.9145 377.10812ZM491.05835 377.79312Q491.42294 377.42853 491.5555 376.9203Q491.6881 376.41205 491.53342 375.97012L490.6164 375.0531L490.01978 375.64972Q488.60556 377.06393 489.4342 377.89255Q489.78775 378.24612 490.24075 378.21298Q490.68268 378.16876 491.05835 377.79312ZM491.33456 369.71664L491.92014 370.25803Q491.79858 369.09793 492.62723 368.2693Q494.0525 366.84402 495.6656 368.435L498.6266 371.39603L497.85318 372.1694L494.88113 369.19736Q494.40604 368.72226 493.95306 368.7112Q493.5111 368.68912 493.0471 369.15317Q492.67142 369.5288 492.58304 370.01495Q492.5057 370.49005 492.67142 370.96512L495.86444 374.15814L495.1021 374.9205L490.6164 370.43478L491.33456 369.71664ZM495.52194 363.36374L496.6047 364.44647L497.43335 363.61786L498.02997 364.21448L497.20132 365.04312L499.97452 367.81628Q500.25073 368.0925 500.4938 368.1146Q500.73685 368.1367 501.002 367.87152Q501.1346 367.73895 501.32245 367.46274L501.94116 368.08145Q501.73123 368.46814 501.44397 368.7554Q500.93573 369.26364 500.3612 369.21945Q499.77563 369.1642 499.2011 368.5897L496.42792 365.8165L495.61035 366.6341L495.0137 366.03748L495.8313 365.21988L494.74857 364.13712L495.52194 363.36374ZM503.70892 366.3137L502.94656 367.07605L498.46088 362.59033L499.2232 361.82797L503.70892 366.3137ZM497.21237 361.47443Q497.02454 361.2866 497.00244 361.04355Q496.9914 360.78943 497.21237 360.56845Q497.43335 360.34747 497.67642 360.36957Q497.93054 360.3806 498.11835 360.56845Q498.29514 360.7452 498.30618 360.99933Q498.31723 361.23135 498.09625 361.45233Q497.87527 361.6733 497.63223 361.6733Q497.38916 361.6512 497.21237 361.47443ZM502.53778 362.93283Q501.4771 361.87216 501.34454 360.78943Q501.21194 359.68457 502.02954 358.86697Q502.82504 358.07147 503.8194 358.13776L503.39957 357.65164L504.10666 356.94452L510.31595 363.1538L509.54254 363.92722L507.39914 361.78378Q507.44333 362.75604 506.68097 363.5184Q505.86337 364.336 504.7475 364.19238Q503.6316 364.02664 502.59302 362.98807L502.53778 362.93283ZM503.38852 362.25888Q504.15085 363.0212 504.9132 363.14276Q505.6866 363.25323 506.23904 362.7008Q506.92404 362.0158 506.66992 361.0546L504.47128 358.85593Q503.5211 358.63495 502.8582 359.29785Q502.2947 359.86133 502.40518 360.63474Q502.52673 361.3971 503.38852 362.25888ZM512.27155 356.8672Q512.3599 357.83945 511.4871 358.71228Q510.76895 359.43045 509.97345 359.38626Q509.17795 359.34207 508.36035 358.52448L505.44354 355.60764L506.2059 354.8453L509.10062 357.74002Q510.1281 358.76755 510.95676 357.9389Q511.84064 357.05502 511.465 356.10483L508.2057 352.84552L508.97906 352.0721L513.4648 356.55783L512.7356 357.28702L512.27155 356.8672ZM516.84564 353.35376Q515.9286 354.27078 514.75745 354.2487Q513.5863 354.2045 512.5809 353.19907L512.4483 353.0665Q511.77435 352.39252 511.5092 351.61914Q511.23297 350.8347 511.3987 350.09442Q511.56442 349.3321 512.0948 348.80176Q512.9676 347.92892 514.02826 348.0173Q515.0889 348.10568 516.16064 349.1774L516.481 349.4978L513.4427 352.53616Q514.1277 353.17697 514.9011 353.22116Q515.68555 353.2543 516.2601 352.67978Q516.65784 352.28204 516.7683 351.8401Q516.88983 351.38712 516.8346 350.88992L517.6632 350.7905Q517.9726 352.2268 516.84564 353.35376ZM512.72455 349.43152Q512.2605 349.89554 512.2826 350.55847Q512.3047 351.19928 512.84607 351.87323L515.0889 349.6304L515.0337 349.57513Q514.415 349.0227 513.8073 348.98956Q513.2107 348.94537 512.72455 349.43152ZM520.5579 347.0782Q520.2486 346.76883 519.8398 346.84616Q519.43097 346.9014 518.7239 347.36545Q518.02783 347.81842 517.50854 347.98416Q516.98926 348.14987 516.5915 348.0836Q516.1938 347.9952 515.8623 347.66376Q515.3099 347.11133 515.39825 346.27164Q515.47565 345.4209 516.20483 344.69168Q516.96716 343.92935 517.829 343.86304Q518.69073 343.77466 519.2984 344.38232L518.5361 345.14468Q518.2267 344.83533 517.7295 344.89056Q517.23236 344.9237 516.8346 345.32144Q516.41473 345.7413 516.3595 346.17218Q516.30426 346.581 516.5915 346.86826Q516.86774 347.14447 517.23236 347.06714Q517.5969 346.98978 518.304 346.54785Q519.0001 346.09485 519.53046 345.9181Q520.0608 345.7413 520.4806 345.82968Q520.9115 345.90704 521.2651 346.2606Q521.87274 346.86826 521.7512 347.719Q521.6407 348.5587 520.87836 349.321Q520.337 349.8624 519.7293 350.09442Q519.12164 350.30435 518.5471 350.19388Q517.9726 350.08337 517.5748 349.68564L518.3372 348.92328Q518.746 349.28787 519.26526 349.23264Q519.7735 349.16635 520.2486 348.69125Q520.6795 348.26038 520.7679 347.81842Q520.85626 347.3765 520.5579 347.0782Z" fill-rule="nonzero"/><path fill="#000000" d="M516.6324 418.3192L518.99677 420.6836L518.2013 421.4791L512.16876 415.4466L514.4006 413.21478Q515.3839 412.23148 516.4556 412.1762Q517.51624 412.10992 518.35596 412.94962Q519.22876 413.82245 519.1514 414.84998Q519.08514 415.86642 518.0576 416.89395L516.6324 418.3192ZM515.9805 417.66736L517.4168 416.23105Q518.0576 415.5902 518.09076 414.96045Q518.13495 414.31964 517.5715 413.75616Q517.03015 413.21478 516.3672 413.23688Q515.7043 413.23688 515.0966 413.82245L513.61615 415.30295L515.9805 417.66736ZM524.0791 413.34735L521.76996 408.939L522.5875 408.1214L525.9684 415.1041Q526.6644 416.63983 525.7585 417.5458L525.5928 417.68945L525.2613 417.9104L524.6426 417.2917L524.8525 417.10388Q525.25024 416.70612 525.3055 416.34152Q525.37177 415.96588 525.0956 415.4024L524.79724 414.7726L518.7648 411.9442L519.60443 411.10452L524.0791 413.34735ZM526.3551 405.72388Q526.15625 405.87854 525.95734 406.07742Q525.195 406.83978 525.5706 407.74576L528.7526 410.92773L527.9903 411.6901L523.5046 407.20438L524.2448 406.4641L524.77515 406.97235Q524.5542 406.0001 525.25024 405.30402Q525.4712 405.08307 525.648 405.01675L526.3551 405.72388ZM532.76324 407.0939Q531.8462 408.01093 530.67505 407.98883Q529.5039 407.94464 528.49854 406.9392L528.3659 406.80664Q527.69196 406.13266 527.4268 405.35928Q527.1506 404.57483 527.31635 403.83456Q527.48206 403.07224 528.0124 402.5419Q528.8852 401.66907 529.94586 401.75745Q531.00653 401.84583 532.07825 402.91754L532.3986 403.23795L529.3603 406.2763Q530.0453 406.9171 530.8187 406.9613Q531.60315 406.99445 532.1777 406.41992Q532.57544 406.0222 532.6859 405.58023Q532.80743 405.12726 532.7522 404.63007L533.5809 404.53064Q533.8902 405.96695 532.76324 407.0939ZM528.64215 403.17166Q528.1781 403.63568 528.2002 404.2986Q528.2223 404.93942 528.7637 405.61337L531.00653 403.37054L530.9513 403.31528Q530.3326 402.76285 529.7249 402.7297Q529.1283 402.68552 528.64215 403.17166ZM526.59814 400.35428L527.52625 399.4262L527.6257 401.75745L527.00696 402.37616L526.59814 400.35428ZM531.2938 399.41516L531.8794 399.95654Q531.7578 398.79645 532.5865 397.9678Q534.0117 396.54254 535.6248 398.1335L538.5858 401.09454L537.81244 401.86792L534.8404 398.89587Q534.3653 398.42078 533.9123 398.40973Q533.47034 398.38763 533.0063 398.85168Q532.6307 399.22733 532.5423 399.71347Q532.46497 400.18854 532.6307 400.66364L535.82367 403.85666L535.06134 404.61902L530.5756 400.1333L531.2938 399.41516ZM541.9556 397.9015Q541.03864 398.81854 539.8675 398.79645Q538.6963 398.75223 537.6909 397.74683L537.5583 397.61423Q536.88434 396.94028 536.6192 396.16687Q536.34296 395.38245 536.5087 394.64218Q536.67444 393.87982 537.2048 393.3495Q538.0776 392.47665 539.13824 392.56506Q540.1989 392.65344 541.2706 393.72516L541.59106 394.04556L538.5527 397.08392Q539.2377 397.72473 540.0111 397.76892Q540.79553 397.80206 541.37006 397.22754Q541.7678 396.8298 541.8783 396.38785Q541.9998 395.93488 541.9446 395.43768L542.77325 395.33823Q543.0826 396.77454 541.9556 397.9015ZM537.83453 393.97928Q537.3705 394.4433 537.3926 395.10623Q537.4147 395.74704 537.95605 396.421L540.1989 394.17813L540.1437 394.1229Q539.52496 393.57047 538.9173 393.53732Q538.3207 393.49313 537.83453 393.97928ZM535.7905 391.1619L536.7186 390.23383L536.81805 392.56506L536.19934 393.18378L535.7905 391.1619ZM546.1983 393.65887Q545.28125 394.5759 544.1101 394.5538Q542.93896 394.5096 541.93353 393.50418L541.80096 393.3716Q541.127 392.69763 540.8618 391.92426Q540.58563 391.1398 540.75134 390.39954Q540.91705 389.63718 541.4474 389.10687Q542.32025 388.23404 543.3809 388.32242Q544.4416 388.4108 545.51324 389.4825L545.8337 389.80292L542.79535 392.84128Q543.48035 393.4821 544.2537 393.52628Q545.0382 393.55942 545.61273 392.9849Q546.01044 392.58716 546.1209 392.1452Q546.2425 391.69223 546.18726 391.19504L547.01587 391.0956Q547.32526 392.53192 546.1983 393.65887ZM542.07715 389.73663Q541.61316 390.20065 541.63525 390.8636Q541.65735 391.5044 542.1987 392.17834L544.4416 389.93552L544.3863 389.88025Q543.7676 389.32782 543.1599 389.29468Q542.5633 389.2505 542.07715 389.73663ZM549.9106 387.3833Q549.60126 387.07394 549.19244 387.15128Q548.7836 387.2065 548.07654 387.67056Q547.3805 388.12354 546.8612 388.28928Q546.3419 388.455 545.94415 388.3887Q545.5464 388.30032 545.21497 387.96887Q544.66254 387.41644 544.7509 386.57675Q544.82825 385.726 545.55743 384.9968Q546.3198 384.23447 547.1816 384.16815Q548.0434 384.07977 548.65106 384.68744L547.88873 385.4498Q547.57935 385.14044 547.08215 385.19568Q546.58496 385.22882 546.18726 385.62656Q545.7674 386.04642 545.71216 386.4773Q545.6569 386.8861 545.94415 387.17337Q546.2204 387.4496 546.58496 387.37225Q546.9496 387.2949 547.6567 386.85297Q548.3527 386.39996 548.88306 386.2232Q549.4134 386.04642 549.83325 386.1348Q550.26416 386.21216 550.6177 386.5657Q551.22534 387.17337 551.1038 388.0241Q550.99335 388.8638 550.231 389.62613Q549.68964 390.1675 549.082 390.39954Q548.4743 390.60947 547.8998 390.499Q547.32526 390.3885 546.9275 389.99075L547.6898 389.2284Q548.09863 389.593 548.6179 389.53775Q549.12616 389.47147 549.60126 388.99637Q550.0321 388.5655 550.1205 388.12354Q550.2089 387.6816 549.9106 387.3833ZM556.7938 377.25177Q557.67773 378.13565 558.0423 379.0969Q558.3959 380.04706 558.197 380.95303Q558.00916 381.84796 557.27997 382.57718Q556.5729 383.28427 555.6669 383.48315Q554.7609 383.68204 553.8107 383.35056Q552.86053 382.997 551.98773 382.14627L551.5568 381.7154Q550.68396 380.84256 550.3194 379.88132Q549.9658 378.90906 550.16473 378.00308Q550.35254 377.08606 551.0707 376.3679Q551.7888 375.64975 552.6948 375.45087Q553.6008 375.25198 554.562 375.61658Q555.52325 375.9812 556.4071 376.86508L556.7938 377.25177ZM555.61163 377.63846Q554.5399 376.56677 553.5345 376.42313Q552.5291 376.2795 551.7557 377.0529Q550.99335 377.81525 551.13696 378.82068Q551.2806 379.82608 552.286 380.8536L552.739 381.30658Q553.7776 382.34515 554.8051 382.5109Q555.8326 382.6545 556.595 381.89215Q557.36835 381.11877 557.2358 380.14648Q557.1032 379.15213 556.06464 378.09146L555.61163 377.63846ZM558.882 373.19696Q558.6831 373.35162 558.48425 373.5505Q557.7219 374.31287 558.09753 375.21884L561.27954 378.40082L560.5172 379.16318L556.0315 374.67746L556.7717 373.93723L557.30206 374.44543Q557.0811 373.47318 557.77716 372.7771Q557.9981 372.55615 558.1749 372.48984L558.882 373.19696ZM564.17426 375.5061L563.4119 376.26846L558.9262 371.78275L559.68854 371.0204L564.17426 375.5061ZM557.67773 370.66684Q557.48987 370.479 557.4678 370.23596Q557.4567 369.98184 557.67773 369.76086Q557.8987 369.5399 558.1417 369.56198Q558.3959 369.57303 558.5837 369.76086Q558.7605 369.93765 558.77155 370.19174Q558.7826 370.42377 558.5616 370.64474Q558.34064 370.86572 558.09753 370.86572Q557.8545 370.84363 557.67773 370.66684ZM567.4115 372.44565Q566.49445 373.3627 565.3233 373.34058Q564.15216 373.2964 563.1467 372.291L563.01416 372.1584Q562.3402 371.48444 562.075 370.71103Q561.7988 369.9266 561.96454 369.18634Q562.13025 368.42398 562.6606 367.89365Q563.53345 367.0208 564.5941 367.10922Q565.6548 367.1976 566.7265 368.26932L567.0469 368.58972L564.00854 371.62805Q564.69354 372.2689 565.4669 372.31308Q566.2514 372.34622 566.8259 371.7717Q567.22363 371.37396 567.33417 370.932Q567.4557 370.479 567.40045 369.98184L568.22906 369.8824Q568.53845 371.3187 567.4115 372.44565ZM563.29034 368.52344Q562.82635 368.98746 562.84845 369.6504Q562.87054 370.2912 563.4119 370.96515L565.6548 368.7223L565.59955 368.66705Q564.9808 368.11462 564.3731 368.08148Q563.7765 368.0373 563.29034 368.52344ZM565.942 364.7669L566.5276 365.3083Q566.40607 364.1482 567.2347 363.31955Q568.66 361.8943 570.2731 363.4853L573.2341 366.4463L572.4607 367.2197L569.4886 364.24765Q569.01355 363.77255 568.56055 363.7615Q568.1186 363.7394 567.65454 364.20343Q567.2789 364.5791 567.1905 365.06522Q567.11316 365.5403 567.2789 366.0154L570.4719 369.20844L569.7096 369.9708L565.2239 365.48508L565.942 364.7669ZM570.1294 358.414L571.21216 359.49677L572.04083 358.66812L572.63745 359.26474L571.8088 360.09338L574.582 362.86658Q574.8582 363.1428 575.10126 363.1649Q575.34436 363.18698 575.6095 362.9218Q575.74207 362.78925 575.92993 362.51303L576.54865 363.13174Q576.3387 363.51843 576.05145 363.8057Q575.5432 364.31393 574.9687 364.26974Q574.3831 364.2145 573.8086 363.63995L571.0354 360.8668L570.21783 361.6844L569.6212 361.08777L570.4388 360.27017L569.356 359.1874L570.1294 358.414ZM580.2499 359.43048Q580.051 359.3642 579.6643 359.06586Q579.69745 360.15967 578.9572 360.89993Q578.2943 361.56284 577.48773 361.61807Q576.69226 361.6623 576.1067 361.07672Q575.41064 360.38065 575.55426 359.46362Q575.6979 358.5466 576.67017 357.5743L577.4104 356.83408L577.0569 356.4805Q576.6591 356.08276 576.184 356.0938Q575.7089 356.08276 575.2338 356.55786Q574.8251 356.96664 574.7588 357.4528Q574.6814 357.9279 574.97974 358.2262L574.20636 358.99957Q573.86383 358.65707 573.7865 358.1157Q573.7202 357.56326 573.9522 356.9777Q574.1732 356.38107 574.6593 355.89493Q575.4438 355.1105 576.26135 355.06628Q577.09 355.01105 577.7861 355.66293L579.8521 357.729Q580.4709 358.34772 580.9901 358.55765L581.05646 358.62393L580.2499 359.43048ZM578.39374 360.11548Q578.75836 359.7509 578.8909 359.24265Q579.0235 358.7344 578.86884 358.29248L577.9518 357.37546L577.35516 357.97208Q575.941 359.3863 576.7696 360.21494Q577.12317 360.56848 577.5762 360.53534Q578.01807 360.49112 578.39374 360.11548ZM583.2661 356.4142L582.5038 357.17657L576.13983 350.81262L576.90216 350.05026L583.2661 356.4142ZM586.50336 353.35376Q585.58636 354.2708 584.41516 354.24872Q583.244 354.2045 582.23865 353.1991L582.106 353.0665Q581.43207 352.39255 581.16693 351.61914Q580.8907 350.83472 581.05646 350.09445Q581.22217 349.3321 581.7525 348.8018Q582.6253 347.92896 583.686 348.01733Q584.74664 348.1057 585.81836 349.17743L586.13873 349.49783L583.1004 352.5362Q583.7854 353.177 584.55884 353.2212Q585.34326 353.25433 585.9178 352.6798Q586.31555 352.28207 586.426 351.84012Q586.54755 351.38715 586.4923 350.88995L587.321 350.79053Q587.6303 352.22684 586.50336 353.35376ZM582.38226 349.43155Q581.9182 349.89557 581.9403 350.5585Q581.9624 351.1993 582.5038 351.87326L584.74664 349.6304L584.6914 349.57516Q584.0727 349.02274 583.465 348.9896Q582.8684 348.9454 582.38226 349.43155ZM590.2157 347.07822Q589.9063 346.76883 589.4975 346.8462Q589.08875 346.90143 588.3816 347.36548Q587.68555 347.81845 587.16626 347.9842Q586.647 348.1499 586.24927 348.08362Q585.8515 347.99524 585.52 347.6638Q584.9676 347.11136 585.056 346.27167Q585.13336 345.42093 585.86255 344.6917Q586.6249 343.92938 587.4867 343.86307Q588.34845 343.7747 588.9561 344.38235L588.1938 345.1447Q587.88446 344.83536 587.38727 344.8906Q586.8901 344.92374 586.4923 345.32147Q586.07245 345.74133 586.0172 346.1722Q585.962 346.58102 586.24927 346.8683Q586.52545 347.1445 586.8901 347.06714Q587.25464 346.9898 587.9618 346.54788Q588.65784 346.09488 589.1882 345.9181Q589.7185 345.74133 590.1383 345.8297Q590.5692 345.90704 590.9228 346.26062Q591.53046 346.8683 591.40894 347.71902Q591.29846 348.55872 590.5361 349.32104Q589.9947 349.86243 589.387 350.09445Q588.77936 350.30438 588.20483 350.19388Q587.6303 350.0834 587.23254 349.68567L587.99493 348.9233Q588.4037 349.2879 588.923 349.23267Q589.4312 349.16638 589.9063 348.69128Q590.3372 348.2604 590.4256 347.81845Q590.514 347.37653 590.2157 347.07822Z" fill-rule="nonzero"/><path fill="#000000" d="M643.9304 354.64645L641.98584 356.59097L647.3665 361.97162L646.58203 362.75607L641.2014 357.37543L639.25684 359.31998L638.605 358.66812L643.2785 353.99457L643.9304 354.64645ZM652.7361 356.60202Q652.53723 356.53574 652.1505 356.23743Q652.18365 357.33124 651.4434 358.0715Q650.7805 358.7344 649.97394 358.78964Q649.17847 358.83383 648.5929 358.24826Q647.89685 357.55222 648.04047 356.63516Q648.1841 355.71814 649.1564 354.74588L649.8966 354.0056L649.543 353.65207Q649.1453 353.25433 648.6702 353.26538Q648.1951 353.25433 647.72003 353.7294Q647.3113 354.1382 647.24493 354.62433Q647.1676 355.09943 647.46594 355.39774L646.6925 356.17114Q646.35004 355.82864 646.2727 355.28726Q646.2064 354.73483 646.4384 354.14926Q646.65936 353.55264 647.1455 353.0665Q647.93 352.28204 648.74756 352.23785Q649.5762 352.18262 650.2723 352.83447L652.3383 354.90054Q652.95703 355.5193 653.4763 355.7292L653.5426 355.7955L652.7361 356.60202ZM650.87994 357.28705Q651.2445 356.92242 651.37714 356.4142Q651.5097 355.90598 651.35504 355.46402L650.438 354.547L649.8414 355.14362Q648.4271 356.55783 649.2558 357.38647Q649.6094 357.74002 650.0623 357.70688Q650.5043 357.6627 650.87994 357.28705ZM653.2885 348.4482Q653.08966 348.60287 652.89075 348.80176Q652.1284 349.56412 652.5041 350.4701L655.68604 353.65207L654.9237 354.41443L650.438 349.9287L651.1782 349.18845L651.70856 349.6967Q651.4876 348.72443 652.18365 348.02835Q652.4046 347.8074 652.5814 347.7411L653.2885 348.4482ZM653.98456 346.38214L654.5701 346.9235Q654.4486 345.7634 655.2772 344.93478Q656.7025 343.50952 658.3156 345.1005L661.2766 348.0615L660.50323 348.8349L657.5311 345.86285Q657.0561 345.38776 656.6031 345.3767Q656.16113 345.3546 655.6971 345.81866Q655.3215 346.1943 655.23303 346.68045Q655.1557 347.15552 655.3215 347.6306L658.51447 350.82364L657.75214 351.586L653.2664 347.10028L653.98456 346.38214Z" fill-rule="nonzero"/><path fill="#757575" d="M28.19375 35.00625Q25.771875 34.31875 24.678125 33.31875Q23.584375 32.303123 23.584375 30.818748Q23.584375 29.131248 24.928125 28.037498Q26.271875 26.928123 28.4125 26.928123Q29.88125 26.928123 31.021875 27.506248Q32.178123 28.068748 32.803123 29.068748Q33.428123 30.053123 33.428123 31.240623L31.553125 31.240623Q31.553125 29.959373 30.725 29.224998Q29.9125 28.474998 28.4125 28.474998Q27.021875 28.474998 26.240625 29.084373Q25.475 29.693748 25.475 30.787498Q25.475 31.646873 26.209375 32.25625Q26.94375 32.85 28.709375 33.35Q30.490625 33.85 31.490625 34.459373Q32.490623 35.053123 32.975 35.85Q33.459373 36.646873 33.459373 37.740623Q33.459373 39.459373 32.115623 40.50625Q30.771875 41.553123 28.50625 41.553123Q27.053125 41.553123 25.771875 40.990623Q24.50625 40.428123 23.81875 39.459373Q23.13125 38.475 23.13125 37.225L25.021875 37.225Q25.021875 38.521873 25.975 39.271873Q26.928125 40.00625 28.50625 40.00625Q29.990625 40.00625 30.7875 39.4125Q31.584375 38.803123 31.584375 37.75625Q31.584375 36.709373 30.85 36.146873Q30.115625 35.56875 28.19375 35.00625ZM35.240623 35.975Q35.240623 34.4125 35.85 33.178123Q36.459373 31.928123 37.5375 31.256248Q38.63125 30.584373 40.0375 30.584373Q42.19375 30.584373 43.521873 32.084373Q44.865623 33.56875 44.865623 36.053123L44.865623 36.178123Q44.865623 37.725 44.271873 38.959373Q43.678123 40.178123 42.56875 40.865623Q41.475 41.553123 40.053123 41.553123Q37.9125 41.553123 36.56875 40.053123Q35.240623 38.553123 35.240623 36.1L35.240623 35.975ZM37.053123 36.178123Q37.053123 37.94375 37.865623 39.00625Q38.69375 40.06875 40.053123 40.06875Q41.428123 40.06875 42.240623 38.990623Q43.053123 37.9125 43.053123 35.975Q43.053123 34.225 42.225 33.146873Q41.396873 32.06875 40.0375 32.06875Q38.69375 32.06875 37.865623 33.13125Q37.053123 34.19375 37.053123 36.178123ZM51.81875 32.396873Q51.4125 32.334373 50.94375 32.334373Q49.1625 32.334373 48.521873 33.85L48.521873 41.35L46.725 41.35L46.725 30.787498L48.475 30.787498L48.50625 32.00625Q49.396873 30.584373 51.021873 30.584373Q51.553123 30.584373 51.81875 30.724998L51.81875 32.396873ZM56.1625 28.224998L56.1625 30.787498L58.146873 30.787498L58.146873 32.178123L56.1625 32.178123L56.1625 38.725Q56.1625 39.365623 56.428123 39.69375Q56.69375 40.00625 57.334373 40.00625Q57.646873 40.00625 58.19375 39.88125L58.19375 41.35Q57.475 41.553123 56.803123 41.553123Q55.6 41.553123 54.975 40.81875Q54.365623 40.084373 54.365623 38.725L54.365623 32.178123L52.44375 32.178123L52.44375 30.787498L54.365623 30.787498L54.365623 28.224998L56.1625 28.224998ZM62.678123 41.35L60.88125 41.35L60.88125 30.787498L62.678123 30.787498L62.678123 41.35ZM60.725 27.974998Q60.725 27.537498 60.990623 27.240623Q61.271873 26.928123 61.7875 26.928123Q62.31875 26.928123 62.584373 27.240623Q62.865623 27.537498 62.865623 27.974998Q62.865623 28.412498 62.584373 28.709373Q62.31875 29.006248 61.7875 29.006248Q61.271873 29.006248 60.990623 28.709373Q60.725 28.412498 60.725 27.974998ZM70.1 41.553123Q67.95937 41.553123 66.6 40.146873Q65.25625 38.725 65.25625 36.365623L65.25625 36.021873Q65.25625 34.459373 65.85 33.225Q66.45937 31.990623 67.5375 31.287498Q68.61562 30.584373 69.88125 30.584373Q71.94375 30.584373 73.08437 31.943748Q74.225 33.303123 74.225 35.834373L74.225 36.584373L67.06875 36.584373Q67.1 38.146873 67.975 39.115623Q68.85 40.06875 70.19375 40.06875Q71.1625 40.06875 71.81875 39.678123Q72.49062 39.2875 72.99062 38.646873L74.08437 39.50625Q72.75625 41.553123 70.1 41.553123ZM69.88125 32.06875Q68.7875 32.06875 68.0375 32.865623Q67.30312 33.6625 67.13125 35.1L72.4125 35.1L72.4125 34.959373Q72.33437 33.584373 71.6625 32.834373Q71.00625 32.06875 69.88125 32.06875ZM82.86562 38.553123Q82.86562 37.81875 82.31875 37.4125Q81.77187 37.00625 80.39687 36.709373Q79.02187 36.4125 78.20937 36.00625Q77.4125 35.6 77.02187 35.0375Q76.64687 34.459373 76.64687 33.678123Q76.64687 32.38125 77.74062 31.490623Q78.83437 30.584373 80.55312 30.584373Q82.35 30.584373 83.45937 31.521873Q84.58437 32.44375 84.58437 33.88125L82.75625 33.88125Q82.75625 33.146873 82.13125 32.615623Q81.50625 32.06875 80.55312 32.06875Q79.55312 32.06875 78.99062 32.50625Q78.44375 32.928123 78.44375 33.63125Q78.44375 34.271873 78.95937 34.615623Q79.475 34.94375 80.83437 35.25625Q82.19375 35.553123 83.02187 35.975Q83.86562 36.38125 84.27187 36.975Q84.67812 37.56875 84.67812 38.4125Q84.67812 39.834373 83.5375 40.69375Q82.4125 41.553123 80.6 41.553123Q79.33437 41.553123 78.35 41.1Q77.38125 40.646873 76.81875 39.85Q76.27187 39.0375 76.27187 38.1L78.08437 38.1Q78.13125 39.00625 78.80312 39.5375Q79.49062 40.06875 80.6 40.06875Q81.63125 40.06875 82.24062 39.6625Q82.86562 39.240623 82.86562 38.553123ZM96.19375 35.00625Q93.77187 34.31875 92.67812 33.31875Q91.58437 32.303123 91.58437 30.818748Q91.58437 29.131248 92.92812 28.037498Q94.27187 26.928123 96.4125 26.928123Q97.88125 26.928123 99.02187 27.506248Q100.17812 28.068748 100.80312 29.068748Q101.42812 30.053123 101.42812 31.240623L99.55312 31.240623Q99.55312 29.959373 98.725 29.224998Q97.9125 28.474998 96.4125 28.474998Q95.02187 28.474998 94.24062 29.084373Q93.475 29.693748 93.475 30.787498Q93.475 31.646873 94.20937 32.25625Q94.94375 32.85 96.70937 33.35Q98.49062 33.85 99.49062 34.459373Q100.49062 35.053123 100.975 35.85Q101.45937 36.646873 101.45937 37.740623Q101.45937 39.459373 100.11562 40.50625Q98.77187 41.553123 96.50625 41.553123Q95.05312 41.553123 93.77187 40.990623Q92.50625 40.428123 91.81875 39.459373Q91.13125 38.475 91.13125 37.225L93.02187 37.225Q93.02187 38.521873 93.975 39.271873Q94.92812 40.00625 96.50625 40.00625Q97.99062 40.00625 98.7875 39.4125Q99.58437 38.803123 99.58437 37.75625Q99.58437 36.709373 98.85 36.146873Q98.11562 35.56875 96.19375 35.00625ZM114.92812 41.35L113.0375 41.35L105.88125 30.396873L105.88125 41.35L104.00625 41.35L104.00625 27.131248L105.88125 27.131248L113.06875 38.13125L113.06875 27.131248L114.92812 27.131248L114.92812 41.35ZM126.0375 34.771873L119.88125 34.771873L119.88125 39.81875L127.0375 39.81875L127.0375 41.35L118.00625 41.35L118.00625 27.131248L126.94375 27.131248L126.94375 28.678123L119.88125 28.678123L119.88125 33.240623L126.0375 33.240623L126.0375 34.771873ZM142.64688 36.178123Q142.64688 38.6 141.5375 40.084373Q140.44376 41.553123 138.55313 41.553123Q136.63126 41.553123 135.52188 40.31875L135.52188 45.4125L133.725 45.4125L133.725 30.787498L135.36563 30.787498L135.45938 31.959373Q136.55313 30.584373 138.52188 30.584373Q140.42813 30.584373 141.5375 32.021873Q142.64688 33.459373 142.64688 36.021873L142.64688 36.178123ZM140.83438 35.975Q140.83438 34.19375 140.06876 33.1625Q139.31876 32.115623 137.99063 32.115623Q136.35 32.115623 135.52188 33.56875L135.52188 38.63125Q136.33438 40.06875 138.00626 40.06875Q139.30313 40.06875 140.06876 39.0375Q140.83438 38.00625 140.83438 35.975ZM151.24063 41.35Q151.08438 41.0375 150.99063 40.240623Q149.725 41.553123 147.975 41.553123Q146.4125 41.553123 145.4125 40.6625Q144.4125 39.771873 144.4125 38.4125Q144.4125 36.771873 145.6625 35.865623Q146.92813 34.94375 149.19376 34.94375L150.95938 34.94375L150.95938 34.115623Q150.95938 33.1625 150.38126 32.6Q149.81876 32.0375 148.725 32.0375Q147.75626 32.0375 147.1 32.5375Q146.44376 33.021873 146.44376 33.709373L144.63126 33.709373Q144.63126 32.928123 145.19376 32.19375Q145.75626 31.443748 146.70938 31.021873Q147.67813 30.584373 148.83438 30.584373Q150.6625 30.584373 151.69376 31.506248Q152.725 32.4125 152.77188 34.021873L152.77188 38.88125Q152.77188 40.334373 153.13126 41.19375L153.13126 41.35L151.24063 41.35ZM148.24063 39.975Q149.1 39.975 149.85 39.5375Q150.61563 39.1 150.95938 38.396873L150.95938 36.225L149.5375 36.225Q146.225 36.225 146.225 38.1625Q146.225 39.021873 146.7875 39.50625Q147.35 39.975 148.24063 39.975ZM160.81876 32.396873Q160.4125 32.334373 159.94376 32.334373Q158.1625 32.334373 157.52188 33.85L157.52188 41.35L155.725 41.35L155.725 30.787498L157.475 30.787498L157.50626 32.00625Q158.39688 30.584373 160.02188 30.584373Q160.55313 30.584373 160.81876 30.724998L160.81876 32.396873ZM167.27188 35.975Q167.27188 33.553123 168.42813 32.06875Q169.58438 30.584373 171.44376 30.584373Q173.30313 30.584373 174.38126 31.849998L174.38126 26.349998L176.19376 26.349998L176.19376 41.35L174.5375 41.35L174.44376 40.209373Q173.36563 41.553123 171.42813 41.553123Q169.6 41.553123 168.42813 40.053123Q167.27188 38.5375 167.27188 36.115623L167.27188 35.975ZM169.08438 36.178123Q169.08438 37.975 169.81876 38.990623Q170.56876 40.00625 171.88126 40.00625Q173.6 40.00625 174.38126 38.475L174.38126 33.615623Q173.58438 32.115623 171.89688 32.115623Q170.56876 32.115623 169.81876 33.146873Q169.08438 34.178123 169.08438 36.178123ZM183.1 41.553123Q180.95938 41.553123 179.6 40.146873Q178.25626 38.725 178.25626 36.365623L178.25626 36.021873Q178.25626 34.459373 178.85 33.225Q179.45938 31.990623 180.5375 31.287498Q181.61563 30.584373 182.88126 30.584373Q184.94376 30.584373 186.08438 31.943748Q187.225 33.303123 187.225 35.834373L187.225 36.584373L180.06876 36.584373Q180.1 38.146873 180.975 39.115623Q181.85 40.06875 183.19376 40.06875Q184.1625 40.06875 184.81876 39.678123Q185.49063 39.2875 185.99063 38.646873L187.08438 39.50625Q185.75626 41.553123 183.1 41.553123ZM182.88126 32.06875Q181.7875 32.06875 181.0375 32.865623Q180.30313 33.6625 180.13126 35.1L185.4125 35.1L185.4125 34.959373Q185.33438 33.584373 184.6625 32.834373Q184.00626 32.06875 182.88126 32.06875ZM183.44376 26.349998L185.63126 26.349998L183.00626 29.224998L181.55313 29.224998L183.44376 26.349998ZM198.64688 36.178123Q198.64688 38.6 197.5375 40.084373Q196.44376 41.553123 194.55313 41.553123Q192.63126 41.553123 191.52188 40.31875L191.52188 45.4125L189.725 45.4125L189.725 30.787498L191.36563 30.787498L191.45938 31.959373Q192.55313 30.584373 194.52188 30.584373Q196.42813 30.584373 197.5375 32.021873Q198.64688 33.459373 198.64688 36.021873L198.64688 36.178123ZM196.83438 35.975Q196.83438 34.19375 196.06876 33.1625Q195.31876 32.115623 193.99063 32.115623Q192.35 32.115623 191.52188 33.56875L191.52188 38.63125Q192.33438 40.06875 194.00626 40.06875Q195.30313 40.06875 196.06876 39.0375Q196.83438 38.00625 196.83438 35.975ZM207.24063 41.35Q207.08438 41.0375 206.99063 40.240623Q205.725 41.553123 203.975 41.553123Q202.4125 41.553123 201.4125 40.6625Q200.4125 39.771873 200.4125 38.4125Q200.4125 36.771873 201.6625 35.865623Q202.92813 34.94375 205.19376 34.94375L206.95938 34.94375L206.95938 34.115623Q206.95938 33.1625 206.38126 32.6Q205.81876 32.0375 204.725 32.0375Q203.75626 32.0375 203.1 32.5375Q202.44376 33.021873 202.44376 33.709373L200.63126 33.709373Q200.63126 32.928123 201.19376 32.19375Q201.75626 31.443748 202.70938 31.021873Q203.67813 30.584373 204.83438 30.584373Q206.6625 30.584373 207.69376 31.506248Q208.725 32.4125 208.77188 34.021873L208.77188 38.88125Q208.77188 40.334373 209.13126 41.19375L209.13126 41.35L207.24063 41.35ZM204.24063 39.975Q205.1 39.975 205.85 39.5375Q206.61563 39.1 206.95938 38.396873L206.95938 36.225L205.5375 36.225Q202.225 36.225 202.225 38.1625Q202.225 39.021873 202.7875 39.50625Q203.35 39.975 204.24063 39.975ZM216.81876 32.396873Q216.4125 32.334373 215.94376 32.334373Q214.1625 32.334373 213.52188 33.85L213.52188 41.35L211.725 41.35L211.725 30.787498L213.475 30.787498L213.50626 32.00625Q214.39688 30.584373 216.02188 30.584373Q216.55313 30.584373 216.81876 30.724998L216.81876 32.396873ZM221.1625 28.224998L221.1625 30.787498L223.14688 30.787498L223.14688 32.178123L221.1625 32.178123L221.1625 38.725Q221.1625 39.365623 221.42813 39.69375Q221.69376 40.00625 222.33438 40.00625Q222.64688 40.00625 223.19376 39.88125L223.19376 41.35Q222.475 41.553123 221.80313 41.553123Q220.6 41.553123 219.975 40.81875Q219.36563 40.084373 219.36563 38.725L219.36563 32.178123L217.44376 32.178123L217.44376 30.787498L219.36563 30.787498L219.36563 28.224998L221.1625 28.224998ZM230.1 41.553123Q227.95938 41.553123 226.6 40.146873Q225.25626 38.725 225.25626 36.365623L225.25626 36.021873Q225.25626 34.459373 225.85 33.225Q226.45938 31.990623 227.5375 31.287498Q228.61563 30.584373 229.88126 30.584373Q231.94376 30.584373 233.08438 31.943748Q234.225 33.303123 234.225 35.834373L234.225 36.584373L227.06876 36.584373Q227.1 38.146873 227.975 39.115623Q228.85 40.06875 230.19376 40.06875Q231.1625 40.06875 231.81876 39.678123Q232.49063 39.2875 232.99063 38.646873L234.08438 39.50625Q232.75626 41.553123 230.1 41.553123ZM229.88126 32.06875Q228.7875 32.06875 228.0375 32.865623Q227.30313 33.6625 227.13126 35.1L232.4125 35.1L232.4125 34.959373Q232.33438 33.584373 231.6625 32.834373Q231.00626 32.06875 229.88126 32.06875ZM238.4125 30.787498L238.45938 31.959373Q239.63126 30.584373 241.6 30.584373Q243.81876 30.584373 244.61563 32.2875Q245.14688 31.521873 245.99063 31.053123Q246.83438 30.584373 247.99063 30.584373Q251.45938 30.584373 251.52188 34.271873L251.52188 41.35L249.70938 41.35L249.70938 34.38125Q249.70938 33.240623 249.19376 32.678123Q248.67813 32.115623 247.45938 32.115623Q246.45938 32.115623 245.7875 32.725Q245.13126 33.31875 245.02188 34.334373L245.02188 41.35L243.20938 41.35L243.20938 34.428123Q243.20938 32.115623 240.94376 32.115623Q239.1625 32.115623 238.52188 33.63125L238.52188 41.35L236.70938 41.35L236.70938 30.787498L238.4125 30.787498ZM259.1 41.553123Q256.95938 41.553123 255.6 40.146873Q254.25626 38.725 254.25626 36.365623L254.25626 36.021873Q254.25626 34.459373 254.85 33.225Q255.45938 31.990623 256.5375 31.287498Q257.61563 30.584373 258.88126 30.584373Q260.94376 30.584373 262.08438 31.943748Q263.225 33.303123 263.225 35.834373L263.225 36.584373L256.06876 36.584373Q256.1 38.146873 256.975 39.115623Q257.85 40.06875 259.19376 40.06875Q260.1625 40.06875 260.81876 39.678123Q261.49063 39.2875 261.99063 38.646873L263.08438 39.50625Q261.75626 41.553123 259.1 41.553123ZM258.88126 32.06875Q257.7875 32.06875 257.0375 32.865623Q256.30313 33.6625 256.13126 35.1L261.4125 35.1L261.4125 34.959373Q261.33438 33.584373 260.6625 32.834373Q260.00626 32.06875 258.88126 32.06875ZM267.42813 30.787498L267.49063 32.115623Q268.69376 30.584373 270.64688 30.584373Q274.00626 30.584373 274.02188 34.365623L274.02188 41.35L272.225 41.35L272.225 34.35Q272.20938 33.209373 271.69376 32.6625Q271.19376 32.115623 270.1 32.115623Q269.225 32.115623 268.55313 32.584373Q267.89688 33.053123 267.52188 33.81875L267.52188 41.35L265.725 41.35L265.725 30.787498L267.42813 30.787498ZM279.1625 28.224998L279.1625 30.787498L281.14688 30.787498L281.14688 32.178123L279.1625 32.178123L279.1625 38.725Q279.1625 39.365623 279.42813 39.69375Q279.69376 40.00625 280.33438 40.00625Q280.64688 40.00625 281.19376 39.88125L281.19376 41.35Q280.475 41.553123 279.80313 41.553123Q278.6 41.553123 277.975 40.81875Q277.36563 40.084373 277.36563 38.725L277.36563 32.178123L275.44376 32.178123L275.44376 30.787498L277.36563 30.787498L277.36563 28.224998L279.1625 28.224998Z" fill-rule="nonzero"/></svg>