<svg xmlns="http://www.w3.org/2000/svg" viewBox="0 0 30 30"><defs><style>.cls-1{fill:#fff;fill-rule:evenodd;}</style></defs><title>github</title><g id="github"><path class="cls-1" d="M0,15.4A15.4,15.4,0,0,0,10.3,30c.8.1,1-.3,1-.7s0-1.3,0-2.6c-4.2.9-5.1-2.1-5.1-2.1a4,4,0,0,0-1.7-2.2c-1.4-1,.1-.9.1-.9A3.2,3.2,0,0,1,6.9,23a3.1,3.1,0,0,0,4.4,1.3,3.3,3.3,0,0,1,1-2.1c-3.3-.4-6.8-1.7-6.8-7.6A6,6,0,0,1,7,10.4a5.7,5.7,0,0,1,.1-4.1S8.4,6,11.2,8a13.9,13.9,0,0,1,7.5,0c2.9-2,4.1-1.6,4.1-1.6a5.7,5.7,0,0,1,.1,4.1,6,6,0,0,1,1.5,4.1c0,5.9-3.5,7.2-6.8,7.6a3.7,3.7,0,0,1,1,2.8c0,2.1,0,3.7,0,4.2s.3.9,1,.7A15.4,15.4,0,0,0,30,15.4,15.2,15.2,0,0,0,15,0,15.2,15.2,0,0,0,0,15.4Zm0,0"/></g></svg>