<svg id="logo" xmlns="http://www.w3.org/2000/svg" viewBox="0 0 250 115"><defs><style>.cls-1{fill:#ddc79d;}.cls-2{fill:#fff;}</style></defs><g id="job"><path class="cls-1" d="M46.53,101.34H44.07c-.09,0-.13,0-.13.13V113c0,.12.05.17.17.17h2.42a1.58,1.58,0,0,0,1.12-.35,1.47,1.47,0,0,0,.38-1.13v-9a1.34,1.34,0,0,0-.38-1.08A1.68,1.68,0,0,0,46.53,101.34ZM47,111.66a.83.83,0,0,1-.14.48.48.48,0,0,1-.41.18H45.1q-.12,0-.12-.15v-9.88c0-.07,0-.1.1-.1h1.35a.5.5,0,0,1,.41.16.61.61,0,0,1,.14.4Z"/><path class="cls-1" d="M55.93,112.32H54c-.08,0-.12,0-.12-.12v-4.48c0-.09,0-.14.12-.14h1.76a.15.15,0,0,0,.13-.08.67.67,0,0,0,.06-.36.69.69,0,0,0-.06-.37s-.08-.08-.11-.08H53.94c-.06,0-.09,0-.09-.1v-4.3c0-.07,0-.1.11-.1h2c.06,0,.1,0,.13-.15a.94.94,0,0,0,0-.3.65.65,0,0,0-.06-.29c0-.08-.08-.11-.13-.11H53a.13.13,0,0,0-.15.15v11.57c0,.08,0,.12.14.12h3a.12.12,0,0,0,.12-.08.75.75,0,0,0,0-.36.7.7,0,0,0,0-.36A.17.17,0,0,0,55.93,112.32Z"/><path class="cls-1" d="M63.15,101.34H62a1.59,1.59,0,0,0-1.11.34,1.48,1.48,0,0,0-.37,1.12v1.85a1.63,1.63,0,0,0,.22.82,5,5,0,0,0,.56.8c.23.27.47.53.73.79a10.5,10.5,0,0,1,.72.79,4.54,4.54,0,0,1,.57.8,1.63,1.63,0,0,1,.22.82v2.21a.78.78,0,0,1-.14.46.47.47,0,0,1-.41.18h-.87a.54.54,0,0,1-.42-.15.56.56,0,0,1-.14-.39v-.84c0-.13-.17-.2-.51-.2a.81.81,0,0,0-.41.07c-.08.06-.12.1-.12.13v.84a1.37,1.37,0,0,0,.37,1.08,1.64,1.64,0,0,0,1.11.33h1.11a1.54,1.54,0,0,0,1.11-.35,1.45,1.45,0,0,0,.38-1.11v-2.2a3.16,3.16,0,0,0-.22-1.19,4.13,4.13,0,0,0-.57-1,6.74,6.74,0,0,0-.73-.78c-.26-.24-.51-.48-.73-.72a3.86,3.86,0,0,1-.57-.74,1.67,1.67,0,0,1-.22-.86v-1.44a.78.78,0,0,1,.14-.46.47.47,0,0,1,.41-.18H63a.51.51,0,0,1,.42.15.56.56,0,0,1,.13.39v.84s.05.07.14.12a1.07,1.07,0,0,0,.39.06c.35,0,.53-.06.53-.18v-.84a1.37,1.37,0,0,0-.38-1.08A1.64,1.64,0,0,0,63.15,101.34Z"/><path class="cls-1" d="M70,101.25a1,1,0,0,0-.41.06c-.08,0-.12.08-.12.13v11.69q0,.15.54.15c.36,0,.53-.06.53-.19V101.44s0-.09-.13-.13A1,1,0,0,0,70,101.25Z"/><path class="cls-1" d="M78,101.34h-1.1a1.26,1.26,0,0,0-1.49,1.46v9c0,.94.5,1.41,1.49,1.41H78a1.54,1.54,0,0,0,1.11-.35,1.51,1.51,0,0,0,.38-1.13v-3.28a1,1,0,0,0-.07-.37c0-.13-.17-.19-.37-.19H77.2a.16.16,0,0,0-.14.09.82.82,0,0,0,0,.35,1,1,0,0,0,0,.38.14.14,0,0,0,.12.08h1.13a.15.15,0,0,1,.17.16v2.9a.47.47,0,0,1-.56.49H77a.54.54,0,0,1-.42-.15.56.56,0,0,1-.14-.39v-8.93a.72.72,0,0,1,.15-.47.46.46,0,0,1,.4-.19h1a.41.41,0,0,1,.4.19.93.93,0,0,1,.1.42v.77c0,.06,0,.1.15.13a1.28,1.28,0,0,0,.36,0,1.4,1.4,0,0,0,.38,0q.15,0,.15-.12v-.82a1.37,1.37,0,0,0-.38-1.08A1.64,1.64,0,0,0,78,101.34Z"/><path class="cls-1" d="M88,101.25c-.36,0-.53.06-.53.17v7.08c0,.09,0,.13,0,.1l0-.08s0-.12-.1-.33l-.23-.82c-.09-.34-.19-.72-.31-1.15s-.25-.86-.37-1.3c-.3-1-.62-2.23-1-3.53,0-.1-.24-.14-.58-.14a2,2,0,0,0-.41,0,.16.16,0,0,0-.12.17v11.63s0,.1.14.14a1.07,1.07,0,0,0,.39.06.82.82,0,0,0,.39-.07c.09,0,.14-.08.14-.12v-7.18s0-.07,0-.06,0,0,0,.06,0,.19.15.54.23.8.38,1.32.32,1.09.49,1.7.33,1.19.49,1.72.28,1,.38,1.33.15.54.15.56a.5.5,0,0,0,.15.13.71.71,0,0,0,.38.07,1,1,0,0,0,.4-.06c.08,0,.12-.08.12-.13V101.44C88.51,101.31,88.33,101.25,88,101.25Z"/><path class="cls-1" d="M102.9,112.32h-2c-.08,0-.12,0-.12-.12v-4.48c0-.09,0-.14.12-.14h1.75a.15.15,0,0,0,.13-.08.67.67,0,0,0,.06-.36.69.69,0,0,0-.06-.37s-.08-.08-.11-.08H100.9c-.06,0-.08,0-.08-.1v-4.3c0-.07,0-.1.1-.1h2s.1,0,.13-.15a1.36,1.36,0,0,0,0-.3.84.84,0,0,0,0-.29c0-.08-.08-.11-.14-.11H99.93a.13.13,0,0,0-.15.15v11.57c0,.08,0,.12.13.12h3a.12.12,0,0,0,.11-.08.72.72,0,0,0,.06-.36.67.67,0,0,0-.06-.36A.17.17,0,0,0,102.9,112.32Z"/><path class="cls-1" d="M111.93,101.34h-4.39c-.13,0-.19.14-.19.44s.07.43.21.43h1.55c.08,0,.12,0,.12.1v10.83c0,.06.06.1.2.11l.33,0a1.57,1.57,0,0,0,.32,0c.14,0,.21-.08.21-.14V102.31c0-.07,0-.1.08-.1h1.57c.06,0,.1,0,.13-.13a1,1,0,0,0,0-.32,1.35,1.35,0,0,0,0-.31A.14.14,0,0,0,111.93,101.34Z"/><path class="cls-1" d="M125.65,101.34h-1.13a1.59,1.59,0,0,0-1.11.34,1.48,1.48,0,0,0-.37,1.12v9c0,.94.49,1.41,1.48,1.41h1.13a1.66,1.66,0,0,0,1.1-.32,1.38,1.38,0,0,0,.38-1.09v-1s0-.09-.15-.13a.91.91,0,0,0-.39-.07.69.69,0,0,0-.38.08c-.09,0-.14.09-.14.12v1a.48.48,0,0,1-.54.54h-.89a.54.54,0,0,1-.42-.15.61.61,0,0,1-.13-.39v-8.93c0-.44.19-.66.55-.66h.89a.51.51,0,0,1,.42.16.65.65,0,0,1,.12.4v.82c0,.05.05.08.15.11a1.29,1.29,0,0,0,.38,0,1.06,1.06,0,0,0,.38,0c.1,0,.15-.07.15-.1v-.82a1.37,1.37,0,0,0-.38-1.08A1.66,1.66,0,0,0,125.65,101.34Z"/><path class="cls-1" d="M134.35,101.34h-1.11a1.63,1.63,0,0,0-1.12.34,1.49,1.49,0,0,0-.38,1.12v9a1.37,1.37,0,0,0,.38,1.08,1.68,1.68,0,0,0,1.12.33h1.11a1.54,1.54,0,0,0,1.11-.35,1.44,1.44,0,0,0,.37-1.11v-9a1.37,1.37,0,0,0-.37-1.08A1.64,1.64,0,0,0,134.35,101.34Zm.43,10.34a.78.78,0,0,1-.14.46.48.48,0,0,1-.41.18h-.89a.53.53,0,0,1-.41-.15.56.56,0,0,1-.13-.39v-8.93a.78.78,0,0,1,.13-.46.48.48,0,0,1,.41-.18h.89a.54.54,0,0,1,.42.15.61.61,0,0,1,.13.39Z"/><path class="cls-1" d="M144.28,101.25c-.35,0-.53.06-.53.17v7.08c0,.09,0,.13,0,.1l0-.08-.09-.33-.23-.82c-.09-.34-.2-.72-.32-1.15s-.24-.86-.37-1.3c-.29-1-.61-2.23-1-3.53,0-.1-.24-.14-.58-.14a2,2,0,0,0-.4,0,.17.17,0,0,0-.13.17v11.63s0,.1.15.14a1,1,0,0,0,.38.06.9.9,0,0,0,.4-.07c.09,0,.13-.08.13-.12v-7.18s0-.07,0-.06,0,0,0,.06.05.19.16.54.23.8.38,1.32.32,1.09.49,1.7.33,1.19.48,1.72.28,1,.39,1.33.15.54.15.56a.33.33,0,0,0,.15.13.71.71,0,0,0,.38.07.93.93,0,0,0,.39-.06c.08,0,.12-.08.12-.13l0-11.65C144.83,101.31,144.65,101.25,144.28,101.25Z"/><path class="cls-1" d="M152.22,101.34h-1.13a1.59,1.59,0,0,0-1.11.34,1.48,1.48,0,0,0-.37,1.12v9c0,.94.49,1.41,1.48,1.41h1.13a1.64,1.64,0,0,0,1.1-.32,1.38,1.38,0,0,0,.38-1.09v-1s0-.09-.15-.13a.91.91,0,0,0-.39-.07.69.69,0,0,0-.38.08c-.09,0-.14.09-.14.12v1a.48.48,0,0,1-.54.54h-.89a.54.54,0,0,1-.42-.15.61.61,0,0,1-.12-.39v-8.93q0-.66.54-.66h.89a.51.51,0,0,1,.42.16.65.65,0,0,1,.12.4v.82c0,.05.05.08.15.11a1.34,1.34,0,0,0,.38,0,1.06,1.06,0,0,0,.38,0c.1,0,.15-.07.15-.1v-.82a1.37,1.37,0,0,0-.38-1.08A1.64,1.64,0,0,0,152.22,101.34Z"/><path class="cls-1" d="M161.43,112.32h-2c-.08,0-.12,0-.12-.12v-4.48c0-.09,0-.14.12-.14h1.76a.16.16,0,0,0,.13-.08.67.67,0,0,0,.06-.36.69.69,0,0,0-.06-.37.17.17,0,0,0-.12-.08h-1.8c-.06,0-.09,0-.09-.1v-4.3a.09.09,0,0,1,.1-.1h2c.06,0,.1,0,.13-.15a1,1,0,0,0,0-.3.65.65,0,0,0,0-.29c0-.08-.08-.11-.13-.11h-3a.13.13,0,0,0-.15.15v11.57c0,.08,0,.12.14.12h3a.12.12,0,0,0,.12-.08.91.91,0,0,0,.05-.36.84.84,0,0,0-.05-.36A.17.17,0,0,0,161.43,112.32Z"/><path class="cls-1" d="M169.08,101.34H166.4c-.12,0-.17,0-.17.13v11.62s0,.09.13.13a.91.91,0,0,0,.38.06,1.09,1.09,0,0,0,.4-.06c.1,0,.15-.08.15-.11v-5.38s0-.08.08-.08h1.54a1.53,1.53,0,0,0,1.05-.34,1.31,1.31,0,0,0,.38-1v-3.55Q170.34,101.34,169.08,101.34Zm.2,4.77a.87.87,0,0,1-.12.49.49.49,0,0,1-.42.18h-1.35c-.07,0-.1,0-.1-.12v-4.37c0-.06,0-.08.12-.08h1.31a.54.54,0,0,1,.42.16.56.56,0,0,1,.14.38Z"/><path class="cls-1" d="M179.18,101.34H174.8c-.13,0-.19.14-.19.44s.07.43.2.43h1.55c.08,0,.12,0,.12.1v10.83c0,.06.07.1.2.11l.33,0a1.76,1.76,0,0,0,.33,0c.13,0,.2-.08.2-.14V102.31c0-.07,0-.1.09-.1h1.57c.05,0,.1,0,.13-.13a1.39,1.39,0,0,0,0-.32.93.93,0,0,0,0-.31A.13.13,0,0,0,179.18,101.34Z"/><path class="cls-1" d="M184.51,101.25a1,1,0,0,0-.41.06c-.08,0-.12.08-.12.13v11.69q0,.15.54.15c.36,0,.53-.06.53-.19V101.44s0-.09-.13-.13A1,1,0,0,0,184.51,101.25Z"/><path class="cls-1" d="M192.61,101.34H191.5a1.63,1.63,0,0,0-1.12.34,1.49,1.49,0,0,0-.38,1.12v9a1.37,1.37,0,0,0,.38,1.08,1.68,1.68,0,0,0,1.12.33h1.11a1.54,1.54,0,0,0,1.11-.35,1.45,1.45,0,0,0,.38-1.11v-9a1.37,1.37,0,0,0-.38-1.08A1.64,1.64,0,0,0,192.61,101.34Zm.43,10.34a.78.78,0,0,1-.14.46.48.48,0,0,1-.41.18h-.89a.54.54,0,0,1-.41-.15.56.56,0,0,1-.13-.39v-8.93a.78.78,0,0,1,.13-.46.5.5,0,0,1,.41-.18h.89a.51.51,0,0,1,.42.15.56.56,0,0,1,.13.39Z"/><path class="cls-1" d="M202.54,101.25c-.35,0-.53.06-.53.17v7.08c0,.09,0,.13,0,.1a.59.59,0,0,1,0-.08l-.09-.33-.23-.82c-.09-.34-.2-.72-.32-1.15s-.24-.86-.36-1.3c-.3-1-.62-2.23-1-3.53,0-.1-.24-.14-.58-.14a2,2,0,0,0-.4,0,.17.17,0,0,0-.13.17v11.63s0,.1.15.14a1,1,0,0,0,.38.06.87.87,0,0,0,.4-.07c.09,0,.13-.08.13-.12v-7.18s0-.07,0-.06,0,0,0,.06.05.19.16.54.23.8.38,1.32.32,1.09.49,1.7.33,1.19.48,1.72.29,1,.39,1.33.15.54.15.56a.33.33,0,0,0,.15.13.71.71,0,0,0,.38.07.93.93,0,0,0,.39-.06c.08,0,.12-.08.12-.13l0-11.65C203.09,101.31,202.91,101.25,202.54,101.25Z"/></g><g id="first-name"><path class="cls-1" d="M106.2,16.36c1,1.79,4.23,2.82,6.45,2.67,3-.21,3.35-9,3.23-11.36-.1-2.63-5.85-4.89-8.46-4.62s-3.3,1.73-2.92,5.12C104.94,12.21,105.71,15.49,106.2,16.36Z"/><path class="cls-1" d="M140.65,25.3c-2.72-.2-4.38,5.72-4.72,12.68-.21,3.82.16,4.13.44,7.48-1.19,6.91-4.49,16.78-5.55,16.75-1.45,0-1.73-11.4-1.65-17.88.09-7.26.82-13.34,1.47-15.38.41-1.35.72-1.51.73-2,.06-1.59-3-4.13-5.18-4.12-1.78,0-4,1.24-4.17,2.22-.46,3.45-.35,11.4-.23,15.61.06,2,.14,3.84.25,5.63-1.21,5.94-4,13.7-5,13.77-.59,0-1-2.74-1.34-7.55-.51-7.21-.65-17.76-.12-20.34a1.39,1.39,0,0,0,0-.41c-.06-1.34-3.59-4.22-6.57-3.93-1.45.14-2.48.71-2.38,1.69.06.56.34,2,.47,3.16,0,.55.73,8.09,1.3,14.19-1.3,11.4-5,19.07-6.54,19.33-1.36.26-4.07-4.92-5.74-9.55,4.12-8.65,5.71-29.3,4-42.75C99.53,8.65,97.65,3.41,92.69,2.8c-1.72-.2-3.17-1.36-5.31-1C78.69,3.51,80.54,24.77,85,42.15c2.64,10.77,7.22,26.07,14.69,27.07a16.27,16.27,0,0,0,3.93.51c3.36-.54,5.72-5.25,7.25-10.36A30.39,30.39,0,0,0,112.68,62c2.39,3.24,4,3.48,4.73,3.43h0c2.38-.15,4.56-3.79,6.17-7.86a19.68,19.68,0,0,0,1.76,4.77c1,1.93,2.55,2.29,3.46,3.08A5.42,5.42,0,0,0,132,67c3.91.15,7.2-8.72,9.68-17.17,1.34.13,3.85-.56,4-1.37s-1.06-2.33-2.49-3c1.12-5,2.79-12.13,3-13.79C146.34,29.55,143.51,25.5,140.65,25.3ZM94.81,52.23c-.67-2.43-1.37-5.29-2-8.28C89.67,28.78,88.19,7,91.31,6.42c.6-.11,1.47.54,2.72,8.1C96,27,95.68,45.48,94.81,52.23Z"/><path class="cls-1" d="M158.92,21.19c2.94.5,5.41-8,5.85-10.26.52-2.58-4.55-6.14-7.15-6.5s-3.61.9-4.05,4.28c-.53,4-.56,7.4-.29,8.37C153.85,19.06,156.73,20.82,158.92,21.19Z"/><path class="cls-1" d="M78.48,39.15c.59-.8,1.16-1.55,1.72-2.22a.75.75,0,0,0,.25-.76h0c-.23-.74-1.61-1.3-3.38-1.44C72.77,22.11,62.75,5.07,49.38,8.53c-2.93.79-5.61.6-9,2.06-15,6.52-12.06,30.28-5.79,40.5,3.09,5.39,6.86,7.82,10.52,8.75a55.12,55.12,0,0,0,2.47,5.26c.9,1.68,1.9,3.42,3,5.13h9.56a68.09,68.09,0,0,1-4.86-8.57c-.33-.69-.65-1.39-1-2.09A31.18,31.18,0,0,0,58.86,58a35.14,35.14,0,0,0,13-9.9C74.67,60.19,76,75.87,70,78.36c-.94.4-2.47-.12-4.34-1.65H55.55C58.55,79.78,62,81.93,66,82c4.62.09,6.55.33,8.66-.52,11-4.22,7.42-28.54,3.94-41.75C78.59,39.51,78.53,39.33,78.48,39.15ZM54.17,54.91c-.51.23-1,.42-1.43.58-1.31-3.93-1.92-7.65-1.2-10.17a2.08,2.08,0,0,0,.26-1.41c-.5-1.17-4.24-1.11-6.62.05a4.05,4.05,0,0,0-1.88,1.95c-5.07-13.54-2.65-30.81,3.17-33.08,7.59-3,18.54,16,22.76,27.06C65.48,45.55,60.17,52.12,54.17,54.91Z"/><path class="cls-1" d="M206.81,65.89c-.44-.24-.83-.3-1.11,0-4.95,5.94-12.89,11.52-14.45,10.81a.55.55,0,0,1-.26-.26,13.07,13.07,0,0,0-4.08-.63c-.22,0-.44,0-.65,0,1.55,3.78,2.31,5.14,3.85,5.88,4.25,2,15.61-8,18.4-12.26C209.07,68.5,208.72,66.93,206.81,65.89Z"/><path class="cls-1" d="M199.61,47c-4.05,4.54-9.34,12.15-12,18.61a31.74,31.74,0,0,0-1.33,3.91,21.15,21.15,0,0,1,6.76.89c3.26-6.36,8.75-14.3,14.07-18.7a1.55,1.55,0,0,0,.38-.51c.43-.86.49-1.81-.67-3.46-1.62-2.28-.77-4.41-4.16-5.94a37.7,37.7,0,0,0-6.7-1.5,28.5,28.5,0,0,0,1.47-5.38c.08-1.89-2.14-4.21-4.15-4.94-1.82-.66-4.39,2.3-4.87,3.73-1.22,3.58-.32,6.76.4,9a82.49,82.49,0,0,1-7.12,14.55c-5.9,8.2-12.27,11.42-14.59,10.78s-2.09-5-1.8-8c7.4,1.61,14-9,16.23-15.62,1.5-4.55,1.52-9.79-4.36-11.67a2.85,2.85,0,0,1-1.23-.72,7.16,7.16,0,0,0-3.12-1.87c-5.31-1.32-10.58,10.4-12.57,20.41-.2,1-.37,2-.51,2.9-2.49,4.48-5.47,8.71-6.26,8.58-.58-.1-.33-2.91.49-7.66,1.21-7.13,3.57-17.41,4.7-19.79a1.3,1.3,0,0,0,.14-.39c.25-1.31-2.51-4.95-5.47-5.37-1.44-.21-2.58.1-2.71,1.07-.08.56-.15,2-.3,3.19-.12.85-2.85,19.06-3.16,21.54-.51,4,.7,6.2,1.58,8.28,1.56,3.71,3.07,4.33,3.79,4.46h0c2.06.36,4.59-1.89,6.89-4.85,0,.16,0,.33.07.48a10.07,10.07,0,0,0,3,6.24c1.73,1.57,2.47,2.67,4.51,3.25,5.37,1.55,12.14-4.57,16.39-9.87l.07,0A78.36,78.36,0,0,0,193.84,45,40.44,40.44,0,0,1,199.61,47ZM175.73,35.7c.9.19.36,4-.46,6.72-1.79,6.36-5.76,12.65-9.61,15.31C168.53,46.27,174,35.21,175.73,35.7Z"/></g><g id="line"><rect class="cls-2" x="28.58" y="106.94" width="9.64" height="0.41"/><rect class="cls-2" x="212.21" y="106.94" width="9.64" height="0.41"/></g><g id="last-name"><polygon class="cls-2" points="1.56 75.11 8.14 75.11 8.14 91.48 1.56 91.48 1.56 94.77 17.96 94.77 17.96 91.48 11.39 91.48 11.39 84.94 27.79 84.94 27.79 81.66 11.39 81.66 11.39 75.11 31.08 75.11 31.08 78.37 34.33 78.37 34.33 71.83 1.56 71.83 1.56 75.11"/><polygon class="cls-2" points="87.1 75.11 93.67 75.11 93.67 91.48 87.1 91.48 87.1 94.77 119.87 94.77 119.87 88.23 116.61 88.23 116.61 91.48 96.93 91.48 96.93 84.94 113.33 84.94 113.33 81.66 96.93 81.66 96.93 75.11 116.61 75.11 116.61 78.37 119.87 78.37 119.87 71.83 87.1 71.83 87.1 75.11"/><path class="cls-2" d="M159.44,75.19a13.43,13.43,0,0,0-4.14-2.45,14.11,14.11,0,0,0-5.1-.91H129.41v3.28H136V91.48h-6.58v3.29H150.2a14.11,14.11,0,0,0,5.1-.91,13.43,13.43,0,0,0,4.14-2.45,11.83,11.83,0,0,0,2.81-3.64,10,10,0,0,0,1-4.45,10.12,10.12,0,0,0-1-4.48A11.75,11.75,0,0,0,159.44,75.19Zm-.37,11.3a8.34,8.34,0,0,1-2.11,2.6,10.47,10.47,0,0,1-3.13,1.75,11.18,11.18,0,0,1-3.82.64H139.24V75.11H150a11.19,11.19,0,0,1,3.82.65A10.26,10.26,0,0,1,157,77.51a8.27,8.27,0,0,1,2.11,2.61,7,7,0,0,1,.77,3.2A6.84,6.84,0,0,1,159.07,86.49Z"/><polygon class="cls-2" points="232.48 71.83 232.48 75.11 239.05 75.11 239.05 90.17 220.71 71.83 209.54 71.83 209.54 75.11 216.11 75.11 216.11 91.48 209.54 91.48 209.54 94.77 225.94 94.77 225.94 91.48 219.36 91.48 219.36 75.11 239.02 94.77 242.3 94.77 242.3 75.11 248.88 75.11 248.88 71.83 232.48 71.83"/><path class="cls-2" d="M71.89,91.08A6,6,0,0,1,70,90l-1.78-1.78a9.73,9.73,0,0,0,3.14-.9,9.27,9.27,0,0,0,2.54-1.78A8,8,0,0,0,75.6,83a2.31,2.31,0,0,0,.1-.28c-.15.07-.28.15-.44.21a11.37,11.37,0,0,1-4.48.72,5.75,5.75,0,0,1-1.57.9,6.06,6.06,0,0,1-2.2.39H53.71V75.11H67a6.06,6.06,0,0,1,2.2.4,5.79,5.79,0,0,1,1.21.64,7.32,7.32,0,0,0,1.52-3.08,9.87,9.87,0,0,0-1.22-.6,9.57,9.57,0,0,0-3.52-.64H43.88v3.28h6.57V91.48H43.88v3.29h16.4V91.48H53.71V88.23h9.95l4,4a8.86,8.86,0,0,0,2.88,1.81,9.86,9.86,0,0,0,3.53.69h3.48V91.48H74.21A6.46,6.46,0,0,1,71.89,91.08Z"/><path class="cls-2" d="M198.42,80.87a6.85,6.85,0,0,1,.44,2.41,7.22,7.22,0,0,1-.9,3.48,9.63,9.63,0,0,1-2.52,2.91,13.24,13.24,0,0,1-3.81,2,15.2,15.2,0,0,1-9.43,0,13.12,13.12,0,0,1-3.79-2,9.63,9.63,0,0,1-2.52-2.91,7.23,7.23,0,0,1-.91-3.48,7.06,7.06,0,0,1,.91-3.45,9.6,9.6,0,0,1,2.52-2.9,13.12,13.12,0,0,1,3.79-2,14.36,14.36,0,0,1,4.71-.75,14.56,14.56,0,0,1,4.49.68l.09,0h0l.13,0,.09,0L192,75a16.78,16.78,0,0,0,3.49-2A17.77,17.77,0,0,0,193,72a19.84,19.84,0,0,0-12.13,0,16.19,16.19,0,0,0-4.94,2.63,12.89,12.89,0,0,0-3.34,3.9,9.74,9.74,0,0,0-1.22,4.75,9.88,9.88,0,0,0,1.22,4.78A12.92,12.92,0,0,0,175.91,92a16.41,16.41,0,0,0,4.94,2.63,19.84,19.84,0,0,0,12.13,0,16.4,16.4,0,0,0,5-2.63,12.75,12.75,0,0,0,3.33-3.91,9.77,9.77,0,0,0,1.22-4.78,9.67,9.67,0,0,0-1.1-4.51C200.42,79.52,199.42,80.24,198.42,80.87Z"/></g><g id="star"><path class="cls-1" d="M241.52,50.89c-.11-.21,1.57-.25,2.38-.5-.49-1-17.41-.64-25.5-.19,0,0,.09.16,1.9.33,21.54,1.53,22.41.79,22.38.52S241.63,51.1,241.52,50.89Z"/><path class="cls-1" d="M231.58,41.18c-1.33-1.46-11.86,3.59-14.55,5.27C217,46.45,232.31,41.88,231.58,41.18Z"/><path class="cls-1" d="M232.65,27.68c-.09-.3-.49.38-.8.46a4.43,4.43,0,0,0-3.65,1.28c-1,.93-12.09,11.4-12.5,12s-1,1.36-.94,1.49C218.76,39.58,232.73,28,232.65,27.68Z"/><path class="cls-1" d="M217.77,25.87c-1-.61-6.48,12-5.94,12C212.22,37.83,219.37,27.11,217.77,25.87Z"/><path class="cls-1" d="M209.38,12.62c-.31,1.16-2,19.49-1.88,20.7s-.06,4.09.06,4.52c.94-5.68,3.53-22.15,3.12-23.29S209.68,11.47,209.38,12.62Z"/></g></svg>