<svg id="twitter" xmlns="http://www.w3.org/2000/svg" viewBox="0 0 30 30"><defs><style>.cls-1{fill:#fff;fill-rule:evenodd;}</style></defs><title>twitter</title><path class="cls-1" d="M26.3,6.3A6.4,6.4,0,0,0,29,2.8a11.8,11.8,0,0,1-3.9,1.6,5.9,5.9,0,0,0-4.4-2,6.3,6.3,0,0,0-6.1,6.4,6.7,6.7,0,0,0,.2,1.5A17,17,0,0,1,2.2,3.5a6.7,6.7,0,0,0-.8,3.2A6.5,6.5,0,0,0,4.1,12a5.9,5.9,0,0,1-2.8-.8h0a6.3,6.3,0,0,0,4.9,6.3l-1.6.2H3.5a6.1,6.1,0,0,0,5.7,4.5,11.8,11.8,0,0,1-7.6,2.7H.2a16.6,16.6,0,0,0,9.3,2.9c11.2,0,17.3-9.8,17.3-18.3,0-.3,0-.6,0-.8a12.7,12.7,0,0,0,3-3.3,11.7,11.7,0,0,1-3.5,1Zm0,0"/></svg>